<svg id="Layer_1" data-name="Layer 1" xmlns="http://www.w3.org/2000/svg" xmlns:xlink="http://www.w3.org/1999/xlink" viewBox="0 0 496.29 505.64"><defs><linearGradient id="linear-gradient" x1="366.88" y1="658.64" x2="450.1" y2="801.82" gradientUnits="userSpaceOnUse"><stop offset="0" stop-color="#231f20"/><stop offset="0.21" stop-color="#4d4a4b"/><stop offset="0.69" stop-color="#b7b6b6"/><stop offset="1" stop-color="#fff"/></linearGradient></defs><path d="M784.43,792.59h-174a3.25,3.25,0,0,1-2.82-1.63l-54-93.46-5.9-10.24-19-33-14.09-24.33a230.4,230.4,0,0,0-9.56-200.19c-1-1.86-2.06-3.69-3.13-5.51-.33-.59-.65-1.14-1-1.73A230,230,0,0,0,331,311.91l-14.26-24.73H496.93a3.7,3.7,0,0,1,3.21,1.86l287.5,498A3.71,3.71,0,0,1,784.43,792.59Z" transform="translate(-291.86 -287.18)" fill="#fff"/><path d="M519.9,670.1l-10,17.39-13.14,22.77L450,791.19a3.25,3.25,0,0,1-2.82,1.63H298.51v-.23h4.86a251.24,251.24,0,0,0,163.72-60.38,245.61,245.61,0,0,0,23-22.18A249.09,249.09,0,0,0,519.9,670.1Z" transform="translate(-291.86 -287.18)" fill="url(#linear-gradient)"/><path d="M541.2,454.13c-1-2.84-2.06-5.61-3.16-8.38A251.18,251.18,0,0,0,492.34,372c-1.37-1.53-2.78-3-4.18-4.53a252.72,252.72,0,0,0-168.51-79.66l-2.91-.59H295.12a3.26,3.26,0,0,0-3.26,3.26V789.33a3.26,3.26,0,0,0,3.26,3.26h8.25a251.24,251.24,0,0,0,163.72-60.38,245.61,245.61,0,0,0,23-22.18A249.09,249.09,0,0,0,519.9,670.1l5.15-8.87c1.27-2.32,2.48-4.63,3.69-7a242.59,242.59,0,0,0,12.39-28.71,253.22,253.22,0,0,0,.07-171.41ZM525.51,598.27a227.5,227.5,0,0,1-10.86,31.65A230.39,230.39,0,0,1,314.92,769.23V310.54c5.35.29,10.73.68,16.08,1.37a228.35,228.35,0,0,1,96.52,34.71,231.78,231.78,0,0,1,48.57,41.75c1.37,1.56,2.74,3.13,4.05,4.73A225.3,225.3,0,0,1,501,422.49c1.43,2.38,2.8,4.79,4.14,7.24a229.07,229.07,0,0,1,20.42,51.51c1.27,4.89,2.41,9.81,3.36,14.81a231.32,231.32,0,0,1-.07,87.81C527.86,588.72,526.75,593.51,525.51,598.27Z" transform="translate(-291.86 -287.18)" fill="#fff"/></svg>