<svg id="Layer_1" data-name="Layer 1" xmlns="http://www.w3.org/2000/svg" xmlns:xlink="http://www.w3.org/1999/xlink" viewBox="0 0 1225.37 359.92"><defs><linearGradient id="linear-gradient" x1="239.95" y1="686.34" x2="297.87" y2="785.98" gradientUnits="userSpaceOnUse"><stop offset="0" stop-color="#231f20"/><stop offset="0.21" stop-color="#4d4a4b"/><stop offset="0.69" stop-color="#b7b6b6"/><stop offset="1" stop-color="#fff"/></linearGradient></defs><g opacity="0.25"><path d="M530.13,779.8H409.06a2.24,2.24,0,0,1-2-1.16l-37.56-66.53-4.1-7.29-13.26-23.49L342.37,664a167.34,167.34,0,0,0-6.65-142.49c-.7-1.33-1.43-2.63-2.18-3.93-.23-.42-.45-.81-.7-1.23a162.31,162.31,0,0,0-51.11-54,156.62,156.62,0,0,0-67.17-24.7L204.64,420H330a2.59,2.59,0,0,1,2.24,1.32L532.37,775.84A2.64,2.64,0,0,1,530.13,779.8Z" transform="translate(-187.32 -420.04)" fill="#fff"/><path d="M346,692.61l-7,12.38-9.15,16.2L297.39,778.8a2.24,2.24,0,0,1-2,1.16H192v-.16h3.38A175.76,175.76,0,0,0,325.28,721,177.19,177.19,0,0,0,346,692.61Z" transform="translate(-187.32 -420.04)" fill="url(#linear-gradient)"/><path d="M360.85,538.88c-.68-2-1.43-4-2.2-6a179.22,179.22,0,0,0-31.81-52.52c-.95-1.1-1.93-2.16-2.9-3.23a175.41,175.41,0,0,0-33.53-28.58,171.76,171.76,0,0,0-83.75-28.12l-2-.42h-15a2.29,2.29,0,0,0-2.27,2.32V777.48a2.29,2.29,0,0,0,2.27,2.32h5.74A175.76,175.76,0,0,0,325.28,721,177.19,177.19,0,0,0,346,692.61l3.58-6.32c.89-1.64,1.73-3.29,2.57-5a175.74,175.74,0,0,0,8.62-20.44,184.21,184.21,0,0,0,.05-122Zm-10.92,102.6a164.23,164.23,0,0,1-48.81,80.85,157.05,157.05,0,0,1-97.75,40.84V436.66c3.72.21,7.47.49,11.19,1a156.62,156.62,0,0,1,67.17,24.7,163,163,0,0,1,33.81,29.72c.95,1.12,1.9,2.23,2.81,3.37a160,160,0,0,1,14.49,20.92q1.49,2.55,2.88,5.16a165.25,165.25,0,0,1,14.21,36.66c.89,3.48,1.68,7,2.34,10.54a167,167,0,0,1,2.9,31.19,165.06,165.06,0,0,1-2.95,31.32C351.56,634.68,350.79,638.09,349.93,641.48Z" transform="translate(-187.32 -420.04)" fill="#fff"/></g><path d="M860.44,775.84,660.35,421.36a2.56,2.56,0,0,0-2.23-1.32H532.71l9.93,17.6h0L670.46,664v0l9.81,17.33,13.25,23.49,4.11,7.29,37.55,66.53a2.27,2.27,0,0,0,2,1.16H858.21A2.64,2.64,0,0,0,860.44,775.84Z" transform="translate(-187.32 -420.04)" fill="#fff" opacity="0.25"/><path d="M1188.52,775.84,988.43,421.36a2.56,2.56,0,0,0-2.24-1.32H860.79l9.92,17.6h0L998.54,664v0l9.8,17.33,13.26,23.49,4.11,7.29,37.55,66.53a2.27,2.27,0,0,0,2,1.16h121.06A2.64,2.64,0,0,0,1188.52,775.84Z" transform="translate(-187.32 -420.04)" fill="#fff" opacity="0.25"/><path d="M1412.68,591.75v188h-19.39a2.23,2.23,0,0,1-2-1.15l-37.55-66.52-4.11-7.29-13.27-23.5L1326.6,664h0L1198.8,437.64h0l-9.91-17.6h125.41a2.55,2.55,0,0,1,2.22,1.32Z" transform="translate(-187.32 -420.04)" fill="#fff" opacity="0.25"/></svg>