<svg id="Layer_1" data-name="Layer 1" xmlns="http://www.w3.org/2000/svg" xmlns:xlink="http://www.w3.org/1999/xlink" viewBox="0 0 558.44 609.8"><defs><linearGradient id="linear-gradient" x1="699.6" y1="592.57" x2="942.08" y2="560.17" gradientUnits="userSpaceOnUse"><stop offset="0" stop-color="#248dff"/><stop offset="1" stop-color="#6ec8ff"/></linearGradient><linearGradient id="linear-gradient-2" x1="767.88" y1="482.28" x2="791.9" y2="577.21" gradientUnits="userSpaceOnUse"><stop offset="0" stop-color="#002f3a"/><stop offset="1" stop-color="#00b408"/></linearGradient><linearGradient id="linear-gradient-3" x1="839.71" y1="477.43" x2="892.9" y2="481.81" gradientUnits="userSpaceOnUse"><stop offset="0" stop-color="#1141a3"/><stop offset="1" stop-color="#2379fa"/></linearGradient><linearGradient id="linear-gradient-4" x1="864.67" y1="530.67" x2="897.6" y2="439.74" gradientUnits="userSpaceOnUse"><stop offset="0" stop-color="#1141a3"/><stop offset="1" stop-color="#237afc"/></linearGradient><linearGradient id="linear-gradient-5" x1="787.67" y1="519.86" x2="860.16" y2="579.04" xlink:href="#linear-gradient-3"/><linearGradient id="linear-gradient-6" x1="769.87" y1="568.88" x2="950.32" y2="504.82" xlink:href="#linear-gradient-4"/><linearGradient id="linear-gradient-7" x1="707.37" y1="611.09" x2="921.54" y2="571.63" gradientTransform="translate(33.37 -46.74) rotate(3.37)" gradientUnits="userSpaceOnUse"><stop offset="0" stop-color="#1d56d8"/><stop offset="1" stop-color="#2071e0"/></linearGradient><linearGradient id="linear-gradient-8" x1="711.83" y1="617.37" x2="920.95" y2="586.28" gradientTransform="translate(33.37 -46.74) rotate(3.37)" gradientUnits="userSpaceOnUse"><stop offset="0" stop-color="#1141a3"/><stop offset="1" stop-color="#2076e0"/></linearGradient></defs><path d="M620.44,822.1a2.14,2.14,0,0,1-.8-1.12,1.11,1.11,0,0,1,.24-1l3.67-4.4a1.14,1.14,0,0,0,.25-1,2.07,2.07,0,0,0-.8-1.12,2.1,2.1,0,0,0-1.26-.59,1.14,1.14,0,0,0-.92.44,18,18,0,0,0-2,2.9,15.58,15.58,0,0,0-1.17,2.78,19.71,19.71,0,0,0-.65,2.71c-.15.9-.29,1.8-.43,2.69s-.29,1.81-.46,2.73a18.69,18.69,0,0,1-.74,2.82,18.42,18.42,0,0,1-1.34,3,20.67,20.67,0,0,1-2.22,3.16,2.83,2.83,0,0,1-1.29.92,3.5,3.5,0,0,1-1.66.12,6.1,6.1,0,0,1-1.9-.62,10.18,10.18,0,0,1-2-1.34,8,8,0,0,1-2.69-3.52,3,3,0,0,1,.53-3.06l4.19-5a.39.39,0,0,1,.32-.15.74.74,0,0,1,.44.2l1.31,1.09a2.16,2.16,0,0,1,.8,1.12,1.14,1.14,0,0,1-.24,1l-3.67,4.41a1.11,1.11,0,0,0-.25,1,2.69,2.69,0,0,0,2,1.71,1.18,1.18,0,0,0,.93-.44,18.39,18.39,0,0,0,2.62-4.05,19.5,19.5,0,0,0,1.3-3.78,33.91,33.91,0,0,0,.63-3.62,36.36,36.36,0,0,1,.62-3.61,19.38,19.38,0,0,1,1.26-3.74,17.51,17.51,0,0,1,2.57-4,2.89,2.89,0,0,1,1.3-.91,3.6,3.6,0,0,1,1.65-.13,6.29,6.29,0,0,1,1.9.62,10.15,10.15,0,0,1,2,1.35,8,8,0,0,1,2.69,3.52,3,3,0,0,1-.54,3.05l-4.18,5a.42.42,0,0,1-.32.14.65.65,0,0,1-.44-.19Z" transform="translate(-520.78 -295.1)" fill="#58595b"/><path d="M666.84,841a1,1,0,0,1,.34.33.35.35,0,0,1,0,.37l-.37.63a1.06,1.06,0,0,1-.81.56,1.68,1.68,0,0,1-1.15-.27l-1.65-.94-13.37,23.19a.67.67,0,0,1-.55.32,1.39,1.39,0,0,1-.79-.2l-1.64-1a1.3,1.3,0,0,1-.56-.58.67.67,0,0,1,0-.63l13.38-23.2-1.64-1a1.71,1.71,0,0,1-.81-.86,1.06,1.06,0,0,1,.08-1l.36-.63A.35.35,0,0,1,658,836a.82.82,0,0,1,.45.13Z" transform="translate(-520.78 -295.1)" fill="#58595b"/><path d="M705.09,858.4a9.8,9.8,0,0,1,2.15,1.07,6.37,6.37,0,0,1,1.47,1.32,3.47,3.47,0,0,1,.71,1.49,2.93,2.93,0,0,1-.14,1.57l-3.48,9.52a2.19,2.19,0,0,1-1,1.26,3.73,3.73,0,0,1-1.72.39,4,4,0,0,1,1.07,1.41,2.21,2.21,0,0,1,0,1.6l-3.68,10.06a.41.41,0,0,1-.25.25.69.69,0,0,1-.48,0l-1.6-.58a2.16,2.16,0,0,1-1.13-.79,1.1,1.1,0,0,1-.1-1l3.39-9.3a1.15,1.15,0,0,0-.06-1,2.07,2.07,0,0,0-1.16-.8l-1.66-.61-3.84,10.51a1.13,1.13,0,0,1-.73.7,2.06,2.06,0,0,1-1.37-.13l-1.61-.58a.74.74,0,0,1-.38-.28.42.42,0,0,1,0-.36l10-27.28a.39.39,0,0,1,.26-.24.65.65,0,0,1,.47,0ZM702.55,860,698.19,872l1.66.61a2.06,2.06,0,0,0,1.39.12A1.17,1.17,0,0,0,702,872l3.48-9.52a1.19,1.19,0,0,0-.1-1,2.11,2.11,0,0,0-1.13-.79Z" transform="translate(-520.78 -295.1)" fill="#58595b"/><path d="M752.43,871a.61.61,0,0,1,.4.2.52.52,0,0,1,.13.32l-1.45,29.18a.39.39,0,0,1-.23.33,1,1,0,0,1-.65.06l-1.47-.27a2.37,2.37,0,0,1-1.2-.52,1.09,1.09,0,0,1-.42-.85l.38-4.08-3-.54-1,4a1.06,1.06,0,0,1-.69.64,2.32,2.32,0,0,1-1.3.09l-1.48-.26a1,1,0,0,1-.58-.28.42.42,0,0,1-.11-.39l8.67-27.89a.52.52,0,0,1,.24-.27.68.68,0,0,1,.44,0Zm-6.95,21.51,2.65.46,1.47-16Z" transform="translate(-520.78 -295.1)" fill="#58595b"/><path d="M803.41,875a.74.74,0,0,1,.46.14.37.37,0,0,1,.14.32l-.47,29a.39.39,0,0,1-.15.32.65.65,0,0,1-.46.12l-1.72,0a2.25,2.25,0,0,1-1.21-.28,1.1,1.1,0,0,1-.51-.73,7.73,7.73,0,0,0-.21-1.2c-.14-.63-.32-1.39-.54-2.29s-.47-1.87-.74-3-.53-2.15-.8-3.23-.52-2.12-.76-3.1-.43-1.84-.58-2.56l.06,15a1,1,0,0,1-.44.9,2.18,2.18,0,0,1-1.35.33l-1.71,0a.72.72,0,0,1-.46-.13.43.43,0,0,1-.15-.33l.47-29a.45.45,0,0,1,.16-.32.74.74,0,0,1,.46-.12l1.71,0a2.39,2.39,0,0,1,1.24.31,1,1,0,0,1,.52.77c0,.23.12.7.25,1.4s.3,1.56.51,2.54.43,2,.68,3.19.5,2.29.76,3.4.5,2.14.74,3.1.45,1.75.65,2.36L799.91,876a.92.92,0,0,1,.5-.79,2.47,2.47,0,0,1,1.29-.27Z" transform="translate(-520.78 -295.1)" fill="#58595b"/><path d="M845.31,870.93a8,8,0,0,1,4.38.25,3,3,0,0,1,2,2.38l3.83,22.26a3.08,3.08,0,0,1-1.07,2.92,8.08,8.08,0,0,1-4.09,1.7l-5.18.89a.8.8,0,0,1-.48-.05.42.42,0,0,1-.2-.29l-4.92-28.63a.4.4,0,0,1,.1-.34.7.7,0,0,1,.43-.2Zm2.37,3.32a1.16,1.16,0,0,0-.56-.83,2,2,0,0,0-1.4-.13l-1.75.3,4.26,24.79,1.74-.3a2.1,2.1,0,0,0,1.27-.59,1.16,1.16,0,0,0,.26-1Z" transform="translate(-520.78 -295.1)" fill="#58595b"/><path d="M891.28,858.8a10.06,10.06,0,0,1,2.33-.56,5.85,5.85,0,0,1,2,.07,3.53,3.53,0,0,1,1.5.7,2.85,2.85,0,0,1,.9,1.29l2.89,8a2.24,2.24,0,0,1,0,1.63,3.73,3.73,0,0,1-1.07,1.41,3.86,3.86,0,0,1,1.72.4,2.13,2.13,0,0,1,1,1.23l3.08,8.55a3,3,0,0,1-.58,3.08,8,8,0,0,1-3.69,2.37l-5,1.78a.72.72,0,0,1-.47,0,.39.39,0,0,1-.25-.25l-9.84-27.33a.39.39,0,0,1,0-.35.71.71,0,0,1,.39-.28Zm2.86,2.88a1.16,1.16,0,0,0-.72-.73,2.1,2.1,0,0,0-1.38.13l-1.67.6,3.76,10.44,1.67-.6a2.07,2.07,0,0,0,1.14-.8,1.13,1.13,0,0,0,.09-1Zm4.57,12.7a1.15,1.15,0,0,0-.71-.72,2,2,0,0,0-1.36.1l-1.7.61,3.95,11,1.67-.6a2.11,2.11,0,0,0,1.14-.79,1.14,1.14,0,0,0,.09-1Z" transform="translate(-520.78 -295.1)" fill="#58595b"/><path d="M935.58,838.17a.6.6,0,0,1,.43-.1.5.5,0,0,1,.31.17l17.57,23.33a.42.42,0,0,1,0,.4,1,1,0,0,1-.46.46l-1.3.74a2.26,2.26,0,0,1-1.26.36,1,1,0,0,1-.86-.38l-2.32-3.37-2.68,1.53,1.73,3.71a1,1,0,0,1-.11.94,2.31,2.31,0,0,1-.95.9l-1.3.74a.89.89,0,0,1-.62.16.39.39,0,0,1-.33-.23l-11.21-27a.53.53,0,0,1,0-.35.69.69,0,0,1,.31-.33Zm8.44,21,2.33-1.34-9.11-13.22Z" transform="translate(-520.78 -295.1)" fill="#58595b"/><path d="M973,812a9.37,9.37,0,0,1,2-1.31,6.68,6.68,0,0,1,1.89-.61,3.43,3.43,0,0,1,1.64.14,3,3,0,0,1,1.29.9l6.47,7.8a2.25,2.25,0,0,1,.57,1.53,3.74,3.74,0,0,1-.52,1.69,3.82,3.82,0,0,1,1.75-.22,2.19,2.19,0,0,1,1.37.82l6.84,8.25a.36.36,0,0,1,.09.34.66.66,0,0,1-.27.39l-1.32,1.1a2.14,2.14,0,0,1-1.24.57,1.13,1.13,0,0,1-.93-.41l-6.32-7.62a1.18,1.18,0,0,0-.91-.46,2.13,2.13,0,0,0-1.27.6l-1.37,1.13,7.15,8.61a1.12,1.12,0,0,1,.24,1,2.07,2.07,0,0,1-.8,1.12l-1.32,1.1a.68.68,0,0,1-.43.19.39.39,0,0,1-.32-.15l-18.55-22.35a.36.36,0,0,1-.09-.34.66.66,0,0,1,.27-.39Zm.12,3,8.11,9.77,1.37-1.13a2.07,2.07,0,0,0,.8-1.14,1.15,1.15,0,0,0-.26-1l-6.47-7.8a1.11,1.11,0,0,0-.93-.42,2.1,2.1,0,0,0-1.26.56Z" transform="translate(-520.78 -295.1)" fill="#58595b"/><path d="M648.76,360.74c8.18.07,17.9,2.64,23.52,12.68,7.17,12.8,6.16,30.17-7.52,37.83-8.56,4.8-15.78,2.76-19.56-1.46-.89,5.8-3.16,10.3-7.49,12.73-7.48,4.19-14.45,1-18.8-6.8a16.53,16.53,0,0,0,5.93-6c9.94-17.33-1.92-57.23-3-71.88-.52-5.53,6.16-8.62,7.7-5.86-1.15,2.33,3.37,14.79,7.86,29.73,14.37-14.51,4.4-42.93-14.59-32.29-10.44,5.84-8,21.68-3.53,32.48-6.41,4.5-16.21,2.23-18-8.9-2.7-16.84,10.56-29.18,26-33.84a24.18,24.18,0,0,1,29.23,15.95C659.91,345.32,654.89,354.59,648.76,360.74Zm-7.12,5.53-.49.28c-.69.38-1.43.67-2,1,3.31,11.46,6.27,23.9,6.5,34.24,13.11-2.68,17.8-15.78,11.73-26.61C653.67,368.59,647,366.63,641.64,366.27Z" transform="translate(-520.78 -295.1)" fill="#58595b"/><path d="M719,354.72c.33,6.7-.94,19.36-8.38,22-6.7,2.37-10.72-.87-13-6-1.35,6-4.2,12.14-8.88,13.79-12,4.25-16.64-8.83-17-20.2-.34-9.1-.63-19.05-.73-24.4l14.46-5.11c.34,10.77.5,17.65.85,25.07.48,8.44,2,12.45,5.21,11.32s3.41-10.31,3.3-14.34c0,0-.64-19.75-.85-25.06L707.45,327c.34,10.77.39,17.69.85,25.07.47,8.44,2.2,13,5.35,11.74,2.3-.93,3.21-5.8,3.05-9Z" transform="translate(-520.78 -295.1)" fill="#58595b"/><path d="M750.31,326.12c1.05,5.31-2,10.17-7,11.15-2.21.43-4.48-.62-4.7-1.72,2.75-2.38,4.72-13.46-.82-12.37-9.19,1.8-11.76,26.21-5.36,32.43,7.8,7.55,20.24-.52,21.51-7.55a12.85,12.85,0,0,0,1.75.11s-2,19.36-18.89,22.68c-28.23,5.54-28-47.27.1-52.79C743.31,316.8,749.1,319.92,750.31,326.12Z" transform="translate(-520.78 -295.1)" fill="#58595b"/><path d="M803.21,346.51c-1.62,6.52-8.32,19.94-16.78,20.33-14.08.67-10.42-15-9.07-20,2.17-8.91,4.16-17,4.53-18.74.66-2.85-.55-4.49-1.67-4.43-2.6.12-7.25,6.78-9,12.84l-7.87,29.4-14.31.68,18.9-70.81,14.31-.67-7.85,29.73c2.92-5.1,8-10.65,13.49-10.91,8.79-.42,11,6,9.23,13.79,0,.12-3.92,15-4.75,19s-.34,7,3.37,6.84c2-.1,3.93-2.9,5.29-7.7Z" transform="translate(-520.78 -295.1)" fill="#58595b"/><path d="M817.22,342c-2.93,7.83-3.18,12.78.21,12.91,2.48.07,5.27-4.15,6.39-7.12l2.19.95c-2.48,6.27-8.7,17.36-16.46,16.81-12.83-.92-10.61-14.67-6.46-25.23,2.19-5.38,6.59-16.27,10-25l-6.07-.43,1.46-3.06,5.74.41c1.51-3.74,2.74-6.82,3.3-8.25L833.49,301c-1.24,3.08-3,7.48-5,12.32l5.17.36-1.35,3.07-5.06-.36C823.19,326.5,818.89,337.61,817.22,342Z" transform="translate(-520.78 -295.1)" fill="#58595b"/><path d="M839.74,369.77c-4.88-.94-6.5-4.47-6.75-8.53l-3.36,6.13-14.07-2.71,34.07-62.38L863.7,305l-11,20.28c2.82-2.1,6.7-3.76,10.24-3.08C884.07,326.26,861.23,373.91,839.74,369.77Zm16.71-42c-3.77-.72-8.63,6.61-10.79,10.1l-5.72,10.62s-5.46,9.86-.26,10.87C846.55,360.63,862.87,329,856.45,327.72Z" transform="translate(-520.78 -295.1)" fill="#58595b"/><path d="M913.32,372.83c-4,5.4-13,14.4-20.39,11.73-6.69-2.4-7.75-7.46-6.27-12.92-4.83,3.78-10.93,6.75-15.6,5.07-12-4.31-7.31-17.37-.35-26.38,5.48-7.26,11.55-15.15,14.86-19.35L900,336.16c-6.54,8.56-10.77,14-15.19,20-5,6.84-6.32,10.91-3.13,12.05s9.16-5.81,11.62-9c0,0,12-15.71,15.2-20L922,344.06c-6.55,8.55-10.88,13.95-15.2,19.95-5,6.84-6.5,11.44-3.28,12.48,2.37.73,6.16-2.46,8-5Z" transform="translate(-520.78 -295.1)" fill="#58595b"/><path d="M953.26,394.84l1.59,1.79c-4.81,4.67-15.19,11.93-22,8.13s-5.61-9.85-2.64-15.17c-6.19,3.91-12.92,6.48-17.85,3.73-20.28-11.33,18.3-47.79,33.56-39.27,6.5,3.63,7.51,8.07,6.79,11.67,7.82-7.52,16-15.23,18.22-17.35l12.41,6.93c-7.87,7.37-28.27,26.34-33.61,31.5-6,5.83-8.24,10.12-5.23,11.68C946.83,399.64,951,397.05,953.26,394.84Zm-9.94-20.15c.85-.82,1.75-1.74,2.75-2.61,0,0,7-7.7,2.88-10-4.83-2.7-30.53,21.58-25.31,24.5C928.27,389.15,943.32,374.69,943.32,374.69Z" transform="translate(-520.78 -295.1)" fill="#58595b"/><path d="M995.55,400.83c-6.1,8-19.39,10.3-27.71,2.8-2.28-2-2.14-4.63-1.05-6.06,9.94,5.76,26.1-3.47,21.53-7C981,385,963,397.76,962.94,406.69c-.06,12.89,15.84,13.83,19.68,11.23.67.79,1.07,1.38,1.07,1.38s-15.57,11.25-29.37.69c-22.75-17.41,16.41-51.51,39.16-34.1C997.52,389,999.32,395.9,995.55,400.83Z" transform="translate(-520.78 -295.1)" fill="#58595b"/><path d="M922.84,504.25s-184.71,103.88-232.58,76.3c0,0,49.92,76.81,121.73,54.08s83.88-55.2,83.88-55.2Z" transform="translate(-520.78 -295.1)" fill="url(#linear-gradient)"/><path d="M668.4,541.43a78.45,78.45,0,0,1,65.19-13.54c8.54,2.1,16.69,5.64,25.27,7.58,22.6,5.1,46-1.26,68.66-5.92s47.69-7.3,67.82,4.17c0,0-143.25,83.54-203,51.85Z" transform="translate(-520.78 -295.1)" fill="url(#linear-gradient-2)"/><path d="M907.8,460c-1.24,6.41-4.46,12.24-7.81,17.85-.4.68-.81,1.34-1.22,2-3.32,5.44-6.84,10.76-10.62,15.9a162.77,162.77,0,0,1-12.1,14.63c-.47.49-1.15,1.51-1.46.82a154.85,154.85,0,0,0,18.93-41.69c1-3.52,1.89-7.18,1.32-10.79s-2.92-7.17-6.46-8.1a9.4,9.4,0,0,0-8.14,2.22,15.65,15.65,0,0,0-3.23,3.79,22.69,22.69,0,0,1-.38-7.95,15.42,15.42,0,0,1,11.23-12.13,16.28,16.28,0,0,1,15.86,5C908,446.44,909.05,453.59,907.8,460Z" transform="translate(-520.78 -295.1)" fill="#248dff"/><ellipse cx="745.13" cy="563.23" rx="9.92" ry="44.14" transform="translate(-397.11 965.43) rotate(-85.38)" fill="#037500" opacity="0.5"/><path d="M797.7,491.41a77.16,77.16,0,0,0-35.54-22.67c-.35-.6-.68-1.21-1-1.81a1.89,1.89,0,0,0,.55-1.67.93.93,0,0,0-.18-.46.55.55,0,0,0-.42-.23.78.78,0,0,0-.62.44,2.68,2.68,0,0,0-.39,1.43,9.72,9.72,0,0,0-1.77,1.21,100.6,100.6,0,0,0-44.1-1,13.16,13.16,0,0,0-.87,3.48,4.2,4.2,0,0,0,1,3.25,6.18,6.18,0,0,0,2.85,1.44L727.51,478a5.87,5.87,0,0,0,3.66.31,4.61,4.61,0,0,0,2.51-2.92,4.72,4.72,0,0,0,1.24,4,9.07,9.07,0,0,0,3.41,1.86c5.28,1.92,10.74,3.34,16.11,5L740.3,541l1.64.57,14.33-54.84.15.05,11,3.54c1.4.45,3,.89,4.29.24a3.91,3.91,0,0,0,1.85-2.4c0-.11.06-.21.08-.32a5.44,5.44,0,0,0,1.16,3.73,7.83,7.83,0,0,0,4,2l13.7,3.74c1.4.39,3,.74,4.21-.07a3.45,3.45,0,0,0,1.33-2.73C798.11,493.5,798.39,492.2,797.7,491.41Z" transform="translate(-520.78 -295.1)" fill="#1b1f33"/><path d="M774.14,541.93a1.46,1.46,0,0,0-.89-1l-19.82.9-21.26-21.53s-.15-1.23-1.08-1.09h0l-9.85-10h-2v1.7L701,513.51l-.86-1.14-1.94.17v2.11l6,7.31,3.7,7.61-3.94,27-2.8.4.27,2.27,2.19-.33-.15,1a2,2,0,0,0,2.41.3l.26-1.72,25.06-3.7,14.12,17.4,1.32-.71.89-1.67-1.79-2.21,20-8.86,2.38,2.44s2.13.28,2.2-2.35l-11.16-11.31,11.16-4.06,3.07-.25S774.27,542.68,774.14,541.93Zm-67.7,14.31,3.4-22.74s7.92,15.65,19,19.52Zm16.28-41.43,6.81,7-.63,4.5Zm8.16,14.63.77-5.49,17.69,18.11S741.06,545.33,730.88,529.44Zm33.36,27.87L744.38,566l-3.22-3.87,19.36-8.59,3.72,3.81ZM759,551.94h0l-19.28,8.36-5.11-6.13s10-.65,14.23-2.2a.73.73,0,0,0,.49-.78l6.59-2.4Z" transform="translate(-520.78 -295.1)" fill="#1b1f33"/><path d="M911.76,537.23a191.59,191.59,0,0,1-28.86,47.34c-1,1.31-2.14,2.55-3.21,3.75l-1.31,1.47c-1.11,1.3-2.3,2.52-3.45,3.7l-1.28,1.32c-1.27,1.36-2.62,2.64-3.92,3.88l-1,.94c-1.27,1.27-2.63,2.44-3.94,3.58l-1.19,1A139.92,139.92,0,0,1,841.4,620a112.21,112.21,0,0,1-24.77,10.42,95.2,95.2,0,0,1-26.07,3.72H790a95,95,0,0,1-26.05-3.72A111.76,111.76,0,0,1,739.14,620a139.94,139.94,0,0,1-22.24-15.72l-1.2-1c-1.3-1.13-2.65-2.3-3.91-3.55l-1.11-1.06c-1.26-1.21-2.57-2.45-3.79-3.75-.42-.45-.85-.88-1.27-1.32-1.16-1.19-2.36-2.41-3.45-3.7l-1.34-1.51c-1.07-1.19-2.18-2.43-3.17-3.69a191.9,191.9,0,0,1-28.89-47.38,182.64,182.64,0,0,1-10.82-34q.28,3.76.78,7.55a160.36,160.36,0,0,0,6.2,27.85,175.29,175.29,0,0,0,26.1,51.2c1,1.37,2,2.73,3.09,4l.77,1c1.18,1.49,3.17,3.87,4.41,5.3l.87,1c1.16,1.39,2.47,2.74,3.73,4.05l1.23,1.28c1.31,1.42,2.76,2.8,4.17,4.12l1,1a138.66,138.66,0,0,0,23.35,17.75,118.14,118.14,0,0,0,27.07,12l.23.07a32.1,32.1,0,0,1,23,30.78V778.67a15.78,15.78,0,0,1-14.54,15.77c-27.91,2.07-48.14,8.19-48.14,15.43,0,8.93,30.88,16.18,69,16.18s69-7.25,69-16.18c0-7.24-20.23-13.36-48.14-15.43a15.78,15.78,0,0,1-14.54-15.77V672.21a32.1,32.1,0,0,1,23-30.78l.23-.06a118.23,118.23,0,0,0,27.07-12,139.14,139.14,0,0,0,23.35-17.74l1.14-1.09c1.37-1.29,2.78-2.63,4.07-4l1.28-1.34c1.24-1.28,2.52-2.6,3.68-4,.42-.49.84-1,1.27-1.46,1.15-1.33,2.34-2.69,3.42-4.1.42-.55.85-1.08,1.28-1.62,1.07-1.33,2.17-2.71,3.18-4.14a175.44,175.44,0,0,0,26.08-51.17,161.55,161.55,0,0,0,6.19-27.86q.5-3.78.78-7.55A183,183,0,0,1,911.76,537.23Z" transform="translate(-520.78 -295.1)" fill="#1b1f33"/><path d="M873,817.3c0,10.74-37.09,19.44-82.83,19.44s-82.83-8.7-82.83-19.44c0-3.28,3.43-6.36,9.51-9.06-2.94,2-4.55,4.1-4.55,6.33,0,10.32,34.88,18.68,77.87,18.68s77.88-8.36,77.88-18.68c0-2.21-1.58-4.33-4.51-6.31C869.61,811,873,814,873,817.3Z" transform="translate(-520.78 -295.1)" fill="#1b1f33"/><path d="M893.52,469.52a154.85,154.85,0,0,1-18.93,41.69,1,1,0,0,1-.1-.3,6.62,6.62,0,0,1,.5-3c1-3,1.89-6,2.6-9.11a90.82,90.82,0,0,0,2.2-18.72A89.35,89.35,0,0,0,878,461.4c-.33-1.59-.71-3.18-1-4.76a15.65,15.65,0,0,1,3.23-3.79,9.4,9.4,0,0,1,8.14-2.22c3.54.93,5.89,4.5,6.46,8.1S894.53,466,893.52,469.52Z" transform="translate(-520.78 -295.1)" fill="url(#linear-gradient-3)"/><path d="M907.8,460c-1.24,6.41-4.46,12.24-7.81,17.85-.4.68-.81,1.34-1.22,2-3.32,5.44-6.84,10.76-10.62,15.9a162.77,162.77,0,0,1-12.1,14.63c-.47.49-1.15,1.51-1.46.82a154.85,154.85,0,0,0,18.93-41.69c1-3.52,1.89-7.18,1.32-10.79s-2.92-7.17-6.46-8.1a9.4,9.4,0,0,0-8.14,2.22,15.65,15.65,0,0,0-3.23,3.79,22.69,22.69,0,0,1-.38-7.95,15.42,15.42,0,0,1,11.23-12.13,16.28,16.28,0,0,1,15.86,5C908,446.44,909.05,453.59,907.8,460Z" transform="translate(-520.78 -295.1)" fill="url(#linear-gradient-4)"/><path d="M915.77,504.39c-1.41,8.09-7.21,14.67-13,20.46-46.81,46.45-113.64,71.88-179.46,68.78-2.82-.5-5.64-1.07-8.51-1.7,0,0,119.73,8.47,190.78-106C912.88,487.7,917.12,496.75,915.77,504.39Z" transform="translate(-520.78 -295.1)" fill="url(#linear-gradient-5)"/><path d="M940.53,495.47a18.65,18.65,0,0,1-3.58,11c-24.07,33.21-94.06,109-213.68,87.14,65.82,3.1,132.65-22.33,179.46-68.78,5.83-5.79,11.63-12.37,13-20.46,1.35-7.64-2.89-16.69-10.23-18.45.1-.14.19-.3.29-.44a18.77,18.77,0,0,1,34.7,10Z" transform="translate(-520.78 -295.1)" fill="url(#linear-gradient-6)"/><path d="M915.34,568.87c-119.48,82.88-204.61,24.4-206.06,23.4h0s93.86,38,180.72-28.39A17.19,17.19,0,0,1,915.34,568.87Z" transform="translate(-520.78 -295.1)" fill="url(#linear-gradient-7)"/><path d="M917.61,578.46a17.13,17.13,0,0,1-9,14.1c-36,19.41-142,67.78-199.35-.27v0c1.45,1,86.58,59.48,206.06-23.4a16.12,16.12,0,0,1,1.53,3.49A17.3,17.3,0,0,1,917.61,578.46Z" transform="translate(-520.78 -295.1)" fill="url(#linear-gradient-8)"/><path d="M525.79,631.41h4.89c-.72,2.92-1.64,6.63-2.5,10.06h3.1l-.83,3.18h-3.08c-.34,1.32-.64,2.53-.9,3.55h4.93l-.78,3.17h-9.84S523.94,638.84,525.79,631.41Zm9.55,0-.78,3.17h-4.65l.77-3.17Z" transform="translate(-520.78 -295.1)" fill="#58595b"/><path d="M536.45,643.06h4.48l-.48-.71c-2.27-3.22-2.63-4.59-1.79-7.69.66-2.75,2.45-3.67,6.86-3.67s5.73.87,5.13,3.42c0,0-.77,3-1.25,4.81h-4.8c.2.31.43.64.68,1,2.33,3.22,2.51,4.89,1.85,7.6-.77,3-2.5,4-6.92,4-3.35,0-4.91-.5-5.19-1.84h0a3.5,3.5,0,0,1,.12-1.53C535.62,646.4,536.45,643.06,536.45,643.06Zm3.52,5.35c-.12.29.18.41,1,.41s1.07-.12,1.19-.41c.41-1.72.25-2.91-1-4.94C541,644.42,540.35,646.83,540,648.41Zm5.79-14c.13-.63-2.21-.39-2.21-.29-.46,1.86-.3,3,1,5Z" transform="translate(-520.78 -295.1)" fill="#58595b"/><path d="M553.35,651.37c1.59-6.39,2.78-11,4.26-17h-4.26l.71-3h13.43l-.72,3h-4.33c-.32,1.3-4.23,16.86-4.26,17Z" transform="translate(-520.78 -295.1)" fill="#58595b"/><path d="M570.81,631.41H577c4.77,0,6.21.87,5.55,3.38,0,0-.83,3.38-3.34,13.2-.6,2.51-2.45,3.38-7.22,3.38h-6.21S569,638.84,570.81,631.41Zm2,17c1.14,0,1.56-.13,1.62-.42l3.28-13.08c.2-.63-1.61-.49-2.72-.5l-3.52,14Z" transform="translate(-520.78 -295.1)" fill="#58595b"/><path d="M1015.45,635.42c.84-3.3,2.69-4.43,7.1-4.43s5.79,1.29,4.78,5.14c-.84,3.38-2.09,4-5.85,6.47-3.37,2.2-3.8,2.57-4.41,5.81h7.69l-.77,3h-12.53l.77-3c.12-.63.42-1.67.42-1.67.83-3.43,2.09-4.1,5.79-6.48,2.68-1.71,3.58-2.21,4.23-4.68.3-1.17.06-1.58-.89-1.58s-1.19.33-1.43,1.29-.66,2.92-.66,2.92h-4.89S1015.22,636.46,1015.45,635.42Z" transform="translate(-520.78 -295.1)" fill="#58595b"/><path d="M1034.47,651.79c-4.48,0-5.73-1.13-4.89-4.47,0,0,.77-3,3-11.86.84-3.34,2.69-4.47,7.16-4.47s5.85,1.13,5,4.47c0,0-.77,3-3,11.86C1040.92,650.66,1039.07,651.79,1034.47,651.79Zm5.49-16.46c.24-1,0-1.42-1-1.42s-1.32.34-1.56,1.38c-2.26,9.06-3,12.16-3,12.16-.3,1-.06,1.42.84,1.42s1.37-.38,1.67-1.42C1039.18,638.42,1040,635.33,1040,635.33Z" transform="translate(-520.78 -295.1)" fill="#58595b"/><path d="M1050.34,635.42c.84-3.3,2.69-4.43,7.11-4.43s5.78,1.29,4.77,5.14c-.84,3.38-2.09,4-5.85,6.47-3.37,2.2-3.8,2.57-4.41,5.81h7.69l-.77,3h-12.53l.77-3c.12-.63.42-1.67.42-1.67.84-3.43,2.09-4.1,5.79-6.48,2.68-1.71,3.58-2.21,4.23-4.68.3-1.17.06-1.58-.89-1.58s-1.19.33-1.43,1.29-.66,2.92-.66,2.92h-4.89S1050.11,636.46,1050.34,635.42Z" transform="translate(-520.78 -295.1)" fill="#58595b"/><path d="M1067,635.42c.83-3.3,2.68-4.43,7.1-4.43s5.79,1.29,4.77,5.14c-.83,3.38-2.09,4-5.85,6.47-3.37,2.2-3.79,2.57-4.41,5.81h7.7l-.78,3H1063l.77-3c.12-.63.42-1.67.42-1.67.84-3.43,2.09-4.1,5.79-6.48,2.69-1.71,3.58-2.21,4.24-4.68.3-1.17.06-1.58-.9-1.58s-1.19.33-1.43,1.29-.66,2.92-.66,2.92h-4.89S1066.78,636.46,1067,635.42Z" transform="translate(-520.78 -295.1)" fill="#58595b"/></svg>