<svg id="Layer_1" data-name="Layer 1" xmlns="http://www.w3.org/2000/svg" viewBox="0 0 751.89 801.59"><path d="M1045.58,495.11A1247.72,1247.72,0,0,0,997.65,735.7c-.56,5.7-1.11,11.65-1.65,18.16l-.18,2.09c-.07.79-.12,1.54-.18,2.29,0,.23,0,.48-.06.71a4.68,4.68,0,0,0,0,.55l-.08.86s-.15,1.81-.15,1.81c-1.41,18.34-2.43,37-3,55.37,0,.05,0,.51,0,.64q-.12,3.74-.23,7.49s-.12,5-.12,5q-.18,8-.27,16v1.61c0,3.72-.06,7.47-.06,11.23,0,5.84,0,11.75.14,17.56v.31c0,.86,0,1.75,0,2.62v.59q0,.9,0,1.8c0,.06.05,3.3.05,3.3,0,.51,0,1,0,1.45l.11,4.95c.22,8.53.53,17.05.92,25.44a306.79,306.79,0,0,0,52.66-422.48ZM607.36,848.35V846.7q-.09-7.31-.23-14.56c0-.34,0-.66,0-1V831c0-.28,0-.64,0-.92l-.08-3.35,0-1.27c0-1.9-.1-3.82-.16-5.73,0-.2,0-1,0-1.08-.59-18.32-1.6-36.93-3-55.33,0-.16,0-.32,0-.49a6.37,6.37,0,0,0-.05-.65l-.08-.86c0-.26,0-.52-.05-.79s0-.69-.07-1l-.37-4.5c-.52-6.26-1-12.08-1.61-17.73A1247,1247,0,0,0,553.71,496a306.81,306.81,0,0,0,52.41,420.77c.86-18.77,1.29-38,1.29-57.24C607.41,855.81,607.4,852.09,607.36,848.35Z" transform="translate(-424.06 -199.21)" fill="#231f20"/><path d="M772.12,518C831,575.54,865,657.8,863.9,740.16s-37.24,163.7-97.65,219.7c-9.36-3.05-18.64-2.36-28.46-1.83L680,961.13c.21.6.15-.47.36.13a204,204,0,0,0,40.35-37.44C771.3,862.12,812.8,791.57,818.86,712a280.76,280.76,0,0,0-1.19-57.82C811.5,607.21,792,561,772.12,518Z" transform="translate(-424.06 -199.21)" fill="#231f20"/><circle cx="242.04" cy="465.65" r="12.43" fill="#231f20"/><circle cx="439.1" cy="526.16" r="12.43" fill="#231f20"/><circle cx="357.31" cy="463.28" r="9.38" fill="#231f20"/><circle cx="289.68" cy="660.87" r="11.96" fill="#c9a06f"/><circle cx="242.16" cy="627.19" r="11.96" fill="#c9a06f"/><circle cx="517.75" cy="312.17" r="15" fill="#231f20"/><circle cx="496.03" cy="625.1" r="11.96" fill="#c9a06f"/><circle cx="475.57" cy="714.6" r="7.51" fill="#c9a06f"/><circle cx="448.51" cy="591.42" r="11.96" fill="#c9a06f"/><circle cx="402.48" cy="728.22" r="7.73" fill="#c9a06f"/><circle cx="451.06" cy="356.18" r="11.96" fill="#231f20"/><circle cx="533.82" cy="478.08" r="11.96" fill="#231f20"/><circle cx="462.89" cy="268.28" r="7.95" fill="#231f20"/><circle cx="287.38" cy="557.99" r="8.68" fill="#c9a06f"/><circle cx="220.12" cy="397.49" r="12.43" fill="#231f20"/><circle cx="282.95" cy="352.26" r="7.05" fill="#231f20"/><path d="M949.47,801.22q-.44,9.78-.73,19.56c0,1.74-.09,3.47-.13,5.21a50.64,50.64,0,0,1,5.51-.26h2.63c.09-3.26.19-6.52.33-9.77,0-.51,0-1,0-1.52,0-1.13.08-2.25.14-3.38,0-1,.09-1.95.13-2.93A51.75,51.75,0,0,1,949.47,801.22ZM951,946.16h0c.1,1.61.19,3.21.3,4.81,0-.05,0-.09,0-.14h0C951.21,949.25,951.1,947.72,951,946.16ZM826.21,761.44q-3,4.35-7.11,27.57c-.61,3.47-1.15,6.51-1.6,9.09.32-.92.62-1.82.92-2.73.46-1.45.93-2.9,1.38-4.34s.89-2.92,1.32-4.37c.38-1.3.75-2.6,1.11-3.89.08-.24.14-.48.21-.72l.09-.36c.17-.58.32-1.16.48-1.75s.38-1.39.56-2.1c.39-1.47.77-2.94,1.13-4.43s.72-3,1.06-4.45.68-3,1-4.47.63-3,.93-4.49A7.64,7.64,0,0,0,826.21,761.44Zm-28.53,82.88h0c.19-.34.37-.69.56-1.05C798.06,843.63,797.88,844,797.68,844.32ZM757.3,868.41s0,0,0,.05,0,0,0-.05l.63-.9Zm7.85-11.49c-.85,1.33-1.73,2.63-2.6,4,.89-1.32,1.76-2.62,2.62-4,.16-.25.33-.51.48-.76Zm1.31-2-.41.64c.15-.21.29-.43.42-.64s.26-.41.38-.6C766.71,854.51,766.58,854.7,766.46,854.9Zm-4.1,6.24c-.09.12-.17.26-.26.38l-.88,1.31c.16-.23.31-.47.48-.69l.28-.42.39-.58s0,0,0-.06S762.37,861.11,762.36,861.14Zm8.42-13.26-1.38,2.29c.26-.39.5-.8.75-1.2s.44-.73.65-1.09ZM768,852.43l0,.09a.47.47,0,0,0,.06-.09c.16-.27.33-.52.5-.79C768.33,851.91,768.17,852.16,768,852.43ZM649.17,792.5h0c0,.18,0,.34,0,.52,0,.65.06,1.28.11,1.93C649.24,794.13,649.21,793.31,649.17,792.5Zm300.3,8.72q-.44,9.78-.73,19.56c0,1.74-.09,3.47-.13,5.21a50.64,50.64,0,0,1,5.51-.26h2.63c.09-3.26.19-6.52.33-9.77,0-.51,0-1,0-1.52,0-1.13.08-2.25.14-3.38,0-1,.09-1.95.13-2.93A51.75,51.75,0,0,1,949.47,801.22ZM951,946.16h0c.1,1.61.19,3.21.3,4.81,0-.05,0-.09,0-.14h0C951.21,949.25,951.1,947.72,951,946.16ZM826.21,761.44q-3,4.35-7.11,27.57c-.61,3.47-1.15,6.51-1.6,9.09.32-.92.62-1.82.92-2.73.46-1.45.93-2.9,1.38-4.34s.89-2.92,1.32-4.37c.38-1.3.75-2.6,1.11-3.89.08-.24.14-.48.21-.72l.09-.36c.17-.58.32-1.16.48-1.75s.38-1.39.56-2.1c.39-1.47.77-2.94,1.13-4.43s.72-3,1.06-4.45.68-3,1-4.47.63-3,.93-4.49A7.64,7.64,0,0,0,826.21,761.44Zm-28.53,82.88h0c.19-.34.37-.69.56-1.05C798.06,843.63,797.88,844,797.68,844.32Zm-26.9,3.56-1.38,2.29c.26-.39.5-.8.75-1.2s.44-.73.65-1.09ZM768,852.43h0c.16-.27.33-.52.5-.79C768.33,851.91,768.17,852.16,768,852.43Zm-1.54,2.47h0c.12-.2.26-.41.38-.6C766.71,854.51,766.58,854.7,766.46,854.9Zm-1.31,2c-.85,1.33-1.73,2.63-2.6,4,.89-1.32,1.76-2.62,2.62-4,.16-.25.33-.51.48-.76Zm-2.79,4.22h0s0,0,0-.06S762.37,861.11,762.36,861.14Zm-1.14,1.69c.16-.23.31-.47.48-.69l.28-.42a1.06,1.06,0,0,0,.12-.2Zm-3.92,5.58h0l.63-.9Zm-3.46,4.73.23-.3.49-.69Q754.19,872.65,753.84,873.14ZM649.17,792.5h0c0,.18,0,.34,0,.52,0,.65.06,1.28.11,1.93C649.24,794.13,649.21,793.31,649.17,792.5Zm300.3,8.72q-.44,9.78-.73,19.56c0,1.74-.09,3.47-.13,5.21a50.64,50.64,0,0,1,5.51-.26h2.63c.09-3.26.19-6.52.33-9.77,0-.51,0-1,0-1.52,0-1.13.08-2.25.14-3.38,0-1,.09-1.95.13-2.93A51.75,51.75,0,0,1,949.47,801.22ZM951,946.16c.1,1.61.19,3.21.3,4.81,0-.05,0-.09,0-.14h0c-.1-1.57-.21-3.1-.3-4.66ZM826.21,761.44q-3,4.35-7.11,27.57c-.61,3.47-1.15,6.51-1.6,9.09.32-.92.62-1.82.92-2.73.46-1.45.93-2.9,1.38-4.34s.89-2.92,1.32-4.37c.38-1.3.75-2.6,1.11-3.89.08-.24.14-.48.21-.72l.09-.36c.17-.58.32-1.16.48-1.75s.38-1.39.56-2.1c.39-1.47.77-2.94,1.13-4.43s.72-3,1.06-4.45.68-3,1-4.47.63-3,.93-4.49A7.64,7.64,0,0,0,826.21,761.44Zm-28.52,82.88c.19-.34.37-.69.56-1.05-.19.36-.37.71-.57,1.05Zm-26.91,3.56-1.38,2.29c-.22.39-.45.76-.69,1.14.5-.78,1-1.56,1.44-2.34.21-.37.44-.73.65-1.09ZM768,852.43c.16-.27.33-.52.5-.79-.19.27-.35.52-.52.79Zm-1.55,2.47c.12-.2.26-.41.38-.6-.14.21-.27.4-.39.6Zm-3.92,6c.89-1.32,1.76-2.62,2.62-4,.16-.25.33-.51.48-.76l-.5.76C764.3,858.25,763.42,859.55,762.55,860.87Zm-.18.27s0,0,0-.06,0,0,0,.06Zm-.67,1,.28-.42a1.06,1.06,0,0,0,.12-.2l-.88,1.31C761.38,862.6,761.53,862.36,761.7,862.14Zm-4.39,6.27.63-.9-.64.9ZM754.65,872a1.25,1.25,0,0,1-.09.12q-.37.5-.72,1l.23-.3c.63-.82,1.24-1.66,1.83-2.5l-1,1.29ZM649.15,792.5c0,.18,0,.34,0,.52.05.71.08,1.42.11,2.14V795c0-.82-.08-1.64-.12-2.45Zm393.74-411.72c-1.2,0-2.36,0-3.54,0H1038c-2.93,0-5.84,0-8.74.12a82.74,82.74,0,0,0,8.74-22.1,66.73,66.73,0,0,0,.66-28.72,62.31,62.31,0,0,0-12.27-26.41,52.07,52.07,0,0,0-39-20.47,75.85,75.85,0,0,0-14.19.73c-9.09,1.25-17.36,3.55-25.2,5.42s-15.33,3.46-22.06,3.32a31.42,31.42,0,0,1-9.39-1.45c-.72-.26-1.46-.5-2.15-.81l-1.05-.44-1-.56a13.29,13.29,0,0,1-2-1.12L908.56,287a40.1,40.1,0,0,1-6.91-7,74.36,74.36,0,0,1-6-9.23c-3.83-6.69-7.29-14.22-11.64-21.9-1-1.91-2.27-3.83-3.46-5.77s-2.58-3.83-4-5.69A90.32,90.32,0,0,0,867.35,227a96.88,96.88,0,0,0-22.12-16.26,100.09,100.09,0,0,0-25.77-9.47,89.83,89.83,0,0,0-27.62-1.62,97.91,97.91,0,0,0-26.73,6.52,100.51,100.51,0,0,0-23.76,13.77,94.29,94.29,0,0,0-14.91,14.51q-2.15,2.61-4.1,5.41c-.23.31-.44.64-.67,1-5.06,7.34-8.66,14.92-12.19,21.91-3.66,7.33-7.24,14.2-11.56,19.6a34.06,34.06,0,0,1-7,6.86,31.15,31.15,0,0,1-3.92,2.43,27.81,27.81,0,0,1-4.3,1.68c-5.94,2-13.23,2-21,1.49s-16.15-1.8-25.26-2a78.91,78.91,0,0,0-14.07.84,52.83,52.83,0,0,0-7.26,1.65c-1.23.42-2.45.71-3.6,1.17l-3.49,1.47c-.55.24-1.17.47-1.71.77l-1.63.9c-1.1.6-2.2,1.22-3.28,1.82l-3.05,2.13-1.5,1-1.43,1.18-2.82,2.39c-.87.84-1.71,1.71-2.58,2.58a67.24,67.24,0,0,0-4.76,5.43,78.15,78.15,0,0,0-12.92,25.06c-.67,2.24-1.27,4.52-1.8,6.82s-1,4.59-1.16,6.94l-.4,3.48-.18,3.55c-.18,2.38,0,4.64,0,6.93a103.74,103.74,0,0,0,2,16.21c-3.32-.56-6.62-1.08-9.94-1.52-.54-.09-1.1-.13-1.62-.19a14.74,14.74,0,0,0-15.65,19.91v.06q13.94,36.18,25.66,73.45a1264.71,1264.71,0,0,1,52.66,258.37q.9,9,1.63,18.1c.06.73.12,1.48.18,2.23l.18,2.23q.07.81.12,1.65a3.79,3.79,0,0,1,0,.58c.06.57.1,1.15.13,1.73q2.15,28,3.05,56.24c0,.32,0,.65,0,1q.12,3,.18,6.06c0,.69.05,1.39.06,2.08l0,1.94c0,.35,0,.69,0,1s0,.72,0,1.09c0,.15,0,.3,0,.47q.15,7.46.24,15v1.53q.06,5.71.06,11.46,0,36.31-2,72.08-.93,17-2.33,33.82c-.16,2.27-.37,4.51-.55,6.76,0,.36-.05.71-.05,1a11.41,11.41,0,0,0,14.31,11c2.62-.67,5.29-1.34,7.92-2,5.72-1.38,11.44-2.72,17.22-3.94q12.25-2.65,24.68-4.82c1.54-.27,3.08-.54,4.62-.78h0q6.39-1.08,12.84-2,3-.44,6-.84,2.47-.35,5-.66c2.19-.29,4.4-.56,6.61-.83l.66-.07c.32,0,.62-.08.92-.11,1.53-.18,3.06-.36,4.59-.52q2.79-.31,5.6-.59c1.81-.19,3.61-.36,5.41-.53a5.8,5.8,0,0,0,.6-.06l5.24-.45,1.16-.09c1.4-.12,2.81-.22,4.22-.33,1.76-.13,3.53-.27,5.31-.37.74-.06,1.49-.11,2.24-.15l4.25-.26,2.51-.13,3-.15c1-.06,2-.09,3-.14,2.61-.12,5.22-.21,7.84-.3h.7l4.22-.12,4-.09q6-.12,12-.11,3.57,0,7.16.05c1,0,1.94,0,2.91,0,1.31,0,2.62,0,3.94.06l3.92.11h.94c1.93.06,3.85.12,5.77.2l4.84.19,3.65.17h.28c2.67.14,5.33.29,8,.47.62,0,1.23.07,1.85.12,1.18.06,2.36.15,3.54.22l2.39.18.45,0,2.21.18,2.21.18,2.13.18,5.83.53,4.4.44,2.55.27,4.23.46c.86.09,1.7.18,2.56.29l1.17.13c2.31.27,4.62.57,6.92.87,1.58.2,3.14.41,4.72.63l2.61.36c1.5.21,3,.42,4.48.65,2.26.33,4.53.68,6.78,1l4.6.73q23.94,3.95,47.32,9.66,4,1,8,2a11.33,11.33,0,0,0,14.2-11.62c0-.14,0-.27,0-.42-.06-.89-.14-1.75-.21-2.57-.14-1.58-.27-3-.36-4.18-.9-11-1.69-22.06-2.3-33.16q-1.12-19.71-1.64-39.61c0-1.73-.07-3.47-.12-5.21,0-.39,0-.79,0-1.18,0-1.14,0-2.29-.06-3.45,0-.74,0-1.47,0-2.21,0-1.06,0-2.14,0-3.21q-.13-8.93-.14-17.87,0-5.75.06-11.48v-1.48q.09-8.18.27-16.36c0-.21,0-.42,0-.63,0-.79,0-1.59.06-2.4,0-.57,0-1.16,0-1.73.08-2.67.15-5.33.24-8,0-.21,0-.41,0-.62q.92-28.33,3.09-56.36c.05-.56.09-1.13.14-1.68,0-.23,0-.44.06-.66,0-.45.06-.9.1-1.34.06-.87.14-1.74.21-2.61.06-.71.11-1.41.17-2.11q.78-9.23,1.68-18.42A1265.52,1265.52,0,0,1,1030.05,476q11.71-37.14,25.64-73.26c.27-.63.49-1.3.76-1.93A14.77,14.77,0,0,0,1042.89,380.78ZM745.33,265l-1.13-1.3h0a.53.53,0,0,1-.09-.11c-.79-1-1.55-1.95-2.27-3-1.78-2.54-3.38-5.23-4.85-7.84.2-.3.38-.6.59-.89l.37-.54s0,0,0-.06h0a.62.62,0,0,1,.09-.12l.09-.12c.39-.57.8-1.13,1.21-1.67.19-.28.4-.55.61-.82l.63-.82.62-.76c.19-.26.4-.51.63-.77.45-.54.91-1.08,1.38-1.6s.92-1,1.38-1.52l0,0,.24-.25.1-.12a.68.68,0,0,0,.12-.12c.63-.66,1.28-1.31,1.94-1.94l.47-.45c.33-.31.64-.63,1-.92a.77.77,0,0,1,.16-.15,1,1,0,0,1,.11-.1c.24-.23.48-.44.72-.65.7-.63,1.42-1.24,2.15-1.84a.17.17,0,0,0,.06-.06c.36-.29.72-.59,1.09-.87s.74-.58,1.1-.85c.15-.13.3-.24.43-.34l1.1-.81c.36-.27.74-.53,1.11-.78a.66.66,0,0,1,.17-.12c.4-.29.82-.57,1.23-.84s.84-.56,1.26-.83.87-.56,1.31-.84l1.33-.8,1.32-.76c.44-.26.89-.5,1.33-.74.93-.49,1.87-1,2.82-1.46s1.67-.79,2.49-1.18,1.7-.74,2.54-1.08l1.7-.66c1.12-.42,2.28-.83,3.42-1.19,2.3-.74,4.64-1.37,7-1.89.66-.15,1.34-.29,2-.42s1.32-.26,2-.36h0c.66-.11,1.33-.21,2-.3l1.72-.23c.77-.07,1.54-.16,2.3-.22s1.35-.11,2-.14c.48,0,1-.06,1.44-.06q1.38-.06,2.73-.06c.74,0,1.48,0,2.2,0,.33,0,.64,0,1,0l.42,0c.46,0,.93,0,1.39.09a4.24,4.24,0,0,1,.51,0c1.24.09,2.47.22,3.7.4s2.49.36,3.72.6c.6.12,1.22.24,1.84.38,1.78.39,3.57.84,5.33,1.35s3.51,1.08,5.24,1.73c.85.31,1.73.64,2.58,1,1.7.69,3.38,1.45,5,2.25.82.4,1.65.83,2.46,1.26,1.62.87,3.21,1.79,4.78,2.78s3.07,2,4.55,3.12,2.92,2.24,4.32,3.43,2.76,2.43,4.07,3.71q.5.47,1,1c.48.48,1,1,1.43,1.48s.92,1,1.37,1.52c1.2,1.38,2.35,2.79,3.47,4.22a5.22,5.22,0,0,1,.34.48q.39.5.72,1c.71,1,1.37,2,2.07,3v0c1,1.53,1.94,3.08,2.84,4.73a.16.16,0,0,1,0,.09l0,.07c.17.78.32,1.58.45,2.39v0c.15.81.29,1.62.39,2.44.09.51.17,1,.23,1.55,0,.32.07.65.1,1,.11.85.2,1.71.26,2.58,0,.43,0,.87,0,1.32s0,.89.06,1.32c0,.9,0,1.8,0,2.71,0,.45,0,.88,0,1.3a5,5,0,0,1,0,.68.48.48,0,0,1,0,.12,3.77,3.77,0,0,1,0,.57c0,.39-.07.78-.13,1.17s-.11.78-.18,1.19a20.52,20.52,0,0,1-.59,2.37c-.12.37-.24.75-.37,1.11s-.23.59-.36.86a.67.67,0,0,1-.06.15,8.92,8.92,0,0,1-.42.82c-.15.26-.3.5-.45.71l-.14.18a2.71,2.71,0,0,1-.19.25,5.06,5.06,0,0,1-.59.62,2.39,2.39,0,0,1-.26.21,3.62,3.62,0,0,1-.94.53,10.57,10.57,0,0,1-1.08.13,3.22,3.22,0,0,1-.5-.06,5.18,5.18,0,0,1-.54-.13l-.31-.12a1.89,1.89,0,0,1-.33-.15,3.14,3.14,0,0,1-.37-.18,4.35,4.35,0,0,1-.39-.23,5.66,5.66,0,0,1-.64-.44c-.21-.15-.42-.33-.65-.51h0c-.21-.18-.44-.39-.66-.6a8.84,8.84,0,0,1-.69-.68,28.83,28.83,0,0,1-2.78-3.38c-.6-.84-1.19-1.74-1.74-2.65l-.86-1.45c-.15-.25-.3-.52-.48-.81-.33-.57-.68-1.17-1-1.78s-.56-.94-.86-1.42-.43-.69-.66-1a2.92,2.92,0,0,0-.24-.37c-.42-.62-.86-1.25-1.32-1.9-.29-.39-.59-.79-.9-1.18s-.63-.8-1-1.2l-1-1.19c-.36-.39-.74-.8-1.13-1.19l-1-.93-.76-.67-.69-.57-.23-.18q-.36-.3-.75-.57c-.3-.23-.6-.44-.9-.65s-.84-.54-1.28-.81a20.88,20.88,0,0,0-6.38-2.55l-.18,0-.23,0-.73-.11-.3,0c-.12,0-.23,0-.35,0l-.69,0h-1l-.43,0a15.76,15.76,0,0,0-1.63.26h-.1a.45.45,0,0,1-.11,0,4.71,4.71,0,0,0-.57.14h0a8,8,0,0,0-.83.27l-.42.18c-.25.1-.49.21-.73.33l-.47.22a11.82,11.82,0,0,0-2.73,2.07l-.38.38c-.12.14-.22.27-.33.39l-.31.38c-.3.37-.56.75-.82,1.14-.12.19-.24.37-.33.54s-.18.34-.27.54l-.21.39a.77.77,0,0,0-.12.24l-.09.19a1.21,1.21,0,0,0-.07.2,4.84,4.84,0,0,0-.21.47,11.8,11.8,0,0,0-.5,1.38c-.09.3-.18.57-.24.85l-.19.81c-.06.26-.12.51-.17.75s-.1.5-.13.74-.09.47-.12.71a2.91,2.91,0,0,0-.09.58.66.66,0,0,0,0,.15c-.05.39-.09.78-.14,1.14s0,.45-.06.68l0,.59c-.15,1.51-.23,3-.32,4.56l-.09,2c0,.66,0,1.3-.07,2,0,.13,0,.25,0,.39h0a.06.06,0,0,1,0,.08c0,1.45-.07,2.89-.12,4.32,0,.45,0,.92,0,1.38,0,.23,0,.47,0,.71,0,.7,0,1.4-.06,2.12l-.06,1v.25l0,.75-.06,1,0,.49h0l0,0-.06-.07a.9.9,0,0,0-.07-.11c-.15-.18-.29-.35-.42-.53a4.07,4.07,0,0,1-.41-.52c-.25-.35-.49-.72-.72-1.1-.64-1.12-1.24-2.26-1.84-3.41l-.89-1.72c-.29-.59-.56-1.16-.84-1.75-.09-.19-.18-.37-.26-.57v0a3.65,3.65,0,0,1-.18-.41.05.05,0,0,1,0,0c-.23-.5-.45-1-.66-1.47-.15-.32-.29-.63-.42-1-.26-.59-.5-1.18-.74-1.78-1-2.35-1.82-4.74-2.57-7.13-.19-.6-.37-1.19-.55-1.79-.35-1.2-.68-2.42-1-3.62s-.58-2.41-.86-3.62l-.18-.9c-.09-.45-.18-.88-.25-1.33s-.17-.9-.26-1.37c0-.3-.1-.62-.16-.95s-.12-.64-.18-1-.12-.69-.2-1.06-.15-.75-.22-1.15-.15-.75-.23-1.14-.16-.76-.27-1.15-.19-.75-.3-1.14-.22-.83-.36-1.27l-.1-.3c-.2-.58-.41-1.2-.66-1.83l-.14-.36c-.12-.25-.28-.69-.48-1.12l-.18-.43-.45-.82-.45-.83a8.09,8.09,0,0,0-.5-.79c-.16-.26-.33-.5-.49-.74l-.08-.09c-.13-.21-.3-.42-.46-.63s-.35-.44-.51-.63-.5-.56-.75-.81-.43-.44-.65-.65a16.69,16.69,0,0,0-1.38-1.14c-.24-.18-.48-.36-.74-.52-.49-.33-1-.62-1.53-.91-.3-.15-.62-.3-.93-.42-.05,0-.11,0-.15-.07l-.47-.2-.3-.1a5.46,5.46,0,0,0-.61-.21l-.84-.26c-.29-.09-.56-.16-.84-.22a5.46,5.46,0,0,0-.79-.09,4.55,4.55,0,0,0-.73-.09,14.81,14.81,0,0,0-4.3.21c-.46.09-.94.21-1.41.34l-.69.21-.67.26a6,6,0,0,0-.68.27c-.23.09-.44.19-.66.3h0c-.43.22-.85.45-1.26.71h0a19.31,19.31,0,0,0-4.43,3.75c-.36.38-.65.75-1,1.13l-.79,1.08c-.21.31-.4.64-.61,1s-.38.63-.56.94-.27.49-.39.73l-.36.72c-.12.24-.24.48-.34.73s-.21.5-.32.74c-.18.45-.36.9-.52,1.36s-.38,1.09-.53,1.64-.36,1.32-.5,2c-.22,1.15-.4,2.23-.57,3.22s-.3,1.95-.45,2.85c-.54,3.58-1.35,6.37-2.19,7.62l-.13.18a2.7,2.7,0,0,1-.18.25,2,2,0,0,1-.29.35,2.56,2.56,0,0,1-.71.52v0a8.67,8.67,0,0,1-1,.4,4.58,4.58,0,0,1-.56.15l-.61.08h-.06A11.86,11.86,0,0,1,751,269.5a20.47,20.47,0,0,1-3-1.95c-.24-.18-.45-.36-.66-.54s-.23-.2-.33-.3l-.35-.32h0C746.18,265.91,745.76,265.46,745.33,265Zm132.24,27.87.37-.59.22-.39s0,0,0,0c.09-.2.2-.38.29-.56s.27-.52.39-.79c.33-.7.6-1.39.85-2.08.14-.39.27-.76.39-1.14.23-.75.42-1.47.6-2.21l.23-1.08s0,0,0,0c.39.64.81,1.3,1.24,1.95s.85,1.31,1.3,2,.74,1.06,1.13,1.59c.15.21.28.4.45.62,0,0,0,0,.06.07l.13.2c.35.48.71,1,1.09,1.42a59.91,59.91,0,0,0,10.48,10.59l3.21,2.18a17.51,17.51,0,0,0,1.65,1c.39.2.8.41,1.19.63a.39.39,0,0,0,.11.06l.45.26,1.71.92,1.83.76a.67.67,0,0,0,.21.09.08.08,0,0,0,.06,0h0a1.48,1.48,0,0,1,.14.32c.16.4.34.81.51,1.23.34.84.67,1.7,1,2.6.15.45.29.9.41,1.36.07.3.16.62.24.92s.19.89.28,1.34a1.31,1.31,0,0,1,.06.27v0a27.92,27.92,0,0,1,.35,7.42,13.32,13.32,0,0,1-.18,1.59,21.28,21.28,0,0,1-.56,2.39,26.2,26.2,0,0,1-.91,2.67l-.09.21s0,0,0,.05a.75.75,0,0,1-.06.13c-.09.23-.18.44-.28.65s-.32.69-.5,1a22.12,22.12,0,0,1-1.1,2,1.84,1.84,0,0,1-.18.33.11.11,0,0,1,0,.06s0,0,0,.07a.13.13,0,0,0,0,.05,2.7,2.7,0,0,1-.2.31,7.32,7.32,0,0,1-.52.8c-.21.32-.42.65-.66,1s-.26.35-.39.51a3,3,0,0,1-.32.39c-.4-.06-.82-.1-1.25-.15l-1.47-.13c-.36,0-.73-.05-1.11-.06s-.87,0-1.3,0-.74,0-1.12,0-.87.05-1.3.09l-.74.08a1.33,1.33,0,0,0-.28,0c-.35,0-.69.07-1,.12a28.93,28.93,0,0,0-4.51,1c-.37.12-.73.24-1.09.39l-1.1.42c-.72.29-1.44.61-2.15,1-.34.18-.69.34-1,.54a.07.07,0,0,0-.06,0l-.87.49c-.36.2-.71.42-1.05.65s-.65.42-.95.63-.6.43-.9.67-.35.26-.51.38l-.36.3c-.56.45-1.1.92-1.62,1.38h0l-1.52,1.41c-.48.47-1,.93-1.41,1.41-.9.95-1.75,1.9-2.55,2.81s-1.56,1.82-2.28,2.68c-1.45,1.71-2.8,3.27-4.09,4.61-.31.33-.63.64-.94.93l-.47.43a5.57,5.57,0,0,1-.45.41l0,0a11.43,11.43,0,0,1-.89.73h0a8.36,8.36,0,0,1-.89.65s0,0,0,0a5.47,5.47,0,0,1-.89.55c-.31.18-.61.33-.91.53a3.06,3.06,0,0,1-.49.22,2.87,2.87,0,0,1-.37.15,6.85,6.85,0,0,0-1.11.47l-1.08.31a6.9,6.9,0,0,1-.78.21l-.21,0-.11,0c-.39.06-.77.15-1.14.22a7.4,7.4,0,0,1-1.19.18,49.6,49.6,0,0,1-10.74-.07c-1.9-.17-3.86-.39-5.84-.63s-4-.47-6.06-.68l-1.75-.16-.42-.05a2.69,2.69,0,0,1-.4,0c-1.43-.12-2.87-.22-4.33-.28-.22,0-.43,0-.66,0-.67,0-1.35,0-2,0-1,0-2.08,0-3.13.09l-3.25.22c-.54.06-1.06.14-1.59.23l-1.58.27c-.52.07-1,.15-1.54.25s-1,.21-1.52.35c-.24,0-.5.12-.74.18l-.75.19-1.45.42c-1.46.42-2.87.91-4.25,1.42-.68.27-1.36.54-2,.82l-1.39.62-1,.49-1.17.6-1.16.62c-.3.17-.6.33-.88.5l-1.18.69c-.39.22-.76.46-1.14.7l-1.11.71c-1.47,1-2.84,2-4.14,3.05-.62.49-1.2,1-1.79,1.53s-1.16,1-1.7,1.55-.82.79-1.21,1.2c-.23.22-.44.43-.65.66-.42.43-.83.85-1.2,1.29s-.95,1.07-1.38,1.59-.87,1.07-1.28,1.59c-.82,1.05-1.58,2.12-2.25,3.17a0,0,0,0,0,0,0,1.15,1.15,0,0,1-.06-.29.38.38,0,0,1,0-.1.09.09,0,0,1,0-.05,1.68,1.68,0,0,1-.06-.24c-.14-.52-.29-1-.44-1.59-.21-.75-.45-1.5-.67-2.24h0c-.5-1.72-1-3.43-1.53-5.14v0l-.8-2.59c-.06-.21-.14-.44-.21-.68s-.15-.48-.24-.73-.15-.5-.24-.74-.18-.47-.26-.71l-.09-.19a.09.09,0,0,1,0-.05h0l-.05-.09a.33.33,0,0,0,0-.06h0l.61-.14.3-.07a3.52,3.52,0,0,1,.42-.09.35.35,0,0,1,.14,0l.9-.26,1-.28c.28-.08.57-.18.85-.29a1,1,0,0,0,.23-.07c.27-.09.55-.2.84-.32s.65-.25,1-.39.87-.37,1.31-.58l1.29-.68h0c.86-.47,1.72-1,2.56-1.55h0c.42-.27.83-.55,1.23-.85s.83-.6,1.23-.93c.82-.64,1.61-1.31,2.39-2a39.94,39.94,0,0,0,3.07-3.16c.27-.3.52-.6.76-.9l0,0c.52-.62,1-1.26,1.53-1.91s.88-1.22,1.32-1.85c0,0,0,0,0,0,.42-.61.84-1.26,1.25-1.89s.81-1.31,1.2-2,.79-1.42,1.18-2.14c.28-.51.53-1,.79-1.52s.51-1,.75-1.56.48-1,.7-1.58.45-1.05.68-1.59c.3-.74.58-1.47.87-2.22.78-2.14,1.49-4.31,2.1-6.55q.27-.94.51-1.89c.42-1.63.77-3.23,1.08-4.84.14-.75.26-1.49.38-2.22.13-.89.25-1.77.36-2.66.15-1.38.28-2.75.36-4.1a4.89,4.89,0,0,0,0-.54c0-.56.06-1.11.08-1.65,0-.15,0-.29,0-.44,0-.84,0-1.68,0-2.52V314c0-.93,0-1.88,0-2.79v-.05h0l.2.14a1.43,1.43,0,0,0,.21.12c.27.18.55.34.82.51s.57.33.86.48.57.28.85.42l.89.37a17.68,17.68,0,0,0,2.37.77c.39.09.8.16,1.19.24h.15c.27.05.55.08.83.11l.48,0q.5,0,1,0h.21c.36,0,.72,0,1.06,0s.72-.08,1.08-.14h.15a15.08,15.08,0,0,0,2.23-.53,1.13,1.13,0,0,0,.28-.12h0s.05,0,.08,0l.09,0,.64-.26.54-.27c.53-.28,1.06-.6,1.57-.9l.51-.31c.16-.12.33-.23.49-.33s.53-.41.78-.62a6.64,6.64,0,0,0,.72-.68,9.59,9.59,0,0,0,.7-.72,15.09,15.09,0,0,0,1.23-1.54v0c.18-.25.34-.52.51-.79l.09-.15c.13-.23.27-.46.39-.7s.34-.66.49-1a15.61,15.61,0,0,0,.72-1.95c.2-.61.36-1.23.51-1.86,0-.06,0-.14,0-.2.07-.34.15-.7.21-1.05a1.13,1.13,0,0,0,0-.18q.07-.4.12-.81a.83.83,0,0,0,0-.22c.05-.3.09-.61.12-.89s.08-.77.11-1.14l.06-1.11,0-.33v-.33l0-1.15.09-2.28c0-.37,0-.76,0-1.12s0-.76,0-1.13c0-.74,0-1.49,0-2.22,0-1.1,0-2.18,0-3.23,0-.54,0-1.05,0-1.58s0-1,0-1.56c0-.35,0-.68,0-1s0-.68,0-1l.09-2.34c.24.24.5.49.74.76.49.56,1,1.15,1.48,1.78.24.31.48.64.74,1s.32.45.47.68.33.46.48.7c.33.49.64,1,1,1.46l1,1.59.3.47c.18.27.34.54.52.8a1.67,1.67,0,0,0,.18.28c.06.11.12.2.18.29s.3.43.47.64a1.77,1.77,0,0,0,.12.17c.23.33.45.66.69,1s.44.59.66.89.45.58.68.87c.46.59.93,1.16,1.42,1.71s1,1.13,1.54,1.68c.27.27.54.56.82.83a36.32,36.32,0,0,0,3.65,3.11h0l.76.54a26.42,26.42,0,0,0,2.51,1.5l1,.51h0a6.58,6.58,0,0,0,.66.29l.49.21.53.19.51.18.54.17.74.21.75.18.67.13.84.14a17.3,17.3,0,0,0,4.49.06c.38-.05.74-.09,1.1-.17s.72-.13,1.08-.22.95-.26,1.41-.41c.23-.07.47-.15.69-.24s.45-.16.68-.25.45-.2.68-.3l.64-.33c.38-.21.75-.42,1.11-.65s.72-.45,1.07-.71a1,1,0,0,0,.21-.15l.21-.16.42-.33.27-.23s0,0,.08-.07a8.32,8.32,0,0,0,.69-.63c.25-.24.49-.48.72-.74A22.32,22.32,0,0,0,877.57,292.84ZM941,310.65q3.62-.66,7-1.43c1.54-.34,3.05-.7,4.54-1.05,2.06-.49,4.08-1,6.08-1.5s4-1,5.9-1.43,3.86-.85,5.74-1.23l2.81-.51c.93-.15,1.85-.28,2.76-.4l1.67-.21c.42-.06.84-.11,1.26-.14l.57-.06,1.1-.09h.3l.34,0,1.2-.06c1.39-.05,2.75-.05,4.1,0,.85,0,1.67.11,2.48.21.29,0,.56.08.84.12s.56.09.84.14c.64.09,1.28.21,1.9.36s1.53.37,2.26.61c.38.11.76.24,1.12.36a32.14,32.14,0,0,1,4.29,1.92c.69.38,1.38.79,2.06,1.22.33.21.66.44,1,.68a5.34,5.34,0,0,1,.57.4l.15.12s.05,0,.08.05a.05.05,0,0,1,0,0,2.48,2.48,0,0,1,.26.19.63.63,0,0,1,.13.11l.08,0a4.48,4.48,0,0,1,.64.51c.65.5,1.26,1,1.86,1.58.32.29.62.56.9.86s.59.57.88.87l.85.9c.44.48.86,1,1.26,1.46l.36.43v0c.27.33.53.66.77,1,.51.67,1,1.36,1.44,2v0c.23.36.47.71.68,1.07.45.72.87,1.44,1.27,2.17v0c.2.37.41.73.59,1.12s.37.76.56,1.13.43,1,.64,1.46.41,1,.59,1.45.45,1.19.64,1.79a40.12,40.12,0,0,1,1.28,4.9,38.4,38.4,0,0,1,.61,4c0,.37.08.75.11,1.12s.07.86.09,1.29c0,.71.06,1.43.06,2.15,0,.51,0,1,0,1.55,0,.87-.08,1.73-.15,2.6s-.17,1.72-.29,2.58c-.24,1.73-.55,3.47-1,5.2-.28,1.26-.61,2.5-1,3.74s-.81,2.46-1.27,3.68a58.3,58.3,0,0,0-3.77-5.64c-.44-.57-.87-1.12-1.34-1.68a5.45,5.45,0,0,0-.38-.46l-1-1.16c-.6-.68-1.21-1.35-1.84-2s-1.1-1.11-1.66-1.65h0c-1.32-1.28-2.69-2.5-4.13-3.67l-1.61-1.28c-.64-.49-1.3-1-2-1.47s-1.35-1-2-1.41-1.4-.91-2.11-1.37-1.42-.88-2.14-1.3-1.47-.83-2.21-1.23-1.44-.78-2.18-1.16l-.07,0-2.29-1.1q-1.14-.54-2.31-1.05c-.78-.36-1.56-.69-2.36-1-3.17-1.28-6.32-2.36-9.46-3.29-1.56-.46-3.12-.9-4.68-1.29s-3.1-.75-4.63-1.08c-.76-.17-1.53-.32-2.28-.47l-1.14-.21c-.57-.1-1.13-.21-1.7-.3l-1.68-.28q-4.47-.72-8.73-1.14l-2.1-.21-2.28-.18c-1.5-.12-3-.21-4.43-.3-2.18-.14-4.28-.24-6.34-.32-1.37-.06-2.7-.09-4-.12h0a35.26,35.26,0,0,0-.49-6.8v0c-.12-.69-.26-1.38-.41-2.06,0-.15-.06-.3-.1-.45-.11-.45-.23-.88-.35-1.32a.35.35,0,0,1,0-.06c-.12-.4-.24-.81-.38-1.21v0c.83,0,1.65,0,2.48,0h.54c.57,0,1.14,0,1.71-.09,1.46-.09,2.87-.23,4.28-.38,1.11-.13,2.23-.28,3.31-.45C939.39,310.92,940.2,310.78,941,310.65Zm62,72-1.61.18c-2.15.24-4.28.51-6.41.79-1.73.24-3.47.48-5.18.75-.44.06-.87.12-1.29.2l-3.1.49c-2.11.36-4.23.74-6.33,1.13-1.45.27-2.89.56-4.33.84-1.83.38-3.66.75-5.5,1.16q-2.53.56-5.07,1.17c-1.68.39-3.37.81-5.05,1.24s-3.35.88-5,1.33c0-.35.06-.69.06-1s0-.9.06-1.37c0-.1,0-.21,0-.33a1.83,1.83,0,0,0,0-.34c0-.23,0-.47,0-.69v-.05c0-.46-.05-.91-.09-1.36s-.11-.94-.18-1.36-.09-.57-.14-.85-.1-.57-.15-.86c-.09-.46-.19-.94-.3-1.43,0-.15-.08-.3-.11-.45-.13-.55-.28-1.11-.45-1.66s-.34-1.08-.52-1.62-.39-1.09-.6-1.63l0-.13s0-.05,0-.06c-.19-.51-.42-1-.63-1.5l-.54-1.17a3.13,3.13,0,0,0-.15-.32,2,2,0,0,1-.16-.33c-.26-.5-.51-1-.78-1.49a0,0,0,0,1,0,0h0c-.32-.6-.67-1.22-1-1.82l-.55-.92-.59-.9c-.19-.28-.37-.58-.58-.87s-.35-.51-.53-.75a.52.52,0,0,0-.07-.12c-.44-.6-.89-1.2-1.36-1.8-.61-.78-1.24-1.56-1.89-2.33s-1.32-1.5-2-2.25-1.38-1.47-2.1-2.18q-.78-.81-1.62-1.59l-.57-.54c-.38-.35-.75-.69-1.13-1-.76-.68-1.53-1.35-2.32-2l-1.19-1c-.26-.21-.51-.42-.77-.61s-.7-.59-1.06-.86c-.63-.49-1.26-1-1.93-1.46l-1.33-1-1.44-1c-.5-.31-1-.64-1.51-1-1-.65-2.05-1.28-3.16-1.9h0l.35-.43,0,0v0a6.32,6.32,0,0,0,.4-.54l.41-.55,0,0c.6-.86,1.18-1.77,1.72-2.72.23-.38.42-.75.62-1.14a4.92,4.92,0,0,0,.24-.45v0c.72.12,1.46.24,2.19.38l4.51.73,2.31.38,4.72.78,4.83.81c1.29.23,2.6.45,3.91.72.64.11,1.3.24,2,.38,1.09.21,2.17.43,3.26.67l.27.06c1.93.42,3.86.87,5.82,1.35.91.23,1.84.49,2.76.73s1.67.46,2.51.7c1.14.33,2.28.68,3.42,1l2.39.79,2.66.95.24.09,2.7,1a82.94,82.94,0,0,1,14.46,7.49c.6.4,1.2.8,1.79,1.22.39.26.75.53,1.13.81v0l.27.19c.5.35,1,.72,1.44,1.1.72.57,1.41,1.14,2.08,1.74s1.39,1.23,2,1.86c.85.83,1.67,1.66,2.42,2.48.4.45.79.9,1.17,1.37s.76.91,1.11,1.38.72.93,1.06,1.4c.7.94,1.34,1.9,1.94,2.86.3.48.6,1,.87,1.45s.57,1,.83,1.45.52,1,.78,1.46c-.18.25-.36.51-.57.77a3.58,3.58,0,0,1-.29.39c-.27.39-.57.76-.87,1.14-.1.15-.22.28-.34.43-.47.62-1,1.22-1.47,1.81Zm-2.31,22-1.34.4c-.45.15-.9.3-1.35.47-.9.31-1.8.67-2.72,1.05-.44.18-.87.37-1.31.58s-.88.41-1.32.64-.88.46-1.32.7h0c-.44.26-.88.5-1.31.77s-.87.54-1.31.82-.85.57-1.29.89c-.86.61-1.68,1.28-2.49,2-.2.18-.41.35-.6.53s-.41.36-.59.54c-.34.31-.67.64-1,1l-.27.27a3.84,3.84,0,0,1-.27.29.46.46,0,0,0-.12.12c-.2.19-.38.4-.56.6-.36.38-.69.77-1,1.16s-.54.63-.79,1c-.11.12-.2.24-.3.36-.27.33-.54.67-.8,1s-.59.78-.87,1.17-.57.78-.84,1.16c-.8,1.15-1.55,2.29-2.3,3.41-.18.28-.38.57-.57.85-1,1.55-2,3-2.9,4.3h0c-.45.65-.92,1.23-1.36,1.82l-1.39,1.62q-.18.23-.36.42c-.36.41-.75.78-1.14,1.16h0q-.18.18-.36.39l-.39.39q-.39.38-.81.72A41.65,41.65,0,0,1,952,445.1l-.36.14c-.36.13-.72.25-1.09.36l-.36.12c-.6.2-1.21.38-1.82.54-1.22.33-2.43.6-3.67.83l-.91.15c-.32,0-.62.1-.92.13l-1.36.17-1.06.09a2.13,2.13,0,0,1-.25,0H940l-1.22.07h-.34a35.47,35.47,0,0,1-4.27-.12,33.89,33.89,0,0,1-3.81-.48c-1.23-.22-2.45-.51-3.62-.84s-2.34-.73-3.46-1.17-2.22-.92-3.28-1.43c-.55-.25-1.06-.52-1.58-.81-1-.55-2-1.15-3-1.79-.63-.4-1.25-.84-1.83-1.26a2.16,2.16,0,0,1-.29-.21c-.45-.33-.87-.66-1.29-1s-1-.82-1.52-1.26-1-.9-1.53-1.37c-.93-.87-1.8-1.77-2.64-2.67l3.45-1.7c.29-.15.57-.27.86-.4l.77-.36v0c1.74-.82,3.48-1.65,5.24-2.45.18-.07.35-.16.53-.24.87-.39,1.72-.78,2.6-1.15.37-.17.75-.32,1.12-.48.81-.38,1.62-.72,2.45-1.07.39-.16.78-.34,1.19-.49,1.81-.79,3.66-1.52,5.51-2.24.49-.21,1-.41,1.47-.59l2.43-.93.65-.24c1.17-.43,2.33-.87,3.51-1.29l1.07-.38q2.28-.82,4.59-1.59c3.7-1.24,7.44-2.42,11.21-3.51.72-.26,1.44-.47,2.17-.66h0s0,0,0,0l3.34-.94a.41.41,0,0,0,.18-.05l3.59-.95c1.11-.28,2.22-.57,3.35-.84,1-.24,1.95-.48,2.93-.7,1.2-.29,2.38-.56,3.58-.83s2.39-.52,3.59-.78c1.51-.31,3-.63,4.54-.92a.61.61,0,0,0,.13,0c1.48-.27,3-.54,4.42-.79s3.05-.53,4.58-.77,3-.46,4.57-.69,3-.4,4.56-.6h.11Zm-106,10.27c-.74.37-1.48.76-2.2,1.14l-2.21,1.16c-1.72.91-3.43,1.84-5.15,2.79s-3.41,1.91-5.1,2.88c-3.38,2-6.73,4-10.05,6.07h0q-5,3.13-9.84,6.46c-1.28.88-2.57,1.77-3.83,2.67l-.74.53a3.73,3.73,0,0,0-.48.33c-1.53,1.09-3.06,2.19-4.58,3.32q-2,1.5-4,3c-.48.35-1,.73-1.44,1.1-1.31,1-2.61,2-3.9,3.08-1.55,1.23-3.1,2.48-4.61,3.74s-3,2.55-4.55,3.84q-9,7.77-17.58,16.3c-2.94,2.94-5.82,6-8.63,9q-2.1,2.28-4.16,4.6c-1.38,1.55-2.73,3.11-4.09,4.67s-2.65,3.14-4,4.73-2.6,3.18-3.87,4.79-2.54,3.23-3.79,4.87-2.46,3.27-3.66,4.92l0-.18c0-.07,0-.13.05-.21.13-.88.27-1.8.39-2.72a2.48,2.48,0,0,1,0-.27.17.17,0,0,0,0-.07c.21-1.38.39-2.78.59-4.19.31-2.33.61-4.7.88-7.13.14-1.13.26-2.29.36-3.44.06-.66.14-1.33.2-2s.13-1.33.18-2,.12-1.44.16-2.18c.08-1,.16-1.93.22-2.92.07-1.15.13-2.3.18-3.47,0-.17,0-.35,0-.51a1.55,1.55,0,0,0,0-.21.23.23,0,0,1,0-.12c.09-1.37.15-2.74.21-4.13.07-2.14.1-4.31.13-6.52,0-1.11,0-2.21,0-3.32s0-2.24,0-3.37c0-1.51-.06-3-.1-4.55s-.12-3.06-.17-4.59c0-.78,0-1.56-.07-2.34l-.09-2.33c-.06-.78-.12-1.58-.2-2.36l-.09-1.13c0-.4-.06-.81-.11-1.21-.1-1.61-.22-3.2-.34-4.79l0-.17,0-.45-.12-1.8-.16-1.25,0-.25-.05-.38v0l0-.24,0-.25v0c-.4-3.26-.78-6.52-1.18-9.81-.26-1.63-.53-3.28-.8-4.95s-.52-3.34-.79-5l-.41-2.53-.53-2.52c-.16-.84-.34-1.68-.52-2.52s-.35-1.68-.53-2.52c-.28-1.34-.54-2.68-.84-4l.53-.68c.1-.14.19-.26.3-.39a2.79,2.79,0,0,1,.31-.39,0,0,0,0,1,0,0,.06.06,0,0,1,0,0,.13.13,0,0,0,0-.05.14.14,0,0,0,.06-.07,1.73,1.73,0,0,0,.14-.2c.31-.34.64-.72,1-1.09.18-.2.35-.39.51-.59.33-.39.66-.79,1-1.18a7.7,7.7,0,0,1,.56-.59,55.34,55.34,0,0,1,11.32-9c.36-.22.74-.43,1.11-.64s.66-.39,1-.57.94-.51,1.43-.75,1.23-.62,1.87-.9,1.29-.58,1.95-.85,1.33-.52,2-.76c.44-.15.87-.3,1.32-.44l.2-.06h0c.26-.09.5-.15.75-.23a1.83,1.83,0,0,1,.25-.06q.81-.24,1.65-.45c.36-.09.72-.16,1.09-.24l.6-.13.09,0,.41-.07c.38-.06.74-.12,1.11-.2l1.11-.19a19,19,0,0,1,2.27-.26l.57,0,.27,0,.89-.06h2.87a75.8,75.8,0,0,1,10.33,1.12l4.31.71c1,.18,2,.34,3,.51l3.16.49c.54.09,1.08.17,1.63.24l1,.12.27,0h0c.6.08,1.22.14,1.85.21l1.59.14,1.63.1,1.67.08c.56,0,1.13,0,1.7,0l1.74,0,1.79-.09,1.21-.08c.33,0,.67-.06,1-.1,1-.12,2-.35,3.06-.5,1.37-.27,2.79-.67,4.16-1.08.34-.13.69-.27,1-.39s.69-.25,1-.39l.5-.19h0l.53-.23.6-.28a.66.66,0,0,0,.19-.09,2,2,0,0,0,.21-.11c.33-.18.67-.34,1-.51a22.92,22.92,0,0,0,2.92-1.7c5.09-3.36,8.52-7.51,11.51-11,.46-.56.91-1.1,1.36-1.62l1.31-1.49s.05,0,.06-.07h0v0l1.26-1.43c.23-.22.45-.46.66-.69l.65-.64.64-.62a22.12,22.12,0,0,1,1.87-1.53,12.3,12.3,0,0,1,2-1.25l.71-.28v0a11.1,11.1,0,0,1,1.34-.45l.18,0a.18.18,0,0,1,.1,0l.35-.09a1.6,1.6,0,0,1,.33-.07c.33-.08.66-.12,1-.17s.44,0,.65-.06a3.27,3.27,0,0,1,.54,0c.42,0,.84,0,1.26,0s.54,0,.81.06.63.06,1,.11h0l.92.13.45.09.45.09a.45.45,0,0,0,.11,0l.57.12.81.21c.46.12.93.27,1.41.42.21.06.42.15.63.23l.65.24,1.17.45c.79.33,1.57.68,2.36,1,.39.18.76.37,1.15.58s.77.39,1.16.6.78.42,1.15.63l1.15.66c.37.21.75.45,1.12.68.74.47,1.47.95,2.19,1.46l1.58,1.08.26.19c.31.23.64.45,1,.69.91.66,1.82,1.34,2.69,2.05a1,1,0,0,1,.18.13c.24.17.48.36.72.56h0a66,66,0,0,1,7.15,6.53c.27.29.53.57.77.86s.51.55.73.84.48.55.71.84c.45.57.9,1.12,1.31,1.7l.66.93c.16.27.34.52.51.79s.37.57.54.86c.34.57.67,1.15,1,1.73l.44.85c.13.29.28.59.39.87a7.08,7.08,0,0,1,.37.87,6.14,6.14,0,0,1,.34.86,7.47,7.47,0,0,1,.3.87c.1.29.19.57.27.86a19.07,19.07,0,0,1,.75,6.5l-.09,1c-2,.65-4.07,1.32-6.1,2-.92.3-1.82.61-2.72.93-.55.19-1.13.39-1.68.6-1.16.41-2.31.83-3.47,1.26h0l-4.21,1.58-.06,0c-1.43.55-2.85,1.11-4.27,1.68-2.83,1.14-5.64,2.31-8.45,3.54-1.4.6-2.79,1.24-4.18,1.87-.79.36-1.6.72-2.38,1.09l-.48.23-.86.4-2.21,1.05c-1.2.58-2.4,1.16-3.59,1.76ZM752.1,484.6c-1.74-1.91-3.5-3.81-5.3-5.69s-3.61-3.72-5.45-5.57q-6.32-6.31-13-12.26c0-1.18,0-2.38,0-3.6s0-2.33,0-3.51v-.23c0-.17,0-.33,0-.5h0c0-.57,0-1.13,0-1.7s0-1.12.06-1.71c.08-2,.15-4,.26-6,0-.8.07-1.59.12-2.39.06-1.25.15-2.49.22-3.75.2-2.9.42-5.83.69-8.8.14-1.45.27-2.9.44-4.36s.3-2.93.48-4.42.35-3,.54-4.46.39-3,.62-4.52c.43-3,.91-6.06,1.44-9.13.27-1.53.54-3.06.82-4.61.63-3.11,1.16-6.24,1.88-9.38.33-1.57.71-3.17,1.05-4.73l.56-2.38.25-1.2.23-.82.06-.21v0a.7.7,0,0,1,.06-.19v-.06c.07-.28.15-.55.22-.8.12-.42.24-.83.38-1.22.38-1.2.8-2.35,1.26-3.42.24-.54.5-1.07.75-1.56a.16.16,0,0,0,0-.09v0s0,0,0,0l.1-.18.44-.73a14.19,14.19,0,0,1,.85-1.25l.42-.51c.08-.09.15-.15.21-.23a1.39,1.39,0,0,0,.21-.21,3.25,3.25,0,0,1,1-.72l.11,0,.09,0v0s.05,0,.08,0a1.32,1.32,0,0,1,.3-.09,2.76,2.76,0,0,1,.66-.12l.27,0a1.86,1.86,0,0,1,.49.1l.18.05.24.1.2.11.54.33a2,2,0,0,1,.3.21,3.33,3.33,0,0,1,.32.24l.33.28.21.18c.18.18.36.38.54.59a17,17,0,0,1,1.66,2.12,24.79,24.79,0,0,1,1.39,2.22l.42.8.09.19c.18.36.34.72.51,1.08s.36.8.55,1.2c0,.09.08.2.12.29.24.57.48,1.16.69,1.74s.38,1,.56,1.58c.07.18.13.37.19.57l.74,2.43c.35,1.13.69,2.24,1,3.37,0,.12.08.25.12.37s0,.05,0,.06c.06.18.12.36.16.53s.12.34.18.52c.21.66.41,1.31.59,2,.28,1,.55,1.92.82,2.88.42,1.61.84,3.23,1.27,4.82.21.81.43,1.63.64,2.42s.44,1.61.63,2.4.39,1.6.57,2.39.35,1.61.53,2.41.37,1.59.55,2.38.35,1.59.53,2.38l.24,1,.07.3.24,1,.44,2.35c.57,3.17,1.19,6.3,1.74,9.4.24,1.56.47,3.09.69,4.64s.48,3.08.71,4.59l.34,2.27.12,1.16,0,.33.08.81c.07.63.15,1.28.23,1.91s.18,1.56.27,2.32a2.3,2.3,0,0,0,0,.26h0c.18,1.52.34,3,.49,4.46.06.61.11,1.21.15,1.81a.44.44,0,0,0,0,.16,2.44,2.44,0,0,0,0,.27,3.7,3.7,0,0,0,0,.47v.06c.06.57.09,1.11.15,1.68l.09,1.08c0,.38.06.74.09,1.1,0,.72.1,1.44.16,2.16.12,1.44.23,2.88.3,4.31.11,2.61.23,5.2.32,7.75.12,3,.19,6,.16,8.89.18,9.64-.31,18.7-.81,27.05-.93-1.22-1.86-2.42-2.81-3.62-.63-.81-1.27-1.62-1.92-2.42s-1.08-1.35-1.62-2q-1.8-2.2-3.65-4.38c-.06-.09-.14-.18-.21-.27-.45-.54-.9-1.08-1.37-1.62C756.37,489.36,754.25,487,752.1,484.6Zm-31.22,8.5a13.94,13.94,0,0,1-1.92-1.4c-.23-.18-.47-.39-.69-.6-1-1-2.11-2.08-3.26-3.36l-1.18-1.32-.16-.18-1.19-1.34c-.18-.24-.39-.46-.6-.7s-.21-.23-.33-.35c-.57-.63-1.17-1.29-1.83-2l-.8-.79c-.4-.41-.81-.8-1.24-1.19l-.9-.8c-.47-.39-1-.81-1.55-1.23a27.11,27.11,0,0,0-10-4.77,19.5,19.5,0,0,0-2.25-.41l-.39,0a2.87,2.87,0,0,0-.41,0c-.21,0-.43,0-.64-.06a4,4,0,0,0-.6,0c-.54,0-1.08,0-1.64,0l-.51,0c-.29,0-.57,0-.87.07a13.88,13.88,0,0,0-1.77.29c-.59.13-1.17.3-1.76.48a12.66,12.66,0,0,0-1.76.67,7.47,7.47,0,0,0-.87.39c-.28.15-.55.3-.82.47h0l-.8.51c-.27.17-.52.35-.78.54l-.75.57c-.25.2-.48.41-.72.62s-.45.43-.67.66A13.12,13.12,0,0,0,676,479.2h0c-.39.48-.75,1-1.08,1.47s-.63,1-.92,1.5-.52,1-.76,1.54-.44,1-.63,1.51v0a11,11,0,0,0-.36,1.06,6.73,6.73,0,0,0-.21.69.06.06,0,0,0,0,.05c-.1.36-.21.72-.3,1.08s-.18.72-.24,1.07-.17.84-.23,1.24-.1.68-.15,1-.07.68-.12,1,0,.66-.07,1-.06.89-.08,1.32c0,.69,0,1.37,0,2.05s0,1.38.07,2c0,.31,0,.61.06.91s.05.61.06.89l.09,1.16.09,1.11c.09,1.09.18,2.13.23,3.09a6.31,6.31,0,0,1,0,.75c0,.68,0,1.32,0,1.91a7,7,0,0,1,0,.8c0,.06,0,.12,0,.16-.05.33-.08.63-.14.92a1.94,1.94,0,0,1-.09.48,6.13,6.13,0,0,1-.24.85v0a5.76,5.76,0,0,1-.37.89,5.92,5.92,0,0,1-.51.79,11.75,11.75,0,0,1-1.49,1.52,10.33,10.33,0,0,1-3.29,1.63,13.3,13.3,0,0,1-1.91.46,0,0,0,0,1,0,0,11.5,11.5,0,0,1-3.51,0,8,8,0,0,1-1.42-.33l-.69-.23a13,13,0,0,1-1.33-.57h0c-.45-.22-.9-.46-1.34-.73h0l-1-.66c-.33-.24-.65-.48-1-.74a20.07,20.07,0,0,1-1.86-1.73c-.3-.31-.61-.64-.89-1s-.57-.69-.84-1.05-.72-1-1-1.51-.65-1.07-1-1.63-.58-1.11-.86-1.68a32.05,32.05,0,0,1-1.41-3.53,44.53,44.53,0,0,1-1.77-7.91c-.16-1.22-.31-2.45-.42-3.7,0-.06,0-.13,0-.19-.12-1.31-.2-2.65-.26-4,0-1.15-.07-2.32-.09-3.5,0-.88,0-1.77,0-2.67,0-.69,0-1.4,0-2.1,0-.51,0-1,0-1.56,0-.81,0-1.63,0-2.45s0-1.64,0-2.48,0-1.74,0-2.61,0-1.53-.06-2.32,0-1.36-.08-2.05a2.81,2.81,0,0,0,0-.29c0-.78-.08-1.57-.14-2.36-.12-1.57-.25-3.16-.45-4.77s-.43-3.31-.73-5-.69-3.32-1.14-5c0-.13-.08-.25-.11-.39-.09-.31-.18-.63-.28-.94s-.27-.88-.42-1.31-.23-.66-.36-1-.26-.65-.39-1l-.43-1a8.53,8.53,0,0,0-.45-1h0c-.16-.32-.31-.65-.49-1l-.26-.48a3.5,3.5,0,0,0-.25-.47c-.2-.33-.39-.64-.57-1a0,0,0,0,1,0,0s0,0,0-.07l-.08-.12s0-.08-.07-.11c-.12-.2-.26-.39-.38-.59a.62.62,0,0,1-.1-.16l-.12-.17a1.11,1.11,0,0,0-.11-.16q-.24-.36-.51-.72c-.3-.41-.62-.81-1-1.22s-.45-.52-.69-.78l0,0-.35-.37c-.25-.28-.52-.53-.79-.79s-.45-.43-.69-.64-.53-.45-.81-.68l-.85-.64h0c-.29-.21-.59-.41-.9-.62-.62-.39-1.26-.75-2-1.1-.35-.16-.69-.33-1.06-.48l-.63-.24c-.19-.07-.4-.13-.61-.19a17.53,17.53,0,0,0-2.77-.69,2.44,2.44,0,0,0-.39-.06l-.7-.09-.15,0-.51,0h-.06s0,0,0,0a.3.3,0,0,0-.21,0h-.16s-.06,0-.09,0l-.11,0a4.39,4.39,0,0,0-.81,0,8.38,8.38,0,0,0-.88,0c-.58,0-1.12.11-1.63.18s-1,.17-1.45.27l-1.31.32c-.21,0-.41.1-.6.15l-.57.16c-.56.15-1,.3-1.52.44l-.85.25-.26.08a4.15,4.15,0,0,0-.45.12,4,4,0,0,1-.39.11l-.26,0a.86.86,0,0,0-.27.05,1.27,1.27,0,0,0-.28,0l-.27.07a1.43,1.43,0,0,1-.29,0c-.19,0-.39,0-.57.05h-.39c-.37,0-.76,0-1.15-.05a13.75,13.75,0,0,1-2.11-.39l-.52-.17a2.55,2.55,0,0,1-.53-.18,3.86,3.86,0,0,1-.39-.15.19.19,0,0,1-.1,0c-.23-.09-.47-.19-.69-.3s-.7-.33-1-.51-.51-.28-.76-.45l-.29-.18c-.19-.12-.39-.25-.57-.39a.94.94,0,0,1-.18-.12l0,0c-.25-.16-.49-.36-.73-.55a3.62,3.62,0,0,1-.42-.36l-.09-.08s0,0,0,0c-.24-.21-.48-.42-.71-.65l-.15-.13v0c-.12-.1-.21-.21-.32-.31l-.3-.32a17.72,17.72,0,0,1-1.39-1.66,18.08,18.08,0,0,1-2.39-4.45c-.14-.4-.27-.82-.41-1.24s-.24-.85-.34-1.27-.14-.55-.2-.84c0,0,0-.07,0-.12-.05-.21-.08-.42-.12-.61s-.05-.32-.08-.48,0-.32-.06-.48-.06-.5-.09-.73,0-.46-.06-.7c2,.49,3.89,1,5.83,1.53s3.87,1.07,5.8,1.64l1.66.51h0c.15.05.31.11.48.15.6.18,1.19.36,1.77.56l.62.18c.52.15,1.06.31,1.59.5q2.65.85,5.28,1.75c1.3.44,2.57.89,3.85,1.34l.37.13.15.06.86.32q5.7,2.06,11.26,4.35c3.67,1.51,7.3,3.07,10.89,4.71,1.52.69,3,1.39,4.52,2.11l.17.08c.6.28,1.18.57,1.78.87,1,.48,2,1,3,1.47a3.86,3.86,0,0,1,.41.2l.37.19c.94.47,1.85.93,2.77,1.41l.87.45.66.35,2.79,1.5c.27.14.53.27.78.42,1.58.86,3.16,1.73,4.7,2.61a1.33,1.33,0,0,0,.12.06c.7.39,1.4.8,2.08,1.21l.13.07c.63.35,1.25.71,1.85,1.08,1,.6,2.07,1.22,3.09,1.85l.11.06c1,.6,2,1.2,3,1.83s2,1.26,3.05,1.92c.66.41,1.3.83,1.95,1.27.94.6,1.87,1.21,2.81,1.84a1.12,1.12,0,0,1,.15.11l2.28,1.54c.07.06.16.11.24.17a.29.29,0,0,0,.12.07q1.93,1.32,3.86,2.69c2.33,1.64,4.62,3.32,6.89,5,.77.57,1.53,1.15,2.28,1.75,1.16.87,2.32,1.77,3.46,2.67l.9.72c1,.81,2,1.64,3.05,2.46l.19.17c.27.22.54.45.83.67l1.95,1.64c.65.54,1.29,1.1,1.94,1.65,0,0,0,0,0,0l.45.39c.36.31.74.61,1.1.94.9.77,1.8,1.57,2.7,2.36l1,.84,1.71,1.55q1.76,1.61,3.48,3.23c1,.95,2,1.92,3,2.9l.07.07.56.54c1,1,2.08,2.05,3.12,3.1s2.22,2.23,3.32,3.36v0c.7.72,1.41,1.45,2.07,2.19a3.5,3.5,0,0,1,.27.28c.17.17.33.35.48.51l1,1a18.14,18.14,0,0,1-2.84-.06,19.93,19.93,0,0,1-2.76-.39,6.85,6.85,0,0,1-.81-.2H727l-.31-.08a7.9,7.9,0,0,1-.95-.27,1,1,0,0,1-.23-.07,6,6,0,0,1-.81-.29l-.1,0c-.17-.06-.32-.11-.47-.18-.31-.12-.63-.26-.94-.41s-.78-.37-1.16-.58S721.24,493.34,720.88,493.1Zm-80.78-98c.51-.15,1-.27,1.57-.38a29,29,0,0,1,3.23-.54c.36-.06.71-.09,1.07-.12H646l1.34-.1h0q.58,0,1.17-.06c.84,0,1.66,0,2.52,0h.44l.48,0,.93.06c1.23.11,2.46.27,3.71.5.61.1,1.24.24,1.87.37s1.28.32,1.91.5c.44.12.87.26,1.31.39l.58.18c1.27.42,2.51.89,3.77,1.41,1.49.63,2.93,1.31,4.34,2.06.47.24.92.5,1.39.75s.94.54,1.39.83l.36.22,1,.62c.4.25.79.51,1.18.78.82.54,1.6,1.1,2.36,1.67.32.24.65.48,1,.73s.65.48,1,.74l.06.06c.33.25.65.52,1,.78s.63.52,1,.79l1.81,1.64c1.18,1.08,2.32,2.21,3.4,3.34l.06.06,1,1.08c.68.72,1.33,1.45,2,2.19.31.38.63.74.93,1.11s.79,1,1.17,1.46.77,1,1.14,1.48c.53.71,1,1.42,1.55,2.14,0,.06.09.12.13.19l.44.63c.34.5.67,1,1,1.49.53.81,1,1.62,1.52,2.43.34.56.66,1.11,1,1.67.65,1.1,1.23,2.21,1.79,3.3.27.5.51,1,.74,1.48s.48,1,.69,1.44.45.94.64,1.42.44,1,.62,1.43c.4.93.76,1.85,1.11,2.75,0,.1.07.21.12.31.18.48.36,1,.51,1.43.07.18.14.36.2.54-1.49-1.09-3-2.18-4.48-3.24s-3-2.14-4.52-3.17-3-2.07-4.57-3.09c-1-.67-2-1.33-3-2l-2.57-1.65c-1-.64-2-1.25-3-1.87-.42-.27-.86-.52-1.29-.78l-.59-.36c-.84-.51-1.68-1-2.52-1.51l-.54-.32c-.15-.11-.32-.2-.47-.29s-.42-.25-.63-.36l-.07,0q-2-1.2-4.06-2.34c-1.59-.9-3.18-1.79-4.79-2.66s-3.21-1.73-4.83-2.57-3.19-1.64-4.8-2.45c-.09,0-.16-.09-.24-.12-1.5-.73-3-1.47-4.5-2.19l-2.3-1.08h0c-1-.47-1.94-.92-2.9-1.35q-2.5-1.15-5-2.23t-5-2.14l-5.08-2.05c-1.7-.67-3.39-1.32-5.09-2,.84-.63,1.7-1.22,2.63-1.81.45-.27.9-.54,1.38-.78s.94-.49,1.43-.72,1-.45,1.5-.66l1.54-.58.9-.32.68-.22C639.14,395.37,639.62,395.23,640.1,395.11Zm50.58-3.18a2.88,2.88,0,0,0-.39-.32c-.09-1.43-.17-2.93-.24-4.49s-.09-3.15-.11-4.82v-.05a133,133,0,0,1,.69-14.74c.14-1.32.3-2.65.48-4s.41-2.64.66-4,.57-2.6.92-3.89.74-2.52,1.19-3.75a31,31,0,0,1,1.54-3.47,27.56,27.56,0,0,1,1.9-3.12c.27-.35.54-.71.81-1s.55-.69.85-1,.41-.42.62-.61v0a9.72,9.72,0,0,1,1.33-1.12c.28-.23.53-.47.83-.68l.29-.21a2.48,2.48,0,0,1,.31-.18l.38-.26.39-.27c.25-.16.51-.33.79-.48.56-.31,1.13-.61,1.73-.88.3-.14.62-.29.93-.41s.63-.27,1-.39.65-.25,1-.37.68-.26,1-.38.71-.22,1.07-.33l1.1-.31c.34-.11.69-.22,1-.31l1.23-.31c.39-.11.78-.2,1.19-.29.81-.19,1.63-.37,2.47-.54l1.28-.25c1.7-.35,3.44-.66,5.23-1,.9-.16,1.8-.34,2.7-.52s1.52-.3,2.28-.47,1.23-.25,1.85-.39.93-.21,1.4-.33c.93-.23,1.86-.45,2.81-.71l1.41-.39c.48-.13.94-.27,1.42-.42l1.42-.45a4.66,4.66,0,0,0,.49-.16c.32-.09.62-.21.93-.32.93-.34,1.88-.72,2.83-1.12a54.56,54.56,0,0,0,5.52-2.75c.89-.51,1.74-1.05,2.57-1.62a61.16,61.16,0,0,0,8.56-7.14c4-3.93,7.19-7.63,10.24-10.77h0a8,8,0,0,1,.7-.72c.47-.47.92-.93,1.39-1.37s.67-.67,1-1c.55-.53,1.09-1,1.59-1.46l.31-.26c.21-.18.44-.36.66-.52s.53-.41.79-.59.63-.48.94-.69a49.57,49.57,0,0,1,4.24-2.72c.46-.27.93-.52,1.39-.76a8.87,8.87,0,0,1,.86-.45c.37-.2.76-.38,1.13-.56l1.11-.52c.72-.34,1.42-.62,2.11-.89h0l.21-.09,0,0h0a.29.29,0,0,0,.1,0,106.42,106.42,0,0,1-2.46,35.22c-.16.68-.34,1.35-.54,2-.1.43-.22.85-.36,1.29,0,.06,0,.11,0,.17-.18.67-.38,1.35-.6,2-.28.9-.56,1.78-.88,2.66s-.61,1.72-.94,2.56c-.21.59-.44,1.16-.68,1.73s-.55,1.32-.84,1.95q-.24.58-.54,1.17c-.18.4-.36.77-.54,1.13s-.36.74-.56,1.1-.37.72-.57,1.06-.39.69-.58,1-.39.68-.59,1c-.39.64-.81,1.27-1.21,1.87-.21.3-.42.6-.64.89s-.31.43-.48.65-.52.69-.79,1c-.42.52-.86,1-1.31,1.51-.22.24-.45.48-.69.71a21.61,21.61,0,0,1-2,1.88,22.4,22.4,0,0,1-2.1,1.6L769,360a1.88,1.88,0,0,1-.18.12l-.18.1c-.15.11-.3.2-.45.29l-.45.27a5.79,5.79,0,0,1-.56.33c-.24.15-.48.27-.72.39s-.46.26-.7.38a5,5,0,0,0-.29-.47c-.31-.47-.64-.93-1-1.4s-.72-.93-1.11-1.39c-.78-.92-1.62-1.82-2.51-2.69-.46-.44-.95-.89-1.46-1.31s-1.05-.82-1.62-1.23-1.17-.77-1.77-1.13c-.27-.15-.53-.3-.8-.43s-.52-.27-.81-.41a2.29,2.29,0,0,0-.31-.16,18.23,18.23,0,0,0-2-.8l-1.07-.33-.9-.21-.39-.07a16.85,16.85,0,0,0-2.13-.33,16.17,16.17,0,0,0-2.51-.12,21.5,21.5,0,0,0-4.55.64c-.36.11-.73.2-1.09.32a15.76,15.76,0,0,0-2.15.79c-.36.15-.69.32-1,.48s-.67.36-1,.56-.65.39-1,.58c-.45.29-.87.61-1.29.92l-.07.06c-.42.32-.83.65-1.22,1s-.76.71-1.13,1.07c-.16.18-.34.36-.51.54s-.34.36-.49.54a32.94,32.94,0,0,0-4.06,6,52.15,52.15,0,0,0-4.19,11.53l-.31,1.38-.26,1.28-.52,2.52v0c-.24,1.09-.47,2.2-.69,3.3l-.36,1.71c-.17.83-.32,1.65-.47,2.48-.28,1.67-.55,3.32-.84,5-.14.83-.27,1.64-.41,2.45s-.25,1.65-.37,2.46-.26,1.64-.36,2.45c-.23,1.61-.44,3.2-.63,4.79a.57.57,0,0,0,0,.18c-.2,1.58-.39,3.15-.56,4.72s-.31,3-.45,4.43c0,.12,0,.22,0,.34-.19,2.1-.36,4.21-.51,6.29-.07,1-.15,2.08-.21,3.11s-.12,2-.18,3c-.06-.14-.1-.27-.15-.41s0-.1,0-.15a1.54,1.54,0,0,1-.11-.3l-.54-1.49c-.6-1.59-1.28-3.21-2-4.82-.38-.81-.77-1.62-1.17-2.44q-1.25-2.44-2.68-4.87v0c-.24-.4-.49-.81-.75-1.21-.42-.68-.84-1.35-1.29-2s-.72-1.07-1.1-1.61h0c-.84-1.23-1.74-2.4-2.67-3.59-.37-.48-.75-1-1.14-1.43s-.78-.94-1.19-1.41-.79-.91-1.2-1.38c-.84-.93-1.71-1.86-2.61-2.76-.39-.39-.78-.78-1.19-1.17s-.82-.82-1.26-1.21l-.07-.06-1.7-1.53-.15-.12-.15-.1C690.84,392.08,690.75,392,690.68,391.93Zm26.53-103.3c.63-1,1.25-1.92,1.85-2.89.38-.61.72-1.22,1.08-1.82.78-1.32,1.52-2.66,2.24-4,.45-.83.89-1.65,1.31-2.48.54-1,1.06-2,1.59-3.06s1-2,1.53-3c1.31-2.56,2.52-5.11,3.8-7.54a56.56,56.56,0,0,0,5.2,8.8c.37.52.75,1,1.17,1.53a1.25,1.25,0,0,0,.09.12l.13.17s0,0,0,.06,0,0,.06.06a1.19,1.19,0,0,0,.15.18c.27.33.6.69.93,1.06s.69.75,1.05,1.1h0a2.91,2.91,0,0,0,.27.24c.65.62,1.31,1.21,2,1.78s1.64,1.24,2.52,1.81c.44.29.89.57,1.34.83a25.9,25.9,0,0,0,2.93,1.49,27.74,27.74,0,0,0,3.26,1.14c.57.15,1.15.28,1.74.4h0a24.59,24.59,0,0,0,2.8.36l1,0a14.75,14.75,0,0,0,2-.06,2.77,2.77,0,0,1,.3,0l.33,0,.72-.09c.36-.06.71-.12,1.07-.2s.63-.13.93-.21.75-.21,1.12-.33c.55-.18,1.09-.37,1.61-.58s1.11-.5,1.65-.78l.59-.35c.25-.15.51-.31.76-.48a19.58,19.58,0,0,0,3.46-3c.25-.29.49-.57.72-.86a9.67,9.67,0,0,0,.65-.89c.4-.58.79-1.17,1.12-1.77.18-.3.35-.6.5-.9.3-.58.58-1.18.84-1.79s.48-1.17.69-1.74a33.79,33.79,0,0,0,1-3.35q.45-1.62.78-3.18c.05-.26.11-.5.15-.74l.14-.58.18-.89c.1-.46.21-.93.31-1.38s.2-.89.3-1.31c.06-.21.11-.42.17-.61s0-.2.07-.3,0-.05,0-.06a5.52,5.52,0,0,1,.16-.54c.11-.29.21-.57.33-.84a15.69,15.69,0,0,1,.83-1.57c.06-.09.12-.16.18-.24l0-.06.07-.09s0,0,0,0a2.71,2.71,0,0,1,.17-.25l.12-.14h0s0,0,.06-.06l.22-.12a.64.64,0,0,1,.47,0,.65.65,0,0,1,.27.38v.06s0,0,.07.25.14.38.2.57.13.41.19.64.12.43.17.66a6.43,6.43,0,0,1,.16.72c.12.49.21,1,.3,1.57s.18,1.09.27,1.72c0,.22.08.46.11.72.24,1.71.52,3.71.9,5.54.13.72.28,1.42.43,2.15s.32,1.42.49,2.14c.33,1.43.69,2.86,1.09,4.28,0,.17.09.35.14.53s.1.36.15.54v0c0,.18,0,.39.07.59s0,.4.08.6h0c.1.83.24,1.7.37,2.61,0,.12,0,.23.05.35,0,.35.09.71.15,1.07a42.58,42.58,0,0,0-4.46.78c-.57.12-1.14.27-1.73.43l-.31.09a4,4,0,0,0-.59.17l-.3.07c-.56.15-1.11.33-1.67.51v0c-.63.21-1.28.43-1.92.69s-1.3.49-2,.77l-1.95.87c-.66.31-1.32.63-2,1s-1.3.71-2,1.1-1.34.79-2,1.23c-1.38.89-2.61,1.79-3.86,2.75s-2.43,1.94-3.6,3c-.59.49-1.17,1-1.76,1.51s-1.44,1.28-2.15,1.93l-2.1,1.9q-2.09,1.92-4.17,3.7c-.93.79-1.87,1.54-2.81,2.25-.36.29-.74.57-1.11.83s-.75.54-1.13.79c-.57.38-1.13.74-1.7,1.08s-.9.53-1.36.78l-1.23.62c-1,.45-2,.87-3.05,1.28-.56.21-1.14.42-1.73.61-1.35.44-2.75.81-4.23,1.16-.64.15-1.28.3-1.94.43l-1.94.41c-.64.14-1.32.27-2,.39-1.35.26-2.73.53-4.16.78-1.77.33-3.6.66-5.49,1l-.11,0a.19.19,0,0,0-.1,0l-.65-.27c-.21-.09-.42-.18-.63-.29,0,0,0,0-.07,0s0,0-.06,0h0l-.09-.05-.49-.28a5,5,0,0,1-.66-.44,2.14,2.14,0,0,1-.39-.28l0,0c-.11-.08-.21-.18-.3-.26a3.05,3.05,0,0,1-.36-.36,1.51,1.51,0,0,1-.21-.23,2.13,2.13,0,0,1-.21-.22c-.15-.17-.27-.35-.41-.53s-.27-.37-.4-.58-.2-.33-.3-.51l-.09-.15c-.05-.09-.11-.18-.15-.27v0a6.06,6.06,0,0,1-.41-.85c-.12-.3-.24-.6-.35-.92s-.21-.59-.3-.9-.19-.74-.27-1.11-.13-.56-.18-.84c0-.11,0-.2,0-.3a1,1,0,0,1,0-.15c-.05-.26-.09-.51-.12-.77s-.09-.71-.12-1.07-.06-.69-.08-1c0-1.44,0-3,.15-4.45l.92-.91c.9-.94,1.77-1.87,2.6-2.83.25-.28.49-.57.73-.87h0l.3-.35a.05.05,0,0,1,0,0l.27-.35c.09-.12.18-.24.27-.34C714.57,292.48,715.94,290.57,717.21,288.63ZM591.92,343.9c.14-.39.29-.77.44-1.14.21-.54.42-1.08.66-1.62,0,0,0-.05,0-.06l.09-.21a.42.42,0,0,1,.06-.14c0-.06,0-.13.07-.19.15-.4.32-.76.5-1.13.34-.8.72-1.58,1.12-2.36a1.33,1.33,0,0,1,.06-.12c.27-.55.56-1.07.86-1.61a.53.53,0,0,1,.06-.1l.1-.2c.08-.18.19-.34.28-.51.4-.72.84-1.42,1.29-2.13s.93-1.47,1.44-2.18,1-1.41,1.56-2.1h0c.57-.65,1.13-1.33,1.67-2,.28-.33.57-.66.85-1s.57-.6.89-.9h0c.44-.47.89-.92,1.36-1.37a4.77,4.77,0,0,1,.45-.45v0l.21-.16,0,0,.15-.12.05-.05.24-.19,1.26-1,.94-.84,1-.71,1.56-1.09.46-.32,2.15-1.2,1.08-.6h0a1.11,1.11,0,0,1,.27-.13,3.68,3.68,0,0,1,.55-.24c.09-.05.2-.08.29-.12l2.24-1a10.23,10.23,0,0,1,1.15-.37l.59-.17.58-.18a1.09,1.09,0,0,1,.33-.09h0l.09,0a.06.06,0,0,1,0,0l.12,0,.54-.17c1-.27,2.12-.45,3.17-.67l.49-.11c.68-.09,1.36-.16,2-.24h.06c.69-.07,1.41-.15,2.13-.19s1.46-.11,2.19-.12c1-.05,2.14-.06,3.23,0,.32,0,.65,0,1,0q2.91,0,5.95.27c1.88.14,3.78.3,5.74.5,1.78.15,3.6.34,5.45.52l3.89.36h0l3.22.26c1.47.09,2.91.19,4.4.27H665l.26,0c.58,0,1.18,0,1.78,0h.06l3.37,0,3.54-.13a1.34,1.34,0,0,0,.35,0h0c1.07-.08,2.14-.15,3.22-.26.63-.06,1.26-.13,1.89-.22l1.74-.26c.62-.1,1.23-.21,1.85-.33s1.21-.25,1.83-.4l1.68-.44a2,2,0,0,0,.23-.06l1.77-.55h0a18.31,18.31,0,0,0,2.5-.83v0h0c.07.79.18,1.58.31,2.38.08.4.15.79.26,1.2a10.65,10.65,0,0,0,.27,1.08c.12.45.25.9.4,1.35s.21.63.33.95l.35.87c.26.61.53,1.23.84,1.83.14.3.3.59.45.87.32.56.66,1.11,1,1.65l.55.79h0c-.63.36-1.25.74-1.86,1.13s-1.23.82-1.84,1.27a7.64,7.64,0,0,0-.66.5c-.22.16-.45.34-.66.52h0c-.21.18-.42.36-.63.56s-.44.36-.65.54c-.4.39-.81.75-1.23,1.14-.2.2-.41.39-.6.59a8.08,8.08,0,0,0-.57.6h0c-.39.41-.77.83-1.13,1.25s-.66.8-1,1.22-.7.91-1,1.38l-.88,1.33-.44.73a3.7,3.7,0,0,0-.21.33l-.18.31c-.21.36-.42.74-.61,1.11s-.38.75-.57,1.11c-.39.81-.77,1.61-1.12,2.42s-.64,1.61-.93,2.4c-.13.41-.27.8-.4,1.21s-.29.91-.42,1.36l-.36,1.31c0,.1-.06.21-.08.31-.18.73-.36,1.45-.51,2.15-.28,1.31-.52,2.62-.7,3.89-.11.74-.21,1.46-.29,2.18a2.48,2.48,0,0,1,0,.27c-.06.59-.1,1.16-.16,1.73,0,0,0,.07,0,.12s0,.25,0,.39a.81.81,0,0,1,0,.15c0,.1,0,.21,0,.3,0,.4,0,.81-.08,1.2,0,.54-.06,1.1-.07,1.62s0,1.08,0,1.61,0,1.11,0,1.67c0,.36,0,.72,0,1.08q0,3.28.26,6.36c.06.86.14,1.7.23,2.54s.16,1.65.27,2.47c.07.6.15,1.2.24,1.78.13,1,.28,2,.45,2.93-1.42-.74-2.84-1.4-4.33-2-.87-.38-1.74-.72-2.61-1s-1.77-.63-2.66-.91l-1.35-.41c-.9-.25-1.8-.5-2.72-.71-.45-.1-.9-.21-1.37-.3a50.08,50.08,0,0,0-5.33-.84,47.73,47.73,0,0,0-5.72-.28c-.45,0-.92,0-1.37,0-.9,0-1.8.09-2.7.16-1.34.12-2.67.29-4,.5-.87.15-1.74.31-2.6.49s-1.69.39-2.54.63c-.42.11-.84.23-1.26.37l-1.23.39c-.4.13-.81.27-1.21.42s-.59.21-.88.33a4.69,4.69,0,0,0-.67.27c-.56.21-1.11.45-1.65.69l-.35.16-.37.18c-.65.3-1.3.62-1.93.95s-1.45.78-2.14,1.2-1.42.86-2.11,1.32-1.33.93-2,1.43h0c-.14.1-.26.21-.39.31-.42.33-.83.68-1.24,1s-1,.91-1.54,1.39a1.46,1.46,0,0,0-.23.21l-.22.21a37.55,37.55,0,0,0-3.17,3.41c-.74.93-1.43,1.88-2.06,2.84l-3.48-1.07c-1.17-.36-2.35-.7-3.52-1-2.34-.69-4.68-1.34-7-2-1.58-.42-3.14-.83-4.72-1.22l-4.94-8.93c-.52-2.7-.93-5.41-1.2-8.11-.1-1.08-.18-2.15-.25-3.23v0c0-.54-.06-1.08-.08-1.62s0-1.17,0-1.75a35.16,35.16,0,0,1,0-3.71l.14-2.66.31-2.64c.08-.89.23-1.78.39-2.65.05-.27.09-.52.15-.79s.08-.36.11-.54.07-.44.12-.67.07-.43.1-.64c.17-.66.32-1.31.5-2,.09-.37.18-.73.28-1.11.18-.72.38-1.43.59-2.15s.39-1.2.61-1.78a.26.26,0,0,0,0-.08C591.65,344.65,591.78,344.27,591.92,343.9Zm70.73,609.59c-1.9,1.1-3.81,2.15-5.75,3.17h0c-.74.41-1.49.81-2.23,1.2h0l-.06,0a5.85,5.85,0,0,1-2.08.06,2.24,2.24,0,0,1-.5-.11,3,3,0,0,1-.49-.13c-.17-.05-.32-.12-.47-.18a3.19,3.19,0,0,1-.45-.23l-.36-.21-.33-.24a1.51,1.51,0,0,1-.36-.3s0,0,0,0a3.72,3.72,0,0,1-.55-.57,3.32,3.32,0,0,1-.32-.42,5.55,5.55,0,0,1-.73-1.51,6.58,6.58,0,0,1-.23-1.07,6,6,0,0,1,0-1c0-.36,0-.72.07-1.08s0-.7.06-1.07c.05-.67.09-1.36.15-2s.09-1.37.12-2.06c.15-1.74.23-3.48.35-5.23.06-.79.09-1.57.15-2.38.12-2,.22-4,.33-6s.22-4,.31-6q.18-3.29.33-6.58c0-.34,0-.69,0-1,.06-1.46.12-2.9.16-4.36,0-.67.06-1.33.08-2,.09-2,.16-4.08.24-6.13h0v-.12c0-1,.07-1.88.09-2.81s.07-2,.1-3,.06-1.92.08-2.88c0-.47,0-1,0-1.41,0-.24,0-.5,0-.76s0-.48,0-.73c0-.65,0-1.31.06-2,0-1.1.06-2.2.08-3.29,0-.14,0-.29,0-.42v0l.09-5c.09-4.15.15-8.31.19-12.42,0-3.89,0-7.75,0-11.61,0-2.69,0-5.39,0-8.08,0-2.18,0-4.36-.05-6.52,0-.8,0-1.58,0-2.36,0-.57,0-1.14,0-1.72,0-.14,0-.29,0-.43,0-.64,0-1.27,0-1.92v-.43c0-.93,0-1.85,0-2.77v-.07c0-.12,0-.26,0-.38,0-2.52-.09-5-.15-7.55,0-1.53-.08-3.06-.12-4.61v-.23c0-1.29-.08-2.59-.11-3.9,0-.68-.06-1.35-.07-2,0-.12,0-.24,0-.36q-.1-3.4-.24-6.79-.14-3.57-.28-7.13c-.11-2.39-.21-4.76-.33-7.13V795c0-.82-.08-1.64-.12-2.45l-.09-1.67c-.05-1-.09-1.88-.15-2.81q-.27-5.09-.59-10.15c0-.53-.06-1-.1-1.58-.11-1.72-.21-3.45-.33-5.16-.14-2.15-.29-4.3-.45-6.43-.12-1.71-.24-3.41-.38-5.12-.15-2.18-.33-4.36-.51-6.53a3.53,3.53,0,0,0-.05-.56c0-.1,0-.19,0-.3-.14-1.67-.27-3.35-.42-5-.23-2.64-.47-5.3-.71-8q-.24-2.84-.54-5.66c-.06-.76-.13-1.53-.21-2.3-.52-5.39-1.08-10.76-1.68-16.15a1.81,1.81,0,0,0,0-.23q-.4-3.72-.84-7.43c-.3-2.65-.62-5.27-1-7.92s-.64-5.27-1-7.91c-.27-2.16-.55-4.33-.85-6.49-.45-3.39-.92-6.77-1.4-10.17q-.81-5.7-1.67-11.38c-.28-1.89-.57-3.79-.87-5.68s-.58-3.78-.9-5.67L633.28,645q-.71-4.26-1.44-8.52c-.45-2.61-.92-5.22-1.38-7.82s-1-5.23-1.43-7.83-1-5.21-1.47-7.81c-.06-.28-.12-.58-.17-.87-.45-2.31-.9-4.61-1.36-6.92s-.92-4.63-1.39-6.92v0q-1-4.85-2-9.68c-.1-.44-.19-.89-.28-1.34s-.15-.68-.23-1l-1.89-8.68q-1.31-5.89-2.67-11.8c-.55-2.34-1.1-4.7-1.66-7.05-.73-3.12-1.5-6.26-2.26-9.38-.35-1.43-.7-2.84-1.06-4.25a1,1,0,0,0-.06-.23c-.34-1.41-.7-2.82-1.06-4.25l-1.08-4.23q-3.52-13.68-7.32-27.29c-.64-2.31-1.3-4.62-2-6.94-.45-1.6-.92-3.21-1.39-4.8q-.78-2.73-1.59-5.45L597,488c-.78-2.63-1.58-5.27-2.39-7.9-1-3.21-2-6.43-3-9.63-.66-2.13-1.35-4.26-2-6.38s-1.37-4.26-2.08-6.38v0c-.87-2.69-1.75-5.36-2.64-8s-1.79-5.34-2.7-8c-3-9-6.17-17.86-9.43-26.75a4.62,4.62,0,0,1-.27-2.15,4.93,4.93,0,0,1,.18-.93,4,4,0,0,1,.16-.45c.09-.2.18-.39.29-.59a.47.47,0,0,1,.06-.09,3.77,3.77,0,0,1,.37-.52c.11-.12.21-.24.32-.35a4.11,4.11,0,0,1,.75-.63,1.35,1.35,0,0,1,.33-.19,3.57,3.57,0,0,1,.87-.39,4.32,4.32,0,0,1,1.56-.24h0c-.09.62-.12,1.22-.15,1.85s0,1.23,0,1.85c0,.45,0,.88,0,1.35,0,.31,0,.64.05,1s0,.68.07,1,.06.67.11,1,.07.58.12.87a10.32,10.32,0,0,0,.18,1.09,19.43,19.43,0,0,0,.48,2.24.94.94,0,0,0,.07.3.15.15,0,0,0,0,.09,1.42,1.42,0,0,0,0,.2c0,.07,0,.13.05.19.06.26.13.5.21.75.24.8.49,1.58.81,2.38.14.34.27.69.42,1s.3.69.47,1c.31.67.66,1.35,1,2a10.31,10.31,0,0,0,.55,1c.39.63.81,1.26,1.26,1.88s.76,1,1.15,1.5.66.8,1,1.19a34.26,34.26,0,0,0,2.48,2.49c.59.53,1.19,1,1.82,1.52.46.36.93.7,1.42,1.05.33.22.68.45,1,.67l.14.09.07.05c.32.21.66.4,1,.58.5.29,1,.57,1.53.83l1.16.54c.36.17.72.33,1.1.48.82.32,1.69.62,2.58.87l1,.26h0l1.38.28q.42.09.87.15h0l.84.12a.83.83,0,0,0,.22,0l.91.09c.49.05,1,.06,1.48.08a17.45,17.45,0,0,0,1.77,0,1.45,1.45,0,0,0,.3,0h.09a2.09,2.09,0,0,0,.43,0l.22,0c.48-.05,1-.09,1.43-.15h0c.47-.06.9-.14,1.32-.23l.63-.12c1-.21,1.9-.43,2.68-.63l.54-.12a1.16,1.16,0,0,1,.18,0l.16-.05a2.34,2.34,0,0,1,.26,0l.24,0h.07l.35-.06a3.06,3.06,0,0,1,.32-.05l.4-.06h.56l.19,0s.05,0,.06,0,.08,0,.11,0h.09v0h.06a.26.26,0,0,1,.12.05l.18.1a3.34,3.34,0,0,1,.63.44l.38.34a1.39,1.39,0,0,0,.21.21c.06.08.13.14.21.23s.33.42.51.66.33.51.5.79l0,.07,0,0h0l.12.21.06.11.17.28.09.18c.06.14.12.27.18.42.19.39.36.8.52,1.22l.23.54c.07.18.13.37.19.57a0,0,0,0,0,0,0c0,.08.06.15.09.24s.06.21.09.34a.38.38,0,0,0,0,.1s0,0,0,.06c.11.41.2.8.3,1.22q.21.87.39,1.8c.18.93.33,1.86.47,2.82.07.48.13,1,.18,1.46s.1,1,.15,1.47a141.86,141.86,0,0,1,.27,15.21c0,.71,0,1.43,0,2.15,0,2-.08,4-.08,6.14v.5c0,1,0,1.92,0,2.9,0,.57,0,1.15.05,1.74s0,1.17.07,1.76.06,1.17.11,1.77.07,1.25.13,1.88c.09,1.17.23,2.38.38,3.57a61.42,61.42,0,0,0,2.43,11c.14.4.27.81.42,1.21s.29.82.45,1.22c.41,1.07.86,2.12,1.34,3.17s.9,1.82,1.38,2.72,1,1.77,1.58,2.64c0,0,0,0,0,0,.24.36.48.72.74,1.08l.62.88a.47.47,0,0,0,.06.09s0,.08.07.11,0,0,0,0c.17.21.33.44.5.65s.48.63.72.93.66.8,1,1.19.69.78,1.06,1.15.75.78,1.14,1.16c.75.75,1.54,1.46,2.38,2.15s1.75,1.32,2.65,1.92c.46.3.91.6,1.39.89.3.18.6.36.92.52a0,0,0,0,1,0,0,.75.75,0,0,0,.13.06c.24.13.48.28.75.4q1.11.59,2.28,1.08a7.82,7.82,0,0,0,.91.36,27.24,27.24,0,0,0,2.68.91l.86.24c.58.15,1.16.27,1.73.37.87.15,1.74.26,2.59.33l1.72.12c.57,0,1.12,0,1.69,0l.74,0H663l.77,0c.26,0,.51,0,.77-.07l1.05-.12,1.42-.26.45-.1a.45.45,0,0,1,.11,0c.14,0,.26-.06.39-.09.32-.06.63-.14,1-.23l.18,0c.36-.09.72-.2,1.08-.32l1.53-.54c.37-.14.73-.27,1.09-.44l.07,0c.27-.1.51-.22.77-.34,0,0,0,0,0,0l.06,0h0l.69-.33.69-.36a28.62,28.62,0,0,0,4.15-2.74c.13-.1.27-.21.4-.33l.14-.1c.07-.08.16-.14.24-.23a3.3,3.3,0,0,0,.41-.36l.4-.37c.35-.33.69-.66,1-1s.6-.66.89-1l.64-.82a5,5,0,0,0,.39-.52l.32-.42c.1-.14.19-.29.29-.42s.25-.38.37-.57a4.67,4.67,0,0,0,.36-.59q.35-.59.66-1.2c.18-.33.33-.68.48-1a4.43,4.43,0,0,0,.2-.45c.12-.28.24-.54.33-.82v0a.39.39,0,0,0,.06-.15c.17-.45.3-.9.44-1.35.07-.27.13-.56.22-.83q0-.13.09-.3c0-.1.05-.21.06-.3.14-.64.29-1.27.38-1.89.06-.37.12-.72.16-1.07.09-.7.15-1.36.18-2,0-.34.05-.69.06-1a39.18,39.18,0,0,0-.15-4.69c-.09-.84-.13-1.68-.22-2.46s-.15-1.56-.24-2.27l-.18-1.56q0-.53-.09-1c-.05-.47-.09-.9-.11-1.28v0c0-.4,0-.8,0-1.19a14.82,14.82,0,0,1,.57-4.34c.46-1.4.84-1.8,1.25-2.09a3.58,3.58,0,0,1,2.61-.3l.54.11a7.69,7.69,0,0,1,.9.27,6.77,6.77,0,0,1,.75.28c.26.11.51.21.77.35s.33.16.49.25.33.18.5.27.37.21.55.33a3,3,0,0,1,.24.18s0,0,.06,0l.47.34.38.29c.37.28.76.61,1.14,1s.84.75,1.26,1.12l1.24,1.23,1.33,1.29c.67.67,1.36,1.37,2.08,2.08s1.46,1.39,2.26,2.11a41.67,41.67,0,0,0,3.36,2.77c.59.43,1.28.87,1.89,1.24l.14.09c.28.18.55.36.84.53a9.49,9.49,0,0,0,1,.54h0a21.66,21.66,0,0,0,2,1,20,20,0,0,0,2,.83,30,30,0,0,0,3.07.94h0l1,.26a27.16,27.16,0,0,0,3.85.65h.09c.62.07,1.22.12,1.83.15h0c.63,0,1.26,0,1.87,0h.45c.55,0,1.09,0,1.63-.06a33.81,33.81,0,0,0,10.51-2.34c1,1.2,2,2.4,3,3.62l3,3.69,2.17,2.79c1.37,1.79,2.74,3.58,4.07,5.38,0,0,.08.11.12.15l2.23,3c1.86,2.59,3.66,5.17,5.43,7.81.5.77,1,1.52,1.49,2.27l1.13,1.71c.16.24.33.48.48.72.27.41.51.8.76,1.19,1.08,1.71,2.17,3.43,3.22,5.17s2.07,3.45,3.11,5.19c.31.56.64,1.13,1,1.69,1.45,2.52,2.86,5.09,4.23,7.65v0c1.2,2.25,2.39,4.53,3.53,6.82.57,1.15,1.14,2.3,1.7,3.45s1,2,1.45,3l.36.77.18.37c.44,1,.86,1.86,1.28,2.81q1,2.28,2,4.6c.16.36.33.73.48,1.11Q790,584,791,586.45v0q1.66,4.1,3.2,8.24c.51,1.38,1,2.78,1.52,4.18,1,2.79,1.93,5.6,2.84,8.42q.78,2.48,1.53,5c.28.92.55,1.84.81,2.75q.74,2.55,1.44,5.12c.32,1.16.63,2.32.92,3.49.1.37.19.75.28,1.12.39,1.54.77,3.08,1.13,4.63.21.85.4,1.73.6,2.58q.24,1,.45,2.07l.13.56c.14.69.29,1.38.44,2.07s.29,1.38.42,2.07c.29,1.36.54,2.74.8,4.09,0,.1,0,.2.06.3,0,.29.09.57.15.86.13.7.25,1.41.37,2.1l.36,2.12q.3,1.75.57,3.51a1.13,1.13,0,0,1,0,.18c0,.2.06.38.09.57,0,.36.09.74.17,1.1s.07.48.1.73a1.13,1.13,0,0,1,0,.18l.05.36c.12.83.24,1.69.34,2.53,0,.09,0,.19.05.28a.88.88,0,0,0,0,.24c.21,1.56.4,3.13.59,4.7s.36,3.23.52,4.84q.18,1.76.33,3.51c0,.11,0,.21,0,.32s0,.13,0,.21c.09,1,.18,2.1.25,3.17.09,1.23.18,2.46.26,3.69s.15,2.62.21,3.92.1,2.36.15,3.55.09,2.46.12,3.71q.09,3.71.09,7.44c0,3.64-.06,7.24-.2,10.85-.06,1.63-.13,3.29-.22,4.92,0,.33,0,.66,0,1,0,.15,0,.31,0,.46v.08c0,.71-.09,1.4-.13,2.1s-.09,1.44-.15,2.16c-.09,1.34-.2,2.68-.32,4-.22,2.66-.49,5.32-.79,8-.16,1.33-.32,2.63-.49,4-.22,1.76-.46,3.52-.72,5.26v0q-1.26,8.67-3,17.18l-.45,2.11c-.15.72-.3,1.41-.47,2.12s-.31,1.41-.48,2.12c-.07.36-.16.7-.24,1s-.16.71-.25,1.05c-.66,2.81-1.37,5.59-2.12,8.37-.38,1.36-.75,2.73-1.14,4.1-.74,2.56-1.5,5.12-2.3,7.64-.31,1-.64,2-1,3h0l-.08.23c-.3.93-.62,1.86-.93,2.79-.39,1.16-.8,2.31-1.2,3.47-.5,1.4-1,2.79-1.52,4.18-1,2.76-2.09,5.52-3.2,8.26s-2.25,5.43-3.45,8.12q-.79,1.85-1.65,3.69c-.67,1.45-1.34,2.89-2,4.31s-1.26,2.65-1.92,4-1.27,2.53-1.93,3.79-1.38,2.69-2.1,4c-.58,1.1-1.17,2.2-1.77,3.28s-1.2,2.16-1.82,3.23c-.84,1.48-1.7,3-2.57,4.44-.19.33-.39.65-.57,1s-.25.43-.39.64l-1.38,2.29c-.22.39-.45.76-.69,1.14l-.19.33c-.19.27-.35.52-.52.79l0,.09-.09.14a2,2,0,0,1-.12.19l-.9,1.45c-.14.21-.27.4-.39.6l-.41.64-.09.14a2.17,2.17,0,0,1-.22.34l-.09.14-.5.76c-.85,1.33-1.73,2.63-2.6,4l0,.06a.47.47,0,0,0-.06.09s0,.05-.05.06,0,0,0,.06-.17.26-.26.38l-.88,1.31c-.08.12-.17.22-.24.34-.48.72-1,1.43-1.48,2.13-.25.38-.52.76-.79,1.13l-.3.42-.47.66-.64.9s0,0,0,.05h0a0,0,0,0,0,0,0l-.09.13v0l-1.25,1.7-1,1.29-.29.4a1.25,1.25,0,0,1-.09.12q-.37.5-.72,1a.52.52,0,0,0-.07.11l-.3.39c-.36.49-.74,1-1.11,1.47l-.18.24s0,0-.06.08c-.35.43-.7.88-1,1.33s-.68.9-1,1.34c-.7.9-1.41,1.79-2.13,2.69-1.49,1.88-3,3.72-4.55,5.55-.62.76-1.25,1.49-1.89,2.23s-1.32,1.54-2,2.31c-1,1.16-2,2.31-3.08,3.47-1.27,1.41-2.57,2.81-3.87,4.19l-.26.27c-.48.52-1,1.05-1.5,1.58l-.41.42h0l-.4.42q-1.62,1.71-3.29,3.38-3.33,3.36-6.76,6.58c-.82.79-1.66,1.58-2.52,2.36L716,914.79c-.9.82-1.82,1.65-2.75,2.46-.48.44-1,.86-1.44,1.28L710,920.12c-.61.53-1.24,1.07-1.85,1.58-1.07.91-2.15,1.81-3.23,2.7l-.63.53-.47.37a4.57,4.57,0,0,1-.36.29c-.63.52-1.27,1-1.92,1.56l-2,1.56c-.88.69-1.78,1.4-2.69,2.07-.27.23-.55.44-.84.66a2.52,2.52,0,0,1-.33.24c-.81.62-1.6,1.22-2.41,1.82v0l-1.87,1.36-.52.39-1,.71c-.88.64-1.77,1.28-2.67,1.91l-.74.51c-1.12.79-2.27,1.57-3.41,2.35s-2.13,1.45-3.2,2.15l-1.17.77c-.39.25-.79.52-1.18.76l-.11.08-.16.1c-1,.65-2,1.28-3,1.9s-2.08,1.32-3.14,2l-3,1.81h0l-.65.39h0c-.17.1-.35.19-.51.3-1.34.79-2.67,1.56-4,2.32-.11.08-.23.14-.33.2Zm284.83,4.26a.1.1,0,0,1-.07,0,5.23,5.23,0,0,1-2.89.12c-2-.45-4-.89-6.06-1.31l-.6-.12c-1.25-.25-2.47-.51-3.71-.75l-.93-.19h0c-.34-.08-.69-.14-1-.21l-4.32-.86q-3.15-.62-6.32-1.19-3.85-.72-7.71-1.36c-2.58-.44-5.15-.86-7.73-1.28s-5.17-.8-7.75-1.17q-3.5-.53-7-1l-1.15-.15c-.54-.08-1.06-.15-1.6-.21-1-.14-2-.26-3-.38l-2.87-.36c-2.51-.31-5-.6-7.52-.88l-2.83-.32c-2.23-.24-4.49-.46-6.74-.69-5-.48-10-.9-15-1.29l-5.37-.38c-1.79-.12-3.59-.22-5.38-.33-3.42-.21-6.85-.37-10.29-.54s-6.79-.27-10.18-.36l-2.18-.06-1.23,0-2.13-.05h-.26c-1.12,0-2.25,0-3.38-.06h-.66l-5.07-.06H802c-.84,0-1.68,0-2.53,0s-1.7,0-2.56,0h-3.53l-3.93.06c-1.07,0-2.13,0-3.18.06h-.11l-2.7.06h0q-4,.09-8,.23c-.3,0-.6,0-.89,0h-.12c-1.08,0-2.18.07-3.26.13h-.09a.58.58,0,0,0-.19,0c-.77,0-1.55,0-2.3.09h-.53l-1.47.08-2.14.1-.73.05c-.54,0-1.06.06-1.6.07-2.24.12-4.46.26-6.67.39-.54,0-1.07.06-1.61.11-1.44.1-2.88.19-4.31.3q-1.8.1-3.6.27l-1.38.1-2.21.18-.47.05-.4,0h-.06l-.45,0-3.38.3v0c-.48,0-1,.07-1.43.12l-1.49.13c-1.65.17-3.3.32-4.94.5l-1.6.17c-.26,0-.51,0-.77.09-1.25.12-2.51.27-3.75.4l-3.76.44a2.78,2.78,0,0,1-2.39-.87v0a.6.6,0,0,1-.15-.18s0,0,0-.06a.05.05,0,0,1,0,0,2.06,2.06,0,0,1-.23-.37,1.84,1.84,0,0,1-.19-.51,2.75,2.75,0,0,1,0-1.68h0a2.7,2.7,0,0,1,.26-.54v0c.09-.12.16-.24.25-.34a3,3,0,0,1,.41-.39q5.31-4.35,10.47-9,2.25-2,4.49-4.09c.27-.26.54-.52.81-.76h0c.88-.81,1.76-1.64,2.61-2.46v0c.8-.75,1.58-1.5,2.36-2.27s1.76-1.72,2.63-2.59l.21-.21,2.54-2.56c.67-.7,1.36-1.39,2-2.1,0,0,0,0,0,0,1-1,2-2,2.92-3.06s2-2.21,3.06-3.32c.17-.18.33-.38.5-.56.63-.7,1.26-1.4,1.87-2.1h0c.13-.15.27-.3.4-.47q4.24-4.77,8.26-9.7c.71-.85,1.4-1.71,2.09-2.58s1.2-1.49,1.79-2.24c.91-1.17,1.83-2.34,2.73-3.53l.08-.1,2.8-3.74c.94-1.26,1.85-2.53,2.75-3.79s1.81-2.52,2.69-3.8h0q1.7-2.43,3.34-4.88t3.15-4.84a1.73,1.73,0,0,0,.19-.31c0-.06.09-.14.14-.2.75-1.19,1.5-2.37,2.24-3.57.06-.11.12-.2.18-.3l.22-.36a7.18,7.18,0,0,0,.39-.63l.17-.26c.91-1.5,1.83-3,2.73-4.54h0c.86-1.44,1.68-2.9,2.52-4.36l.26-.46c.8-1.41,1.59-2.84,2.36-4.27.64-1.17,1.27-2.34,1.89-3.53h0c.19-.34.37-.69.56-1.05a1,1,0,0,0,.08-.15c.72-1.39,1.45-2.82,2.16-4.23.21-.39.4-.8.6-1.19q.81-1.62,1.59-3.24c.14-.29.29-.57.41-.86.52-1.09,1-2.18,1.54-3.27.24-.51.48-1,.71-1.52a.05.05,0,0,1,0,0c.3-.68.61-1.37.91-2.06.07-.15.14-.3.2-.45.44-.93.84-1.86,1.25-2.8l.19-.45c1-2.23,1.92-4.47,2.84-6.74h0l0,0c.3-.73.6-1.49.9-2.24.37-.91.73-1.83,1.08-2.74l.46-1.19,0-.11v-.07l0,0s0,0,0-.05a.32.32,0,0,0,0-.09q.57-1.44,1.08-2.88c.37-1,.73-1.94,1.07-2.91s.68-1.94,1-2.9l1-2.93c.32-.92.62-1.82.92-2.73.46-1.45.93-2.9,1.38-4.34s.89-2.92,1.32-4.37c.38-1.3.75-2.6,1.11-3.89.08-.24.14-.48.21-.72l.09-.36c.17-.58.32-1.16.48-1.75s.38-1.39.56-2.1c.39-1.47.77-2.94,1.13-4.43s.72-3,1.06-4.45.68-3,1-4.47.63-3,.93-4.49c.12-.57.24-1.14.35-1.71.06-.29.12-.57.16-.86s.11-.58.15-.87h0a6.18,6.18,0,0,0,.13-.75c.09-.42.17-.86.24-1.29s.18-1,.27-1.46c.14-.69.26-1.4.36-2.1.26-1.49.51-3,.75-4.51s.47-3,.68-4.52c.42-3,.81-6,1.14-9.08.24-2.21.48-4.43.69-6.67s.39-4.46.54-6.71c.2-3,.38-6,.5-9,.06-1.4.1-2.79.15-4.19,0-.33,0-.68,0-1v-.21c0-1.2.06-2.41.07-3.62,0-1.5,0-3,0-4.52,0-3.49-.06-7-.16-10.48,0-1.09-.08-2.18-.12-3.27v-.11c0-.19,0-.37,0-.57,0-.85-.09-1.71-.12-2.57-.06-1.08-.14-2.16-.2-3.24l-.22-3.24c-.11-1.34-.2-2.69-.3-4a2.77,2.77,0,0,1,0-.3c0-.48-.09-1-.14-1.44a.28.28,0,0,0,0-.09c-.11-1.29-.24-2.57-.38-3.85-.1-1.06-.22-2.14-.34-3.21-.15-1.28-.3-2.57-.47-3.84s-.29-2.24-.44-3.37c-.31-2.24-.64-4.46-1-6.68-.22-1.4-.45-2.78-.69-4.18-.72-4.16-1.51-8.29-2.4-12.42-.36-1.66-.74-3.33-1.11-5s-.8-3.33-1.2-5q-1.25-5-2.63-9.88-.71-2.46-1.43-4.91c-.49-1.63-1-3.25-1.51-4.87-.26-.81-.52-1.62-.79-2.43l-.81-2.42q-.81-2.42-1.66-4.82c-.47-1.31-.93-2.6-1.42-3.89l-.13-.38c-.14-.33-.26-.64-.38-1-.54-1.45-1.09-2.89-1.65-4.31-.61-1.58-1.26-3.16-1.91-4.73s-1.3-3.14-2-4.7c-.75-1.76-1.53-3.5-2.31-5.25s-1.59-3.48-2.42-5.21c-.28-.57-.55-1.14-.82-1.72s-.56-1.15-.85-1.72q-4.47-9.14-9.58-18s0,0,0,0c-.56-.94-1.08-1.91-1.64-2.84v-.12q5-7.64,10.38-14.92c.88-1.22,1.8-2.42,2.73-3.62s1.83-2.41,2.78-3.59,1.88-2.38,2.84-3.55,1.92-2.34,2.9-3.5,1.68-2,2.55-3l.26-.28c.19-.23.39-.47.6-.7.82-1,1.68-1.92,2.52-2.86v0q3-3.36,6.14-6.65t6.34-6.49q3.22-3.19,6.53-6.28a296.8,296.8,0,0,1,58.69-42.59h0c.12.23.25.45.39.69s.27.45.4.69.42.69.65,1l.63,1c.49.72,1,1.44,1.55,2.18l1.27,1.59.63.74c.32.39.65.76,1,1.15s.79.86,1.21,1.29,1.06,1.09,1.62,1.61.84.81,1.29,1.2l.1.09.86.72c.45.39.9.77,1.37,1.13s1,.74,1.45,1.08l.18.14.08.06s0,0,0,0c.62.45,1.27.88,1.91,1.3a50.54,50.54,0,0,0,19.6,7.44,55.31,55.31,0,0,0,11.41.51,57.29,57.29,0,0,0,11.7-2c.6-.17,1.22-.35,1.82-.54l1.8-.62c.6-.21,1.2-.43,1.8-.67s1.19-.47,1.78-.72c.94-.42,1.89-.86,2.82-1.34.43-.21.87-.44,1.31-.68.94-.51,1.89-1.05,2.82-1.62s1.8-1.12,2.67-1.74,1.74-1.25,2.59-1.91,1.68-1.36,2.49-2.08v0c.42-.34.81-.72,1.2-1.1s.77-.78,1.16-1.15.77-.78,1.14-1.17.54-.59.8-.89l.06-.06.12-.13a.81.81,0,0,0,.12-.14,2.23,2.23,0,0,1,.19-.24.39.39,0,0,1,.08-.1l.09-.11c.22-.27.45-.54.68-.8s.69-.82,1-1.24c.61-.84,1.23-1.68,1.8-2.5,1-1.39,1.83-2.76,2.64-4.07l.44-.67,1.15-1.86c.29-.47.57-.92.86-1.36l.31-.49.17-.26a1.94,1.94,0,0,1,.15-.24c.11-.16.2-.31.32-.46l.07-.09a.11.11,0,0,1,0-.06c.14-.2.26-.39.39-.57s.3-.45.47-.68l.61-.87c.41-.56.83-1.08,1.23-1.58a26.39,26.39,0,0,1,1.85-2l.36-.34.06-.06c.27-.26.57-.51.87-.77.45-.38.93-.72,1.43-1.07a27.49,27.49,0,0,1,3.14-1.89h0c.56-.3,1.13-.57,1.72-.82s1.17-.53,1.78-.76,1.17-.46,1.77-.67h0l.06,0c.6-.22,1.2-.42,1.82-.61l1-.32a1.29,1.29,0,0,0,.21-.06c.57-.18,1.16-.33,1.75-.49s1-.27,1.5-.41l1.5-.4,2-.48c2.76-.7,5.41-1.34,8-2a2.55,2.55,0,0,0,.33-.11l.35-.09.67-.19h0q-.93,2.48-1.8,5c-.61,1.66-1.19,3.31-1.79,5-.17.48-.33.95-.51,1.43-1,2.88-2,5.75-3,8.63-.48,1.37-.94,2.72-1.39,4.07-1,2.72-1.87,5.42-2.78,8.14q-1.8,5.39-3.56,10.77c-.66,2-1.32,4-2,6.07s-1.29,4-1.94,6.08-1.27,4.05-1.9,6.08q-4.71,15.23-9.06,30.55c-.57,2-1.15,4.08-1.71,6.12s-1.16,4.15-1.71,6.21-1.11,4.08-1.65,6.12-1.1,4.09-1.63,6.13Q987,542.66,984,555c-.49,2.07-1,4.13-1.47,6.2s-1,4.21-1.47,6.31-.93,4.07-1.38,6.1-.93,4.14-1.39,6.21-.91,4.15-1.35,6.22-.88,4.15-1.32,6.23q-1.08,5.15-2.12,10.28c-.06.34-.13.69-.21,1-.52,2.71-1.06,5.39-1.57,8.08-.06.32-.12.62-.18.92-.27,1.41-.54,2.82-.8,4.23-.57,3-1.13,5.94-1.65,8.89-.68,3.73-1.34,7.45-2,11.19q-.48,2.73-.93,5.45t-.91,5.44c-.3,1.8-.58,3.62-.88,5.44l-.27,1.72-.81,5.25q-.41,2.61-.8,5.25-.87,5.77-1.68,11.57t-1.58,11.6c-.31,2.35-.61,4.69-.9,7-.15,1.17-.3,2.36-.43,3.53q-.41,3.16-.77,6.35c-.26,2.12-.5,4.23-.74,6.35s-.46,4.24-.7,6.35q-.68,6.38-1.31,12.74c-.21,2.13-.4,4.25-.6,6.38-.07.74-.13,1.49-.21,2.24h0c-.32,3.52-.63,7-.92,10.55-.18,2.12-.34,4.25-.51,6.37-.13,1.74-.27,3.48-.39,5.22l-.09,1.17c-.1,1.32-.19,2.63-.28,3.95a4.63,4.63,0,0,0,0,.51c-.11,1.49-.21,3-.3,4.45-.06.7-.11,1.39-.14,2.09q-.23,3.3-.4,6.6-.59,9.33-1,18.69l-.09,2q-.44,9.78-.73,19.56c0,1.74-.09,3.47-.13,5.21,0,.42,0,.82,0,1.24,0,.26,0,.53,0,.8s0,.74,0,1.11,0,.74,0,1.11,0,.75,0,1.13c0,.72,0,1.44,0,2.18v.06c0,.67,0,1.36,0,2,0,1.5-.06,3-.09,4.49,0,1.7,0,3.39-.06,5.09,0,.24,0,.48,0,.74,0,4.52-.06,9-.06,13.59q0,16.33.39,32.59c0,1.29.06,2.55.09,3.83,0,.13,0,.27,0,.4,0,.33,0,.68,0,1,0,.12,0,.24,0,.36,0,.34,0,.7,0,1,.06,2.36.13,4.71.22,7.07v0c.12,3.72.28,7.46.44,11.19,0,.43,0,.87.06,1.3q.21,4.67.45,9.31c.05,1,.09,2,.15,3,.14,2.55.27,5.09.44,7.63v.09c0,.27,0,.54,0,.81.08,1.15.15,2.33.23,3.48a4.89,4.89,0,0,0,0,.54l.18,2.9c.1,1.61.19,3.21.3,4.81,0,.33,0,.67.07,1a2.83,2.83,0,0,1,0,.41,4.49,4.49,0,0,1,0,.51c0,.1,0,.22,0,.33v0c0,.13-.05.27-.08.39v0h0v0a.31.31,0,0,1,0,.17,3.57,3.57,0,0,1-.1.35,1.78,1.78,0,0,1-.14.36,4.54,4.54,0,0,1-.21.45.05.05,0,0,1,0,0,1.89,1.89,0,0,1-.28.47,4.77,4.77,0,0,1-1.08,1.2c-.15.12-.31.21-.46.31a2.52,2.52,0,0,1-.46.29,4.47,4.47,0,0,1-.93.39h0ZM649.17,792.5h0c0,.18,0,.34,0,.52,0,.65.06,1.28.11,1.93C649.24,794.13,649.21,793.31,649.17,792.5Zm104.67,80.64.23-.3.49-.69Q754.19,872.65,753.84,873.14Zm3.46-4.73h0l.63-.9Zm3.92-5.58c.16-.23.31-.47.48-.69l.28-.42a1.06,1.06,0,0,0,.12-.2Zm1.14-1.69h0s0,0,0-.06S762.37,861.11,762.36,861.14Zm2.79-4.22c-.85,1.33-1.73,2.63-2.6,4,.89-1.32,1.76-2.62,2.62-4,.16-.25.33-.51.48-.76Zm1.31-2h0c.12-.2.26-.41.38-.6C766.71,854.51,766.58,854.7,766.46,854.9Zm1.54-2.47h0c.16-.27.33-.52.5-.79C768.33,851.91,768.17,852.16,768,852.43Zm2.78-4.55-1.38,2.29c.26-.39.5-.8.75-1.2s.44-.73.65-1.09Zm26.9-3.56h0c.19-.34.37-.69.56-1.05C798.06,843.63,797.88,844,797.68,844.32Zm28.53-82.88q-3,4.35-7.11,27.57c-.61,3.47-1.15,6.51-1.6,9.09.32-.92.62-1.82.92-2.73.46-1.45.93-2.9,1.38-4.34s.89-2.92,1.32-4.37c.38-1.3.75-2.6,1.11-3.89.08-.24.14-.48.21-.72l.09-.36c.17-.58.32-1.16.48-1.75s.38-1.39.56-2.1c.39-1.47.77-2.94,1.13-4.43s.72-3,1.06-4.45.68-3,1-4.47.63-3,.93-4.49A7.64,7.64,0,0,0,826.21,761.44ZM951,946.16h0c.1,1.61.19,3.21.3,4.81,0-.05,0-.09,0-.14h0C951.21,949.25,951.1,947.72,951,946.16Zm-1.54-144.94q-.44,9.78-.73,19.56c0,1.74-.09,3.47-.13,5.21a50.64,50.64,0,0,1,5.51-.26h2.63c.09-3.26.19-6.52.33-9.77,0-.51,0-1,0-1.52,0-1.13.08-2.25.14-3.38,0-1,.09-1.95.13-2.93A51.75,51.75,0,0,1,949.47,801.22Zm-300.3-8.72h0c0,.18,0,.34,0,.52,0,.65.06,1.28.11,1.93C649.24,794.13,649.21,793.31,649.17,792.5ZM757.3,868.41h0l.63-.9Zm7.85-11.49c-.85,1.33-1.73,2.63-2.6,4,.89-1.32,1.76-2.62,2.62-4,.16-.25.33-.51.48-.76Zm1.31-2-.41.64c.15-.21.29-.43.42-.64s.26-.41.38-.6C766.71,854.51,766.58,854.7,766.46,854.9Zm-4.1,6.24c-.09.12-.17.26-.26.38l-.88,1.31c.16-.23.31-.47.48-.69l.28-.42.39-.58s0,0,0-.06S762.37,861.11,762.36,861.14Zm8.42-13.26-1.38,2.29c.26-.39.5-.8.75-1.2s.44-.73.65-1.09ZM768,852.43h0c.16-.27.33-.52.5-.79C768.33,851.91,768.17,852.16,768,852.43Zm29.68-8.11h0c.19-.34.37-.69.56-1.05C798.06,843.63,797.88,844,797.68,844.32Zm28.53-82.88q-3,4.35-7.11,27.57c-.61,3.47-1.15,6.51-1.6,9.09.32-.92.62-1.82.92-2.73.46-1.45.93-2.9,1.38-4.34s.89-2.92,1.32-4.37c.38-1.3.75-2.6,1.11-3.89.08-.24.14-.48.21-.72l.09-.36c.17-.58.32-1.16.48-1.75s.38-1.39.56-2.1c.39-1.47.77-2.94,1.13-4.43s.72-3,1.06-4.45.68-3,1-4.47.63-3,.93-4.49A7.64,7.64,0,0,0,826.21,761.44ZM951,946.16h0c.1,1.61.19,3.21.3,4.81,0-.05,0-.09,0-.14h0C951.21,949.25,951.1,947.72,951,946.16Zm-1.54-144.94q-.44,9.78-.73,19.56c0,1.74-.09,3.47-.13,5.21a50.64,50.64,0,0,1,5.51-.26h2.63c.09-3.26.19-6.52.33-9.77,0-.51,0-1,0-1.52,0-1.13.08-2.25.14-3.38,0-1,.09-1.95.13-2.93A51.75,51.75,0,0,1,949.47,801.22Z" transform="translate(-424.06 -199.21)" fill="#231f20"/><path d="M601.44,443.71l.47.1a8.32,8.32,0,0,0,.87.15C602.33,443.89,601.88,443.81,601.44,443.71Zm0,0,.47.1a8.32,8.32,0,0,0,.87.15C602.33,443.89,601.88,443.81,601.44,443.71Z" transform="translate(-424.06 -199.21)" fill="#3d1c3c"/><path d="M1175.94,969.94a28.91,28.91,0,0,1-8.75,20.78,30.7,30.7,0,0,1-21.57,9h-.3a33,33,0,0,1-23-9.34,1.33,1.33,0,0,0-.17-.16,36.18,36.18,0,0,1-2.53-2.71,36.69,36.69,0,0,1-10.72,8.39A34.14,34.14,0,0,1,1093,1000a31,31,0,0,1-4.68-.36,29.22,29.22,0,0,1-11.07-3.87,45.58,45.58,0,0,1-9.12,3.31,42.32,42.32,0,0,1-10.94,1.44c-1.71,0-3.43-.08-5.09-.23l-.41,0A29.53,29.53,0,0,1,1032,989.66a31.53,31.53,0,0,1-10.56,1.83,26.68,26.68,0,0,1-3.23-.2,30.25,30.25,0,0,1-5.14-.94,31,31,0,0,1-4.85-1.77,38.07,38.07,0,0,1-17.7,10.47,19.15,19.15,0,0,1-4.12.67c-1.26.08-2.53.11-3.79.11-.57,0-1.14,0-1.7-.08a42.41,42.41,0,0,1-17.61-5.45c-8.13,5.45-18,5.66-21.84,5.74l-1.26,0c-7.15,0-13.15-1.24-18.21-3.75-4.92,2.82-10.89,4.19-18.14,4.19-8.24,0-14-2.2-18.13-5.11a30.26,30.26,0,0,1-7.41,3.2,32.34,32.34,0,0,1-8.11,1.16h-.31a32.23,32.23,0,0,1-14.6-3.43,34.26,34.26,0,0,1-8.42-5.91l-.14-.16a36.43,36.43,0,0,1-2.55-2.71,36.33,36.33,0,0,1-9,7.44c-.56.33-1.13.64-1.7.95a34.22,34.22,0,0,1-16,4.05,31.13,31.13,0,0,1-4.68-.36,28.89,28.89,0,0,1-13.58-5.55,28.47,28.47,0,0,1-5.58-5.6,37,37,0,0,1-6.16,5.7,30.16,30.16,0,0,1-7.13,3.91,39.87,39.87,0,0,1-14.43,2.71c-1.07,0-2.17,0-3.23-.13h-.18A35.62,35.62,0,0,1,747.79,996c-.37-.21-.75-.44-1.11-.67-.47.3-.93.59-1.4.85a32.64,32.64,0,0,1-16.44,4.38,36.35,36.35,0,0,1-10.79-1.7,47.45,47.45,0,0,1-12-5.8,52.43,52.43,0,0,1-6.92-5.45,29.2,29.2,0,0,1-2.71,3.1,30.68,30.68,0,0,1-21.56,9h-.31a33,33,0,0,1-23-9.34,1.21,1.21,0,0,1-.16-.16,34.21,34.21,0,0,1-2.53-2.71,37,37,0,0,1-10.73,8.39,34.21,34.21,0,0,1-15.94,4.05,30.8,30.8,0,0,1-4.67-.36,28.91,28.91,0,0,1-15-6.69,31,31,0,0,1-13.33,5.86,34.38,34.38,0,0,1-6,.52c-1.06,0-2.13-.07-3.23-.18a24.76,24.76,0,0,1-17.63-10.27,29.39,29.39,0,0,1-18.6,7.49c-.3,0-.57,0-.87,0h-1.42c-10.92,0-19.1-3.36-24.42-9.94a40.68,40.68,0,0,1-4,3.62,42.76,42.76,0,0,1-24.35,9.27c-4.47.3-8.53.43-12.21.43-24.06,0-32.95-2.14-38.91-5.35-4.11-2.26-13.56-9.1-13.56-24.75a38.86,38.86,0,0,1,5-19.18,21.64,21.64,0,0,1,8.08-8.22,51.15,51.15,0,0,1-11.2-21,43.39,43.39,0,0,1-1.32-10.59c0-13.19,5.92-25.61,17.61-36.91,7.64-7.41,18.9-12.42,34.42-15.32a86.28,86.28,0,0,1,15.33-1.54A51.43,51.43,0,0,1,502.62,858a35.06,35.06,0,0,1,14.91,6.89,30.58,30.58,0,0,1,12.78-7,32.17,32.17,0,0,1,8-1,36.12,36.12,0,0,1,4.67.33l.34,0c6.46,1,15.51,4.16,23.44,13.58a37.2,37.2,0,0,1,14-9.35,35,35,0,0,1-10.18-3.45C566.49,855.82,557,849,557,833.33a38.78,38.78,0,0,1,5-19.17,21.57,21.57,0,0,1,8.08-8.22,51,51,0,0,1-11.2-21,43,43,0,0,1-1.32-10.58c0-13.19,5.92-25.61,17.61-36.92,7.1-6.87,17.33-11.69,31.22-14.66,1.05-.23,2.11-.44,3.2-.65a85.45,85.45,0,0,1,15.33-1.53,51.58,51.58,0,0,1,6.45.37h0c7.63.9,14.06,3.44,19.18,7.62a35.46,35.46,0,0,1,5.55,5.54l.28-.22c5.52-4.26,12.5-7.8,21.14-10.67a56.61,56.61,0,0,1,17.74-2.5c2.19,0,4.5.1,6.89.28,9.43.57,17.05,2.32,23.27,5.26a30.94,30.94,0,0,1,4.85-2.93,29.57,29.57,0,0,1,13-3c6.89,0,13.66,2.33,20.14,6.93l.2.13c6.79,5,12.5,12,17.48,21.62a30.36,30.36,0,0,1,1.56,3.52c1-.24,1.88-.44,2.75-.57l.36,0a24.79,24.79,0,0,1,3.42-.24,25.34,25.34,0,0,1,6.65.89c2.28-10.59,5.12-16.53,9.45-20.86l.14-.14a36.77,36.77,0,0,1,4.72-3.92l0,0h0a39.23,39.23,0,0,1,7.14-4,43.76,43.76,0,0,1,5.58-2,2,2,0,0,1,.31-.08,42.66,42.66,0,0,1,10.85-1.42h.67A42.61,42.61,0,0,1,842,721a33.39,33.39,0,0,1,18.87,10.34,29.32,29.32,0,0,1,2.84,3.75,46,46,0,0,1,5.77-5.81,34.85,34.85,0,0,1,7.64-4.91l.34-.17a29.41,29.41,0,0,1,11.94-2.58c8.29,0,15.67,3.35,22.06,9.95a30.3,30.3,0,0,1,16-11.85,23.79,23.79,0,0,1,3.08-.84,28.53,28.53,0,0,1,6-.63c9.21,0,17.37,4.44,23,12.48.11.18.21.35.32.51a56,56,0,0,1,7.23-3.61h0a77.51,77.51,0,0,1,9.6-3.3c2.92-.8,6-1.52,9.35-2.14,2.39-.44,4.64-.77,6.78-1a72.2,72.2,0,0,1,8.55-.52c10.49,0,19.13,2.69,25.66,8,9.27,7.43,14.62,19.07,15.8,34.51.18,2.19.28,4.44.28,6.53,0,4.63,0,18.74-10.84,27.34a22.25,22.25,0,0,1-4.38,2.72c6.71,8.64,9.89,16.59,9.89,24.62a29.68,29.68,0,0,1-.47,5.3c0,.18-.06.34-.1.52a40,40,0,0,1-14.69,23.59,42.33,42.33,0,0,1-16.91,8.18,34.8,34.8,0,0,1,8.54,7.88,62.19,62.19,0,0,1,4.37,6.45,38.11,38.11,0,0,1,5.08-6.45c7.52-7.43,16.65-11.29,26.48-11.29h.53a31.18,31.18,0,0,1,15.53,4.34,31.78,31.78,0,0,1,13.17,16c.31.8.65,1.73,1,2.89.92,2.73,2.06,6.63,3.53,12.67,8.18-18.53,16.61-29,26.93-33.81l.33-.14a29.23,29.23,0,0,1,11.93-2.6c12.81,0,23.45,7.93,31.63,23.59,10,19.27,16.86,47,21.19,85A33.75,33.75,0,0,1,1175.94,969.94Z" transform="translate(-424.06 -199.21)" fill="#fff"/><path d="M646.84,764.61q-1.12-14.8-8.63-20.81a10.25,10.25,0,0,0-.85-.62,14.9,14.9,0,0,0-4.18-1.94h0a28.65,28.65,0,0,0-8.24-1,66.39,66.39,0,0,0-11.72,1.19q-2.62.5-5,1.08-13.33,3.21-19.39,9.08-11.65,11.25-11.64,22.83a23.67,23.67,0,0,0,.75,5.86q3.24,13,20.28,24.19c.31.2,1.6,1,3.91,2.32s4.1,2.51,5.55,3.46a33.39,33.39,0,0,1,4.61,3.59c1.55,1.48,2.31,2.77,2.31,3.85v.15a3,3,0,0,1-2.12,2.58,9.43,9.43,0,0,1-1.48.42,37.38,37.38,0,0,1-6.32.38H591.18q-10.65,0-12.09,2.54a19.44,19.44,0,0,0-2.47,9.62c0,3.82,1.09,6.31,3.3,7.52a12.94,12.94,0,0,0,2.23.88q7.15,2.12,27.36,2.13c1.08,0,2.2,0,3.36,0,2.35-.06,4.85-.18,7.54-.34a23.65,23.65,0,0,0,13.52-5.11,21.25,21.25,0,0,0,3.77-3.75,20.44,20.44,0,0,0,3.88-8.49,10.21,10.21,0,0,0,.17-1.81,3.77,3.77,0,0,0,0-.66v-.11a5.19,5.19,0,0,0-.06-.52v0c-.34-2.77-1.83-6-4.42-9.6h0a63.9,63.9,0,0,0-5.47-6.58q-3.53-3.68-9.38-9c-4.26-3.87-6.73-6.14-7.43-6.84q-2.71-2.79-2.71-4.5a1.76,1.76,0,0,1,.29-1q1.07-1.59,14.81-1.88c3.39-.07,6.28-.2,8.63-.38h0c4.23-.34,6.79-.86,7.65-1.58,2.31-1.79,3.45-5.81,3.45-12C647.07,768.09,647,766.41,646.84,764.61ZM585,762.42a28.65,28.65,0,0,1,8.86-9.69,47.19,47.19,0,0,1,12.32-4.8c.85-.23,1.67-.44,2.43-.62a35.56,35.56,0,0,1,7.94-1.19c.55,0,1.07,0,1.58.08-.46.41-2.2,1-5.26,1.88l-4.13,1c-1.37.36-2.13.58-2.33.62q-12.78,4.44-18,12.18a40.5,40.5,0,0,0-3,5.86,19,19,0,0,1-2.4,4.36,3.9,3.9,0,0,1-.67-2.42Q582.25,766.94,585,762.42ZM582,831.3a5.89,5.89,0,0,1-.45-2.1,2.93,2.93,0,0,1,1.2-2.48,3.18,3.18,0,0,1,1.88-.67,4.47,4.47,0,0,1,2.48.9,4.56,4.56,0,0,0-3.6,1.43A11.07,11.07,0,0,0,582,831.3Zm36.73-11.49q0,3.53-3.82,5.19a13.34,13.34,0,0,1-2.37.87,7,7,0,0,1-1.84.26,4.35,4.35,0,0,1-2.56-.75,5.57,5.57,0,0,0,.91.06,8.46,8.46,0,0,0,3.48-.7,9.42,9.42,0,0,0,3.13-2.22,9.16,9.16,0,0,0,.78-.93,9.62,9.62,0,0,0,1.36-2.27,7.7,7.7,0,0,0,.55-1.91A8.19,8.19,0,0,1,618.75,819.81Z" transform="translate(-424.06 -199.21)" fill="#231f20"/><path d="M724.57,753.27c-1.33-3.89-3.27-6.68-5.81-8.34a7.45,7.45,0,0,0-.74-.46,25.49,25.49,0,0,0-6-2.27,58.23,58.23,0,0,0-11.23-1.63c-1.41-.12-2.78-.18-4.08-.21-.51,0-1,0-1.47,0a38,38,0,0,0-11.57,1.5q-13.82,4.57-19.38,11.43c-3.28,4-5.5,9.79-6.61,17.44-.18,1.23-.34,2.49-.46,3.81-.34,3.46-.55,8-.6,13.59v3.3c0,6.73.18,12.62.52,17.71v0c0,.23,0,.45.05.67A94.22,94.22,0,0,0,659,823.13a47.52,47.52,0,0,0,3,9.41c2.56,5.57,6.06,9.13,10.46,10.68a16.5,16.5,0,0,0,4.9.86c1.3,0,2.58.07,3.83.07q14.35,0,22.32-3.61c7.55-3.34,11.34-9.14,11.34-17.35a32.64,32.64,0,0,0-.23-3.75,3.58,3.58,0,0,0-1-2.16c-1.16-1.19-3.31-1.87-6.43-2h-1.42c-1.16,0-2.6,0-4.36.08-1.09.05-2.06.08-2.85.08a15,15,0,0,1-1.74-.08l-.5-.1c-2.17-.42-3.36-1.19-3.54-2.3v-1.73q0-3.24,3.67-4.21c1.31-.3,3.56-.66,6.77-1.05A51.91,51.91,0,0,0,710,804.8q6.76-2,6.76-9.1v-.6a4.9,4.9,0,0,0-1.59-3.62,5.42,5.42,0,0,0-1.73-1.11,18.62,18.62,0,0,0-6.15-1.21,51.17,51.17,0,0,1-9.14-1.21,6.62,6.62,0,0,1-3.1-1.42,5.64,5.64,0,0,1-1.21-4,5.49,5.49,0,0,1,2.56-4.95,5.92,5.92,0,0,1,3.15-.68,30.38,30.38,0,0,1,6.39.9,25.7,25.7,0,0,0,5.25.6,12.63,12.63,0,0,0,6.4-1.5q4.33-2.48,7-9.76a20.93,20.93,0,0,0,1.19-6.91A21.56,21.56,0,0,0,724.57,753.27ZM686,748c-3.3,1.16-5.11,1.82-5.4,2q-10.83,4.51-14.66,13.37a46.8,46.8,0,0,0-1.94,6.46,15,15,0,0,1-1.44,4.51q0-15.56,7.3-21a34,34,0,0,1,20.87-7.28A35.71,35.71,0,0,1,686,748Z" transform="translate(-424.06 -199.21)" fill="#231f20"/><path d="M829.37,746.35a15.51,15.51,0,0,0-4.14,3.31q-3.32,4.73-7.74,30-3.37,19.46-4,21.93a59.92,59.92,0,0,1-3.59,11.25c.79-.83,1.37-1.49,1.76-1.93h0l0,0c.33-.8.65-1.61,1-2.43.41-1,.8-2,1.18-3l.5-1.29,0-.11,0-.08v0l0,0a.54.54,0,0,0,0-.1c.41-1,.8-2.09,1.18-3.14s.78-2.1,1.16-3.16.73-2.11,1.11-3.15.71-2.12,1.07-3.19c.49-2.8,1.08-6.1,1.73-9.87q4.44-25.25,7.74-30a8.11,8.11,0,0,1,1.62-1.57c.13-.62.26-1.24.37-1.86q.1-.47.18-.93c.05-.32.12-.63.16-.94h0a5.4,5.4,0,0,0,.15-.82A18.36,18.36,0,0,1,829.37,746.35Zm0,0a15.51,15.51,0,0,0-4.14,3.31q-3.32,4.73-7.74,30-3.37,19.46-4,21.93a59.92,59.92,0,0,1-3.59,11.25c.79-.83,1.37-1.49,1.76-1.93h0l0,0c.33-.8.65-1.61,1-2.43.41-1,.8-2,1.18-3l.5-1.29,0-.11,0-.08v0l0,0a.54.54,0,0,0,0-.1c.41-1,.8-2.09,1.18-3.14s.78-2.1,1.16-3.16.73-2.11,1.11-3.15.71-2.12,1.07-3.19c.49-2.8,1.08-6.1,1.73-9.87q4.44-25.25,7.74-30a8.11,8.11,0,0,1,1.62-1.57c.13-.62.26-1.24.37-1.86q.1-.47.18-.93c.05-.32.12-.63.16-.94h0a5.4,5.4,0,0,0,.15-.82A18.36,18.36,0,0,1,829.37,746.35Zm0,0a15.51,15.51,0,0,0-4.14,3.31q-3.32,4.73-7.74,30-3.37,19.46-4,21.93a59.92,59.92,0,0,1-3.59,11.25c.79-.83,1.37-1.49,1.76-1.93h0l0,0c.33-.8.65-1.61,1-2.43.41-1,.8-2,1.18-3l.5-1.29,0-.11,0-.08v0l0,0a.54.54,0,0,0,0-.1c.41-1,.8-2.09,1.18-3.14s.78-2.1,1.16-3.16.73-2.11,1.11-3.15.71-2.12,1.07-3.19c.49-2.8,1.08-6.1,1.73-9.87q4.44-25.25,7.74-30a8.11,8.11,0,0,1,1.62-1.57c.13-.62.26-1.24.37-1.86q.1-.47.18-.93c.05-.32.12-.63.16-.94h0a5.4,5.4,0,0,0,.15-.82A18.36,18.36,0,0,1,829.37,746.35Zm16.9-2a11,11,0,0,0-2.14-1.87,15.08,15.08,0,0,0-5.89-2.34,21.33,21.33,0,0,0-6.29-.29h0a23.35,23.35,0,0,0-3.77.67,20.33,20.33,0,0,0-9,5q-3.76,3.78-6.83,27.57c-2.4,18.48-4.35,29.81-5.78,34a10.15,10.15,0,0,1-.77,1.55c-.83,1.44-1.58,1.69-2.25.71s-1.42-3.35-2-7.06c-.29-1.59-.8-5-1.5-10.29-.21-1.57-.39-2.93-.57-4a22.78,22.78,0,0,0-.7-3.41,35,35,0,0,0-1-3.89h0a19.7,19.7,0,0,0-3.28-6.47,9.48,9.48,0,0,0-1.16-1.2,5.83,5.83,0,0,0-4.86-1.65c-2.25.34-4.29,1.94-6.15,4.8-2.06,3.16-3.58,7.41-4.59,12.78q-1.5,9.6-2,18.1a6.67,6.67,0,0,1-.76,2.54,2.5,2.5,0,0,1-.32.48,1.82,1.82,0,0,1-2.39.5q-1.49-.68-3.37-22.75-2.12-24-5.11-29.75-5.25-10.14-11.64-14.79c-.42-.3-.85-.59-1.26-.85h0q-6.54-4.09-12-1.42-6.07,2.94-7,12-2.25,22.08,4.44,48,7.66,29.74,22.46,39.43a31.6,31.6,0,0,0,5.08,2.75,19.76,19.76,0,0,0,4.91,1.4h0a15.26,15.26,0,0,0,3.44.05c3.67-.39,7-2.29,10-5.7a26.45,26.45,0,0,0,5.48-10.74c.15-.55.33-1.22.53-2a9.26,9.26,0,0,1,.37-1.58c.25-.9.52-1.36.83-1.36a50,50,0,0,1,1.73,5.84l.3,1.08q2,7.64,6.12,11.26h0l.17.15a13.62,13.62,0,0,0,4.29,2.4,16.72,16.72,0,0,0,4.21.91,20.39,20.39,0,0,0,9.08-1.35q10.59-4.07,22.24-40.27,10-30.87,11.56-49.88A11.2,11.2,0,0,0,846.27,744.4Zm-110,6.16a9.8,9.8,0,0,1,.9-3.15,3.86,3.86,0,0,1,2.1-2.11,11.28,11.28,0,0,1,2.89-.23c.15-.13.22-.13.2,0h-.2a38.51,38.51,0,0,0-3,4.28,12.34,12.34,0,0,0-1.28,2.48l-1,2A4.44,4.44,0,0,1,736.22,750.56Zm38.46,62.35c.14-.23.36-.52.6-.85l.67-.82a11.92,11.92,0,0,0,1.21-1.71c.5-.77,1.27-3.4,2.33-7.84.52-2.22,1.13-4.88,1.8-8,1.35-6.87,2.84-10.3,4.44-10.3a1.37,1.37,0,0,1,.67.23c.09.39.17.8.22,1.19A8.14,8.14,0,0,1,786,788c-.2.51-.52,1.26-1,2.26a13.93,13.93,0,0,0-.9,2.18,90.45,90.45,0,0,0-2.33,10.14c-.8,4.44-1.45,7.56-1.93,9.38a11.18,11.18,0,0,1-.39,1.29,8.66,8.66,0,0,1-2.41,4.13,2.6,2.6,0,0,1-1.65.61,4.78,4.78,0,0,1-1.5-.31c0-.39-.1-.75-.15-1.05A6.64,6.64,0,0,1,774.68,812.91Zm30.88-.54c.47-.49.88-1,1.25-1.34a33.53,33.53,0,0,0,2.27-2.56,46.27,46.27,0,0,0,2.89-9.29.06.06,0,0,1,0,0c.93-3.93,1.92-8.93,3-15q4.51-25.38,5-27.34,1.74-7.29,3.23-9.38a9.6,9.6,0,0,1,4.07-2.94,7.54,7.54,0,0,1,4-.7h0a2.89,2.89,0,0,1,.73.18c.07.21-.26.62-1,1.2v0a18.36,18.36,0,0,1-1.62,1.18,15.51,15.51,0,0,0-4.14,3.31q-3.32,4.73-7.74,30-3.37,19.46-4,21.93a59.92,59.92,0,0,1-3.59,11.25,8.24,8.24,0,0,1-2.61,3.56,2.18,2.18,0,0,1-2.89-.39Q803.23,814.86,805.56,812.37Zm23.81-66a15.51,15.51,0,0,0-4.14,3.31q-3.32,4.73-7.74,30-3.37,19.46-4,21.93a59.92,59.92,0,0,1-3.59,11.25c.79-.83,1.37-1.49,1.76-1.93h0l0,0c.33-.8.65-1.61,1-2.43.41-1,.8-2,1.18-3l.5-1.29,0-.11,0-.08v0l0,0a.54.54,0,0,0,0-.1c.41-1,.8-2.09,1.18-3.14s.78-2.1,1.16-3.16.73-2.11,1.11-3.15.71-2.12,1.07-3.19c.49-2.8,1.08-6.1,1.73-9.87q4.44-25.25,7.74-30a8.11,8.11,0,0,1,1.62-1.57c.13-.62.26-1.24.37-1.86q.1-.47.18-.93c.05-.32.12-.63.16-.94h0a5.4,5.4,0,0,0,.15-.82A18.36,18.36,0,0,1,829.37,746.35Zm0,0a15.51,15.51,0,0,0-4.14,3.31q-3.32,4.73-7.74,30-3.37,19.46-4,21.93a59.92,59.92,0,0,1-3.59,11.25c.79-.83,1.37-1.49,1.76-1.93h0l0,0c.33-.8.65-1.61,1-2.43.41-1,.8-2,1.18-3l.5-1.29,0-.11,0-.08v0l0,0a.54.54,0,0,0,0-.1c.41-1,.8-2.09,1.18-3.14s.78-2.1,1.16-3.16.73-2.11,1.11-3.15.71-2.12,1.07-3.19c.49-2.8,1.08-6.1,1.73-9.87q4.44-25.25,7.74-30a8.11,8.11,0,0,1,1.62-1.57c.13-.62.26-1.24.37-1.86q.1-.47.18-.93c.05-.32.12-.63.16-.94h0a5.4,5.4,0,0,0,.15-.82A18.36,18.36,0,0,1,829.37,746.35Z" transform="translate(-424.06 -199.21)" fill="#231f20"/><path d="M922.7,832.36l-.29-2.59c-.74-6.2-1.55-12.13-2.43-17.74q-6-37.63-16.36-57.8-4.15-8-8.55-11.05a9.19,9.19,0,0,0-9.7-1.11Q876,746.45,866,770.91c-1.44,3.49-2.88,7.31-4.31,11.43s-3.15,9.35-5,15.31q-1.74,6-4.44,16.83-2,8.26-3.08,14.72a24.77,24.77,0,0,0-.3,3.75,14.1,14.1,0,0,0,.41,3.54,10.5,10.5,0,0,0,1.4,3.3,8.61,8.61,0,0,0,5.21,3.8,8.52,8.52,0,0,0,1.55.33,12.34,12.34,0,0,0,1.88.16,14.68,14.68,0,0,0,6.84-1.81,18.09,18.09,0,0,0,7.28-7l-.08.08s1.66-3.36,5-9.93c2.5-5,5.61-7.42,9.32-7.42H888a6.41,6.41,0,0,1,4.38,1.74q2.18,2,3.13,6.52,1.89,8.93,6.69,13.59a14.39,14.39,0,0,0,5.36,3.3,12.67,12.67,0,0,0,4.17.69,11.31,11.31,0,0,0,8.12-3.38,9.23,9.23,0,0,0,2.93-6.84A11.42,11.42,0,0,0,922.7,832.36Zm-67.59-4.61a1.25,1.25,0,0,0,.07.26.08.08,0,0,1-.08-.09,1.23,1.23,0,0,1,0-.17,10.07,10.07,0,0,1-.31-2.75,42.41,42.41,0,0,1,1-8v0a174.67,174.67,0,0,1,4.7-17.53s0,0,0,0c1.5-4.76,3.28-10,5.38-15.9v-.06s0-.07,0-.1q1.74-4.92,3.46-9.22v0a142.31,142.31,0,0,1,7.8-16.83c4-6.95,7.31-10.44,10.07-10.44a3.74,3.74,0,0,1,.75.08,1.39,1.39,0,0,1,.08.46c0,.8-.65,1.82-2,3.07q-6.51,6.53-13,20.87v0q-2.55,5.63-5.1,12.47c-.44,1.21-.89,2.45-1.34,3.74q-2.8,8-5.64,18.11Q855.39,825.46,855.11,827.75Zm27.72-28.44c-.36,0-.56-.1-.61-.31v-.23a11.1,11.1,0,0,1,.23-1.71c.12-.57.23-1.11.34-1.65Q885,785,885.9,783.15q.9-2.25,2-2.25c.64,0,1.29.87,2,2.58a24.72,24.72,0,0,1,1,3c.08.33.18.69.26,1.05h0c.44,1.76.9,3.95,1.4,6.61.59,3.45.92,5.31,1,5.55v.15a.2.2,0,0,1-.23.23h-.08l-.75-.23c-1.16-.25-2-.44-2.4-.59a12.52,12.52,0,0,0-3.38-.46c-.29,0-.59,0-.9,0a13,13,0,0,0-2.18.34A3.56,3.56,0,0,1,882.83,799.31Zm7.51,5.32a6.86,6.86,0,0,0,4.89-3.18,6.27,6.27,0,0,0,.66-1.32,8.12,8.12,0,0,0,.35-1.16,8.73,8.73,0,0,0,.33-2.45,8.23,8.23,0,0,0-.08-1.13,17.67,17.67,0,0,1,1.5,6,3.46,3.46,0,0,1-.37,1.73c-.66,1.14-2.22,1.73-4.74,1.73A19,19,0,0,1,890.34,804.63Z" transform="translate(-424.06 -199.21)" fill="#231f20"/><path d="M943.35,741.92a11.3,11.3,0,0,0-2.09-2.32,7.33,7.33,0,0,0-4.83-1.81,9.27,9.27,0,0,0-3,.53,12,12,0,0,0-2.57,1.15,11.54,11.54,0,0,0-5,7,11,11,0,0,0-.44,2.85,3.57,3.57,0,0,0,.37,1.8c.44.8,1.68,1.58,3.67,2.33a2.11,2.11,0,0,1,.43.2,2.19,2.19,0,0,1,.46.31,4.36,4.36,0,0,1,1.07,3.33,9.51,9.51,0,0,1-.08,1.13c-.05.8-1.27,2-3.67,3.59-.8,1.66-.23,3.11,1.73,4.35a4.79,4.79,0,0,0,1.84.41,2.35,2.35,0,0,0,.7,0q2.9-.22,5.41-3.92a28.88,28.88,0,0,0,5.94-10,19.1,19.1,0,0,0,1.35-6.46A7.45,7.45,0,0,0,943.35,741.92Zm-12.31,3a2.48,2.48,0,0,1,.66-.84,2.92,2.92,0,0,1,1.87-.67,3.65,3.65,0,0,1,1.36.3V744a3.24,3.24,0,0,1-1.36,2.33,3,3,0,0,1-2,1,1.8,1.8,0,0,1-.44,0H931a3.93,3.93,0,0,1-.23-1.21,2,2,0,0,1,.24-1Z" transform="translate(-424.06 -199.21)" fill="#231f20"/><path d="M1023.17,764.61q-1.12-14.8-8.65-20.81c-.28-.23-.58-.44-.87-.64-2.92-2-7.07-3-12.42-3a62,62,0,0,0-10.38,1c-.44.06-.88.14-1.34.22a73.58,73.58,0,0,0-14.9,4.23,30.45,30.45,0,0,0-9.52,5.93l-.11.11a0,0,0,0,0,0,0q-11.51,11.19-11.51,22.7a23.67,23.67,0,0,0,.75,5.86,32.75,32.75,0,0,0,8.23,14.28,0,0,0,0,0,0,0,56.56,56.56,0,0,0,8.62,7.51c1.09.81,2.23,1.6,3.42,2.38.3.2,1.6,1,3.9,2.32s4.1,2.51,5.55,3.46c1.07.7,2,1.37,2.8,2,2.75,2.18,4.12,4,4.12,5.43v.15c-.09,1.55-1.3,2.54-3.6,3-.23.05-.49.08-.79.12a43.43,43.43,0,0,1-5.53.26H967.51a59.4,59.4,0,0,0-6,.27h0c-3.43.38-5.45,1.13-6.09,2.27a19.34,19.34,0,0,0-2.48,9.62c0,3.82,1.1,6.31,3.3,7.52a12.49,12.49,0,0,0,2.22.88c.78.22,1.66.43,2.68.62,0,0,0,0,0,0a76.93,76.93,0,0,0,8.73,1c4.38.29,9.68.46,16,.46h.23c3.2,0,6.76-.14,10.67-.38a23.65,23.65,0,0,0,13.52-5.11,20.48,20.48,0,0,0,7.67-12.24,10.28,10.28,0,0,0,.15-1.81q0-6.84-10-17.5c-2.37-2.45-5.49-5.45-9.4-9-4.25-3.87-6.73-6.14-7.43-6.84q-2.72-2.79-2.71-4.5a1.63,1.63,0,0,1,.31-1c.69-1.06,5.63-1.68,14.79-1.88q14.26-.3,16.3-2c2.31-1.79,3.45-5.81,3.45-12C1023.38,768.09,1023.31,766.41,1023.17,764.61Zm-61.9-2.19a36.53,36.53,0,0,1,3.25-4.62l0,0a23.34,23.34,0,0,1,5.6-5,26.38,26.38,0,0,1,4.06-2.06,65,65,0,0,1,8.24-2.74,52.37,52.37,0,0,1,8-1.65,19.09,19.09,0,0,1,2.37-.16c.55,0,1.07,0,1.58.08a14.54,14.54,0,0,1-4.06,1.53l-1.2.35c-4,1-6.1,1.55-6.46,1.64a51.32,51.32,0,0,0-8.7,3.91,27.57,27.57,0,0,0-9.32,8.27c-.15.21-.29.44-.44.7,0,0,0,0,0,0a40.54,40.54,0,0,0-2.54,5.12,19.27,19.27,0,0,1-2.42,4.36,4,4,0,0,1-.67-2.42Q958.56,766.94,961.27,762.42Zm-1.43,66a11.38,11.38,0,0,0-1.51,2.92,6.36,6.36,0,0,1-.45-2.1,2.94,2.94,0,0,1,1.21-2.48,3,3,0,0,1,2.31-.64h0a4.91,4.91,0,0,1,2,.87,6.27,6.27,0,0,0-2.05.35,0,0,0,0,0,0,0A3.46,3.46,0,0,0,959.84,828.38Zm35.24-8.57c0,2.35-1.29,4.08-3.84,5.19a10.18,10.18,0,0,1-4.21,1.13,5,5,0,0,1-.69,0,4.08,4.08,0,0,1-1.86-.7,5.37,5.37,0,0,0,.9.06,8,8,0,0,0,1-.05,8.82,8.82,0,0,0,5.63-2.87,9.16,9.16,0,0,0,.78-.93,9.62,9.62,0,0,0,1.36-2.27,7.7,7.7,0,0,0,.55-1.91A7.93,7.93,0,0,1,995.08,819.81Z" transform="translate(-424.06 -199.21)" fill="#231f20"/><path d="M513.88,900.92q-1.12-14.79-8.65-20.81c-.28-.23-.57-.44-.87-.64-2.92-2-7.07-3-12.42-3a66.58,66.58,0,0,0-11.72,1.21q-17.28,3.22-24.42,10.13-11.62,11.26-11.63,22.84a23,23,0,0,0,.75,5.86q3.22,13,20.27,24.19c.31.19,1.61,1,3.92,2.33s4.09,2.5,5.55,3.45q6.93,4.66,6.92,7.44v.15c-.1,1.55-1.31,2.56-3.61,3a36.58,36.58,0,0,1-6.32.37H458.22c-7.12,0-11.15.87-12.1,2.57a19.25,19.25,0,0,0-2.48,9.61q0,5.7,3.3,7.51a13.3,13.3,0,0,0,2.22.88q7.15,2.13,27.37,2.12c3.27,0,6.89-.11,10.91-.37A23.58,23.58,0,0,0,501,974.68a20.26,20.26,0,0,0,7.66-12.24,9.27,9.27,0,0,0,.16-1.8q0-6.85-10-17.51c-2.37-2.45-5.48-5.45-9.4-9-4.25-3.85-6.73-6.14-7.43-6.84q-2.71-2.78-2.71-4.51a1.79,1.79,0,0,1,.3-1q1.05-1.56,14.8-1.87,14.28-.3,16.31-1.95,3.45-2.72,3.44-12C514.09,904.39,514,902.71,513.88,900.92ZM452,898.75a28.41,28.41,0,0,1,8.87-9.7c2.79-1.76,6.9-3.36,12.3-4.81a43.13,43.13,0,0,1,10.37-1.8c.55,0,1.08,0,1.58.07-.45.4-2.2,1-5.25,1.89l-6.47,1.65q-12.78,4.43-18,12.16a36.8,36.8,0,0,0-3,5.86,19.11,19.11,0,0,1-2.42,4.36,4,4,0,0,1-.67-2.4C449.27,904.17,450.17,901.75,452,898.75Zm-2.93,68.88a6.16,6.16,0,0,1-.46-2.11A2.93,2.93,0,0,1,449.8,963a3,3,0,0,1,1.87-.69,4.65,4.65,0,0,1,2.49.92,4.64,4.64,0,0,0-3.61,1.42A11.4,11.4,0,0,0,449.05,967.63Zm36.72-11.51q0,3.55-3.82,5.19a10.18,10.18,0,0,1-4.21,1.13,4.31,4.31,0,0,1-2.55-.75,6.69,6.69,0,0,0,.9.08,8.81,8.81,0,0,0,6.61-2.94c.28-.29.54-.6.79-.91a10.41,10.41,0,0,0,1.35-2.29,8.18,8.18,0,0,0,.56-1.91A8.16,8.16,0,0,1,485.77,956.12Z" transform="translate(-424.06 -199.21)" fill="#231f20"/><path d="M601.68,883.11a11.37,11.37,0,0,0-2.16-2.07,10.92,10.92,0,0,0-6.71-2.12,12.3,12.3,0,0,0-1.35.06,16.81,16.81,0,0,0-11,5.94,25.07,25.07,0,0,0-6.23,14.87c-.12,1-.18,3.38-.23,7.09v.57q0,6.46-.31,10c-.59,8-2.37,12-5.32,12H568a11.81,11.81,0,0,1-2.09-.36,8.68,8.68,0,0,1-3.1-1.49c-.21-.19-.43-.37-.64-.57a10.44,10.44,0,0,1-2.72-5.84,29.12,29.12,0,0,1-.31-4.82c0-.75,0-1.58.08-2.48.1-4.55.14-7.08.14-7.59a36,36,0,0,0-4.73-18.74h0c-.39-.67-.81-1.34-1.27-2a24.46,24.46,0,0,0-5.88-6.05h0a0,0,0,0,0,0,0l-.56-.38a16.53,16.53,0,0,0-6.52-2.49,16.21,16.21,0,0,0-2.11-.15q-6.16,0-10.07,5.71a20.83,20.83,0,0,0-2.89,6.45A39,39,0,0,0,524.08,899c0,1.85.1,3.84.29,5.93.22,1.86.8,11.6,1.82,29.23q1.13,19.59,2.77,27.94,2,10.14,3.15,11.79A6.72,6.72,0,0,0,536,976.2a22.53,22.53,0,0,0,5.56.58h1.42q6.84-.28,10.14-8a74.89,74.89,0,0,0,2.41-7.22c1-3.44,1.8-5.92,2.4-7.42,1.41-3.51,3.56-5.26,6.47-5.26a10,10,0,0,1,1.94.21,9.59,9.59,0,0,1,4,1.82,7.6,7.6,0,0,1,2.6,4.35c.16.75.46,2.81.91,6.16s.8,5.94,1.2,7.88c1.45,6.61,3.78,10.06,7,10.3h0a11.35,11.35,0,0,0,1.25.08,15,15,0,0,0,1.51-.08c6-.59,10.08-4.86,12.4-12.76q3.33-11.49,5.81-36.11,1.42-14,2.53-32.33c0-.8.07-1.59.07-2.34C605.58,890.6,604.27,886.28,601.68,883.11Zm-72.2,12.24c0-.59,0-1.16,0-1.7a20.66,20.66,0,0,1,1.55-8.12,7,7,0,0,1,2.71-3.09,4.26,4.26,0,0,1,2.25-.68,4.19,4.19,0,0,1,1.65.37,8.06,8.06,0,0,1-2.26,2.71,18.7,18.7,0,0,0-2.85,3.09,20.7,20.7,0,0,0-1.59,3.83,21.36,21.36,0,0,1-.93,2.53A7.71,7.71,0,0,1,529.48,895.35Zm33.46,37.41a20.16,20.16,0,0,0,2.6.69,13.65,13.65,0,0,0,3,.37,9.09,9.09,0,0,0,1.31-.09c.27,0,.54-.07.8-.13,3.46-.71,5.74-2.53,6.84-5.49a22.66,22.66,0,0,0,.89-7.21c0-1,0-2.06-.06-3.15a39.29,39.29,0,0,1,.59,6.38q0,10.08-7.27,11.1a6.06,6.06,0,0,1-.76.1l-.41,0h0a3.78,3.78,0,0,1-.46,0,9.37,9.37,0,0,1-3.1-.51A12.17,12.17,0,0,1,562.94,932.76Zm15.15-21.93c0-.07,0-.15,0-.22h0c-.08-1.23-.13-2.39-.13-3.53a40.19,40.19,0,0,1,1.65-11.86q3.17-10.37,11.49-10.37h.23a10.4,10.4,0,0,1-2.77,2.11,18.06,18.06,0,0,0-4.59,4.21c-3.2,4-5.13,10.46-5.84,19.47C578.11,910.69,578.09,910.76,578.09,910.83Z" transform="translate(-424.06 -199.21)" fill="#231f20"/><path d="M685.56,968.67c0-.39-.1-.8-.13-1.19-.41-3.39-.82-6.69-1.26-9.91q-1.24-9.15-2.73-17.35-5.7-31.72-15-49.67-4.17-8-8.57-11.06a9.68,9.68,0,0,0-5.7-2,7.68,7.68,0,0,0-1.57.16,9.8,9.8,0,0,0-2.41.74c-3.51,1.63-7.05,5.33-10.68,11.13v0a0,0,0,0,1,0,0q-6.37,10.24-13,29.07-2.25,6.39-5,15.33c-.56,2-1.19,4.29-1.91,7s-1.6,6.12-2.52,9.81q-2,8.25-3.08,14.72a24.75,24.75,0,0,0-.29,3.76,12.38,12.38,0,0,0,1.79,6.83,8.69,8.69,0,0,0,5.19,3.81,11.77,11.77,0,0,0,1.57.32,12.5,12.5,0,0,0,1.88.15,14.55,14.55,0,0,0,6.83-1.81,18.12,18.12,0,0,0,7.3-7l-.08.07s1.13-2.31,3.39-6.81c.48-.93,1-2,1.57-3.1a17.65,17.65,0,0,1,3.41-4.88,8.24,8.24,0,0,1,5.89-2.57h.31a6.46,6.46,0,0,1,4.38,1.75,6.62,6.62,0,0,1,.78.88h0a13.79,13.79,0,0,1,2.33,5.63q.15.64.3,1.26c1.29,5.35,3.41,9.47,6.4,12.34a14.09,14.09,0,0,0,5.32,3.3,13.08,13.08,0,0,0,4.21.68,11.26,11.26,0,0,0,8.11-3.38,9.61,9.61,0,0,0,1.71-2.17,9.05,9.05,0,0,0,1.23-4.67A11.85,11.85,0,0,0,685.56,968.67ZM618,964.05a1,1,0,0,0,.06.26s-.08,0-.08-.06a.79.79,0,0,1,0-.2,9.61,9.61,0,0,1-.31-2.74q0-5.77,3.46-18.1,2.76-9.72,7.65-23.52a201.43,201.43,0,0,1,8.54-20.83v0q1.38-2.82,2.71-5.19c3.77-6.65,7-10.12,9.68-10.42a1.71,1.71,0,0,1,.39,0,3.88,3.88,0,0,1,.75.07,1.5,1.5,0,0,1,.07.45c0,.77-.59,1.77-1.81,3a.8.8,0,0,1-.13.13q-6,6-11.85,18.39l0,0q-3.14,6.57-6.23,14.94-3.45,9.32-7,21.85c-.24.87-.49,1.7-.72,2.51C619.88,956.09,618.13,962.6,618,964.05Zm27.69-28.43c-.34,0-.55-.1-.6-.29v-.23a12.37,12.37,0,0,1,.23-1.73c1.66-7.92,2.81-12.54,3.46-13.89.6-1.51,1.26-2.26,2-2.26s1.29.87,2,2.58c.31.82.63,1.85,1,3.05.51,1.9,1.06,4.46,1.65,7.66.6,3.46.93,5.3,1,5.57v.14a.2.2,0,0,1-.23.23H656l-.75-.23a23.31,23.31,0,0,1-2.41-.6,13.17,13.17,0,0,0-3.38-.44c-.3,0-.61,0-.9,0a12.7,12.7,0,0,0-2.17.34A3.66,3.66,0,0,1,645.66,935.62Zm7.51,5.34a7,7,0,0,0,4.93-3.19,7.69,7.69,0,0,0,.64-1.32,6.77,6.77,0,0,0,.36-1.16,9.4,9.4,0,0,0,.31-2.45,7.82,7.82,0,0,0-.07-1.12,17.79,17.79,0,0,1,1.5,5.92,3.64,3.64,0,0,1-.37,1.73c-.65,1.16-2.24,1.73-4.73,1.73C654.94,941.1,654.09,941.05,653.17,941Z" transform="translate(-424.06 -199.21)" fill="#231f20"/><path d="M768.6,948.48a.71.71,0,0,0-.21,0c-.1.23-.19.44-.29.63l.6-.65Zm0,0a.71.71,0,0,0-.21,0c-.1.23-.19.44-.29.63l.6-.65Zm0,0a.71.71,0,0,0-.21,0c-.1.23-.19.44-.29.63l.6-.65Zm35.85-67.77a11.05,11.05,0,0,0-2.16-1.88,15.1,15.1,0,0,0-5.89-2.33,22.25,22.25,0,0,0-10.07.38,20.41,20.41,0,0,0-9,5q-3.75,3.75-6.84,27.57-3.6,27.71-5.78,34A12.69,12.69,0,0,1,764,945c-.83,1.46-1.58,1.71-2.25.73s-1.42-3.36-2-7.07c-.31-1.6-.8-5-1.51-10.28a47.36,47.36,0,0,0-1.29-7.44q-1.33-6.76-4.27-10.37a12.15,12.15,0,0,0-1.14-1.21c-.23-.19-.46-.39-.69-.55a5.67,5.67,0,0,0-4.18-1.09c-2.25.35-4.31,2-6.15,4.81A34.47,34.47,0,0,0,736,924.42v0c-.06.26-.11.54-.16.81-1,6.42-1.68,12.44-2,18.11a7.64,7.64,0,0,1-.75,2.56,5.91,5.91,0,0,1-.33.49,1.85,1.85,0,0,1-2.38.47c-.79-.34-1.67-5.17-2.61-14.46v0c-.27-2.44-.51-5.2-.77-8.27q-.57-6.35-1.18-11.39c-.47-3.89-1-7.2-1.51-10v0a33.92,33.92,0,0,0-2.42-8.37q-5.26-10.15-11.64-14.81c-.44-.32-.9-.62-1.34-.88-4.34-2.69-8.34-3.15-12-1.37-4.05,2-6.38,5.93-7,11.95q-2,19.56,3,42.11c.42,1.94.9,3.9,1.4,5.88.8,3.1,1.65,6,2.57,8.8a78.31,78.31,0,0,0,9.59,20.27,38.54,38.54,0,0,0,9.44,9.77c.27.2.57.4.86.59a31.69,31.69,0,0,0,5,2.73q10.75,4.55,18.41-4.23a16.68,16.68,0,0,0,1.28-1.63,26.59,26.59,0,0,0,4.21-9.11v0c.16-.53.33-1.2.54-2a9,9,0,0,1,.37-1.59c.25-.89.53-1.34.82-1.34a44.14,44.14,0,0,1,1.52,5c.06.26.14.53.21.83s.2.68.29,1.06a29.28,29.28,0,0,0,2.4,6.38,16.59,16.59,0,0,0,3.92,5,13.67,13.67,0,0,0,4.33,2.43,16.51,16.51,0,0,0,4.16.88,20.16,20.16,0,0,0,9.09-1.35q4.22-1.62,8.62-8.36,5.28-8.08,10.79-23.55v0c.92-2.63,1.86-5.4,2.81-8.34,1.35-4.19,2.6-8.24,3.72-12.09v0q6.58-22.65,7.85-37.75A11.31,11.31,0,0,0,804.45,880.71ZM765,947.34c1.44-1.55,2.19-2.4,2.29-2.55a46.58,46.58,0,0,0,2.84-9.14.8.8,0,0,0,0-.15c1-3.93,2-9,3.05-15q4.5-25.4,5-27.36,1.73-7.27,3.23-9.39a9.8,9.8,0,0,1,4-2.92q2.94-1.2,4.74-.54c.09.36-.77,1.16-2.63,2.42a15.61,15.61,0,0,0-4.13,3.3q-3.31,4.72-7.74,30-3.37,19.47-4,21.94a64.52,64.52,0,0,1-3.3,10.61v0c-.1.23-.19.44-.29.63a8.39,8.39,0,0,1-2.61,3.56,2.18,2.18,0,0,1-2.89-.39c-.8-.75-.43-2,1.12-3.61C764.2,948.19,764.62,947.73,765,947.34Zm-32.12,1.88a7.94,7.94,0,0,1,.62-.84,7.67,7.67,0,0,1,.65-.81,11.31,11.31,0,0,0,1.21-1.73c.51-.77,1.27-3.38,2.33-7.84.53-2.22,1.13-4.88,1.8-8q2-10.29,4.42-10.3a1.4,1.4,0,0,1,.69.23c.1.41.16.8.23,1.2a8.72,8.72,0,0,1-.61,3.24c-.21.5-.52,1.25-1,2.25a12,12,0,0,0-.89,2.17A86.12,86.12,0,0,0,740,938.93q-1.23,6.74-2,9.44c-.14.52-.26.93-.37,1.22s-.2.56-.3.82h0a7.75,7.75,0,0,1-2.1,3.3,2.57,2.57,0,0,1-1.65.6,4.36,4.36,0,0,1-1.5-.29c-.05-.41-.1-.75-.15-1.06a6.81,6.81,0,0,1,.23-2.09v0A5.56,5.56,0,0,1,732.86,949.22ZM694.4,886.86a9.52,9.52,0,0,1,.9-3.15,4,4,0,0,1,2.11-2.1,10.92,10.92,0,0,1,2.87-.23c.15-.13.21-.13.19,0h-.19a39.7,39.7,0,0,0-3,4.29,13.75,13.75,0,0,0-1.27,2.48l-1,2A4.47,4.47,0,0,1,694.4,886.86Zm74.2,61.62a.71.71,0,0,0-.21,0c-.1.23-.19.44-.29.63l.6-.65Zm0,0a.71.71,0,0,0-.21,0c-.1.23-.19.44-.29.63l.6-.65Z" transform="translate(-424.06 -199.21)" fill="#231f20"/><path d="M880.89,968.67q-1-8.68-2.18-16.61v0q-6-40.32-16.91-61.49-4.15-8-8.56-11.06a9.15,9.15,0,0,0-9.68-1.11q-11.44,5.34-23.67,40.26-2.25,6.39-5,15.33-1.47,5.16-3.71,14h0c-.23.92-.47,1.88-.72,2.86q-2,8.25-3.08,14.72a24.8,24.8,0,0,0-.3,3.76,16.12,16.12,0,0,0,.12,2,11.3,11.3,0,0,0,1.68,4.84,8.64,8.64,0,0,0,5.19,3.81,11.77,11.77,0,0,0,1.57.32,12.47,12.47,0,0,0,1.87.15,14.59,14.59,0,0,0,6.84-1.81,18,18,0,0,0,7.1-6.64c.07-.1.13-.22.2-.33l-.08.07s1.65-3.35,5-9.91q3.75-7.44,9.3-7.45h.31a6.48,6.48,0,0,1,4.38,1.75,12.26,12.26,0,0,1,3.13,6.51,29.13,29.13,0,0,0,4.51,11,20,20,0,0,0,2.18,2.55,14.2,14.2,0,0,0,5.33,3.3,13.08,13.08,0,0,0,4.21.68,11.26,11.26,0,0,0,8.11-3.38,8.47,8.47,0,0,0,1-1.11,9,9,0,0,0,1.94-5.73C881,969.55,880.93,969.13,880.89,968.67Zm-26.22-36.95a17.79,17.79,0,0,1,1.5,5.92,3.64,3.64,0,0,1-.37,1.73c-.66,1.16-2.24,1.73-4.74,1.73-.8,0-1.64-.05-2.56-.14a7.05,7.05,0,0,0,4.93-3.19,7.69,7.69,0,0,0,.64-1.32,7.79,7.79,0,0,0,.36-1.16,9.4,9.4,0,0,0,.31-2.45A7.82,7.82,0,0,0,854.67,931.72Zm-41.31,32.59c-.05,0-.08,0-.08-.06a1.56,1.56,0,0,1,0-.2,10,10,0,0,1-.31-2.74c0-3.07.74-7.49,2.18-13.3v0q2-7.75,5.65-18.79c1-3,2.09-6.17,3.28-9.51q5.85-16.43,11.26-26.05,5.92-10.46,10.07-10.45a3.88,3.88,0,0,1,.75.07,1.5,1.5,0,0,1,.07.45c0,.8-.65,1.83-1.94,3.09q-9.1,9.08-18.1,33.35c-.51,1.37-1,2.79-1.54,4.26-1.16,3.33-2.3,6.92-3.46,10.78-.67,2.19-1.32,4.46-2,6.81-.62,2.17-1.21,4.18-1.73,6v0q-4,14.06-4.2,16A1.63,1.63,0,0,0,813.36,964.31ZM841,935.62c-.34,0-.55-.1-.6-.29v-.23a12.37,12.37,0,0,1,.23-1.73c1.65-7.92,2.81-12.54,3.46-13.89.6-1.51,1.26-2.26,2-2.26s1.29.87,2,2.58a27.39,27.39,0,0,1,1,3.05c.5,1.9,1,4.46,1.65,7.66.6,3.46.93,5.3,1,5.57v.14a.21.21,0,0,1-.23.23h-.07l-.75-.23a23.31,23.31,0,0,1-2.41-.6,13.17,13.17,0,0,0-3.38-.44c-.3,0-.61,0-.9,0a12.7,12.7,0,0,0-2.17.34A3.66,3.66,0,0,1,841,935.62Z" transform="translate(-424.06 -199.21)" fill="#231f20"/><path d="M938.44,952.53c2.2-1,4.13-1.88,5.78-2.74a26.46,26.46,0,0,0,5.77-4.62,30.05,30.05,0,0,0,4.15-5.76,29.25,29.25,0,0,0,3.67-12.2c.1-1.16.15-2.33.15-3.54q0-12.54-7.05-25.23a50.63,50.63,0,0,0-6.4-9.16l0,0h0a35.7,35.7,0,0,0-9.06-7.59,32,32,0,0,0-6-2.68,47.8,47.8,0,0,0-14.64-2.4,44,44,0,0,0-5.17.3q-12.27,1.51-15.27,10.44-2,5.77-1.94,30.87,0,6.24.15,13.76.16,12.6.54,21.8.81,19,2.46,23.64a2.09,2.09,0,0,0,.17.37c.63,1.36,2,2.26,4,2.75a18.28,18.28,0,0,0,4.13.4,21.39,21.39,0,0,0,6.91-.93,8.17,8.17,0,0,0,2.63-1.47,6.72,6.72,0,0,0,1.68-3.72,31,31,0,0,0,.5-6.2c0-2.4,0-3.92-.08-4.57v-1.21c0-2.15.31-3.3.9-3.46a.32.32,0,0,1,.23-.06c.67,0,1.5.75,2.49,2.28v0c.3.42.58.91.89,1.45q3,4.73,5,7.93c2.73,4.39,4.1,6.66,4.1,6.79a10.57,10.57,0,0,0,3.34,1.68,25,25,0,0,0,7.77,1h.84c7-.16,11.36-1.53,13.07-4.14a2.69,2.69,0,0,0,.44-1.5c0-1.51-1.14-3.25-3.46-5.26-1.34-1.19-3.67-3.56-7-7.05-.16-.18-.32-.36-.49-.52q-4.59-5-6.26-6.47c-.71-.6-1-1.11-1-1.5a.7.7,0,0,1,.07-.31A5.63,5.63,0,0,1,938.44,952.53ZM909.74,883a9.61,9.61,0,0,0-1.43.53,19.94,19.94,0,0,0-5.49,3.16,10.69,10.69,0,0,0-3.15,5,2.68,2.68,0,0,1-1.5,2.17c0-4.41.9-7.48,2.71-9.24S905.68,882,910,882Zm4.51,38.92a35,35,0,0,1,.52-6.53,3.47,3.47,0,0,1,1.06-1.6,4.55,4.55,0,0,1,3-.88h.22a19.69,19.69,0,0,1,7.36,1.35,8.84,8.84,0,0,1,2,1.19,4.91,4.91,0,0,1,2.1,4.07v.14q-.24,5.79-8.57,8.78a9.75,9.75,0,0,1-3.31.69h0c-2.93,0-4.39-2.22-4.4-6.64ZM932,929.47a15.53,15.53,0,0,1-11.72,4.73,21.14,21.14,0,0,0,4.22-1.88,29.32,29.32,0,0,0,7.8-6.4,14.08,14.08,0,0,0,2.71-4.71,4.66,4.66,0,0,1,.45,1.94C935.43,925.06,934.28,927.16,932,929.47Z" transform="translate(-424.06 -199.21)" fill="#231f20"/><path d="M1070.52,926.23c-2.08-10.7-4-19.49-5.58-26.31a128.27,128.27,0,0,0-4-13.95,12.5,12.5,0,0,0-4.06-5.73,9.72,9.72,0,0,0-3.51-1.7,12.32,12.32,0,0,0-3.25-.46h-.14q-7,0-12.62,5.55c-3,3.07-5.89,9.14-8.49,18.27-.26,1-.55,2-.85,3.16-.59,2.27-1.24,4.93-1.92,8-1.21,5.16-1.93,8.26-2.19,9.32q-.89,3.33-1.31,4.8a7.21,7.21,0,0,1-.42,1.13.45.45,0,0,1-.38.23c-.63,0-1.6-1.23-2.84-3.69q-1.17-2.2-3.8-8.29c-1.67-3.84-3.74-8.83-6.27-15q-5.55-13.68-10.3-19.68a15.87,15.87,0,0,0-3.08-3.1,9.89,9.89,0,0,0-5.93-2,9.29,9.29,0,0,0-1.65.15,9.12,9.12,0,0,0-1.76.48c-3,1.1-5.48,3.63-7.25,7.56a50.74,50.74,0,0,0-2.41,7.13c-.9,3.2-1.75,6.57-2.55,10.08-1,4.21-2,9.3-3.1,15.39v.06c-.11.64-.24,1.29-.36,2q-.66,4-3.23,20-1.44,7.74-2.11,12c-.35,2.19-.53,3.68-.58,4.49,0,.39-.07.77-.08,1.15h0s0,.1,0,.15c-.05.83-.07,1.61-.07,2.38v.56h0v0q.14,9.35,4,13.36a21.48,21.48,0,0,0,6.17,4.49l1.32.57a24.59,24.59,0,0,0,6.79,1.55c.9,0,1.79,0,2.69-.08a19.65,19.65,0,0,0,5.78-2.58,17.83,17.83,0,0,0,6.85-8.83c-.06,0-.08,0-.08-.08.51-1.09,1.59-6.61,3.24-16.52.48-3.26.89-4.89,1.19-4.89s.63,1.71,1.12,5c.28.78.56,1.55.84,2.3,2.56,6.71,5.58,11.46,9,14.28a13.26,13.26,0,0,0,4.34,2.43,11.46,11.46,0,0,0,2.79.59,7.54,7.54,0,0,0,1.05.08c6.9,0,12.55-5.56,16.89-16.68,1.36-3.44,2.14-5.22,2.34-5.32s.45,1,.75,2.84c.13.83.29,1.93.5,3.31q.38,2.75.93,6.91c.64,6.07,1.51,10,2.55,11.8a11.31,11.31,0,0,0,6.66,5.66,9.68,9.68,0,0,0,1.75.35c1.11.09,2.2.14,3.31.14a26.5,26.5,0,0,0,15.1-5,10.09,10.09,0,0,0,4.27-8v-.44Q1076.52,957.19,1070.52,926.23Zm-44.4,3.24q2-2.58,5.19-17.73c1.11-5.14,2.16-9.43,3.12-12.88a48.35,48.35,0,0,1,3-8.39,14,14,0,0,1,5.4-5.86,7.54,7.54,0,0,1,3.53-1.19,2.9,2.9,0,0,1,1.73.52c0,.61-.79,1.21-2.17,1.8a13.4,13.4,0,0,0-9,10.62,53.76,53.76,0,0,0-2.22,6.89c-.6,2.45-1.27,5.65-2,9.62-.87,4.75-1.39,7.63-1.59,8.63-1.79,8.31-4.11,12.47-6.9,12.47a3.46,3.46,0,0,1-1.21-.23,3.74,3.74,0,0,1-.08-.75,1.53,1.53,0,0,1,.68-1.35A10.91,10.91,0,0,0,1026.12,929.47Zm-40.33-46a3.55,3.55,0,0,1,.42-.23,3.95,3.95,0,0,1,3.48-.07,8.12,8.12,0,0,1-2.25,2.71c-.44.41-.82.77-1.16,1.11a12,12,0,0,0-1.7,2,22.38,22.38,0,0,0-1.57,3.84,17.6,17.6,0,0,1-1.5,3.6q0-6.6,1.57-9.84A7.05,7.05,0,0,1,985.79,883.49Z" transform="translate(-424.06 -199.21)" fill="#231f20"/><path d="M1156.29,968.67q-6-52.81-19.08-78.12-4.15-7.95-8.55-11.06a9.79,9.79,0,0,0-5.73-2,10,10,0,0,0-4,.9q-11.42,5.34-23.66,40.26-2.25,6.39-5,15.33-1.74,6-4.42,16.83c-1.36,5.5-2.38,10.41-3.09,14.72a26.21,26.21,0,0,0-.31,3.76,12.22,12.22,0,0,0,1.82,6.83,8.64,8.64,0,0,0,5.19,3.81,11.94,11.94,0,0,0,1.56.32,12.5,12.5,0,0,0,1.88.15,14.62,14.62,0,0,0,6.84-1.81,18.07,18.07,0,0,0,7.28-7l-.07.07s1.65-3.35,5-9.91q3.76-7.44,9.32-7.45h.31a6.45,6.45,0,0,1,4.37,1.75c1.46,1.37,2.5,3.54,3.14,6.51q1.86,8.94,6.67,13.6a14,14,0,0,0,5.33,3.28,12.71,12.71,0,0,0,4.22.7,11.26,11.26,0,0,0,8.11-3.38,9.22,9.22,0,0,0,2.93-6.84A11.69,11.69,0,0,0,1156.29,968.67Zm-67.59-4.57a.72.72,0,0,0,0,.21s-.07,0-.07-.06a.5.5,0,0,1,0-.15,10.14,10.14,0,0,1-.33-2.79q0-10.35,11.14-41.62,5.85-16.43,11.26-26.05,5.93-10.46,10.07-10.45a4,4,0,0,1,.75.07,1.5,1.5,0,0,1,.07.45c0,.8-.66,1.83-2,3.09q-9.09,9.08-18.1,33.35c-2.31,6.21-4.62,13.49-7,21.85Q1088.91,961.94,1088.7,964.1Zm27.7-28.48c-.34,0-.56-.1-.6-.29v-.23a13.53,13.53,0,0,1,.22-1.73c1.65-7.92,2.81-12.54,3.46-13.89.61-1.51,1.24-2.26,2-2.26s1.3.87,2,2.58c.31.82.64,1.85,1,3.05.49,1.9,1.05,4.46,1.65,7.66.61,3.46.93,5.3,1,5.57v.14a.21.21,0,0,1-.23.23h-.08l-.75-.23c-1.14-.24-1.94-.45-2.4-.6a13.11,13.11,0,0,0-3.38-.44c-.29,0-.6,0-.89,0a13.24,13.24,0,0,0-2.19.34A3.39,3.39,0,0,1,1116.4,935.62Zm7.51,5.34a7.05,7.05,0,0,0,4.93-3.19,8.47,8.47,0,0,0,.63-1.32,9.17,9.17,0,0,0,.36-1.16,9.4,9.4,0,0,0,.31-2.45,7.89,7.89,0,0,0-.06-1.12,18,18,0,0,1,1.5,5.92,3.52,3.52,0,0,1-.38,1.73c-.65,1.16-2.23,1.73-4.73,1.73C1125.67,941.1,1124.81,941.05,1123.91,941Z" transform="translate(-424.06 -199.21)" fill="#231f20"/></svg>