<svg id="Layer_1" data-name="Layer 1" xmlns="http://www.w3.org/2000/svg" xmlns:xlink="http://www.w3.org/1999/xlink" viewBox="0 0 1249.2 367.79"><defs><linearGradient id="linear-gradient" x1="229.1" y1="688.42" x2="288.14" y2="790" gradientUnits="userSpaceOnUse"><stop offset="0" stop-color="#231f20"/><stop offset="0.21" stop-color="#4d4a4b"/><stop offset="0.69" stop-color="#b7b6b6"/><stop offset="1" stop-color="#fff"/></linearGradient></defs><path d="M524.88,783.73H401.46a2.33,2.33,0,0,1-2-1.19l-38.28-68L357,707.11l-13.51-24-10-17.7a171.36,171.36,0,0,0-6.78-145.61c-.72-1.35-1.46-2.68-2.22-4l-.72-1.26a165.69,165.69,0,0,0-52.1-55.18,159.44,159.44,0,0,0-68.48-25.25l-10.11-18H320.9a2.61,2.61,0,0,1,2.28,1.35l204,362.22A2.7,2.7,0,0,1,524.88,783.73Z" transform="translate(-175.4 -416.11)" fill="#fff"/><path d="M337.19,694.63l-7.1,12.65-9.33,16.56-33.14,58.87a2.32,2.32,0,0,1-2,1.18H180.12v-.16h3.45A178.88,178.88,0,0,0,316,723.67,180.38,180.38,0,0,0,337.19,694.63Z" transform="translate(-175.4 -416.11)" fill="url(#linear-gradient)"/><path d="M352.31,537.54c-.7-2.06-1.46-4.08-2.25-6.1a183.29,183.29,0,0,0-32.42-53.67c-1-1.11-2-2.2-3-3.3a179.31,179.31,0,0,0-34.19-29.2,174.91,174.91,0,0,0-85.37-28.74l-2.06-.42H177.71a2.34,2.34,0,0,0-2.31,2.37V781.35a2.35,2.35,0,0,0,2.31,2.38h5.86A178.88,178.88,0,0,0,316,723.67a180.38,180.38,0,0,0,21.15-29l3.66-6.45c.9-1.68,1.76-3.37,2.62-5.08a180,180,0,0,0,8.79-20.88,188.7,188.7,0,0,0,.05-124.68ZM341.18,642.39A168,168,0,0,1,291.42,725a160,160,0,0,1-99.66,41.74V433.1c3.8.21,7.61.49,11.41,1a159.44,159.44,0,0,1,68.48,25.25,165.81,165.81,0,0,1,34.46,30.37c1,1.14,1.95,2.27,2.87,3.44a163.11,163.11,0,0,1,14.77,21.37c1,1.74,2,3.49,2.94,5.27a169.42,169.42,0,0,1,14.49,37.47c.9,3.56,1.71,7.14,2.38,10.77a172.32,172.32,0,0,1-.05,63.87C342.84,635.44,342.05,638.92,341.18,642.39Z" transform="translate(-175.4 -416.11)" fill="#fff"/><path d="M861.62,779.68l-204-362.22a2.61,2.61,0,0,0-2.28-1.35H527.52l10.11,18h0L667.94,665.37v0l10,17.7,13.51,24,4.19,7.45,38.28,68a2.33,2.33,0,0,0,2,1.19H859.34A2.7,2.7,0,0,0,861.62,779.68Z" transform="translate(-175.4 -416.11)" fill="#fff"/><path d="M1196.08,779.68l-204-362.22a2.61,2.61,0,0,0-2.28-1.35H862l10.12,18h0L1002.4,665.37v0l10,17.7,13.51,24,4.19,7.45,38.28,68a2.33,2.33,0,0,0,2,1.19H1193.8A2.7,2.7,0,0,0,1196.08,779.68Z" transform="translate(-175.4 -416.11)" fill="#fff"/><path d="M1424.6,591.57V783.72h-19.77a2.27,2.27,0,0,1-2-1.17l-38.29-68-4.19-7.45-13.52-24-10-17.72v0L1206.56,434.09h0l-10.1-18h127.84a2.6,2.6,0,0,1,2.27,1.34Z" transform="translate(-175.4 -416.11)" fill="#fff"/></svg>