<svg id="Layer_1" data-name="Layer 1" xmlns="http://www.w3.org/2000/svg" viewBox="0 0 1400 1100"><rect x="700" width="700" height="550"/><rect width="700" height="550" fill="#42090d"/><rect y="550" width="700" height="550" fill="#e6ecff"/><rect x="700" y="550" width="700" height="550" fill="#0c332d"/><path d="M895.84,550c0,108.16-87.68,195.84-195.84,195.84V550Z" fill="#30d5c8"/><path d="M895.84,550H700V354.16C808.16,354.16,895.84,441.84,895.84,550Z" fill="#fff"/><path d="M700,354.16V550H504.16C504.16,441.84,591.84,354.16,700,354.16Z" fill="#e83a47"/><path d="M700,550V745.84c-108.16,0-195.84-87.68-195.84-195.84Z"/><circle cx="700" cy="550" r="178.46" fill="#3f1c04"/><path d="M631.87,513.71l-21.4,29.57,18,31.43-20.6,3.65L594.4,559.18l-.71,20.06-18.47.71,1.42-68,20.69,1.15-1.6,20.07,13.76-21.22Z" fill="#ff7f0b"/><path d="M682.75,545.94a32.29,32.29,0,0,1-.93,7.8,30.79,30.79,0,0,1-2.68,7,28.94,28.94,0,0,1-4.27,6,27.31,27.31,0,0,1-20.26,8.81,27.93,27.93,0,0,1-7.62-1,28.82,28.82,0,0,1-6.77-2.86,27.55,27.55,0,0,1-10.05-10.21,29.46,29.46,0,0,1-2.8-6.82,28.42,28.42,0,0,1-1-7.59,31,31,0,0,1,.93-7.57,30.57,30.57,0,0,1,2.69-7,30,30,0,0,1,4.24-6,27.43,27.43,0,0,1,5.57-4.75,26.8,26.8,0,0,1,6.68-3.11,25.62,25.62,0,0,1,7.59-1.11,33.19,33.19,0,0,1,11.75,2,24.88,24.88,0,0,1,14.87,14.67A31.83,31.83,0,0,1,682.75,545.94ZM663,547.1a12.53,12.53,0,0,0-.55-3.71,10.11,10.11,0,0,0-1.62-3.19,8.3,8.3,0,0,0-2.65-2.27,7.33,7.33,0,0,0-3.61-.86,8.84,8.84,0,0,0-3.73.75,8.43,8.43,0,0,0-2.82,2.06,9,9,0,0,0-1.8,3.07,10.86,10.86,0,0,0-.62,3.71,13.65,13.65,0,0,0,.53,3.72,11.2,11.2,0,0,0,1.6,3.38,8.43,8.43,0,0,0,2.64,2.44,7.06,7.06,0,0,0,3.66.93,8.33,8.33,0,0,0,3.75-.82,8.53,8.53,0,0,0,2.82-2.22,10,10,0,0,0,1.78-3.22A11.69,11.69,0,0,0,663,547.1Z" fill="#ff7f0b"/><path d="M740.55,545.94a31.8,31.8,0,0,1-.94,7.8,30.33,30.33,0,0,1-2.68,7,29.27,29.27,0,0,1-4.26,6,27.43,27.43,0,0,1-5.64,4.68,27.44,27.44,0,0,1-14.63,4.13,28,28,0,0,1-7.62-1,28.82,28.82,0,0,1-6.77-2.86,27.3,27.3,0,0,1-5.7-4.44,27.83,27.83,0,0,1-4.35-5.77,29.91,29.91,0,0,1-2.8-6.82,28.42,28.42,0,0,1-1-7.59,30.91,30.91,0,0,1,3.62-14.56,30,30,0,0,1,4.24-6,27.7,27.7,0,0,1,5.57-4.75,27,27,0,0,1,6.68-3.11,25.63,25.63,0,0,1,7.6-1.11,33.13,33.13,0,0,1,11.74,2,24.81,24.81,0,0,1,14.87,14.67A31.83,31.83,0,0,1,740.55,545.94Zm-19.72,1.16a12.53,12.53,0,0,0-.55-3.71,10.11,10.11,0,0,0-1.62-3.19,8.26,8.26,0,0,0-2.64-2.27,7.37,7.37,0,0,0-3.62-.86,8.87,8.87,0,0,0-3.73.75,8.43,8.43,0,0,0-2.82,2.06,9.32,9.32,0,0,0-1.8,3.07,11.11,11.11,0,0,0-.62,3.71,13.65,13.65,0,0,0,.53,3.72,11.2,11.2,0,0,0,1.6,3.38,8.43,8.43,0,0,0,2.64,2.44,7.07,7.07,0,0,0,3.67.93,8.33,8.33,0,0,0,3.75-.82,8.53,8.53,0,0,0,2.82-2.22,10,10,0,0,0,1.77-3.22A11.42,11.42,0,0,0,720.83,547.1Z" fill="#ff7f0b"/><path d="M800.66,513.71l-21.4,29.57,18,31.43-20.6,3.65-13.5-19.18-.71,20.06L744,580l1.42-68,20.69,1.15-1.6,20.07,13.76-21.22Z" fill="#ff7f0b"/><circle cx="816.55" cy="571.72" r="8.23" fill="#ff7f0b"/><path d="M742.36,497.31a2,2,0,0,1-1.27.22,6.92,6.92,0,0,1-1.65-.46c-1.24-.46-2.72-1.18-4.47-1.84a23.1,23.1,0,0,0-5.89-1.49,19,19,0,0,0-6.83.5,18.11,18.11,0,0,0-3.32,1.19l-.38.18-.37.19c-.25.13-.5.27-.76.43-.53.31-1.12.69-1.75,1.09a28,28,0,0,1-4.39,2.46,13.37,13.37,0,0,1-5.24,1.16,11.38,11.38,0,0,1-1.31-.08l-.63-.1c-.22-.05-.43-.09-.64-.15a7.56,7.56,0,0,1-2.15-.94,7,7,0,0,1-1.53-1.28,5.86,5.86,0,0,1-.92-1.39,3.35,3.35,0,0,1-.3-2.29,1.35,1.35,0,0,1,.89-1,3.12,3.12,0,0,1,1.26,0,7.73,7.73,0,0,0,1.37.06l.72-.09a4.46,4.46,0,0,0,.72-.18,2.56,2.56,0,0,0,.64-.32l.13-.1.17-.1.33-.24a19.84,19.84,0,0,0,1.65-1.4c.64-.61,1.42-1.42,2.49-2.48.54-.52,1.15-1.1,1.89-1.7.36-.3.76-.61,1.19-.91l.65-.45.67-.42a22.4,22.4,0,0,1,6-2.52,22,22,0,0,1,12.39.39,19.34,19.34,0,0,1,8.29,5.38,14.43,14.43,0,0,1,2.12,3.05,10,10,0,0,1,1,2.64,4.62,4.62,0,0,1,0,1.94A1.64,1.64,0,0,1,742.36,497.31Z" fill="#ff7f0b"/><path d="M682.58,617.86c-22.2,0-35.91-14.86-38.48-17.91a7.31,7.31,0,0,1,11.16-9.43c1.15,1.36,11.73,13.3,28.55,12.7,15.9-.55,25.29-11.65,27-13.87a7.31,7.31,0,0,1,11.55,8.95,52.36,52.36,0,0,1-11,10.33,49.43,49.43,0,0,1-27,9.2Z" fill="#ff7f0b"/><path d="M676.52,504.06a2.09,2.09,0,0,1-1.22.39,4.1,4.1,0,0,1-.77,0c-.27,0-.55-.1-.86-.16-1.22-.31-2.7-.83-4.4-1.4a29.13,29.13,0,0,0-24.58,1.49c-1.62.76-3,1.46-4.2,1.91-.3.1-.58.19-.84.26a4.21,4.21,0,0,1-.76.14,2,2,0,0,1-1.25-.24,1.75,1.75,0,0,1-.75-1,3.79,3.79,0,0,1-.14-.81,4.25,4.25,0,0,1,0-1,9.86,9.86,0,0,1,.22-1.17c.12-.41.28-.84.46-1.3a10.24,10.24,0,0,1,.69-1.42,15.91,15.91,0,0,1,.94-1.5c.35-.52.77-1,1.21-1.53s1-1,1.49-1.52a20.17,20.17,0,0,1,1.77-1.45c.32-.23.64-.47,1-.7l1.05-.65a24,24,0,0,1,4.84-2.14,25.07,25.07,0,0,1,5.68-1.06,24.75,24.75,0,0,1,5.76.37,23.37,23.37,0,0,1,5.06,1.55l1.13.52c.36.18.71.38,1.06.57a22.76,22.76,0,0,1,1.93,1.23,20.78,20.78,0,0,1,1.65,1.33c.5.47,1,.9,1.39,1.37a16.48,16.48,0,0,1,1.12,1.37,12.76,12.76,0,0,1,.85,1.33,11.75,11.75,0,0,1,.61,1.24,11.35,11.35,0,0,1,.37,1.13,5.29,5.29,0,0,1,.15,1,4.2,4.2,0,0,1-.05.82A1.72,1.72,0,0,1,676.52,504.06Z" fill="#ff7f0b"/><path d="M959.17,776.62,930.64,816l24,41.91-27.46,4.85-18-25.57L908.27,864l-24.63.94,1.9-90.68,27.58,1.54L911,802.55l18.35-28.3Z" fill="#30d5c8"/><path d="M1027,819.59a42.78,42.78,0,0,1-1.24,10.39,40.55,40.55,0,0,1-3.58,9.38,39.06,39.06,0,0,1-5.68,8,36.4,36.4,0,0,1-27,11.75,37.15,37.15,0,0,1-10.16-1.36,38.59,38.59,0,0,1-9-3.82A36.39,36.39,0,0,1,962.7,848a37,37,0,0,1-5.8-7.7,39.57,39.57,0,0,1-3.73-9.09,37.91,37.91,0,0,1-1.33-10.12,41.32,41.32,0,0,1,4.82-19.41,40.4,40.4,0,0,1,5.66-8.05,36.76,36.76,0,0,1,7.43-6.33,35.64,35.64,0,0,1,8.9-4.15,34.36,34.36,0,0,1,10.12-1.48,44,44,0,0,1,15.66,2.67,33.1,33.1,0,0,1,19.83,19.56A42.59,42.59,0,0,1,1027,819.59Zm-26.28,1.54a16.8,16.8,0,0,0-.74-4.94,13.37,13.37,0,0,0-2.16-4.26,11.16,11.16,0,0,0-3.52-3,9.84,9.84,0,0,0-4.82-1.15,11.81,11.81,0,0,0-5,1,11.46,11.46,0,0,0-3.76,2.75,12.18,12.18,0,0,0-2.39,4.09,14.48,14.48,0,0,0-.83,4.94,18.09,18.09,0,0,0,.71,5,14.58,14.58,0,0,0,2.13,4.5,11.41,11.41,0,0,0,3.52,3.26,9.39,9.39,0,0,0,4.88,1.24,11,11,0,0,0,5-1.1,11.2,11.2,0,0,0,3.75-2.95,13.53,13.53,0,0,0,2.37-4.3A15.47,15.47,0,0,0,1000.73,821.13Z" fill="#30d5c8"/><path d="M1104.06,819.59a42.78,42.78,0,0,1-1.24,10.39,41,41,0,0,1-3.58,9.38,38.72,38.72,0,0,1-5.69,8,36.37,36.37,0,0,1-27,11.75,37.13,37.13,0,0,1-10.15-1.36,38.59,38.59,0,0,1-9-3.82,36.13,36.13,0,0,1-7.61-5.91,37,37,0,0,1-5.8-7.7,39.57,39.57,0,0,1-3.73-9.09,37.91,37.91,0,0,1-1.33-10.12,41.32,41.32,0,0,1,4.82-19.41,40.35,40.35,0,0,1,5.65-8.05,37,37,0,0,1,7.43-6.33,35.71,35.71,0,0,1,8.91-4.15,34.36,34.36,0,0,1,10.12-1.48,44.07,44.07,0,0,1,15.66,2.67,33.17,33.17,0,0,1,19.83,19.56A42.59,42.59,0,0,1,1104.06,819.59Zm-26.28,1.54a16.8,16.8,0,0,0-.74-4.94,13.37,13.37,0,0,0-2.16-4.26,11.16,11.16,0,0,0-3.52-3,9.86,9.86,0,0,0-4.83-1.15,11.8,11.8,0,0,0-5,1,11.46,11.46,0,0,0-3.76,2.75,12.18,12.18,0,0,0-2.39,4.09,14.48,14.48,0,0,0-.83,4.94,17.72,17.72,0,0,0,.71,5,14.58,14.58,0,0,0,2.13,4.5,11.41,11.41,0,0,0,3.52,3.26,9.39,9.39,0,0,0,4.88,1.24,11,11,0,0,0,5-1.1,11.24,11.24,0,0,0,3.76-2.95,13.53,13.53,0,0,0,2.37-4.3A15.47,15.47,0,0,0,1077.78,821.13Z" fill="#30d5c8"/><path d="M1184.2,776.62,1155.67,816l24,41.91-27.46,4.85-18-25.57-1,26.76-24.63.94,1.9-90.68,27.58,1.54L1136,802.55l18.35-28.3Z" fill="#30d5c8"/><circle cx="1205.38" cy="853.96" r="10.98" fill="#30d5c8"/><path d="M1106.48,754.76a2.6,2.6,0,0,1-1.69.28,9.7,9.7,0,0,1-2.21-.6c-1.64-.62-3.62-1.58-5.95-2.46a31.31,31.31,0,0,0-7.86-2,25.59,25.59,0,0,0-9.1.67,23.7,23.7,0,0,0-4.43,1.59l-.51.24-.49.26c-.33.16-.66.35-1,.56-.71.42-1.48.92-2.32,1.46a38.46,38.46,0,0,1-5.86,3.28,18,18,0,0,1-7,1.55,14.13,14.13,0,0,1-1.74-.11l-.84-.14c-.3-.06-.59-.12-.86-.19a10.21,10.21,0,0,1-2.87-1.26,9.42,9.42,0,0,1-2-1.7,7.67,7.67,0,0,1-1.23-1.86,4.46,4.46,0,0,1-.4-3.06,1.81,1.81,0,0,1,1.17-1.3,4.29,4.29,0,0,1,1.68,0,11.14,11.14,0,0,0,1.84.08c.32,0,.64-.06,1-.11s.64-.15,1-.25a3.82,3.82,0,0,0,.86-.42l.17-.14.21-.14.45-.31a25.63,25.63,0,0,0,2.2-1.87c.85-.81,1.89-1.9,3.32-3.3.72-.7,1.54-1.47,2.51-2.27.5-.4,1-.82,1.6-1.22l.86-.59.89-.56a29.71,29.71,0,0,1,24.52-2.85,25.56,25.56,0,0,1,11,7.18,19.63,19.63,0,0,1,2.83,4.06,16.87,16.87,0,0,1,.82,1.86,13.61,13.61,0,0,1,.45,1.67,5.85,5.85,0,0,1,0,2.58A2.21,2.21,0,0,1,1106.48,754.76Z" fill="#30d5c8"/><path d="M1026.77,915.46c-29.59,0-47.86-19.8-51.29-23.86A9.74,9.74,0,0,1,990.36,879c1.53,1.82,15.64,17.72,38.06,16.93,21.2-.74,33.71-15.53,36-18.49a9.74,9.74,0,0,1,15.4,11.94,69.6,69.6,0,0,1-14.68,13.76,65.74,65.74,0,0,1-36,12.26C1028.32,915.45,1027.54,915.46,1026.77,915.46Z" fill="#30d5c8"/><path d="M1018.7,763.76a2.82,2.82,0,0,1-1.62.52,6.17,6.17,0,0,1-1-.06c-.36-.05-.74-.13-1.16-.22-1.61-.4-3.59-1.1-5.85-1.86a39,39,0,0,0-32.78,2c-2.15,1-4,2-5.59,2.55-.4.13-.77.26-1.12.36a6.52,6.52,0,0,1-1,.18,2.75,2.75,0,0,1-1.67-.33,2.31,2.31,0,0,1-1-1.36,4.62,4.62,0,0,1-.2-1.08,6.08,6.08,0,0,1,.05-1.33,13.5,13.5,0,0,1,.3-1.55,18.12,18.12,0,0,1,.6-1.74,17.17,17.17,0,0,1,.92-1.89,20.5,20.5,0,0,1,1.26-2,23.67,23.67,0,0,1,1.62-2c.59-.69,1.27-1.34,2-2s1.49-1.33,2.35-1.93c.43-.31.86-.63,1.31-.93l1.41-.87a30.8,30.8,0,0,1,6.45-2.85,31.14,31.14,0,0,1,15.25-.92,30.75,30.75,0,0,1,6.75,2.06l1.5.69c.48.24,1,.51,1.41.76.93.5,1.76,1.1,2.57,1.64s1.54,1.17,2.21,1.77a23,23,0,0,1,1.85,1.84A18.42,18.42,0,0,1,1017,755a16.32,16.32,0,0,1,1.14,1.76,17.88,17.88,0,0,1,.81,1.66,13.11,13.11,0,0,1,.49,1.51,6.42,6.42,0,0,1,.2,1.31,4.27,4.27,0,0,1-.07,1.1A2.33,2.33,0,0,1,1018.7,763.76Z" fill="#30d5c8"/><path d="M951.9,222.75l-30.82,42.58,26,45.26-29.66,5.24-19.44-27.62-1,28.9-26.6,1,2-97.94,29.79,1.66-2.3,28.9,19.82-30.56Z" fill="#fff"/><path d="M1025.17,269.16a46.58,46.58,0,0,1-1.34,11.22,44.24,44.24,0,0,1-3.87,10.13,41.61,41.61,0,0,1-6.14,8.67,39.14,39.14,0,0,1-17.93,11.12,39.36,39.36,0,0,1-11.25,1.57,40.25,40.25,0,0,1-11-1.47,41.48,41.48,0,0,1-9.74-4.13,39.26,39.26,0,0,1-8.22-6.39,39.78,39.78,0,0,1-6.27-8.31,43.22,43.22,0,0,1-4-9.81A41.14,41.14,0,0,1,944,270.82a44.62,44.62,0,0,1,5.21-21,43.55,43.55,0,0,1,6.1-8.69,40.59,40.59,0,0,1,8-6.84,38.59,38.59,0,0,1,9.62-4.48,37,37,0,0,1,10.93-1.59,47.59,47.59,0,0,1,16.91,2.87,35.88,35.88,0,0,1,21.42,21.13A46,46,0,0,1,1025.17,269.16Zm-28.38,1.66a18.13,18.13,0,0,0-.8-5.34,14.69,14.69,0,0,0-2.34-4.6,12,12,0,0,0-3.8-3.26,10.65,10.65,0,0,0-5.21-1.25,12.75,12.75,0,0,0-5.37,1.09,12.43,12.43,0,0,0-4.06,3,13.09,13.09,0,0,0-2.59,4.42,15.74,15.74,0,0,0-.9,5.33,19.52,19.52,0,0,0,.77,5.37,16,16,0,0,0,2.3,4.86,12.32,12.32,0,0,0,3.81,3.52,10.2,10.2,0,0,0,5.27,1.34,12,12,0,0,0,5.4-1.18,12.25,12.25,0,0,0,4.06-3.2,14.59,14.59,0,0,0,2.56-4.63A16.64,16.64,0,0,0,996.79,270.82Z" fill="#fff"/><path d="M1108.39,269.16a46.58,46.58,0,0,1-1.34,11.22,44.24,44.24,0,0,1-3.87,10.13,42,42,0,0,1-6.14,8.67,39.14,39.14,0,0,1-17.93,11.12,39.36,39.36,0,0,1-11.25,1.57,40.25,40.25,0,0,1-11-1.47,41.74,41.74,0,0,1-9.75-4.13,39.68,39.68,0,0,1-14.48-14.7,42.77,42.77,0,0,1-4-9.81,41.14,41.14,0,0,1-1.44-10.94,44.33,44.33,0,0,1,1.34-10.9,43.77,43.77,0,0,1,10-18.76,40.3,40.3,0,0,1,8-6.84,38.59,38.59,0,0,1,9.62-4.48,37,37,0,0,1,10.93-1.59,47.59,47.59,0,0,1,16.91,2.87,35.88,35.88,0,0,1,21.42,21.13A46,46,0,0,1,1108.39,269.16ZM1080,270.82a17.81,17.81,0,0,0-.8-5.34,14.67,14.67,0,0,0-2.33-4.6,12,12,0,0,0-3.8-3.26,10.68,10.68,0,0,0-5.21-1.25,12.75,12.75,0,0,0-5.37,1.09,12.43,12.43,0,0,0-4.06,3,12.93,12.93,0,0,0-2.59,4.42,15.74,15.74,0,0,0-.9,5.33,19.52,19.52,0,0,0,.77,5.37,16,16,0,0,0,2.3,4.86,12.21,12.21,0,0,0,3.81,3.52,10.2,10.2,0,0,0,5.27,1.34,12,12,0,0,0,5.4-1.18,12.25,12.25,0,0,0,4.06-3.2,14.59,14.59,0,0,0,2.56-4.63A16.63,16.63,0,0,0,1080,270.82Z" fill="#fff"/><path d="M1195,222.75l-30.82,42.58,26,45.26-29.66,5.24L1141,288.21l-1,28.9-26.6,1,2.05-97.94,29.79,1.66-2.3,28.9,19.82-30.56Z" fill="#fff"/><circle cx="1217.82" cy="306.28" r="11.85" fill="#fff"/><path d="M1111,199.13a2.81,2.81,0,0,1-1.83.31,10,10,0,0,1-2.38-.66c-1.77-.66-3.91-1.7-6.43-2.65a34.08,34.08,0,0,0-8.48-2.15,27.84,27.84,0,0,0-9.83.72,26,26,0,0,0-4.78,1.72l-.56.26-.53.28c-.36.18-.72.38-1.1.61-.76.45-1.6,1-2.51,1.58a41.72,41.72,0,0,1-6.32,3.54,19.55,19.55,0,0,1-7.54,1.67,14.64,14.64,0,0,1-1.89-.12l-.91-.14-.92-.21a11.47,11.47,0,0,1-3.1-1.36,10.78,10.78,0,0,1-2.2-1.84,8.62,8.62,0,0,1-1.33-2,4.82,4.82,0,0,1-.43-3.3,2,2,0,0,1,1.27-1.41,4.81,4.81,0,0,1,1.82-.05,10.81,10.81,0,0,0,2,.09,8.86,8.86,0,0,0,1-.12,5.88,5.88,0,0,0,1-.27,3.35,3.35,0,0,0,.93-.45l.18-.14.24-.16.48-.34a27,27,0,0,0,2.38-2c.92-.88,2-2.05,3.58-3.57.78-.75,1.66-1.58,2.72-2.45.53-.44,1.1-.88,1.72-1.31l.93-.65,1-.6a32.17,32.17,0,0,1,8.63-3.63,31.71,31.71,0,0,1,17.85.55,27.81,27.81,0,0,1,11.93,7.75,20.93,20.93,0,0,1,3.06,4.4,16.78,16.78,0,0,1,.88,2,14.5,14.5,0,0,1,.49,1.8,6.49,6.49,0,0,1,0,2.79A2.4,2.4,0,0,1,1111,199.13Z" fill="#fff"/><path d="M1024.91,372.71c-32,0-51.69-21.39-55.4-25.78a10.52,10.52,0,1,1,16.07-13.58c1.66,2,16.89,19.14,41.12,18.29,22.89-.8,36.4-16.78,38.88-20a10.52,10.52,0,1,1,16.63,12.89,75.37,75.37,0,0,1-15.85,14.87,71.11,71.11,0,0,1-38.93,13.25C1026.58,372.7,1025.74,372.71,1024.91,372.71Z" fill="#fff"/><path d="M1016.19,208.85a3,3,0,0,1-1.75.57,6.13,6.13,0,0,1-1.11-.07c-.38,0-.8-.14-1.25-.23-1.74-.44-3.88-1.2-6.32-2a42,42,0,0,0-35.4,2.14c-2.33,1.09-4.36,2.11-6,2.75-.44.14-.84.28-1.21.38a6.65,6.65,0,0,1-1.09.2,3,3,0,0,1-1.81-.35,2.54,2.54,0,0,1-1.08-1.47,4.89,4.89,0,0,1-.21-1.17,5.82,5.82,0,0,1,.05-1.43,13.27,13.27,0,0,1,.32-1.68,15.77,15.77,0,0,1,.66-1.88,16.51,16.51,0,0,1,1-2,19.2,19.2,0,0,1,1.36-2.16,25.73,25.73,0,0,1,1.74-2.2,29.23,29.23,0,0,1,2.14-2.19,32,32,0,0,1,2.55-2.09c.46-.34.92-.68,1.41-1l1.52-.93a33.82,33.82,0,0,1,7-3.09,33.65,33.65,0,0,1,16.47-1,34.1,34.1,0,0,1,7.29,2.22l1.62.75c.52.27,1,.55,1.52.83a32.29,32.29,0,0,1,2.78,1.76c.85.65,1.66,1.26,2.39,1.92a24.83,24.83,0,0,1,2,2,20,20,0,0,1,1.61,2,16.1,16.1,0,0,1,1.23,1.91,18.24,18.24,0,0,1,.88,1.78,16.07,16.07,0,0,1,.53,1.63,6.26,6.26,0,0,1,.21,1.42,4.9,4.9,0,0,1-.07,1.18A2.49,2.49,0,0,1,1016.19,208.85Z" fill="#fff"/><path d="M251.9,222.75l-30.82,42.58,26,45.26-29.66,5.24-19.44-27.62-1,28.9-26.6,1,2.05-97.94,29.79,1.66-2.3,28.9,19.82-30.56Z" fill="#e83a47"/><path d="M325.17,269.16a46.58,46.58,0,0,1-1.34,11.22A44.24,44.24,0,0,1,320,290.51a41.61,41.61,0,0,1-6.14,8.67,39.14,39.14,0,0,1-17.93,11.12,39.36,39.36,0,0,1-11.25,1.57,40.25,40.25,0,0,1-11-1.47,41.48,41.48,0,0,1-9.74-4.13,39.26,39.26,0,0,1-8.22-6.39,39.78,39.78,0,0,1-6.27-8.31,43.22,43.22,0,0,1-4-9.81A41.14,41.14,0,0,1,244,270.82a44.62,44.62,0,0,1,5.21-21,43.55,43.55,0,0,1,6.1-8.69,40.59,40.59,0,0,1,8-6.84,38.59,38.59,0,0,1,9.62-4.48,37,37,0,0,1,10.93-1.59,47.59,47.59,0,0,1,16.91,2.87,35.88,35.88,0,0,1,21.42,21.13A46,46,0,0,1,325.17,269.16Zm-28.38,1.66a18.13,18.13,0,0,0-.8-5.34,14.69,14.69,0,0,0-2.34-4.6,12,12,0,0,0-3.8-3.26,10.65,10.65,0,0,0-5.21-1.25,12.75,12.75,0,0,0-5.37,1.09,12.43,12.43,0,0,0-4.06,3,13.09,13.09,0,0,0-2.59,4.42,15.74,15.74,0,0,0-.9,5.33,19.52,19.52,0,0,0,.77,5.37,16,16,0,0,0,2.3,4.86,12.32,12.32,0,0,0,3.81,3.52,10.2,10.2,0,0,0,5.27,1.34,12,12,0,0,0,5.4-1.18,12.25,12.25,0,0,0,4.06-3.2,14.59,14.59,0,0,0,2.56-4.63A16.64,16.64,0,0,0,296.79,270.82Z" fill="#e83a47"/><path d="M408.39,269.16a46.58,46.58,0,0,1-1.34,11.22,44.24,44.24,0,0,1-3.87,10.13,42,42,0,0,1-6.14,8.67,39.14,39.14,0,0,1-17.93,11.12,39.36,39.36,0,0,1-11.25,1.57,40.25,40.25,0,0,1-11-1.47,41.74,41.74,0,0,1-9.75-4.13,39.68,39.68,0,0,1-14.48-14.7,42.77,42.77,0,0,1-4-9.81,41.14,41.14,0,0,1-1.44-10.94,44.33,44.33,0,0,1,1.34-10.9,43.77,43.77,0,0,1,10-18.76,40.3,40.3,0,0,1,8-6.84,38.59,38.59,0,0,1,9.62-4.48,37,37,0,0,1,10.93-1.59A47.59,47.59,0,0,1,384,231.12a35.88,35.88,0,0,1,21.42,21.13A46,46,0,0,1,408.39,269.16ZM380,270.82a17.81,17.81,0,0,0-.8-5.34,14.67,14.67,0,0,0-2.33-4.6,12,12,0,0,0-3.8-3.26,10.68,10.68,0,0,0-5.21-1.25,12.75,12.75,0,0,0-5.37,1.09,12.43,12.43,0,0,0-4.06,3,12.93,12.93,0,0,0-2.59,4.42,15.74,15.74,0,0,0-.9,5.33,19.52,19.52,0,0,0,.77,5.37,16,16,0,0,0,2.3,4.86,12.21,12.21,0,0,0,3.81,3.52,10.2,10.2,0,0,0,5.27,1.34,12,12,0,0,0,5.4-1.18,12.25,12.25,0,0,0,4.06-3.2,14.59,14.59,0,0,0,2.56-4.63A16.63,16.63,0,0,0,380,270.82Z" fill="#e83a47"/><path d="M495,222.75l-30.82,42.58,26,45.26-29.66,5.24L441,288.21l-1,28.9-26.6,1,2.05-97.94,29.79,1.66-2.3,28.9,19.82-30.56Z" fill="#e83a47"/><circle cx="517.82" cy="306.28" r="11.85" fill="#e83a47"/><path d="M411,199.13a2.81,2.81,0,0,1-1.83.31,10,10,0,0,1-2.38-.66c-1.77-.66-3.91-1.7-6.43-2.65a34.08,34.08,0,0,0-8.48-2.15,27.84,27.84,0,0,0-9.83.72,26,26,0,0,0-4.78,1.72l-.56.26-.53.28c-.36.18-.72.38-1.1.61-.76.45-1.6,1-2.51,1.58a41.72,41.72,0,0,1-6.32,3.54,19.55,19.55,0,0,1-7.54,1.67,14.64,14.64,0,0,1-1.89-.12l-.91-.14-.92-.21a11.47,11.47,0,0,1-3.1-1.36,10.78,10.78,0,0,1-2.2-1.84,8.62,8.62,0,0,1-1.33-2,4.82,4.82,0,0,1-.43-3.3A2,2,0,0,1,349.2,194a4.81,4.81,0,0,1,1.82-.05,10.81,10.81,0,0,0,2,.09,8.86,8.86,0,0,0,1-.12,5.88,5.88,0,0,0,1-.27,3.35,3.35,0,0,0,.93-.45l.18-.14.24-.16.48-.34a27,27,0,0,0,2.38-2c.92-.88,2-2.05,3.58-3.57.78-.75,1.66-1.58,2.72-2.45.53-.44,1.1-.88,1.72-1.31l.93-.65,1-.6a32.17,32.17,0,0,1,8.63-3.63,31.71,31.71,0,0,1,17.85.55,27.81,27.81,0,0,1,11.93,7.75,20.93,20.93,0,0,1,3.06,4.4,16.78,16.78,0,0,1,.88,2,14.5,14.5,0,0,1,.49,1.8,6.49,6.49,0,0,1,0,2.79A2.4,2.4,0,0,1,411,199.13Z" fill="#e83a47"/><path d="M324.91,372.71c-32,0-51.69-21.39-55.4-25.78a10.52,10.52,0,1,1,16.07-13.58c1.66,2,16.89,19.14,41.12,18.29,22.89-.8,36.4-16.78,38.88-20a10.52,10.52,0,0,1,16.63,12.89,75.37,75.37,0,0,1-15.85,14.87,71.11,71.11,0,0,1-38.93,13.25C326.58,372.7,325.74,372.71,324.91,372.71Z" fill="#e83a47"/><path d="M316.19,208.85a3,3,0,0,1-1.75.57,6.13,6.13,0,0,1-1.11-.07c-.38,0-.8-.14-1.25-.23-1.74-.44-3.88-1.2-6.32-2a42,42,0,0,0-35.4,2.14c-2.33,1.09-4.36,2.11-6,2.75-.44.14-.84.28-1.21.38a6.65,6.65,0,0,1-1.09.2,3,3,0,0,1-1.81-.35,2.54,2.54,0,0,1-1.08-1.47,4.89,4.89,0,0,1-.21-1.17,5.82,5.82,0,0,1,.05-1.43,13.27,13.27,0,0,1,.32-1.68,15.77,15.77,0,0,1,.66-1.88,16.51,16.51,0,0,1,1-2,19.2,19.2,0,0,1,1.36-2.16,25.73,25.73,0,0,1,1.74-2.2,29.23,29.23,0,0,1,2.14-2.19,32,32,0,0,1,2.55-2.09c.46-.34.92-.68,1.41-1l1.52-.93a33.82,33.82,0,0,1,7-3.09,33.65,33.65,0,0,1,16.47-1,34.1,34.1,0,0,1,7.29,2.22l1.62.75c.52.27,1,.55,1.52.83a32.29,32.29,0,0,1,2.78,1.76c.85.65,1.66,1.26,2.39,1.92a24.83,24.83,0,0,1,2,2,20,20,0,0,1,1.61,2,16.1,16.1,0,0,1,1.23,1.91,18.24,18.24,0,0,1,.88,1.78,16.07,16.07,0,0,1,.53,1.63,6.26,6.26,0,0,1,.21,1.42,4.9,4.9,0,0,1-.07,1.18A2.49,2.49,0,0,1,316.19,208.85Z" fill="#e83a47"/><path d="M251.9,772.75l-30.82,42.58,26,45.26-29.66,5.24-19.44-27.62-1,28.9-26.6,1,2.05-97.94,29.79,1.66-2.3,28.9,19.82-30.56Z"/><path d="M325.17,819.16a46.58,46.58,0,0,1-1.34,11.22A44.24,44.24,0,0,1,320,840.51a41.61,41.61,0,0,1-6.14,8.67,39.14,39.14,0,0,1-17.93,11.12,39.36,39.36,0,0,1-11.25,1.57,40.25,40.25,0,0,1-11-1.47,41.48,41.48,0,0,1-9.74-4.13,39.26,39.26,0,0,1-8.22-6.39,39.78,39.78,0,0,1-6.27-8.31,43.22,43.22,0,0,1-4-9.81A41.14,41.14,0,0,1,244,820.82a44.62,44.62,0,0,1,5.21-21,43.55,43.55,0,0,1,6.1-8.69,40.59,40.59,0,0,1,8-6.84,38.59,38.59,0,0,1,9.62-4.48,37,37,0,0,1,10.93-1.59,47.59,47.59,0,0,1,16.91,2.87,35.88,35.88,0,0,1,21.42,21.13A46,46,0,0,1,325.17,819.16Zm-28.38,1.66a18.13,18.13,0,0,0-.8-5.34,14.69,14.69,0,0,0-2.34-4.6,12,12,0,0,0-3.8-3.26,10.65,10.65,0,0,0-5.21-1.25,12.75,12.75,0,0,0-5.37,1.09,12.43,12.43,0,0,0-4.06,3,13.09,13.09,0,0,0-2.59,4.42,15.74,15.74,0,0,0-.9,5.33,19.52,19.52,0,0,0,.77,5.37,16,16,0,0,0,2.3,4.86,12.32,12.32,0,0,0,3.81,3.52,10.2,10.2,0,0,0,5.27,1.34,12,12,0,0,0,5.4-1.18,12.25,12.25,0,0,0,4.06-3.2,14.59,14.59,0,0,0,2.56-4.63A16.64,16.64,0,0,0,296.79,820.82Z"/><path d="M408.39,819.16a46.58,46.58,0,0,1-1.34,11.22,44.24,44.24,0,0,1-3.87,10.13,42,42,0,0,1-6.14,8.67,39.14,39.14,0,0,1-17.93,11.12,39.36,39.36,0,0,1-11.25,1.57,40.25,40.25,0,0,1-11-1.47,41.74,41.74,0,0,1-9.75-4.13,39.68,39.68,0,0,1-14.48-14.7,42.77,42.77,0,0,1-4-9.81,41.14,41.14,0,0,1-1.44-10.94,44.33,44.33,0,0,1,1.34-10.9,43.77,43.77,0,0,1,10-18.76,40.3,40.3,0,0,1,8-6.84,38.59,38.59,0,0,1,9.62-4.48,37,37,0,0,1,10.93-1.59A47.59,47.59,0,0,1,384,781.12a35.88,35.88,0,0,1,21.42,21.13A46,46,0,0,1,408.39,819.16ZM380,820.82a17.81,17.81,0,0,0-.8-5.34,14.67,14.67,0,0,0-2.33-4.6,12,12,0,0,0-3.8-3.26,10.68,10.68,0,0,0-5.21-1.25,12.75,12.75,0,0,0-5.37,1.09,12.43,12.43,0,0,0-4.06,3,12.93,12.93,0,0,0-2.59,4.42,15.74,15.74,0,0,0-.9,5.33,19.52,19.52,0,0,0,.77,5.37,16,16,0,0,0,2.3,4.86,12.21,12.21,0,0,0,3.81,3.52,10.2,10.2,0,0,0,5.27,1.34,12,12,0,0,0,5.4-1.18,12.25,12.25,0,0,0,4.06-3.2,14.59,14.59,0,0,0,2.56-4.63A16.63,16.63,0,0,0,380,820.82Z"/><path d="M495,772.75l-30.82,42.58,26,45.26-29.66,5.24L441,838.21l-1,28.9-26.6,1,2.05-97.94,29.79,1.66-2.3,28.9,19.82-30.56Z"/><circle cx="517.82" cy="856.28" r="11.85"/><path d="M411,749.13a2.81,2.81,0,0,1-1.83.31,10,10,0,0,1-2.38-.66c-1.77-.66-3.91-1.7-6.43-2.65a34.08,34.08,0,0,0-8.48-2.15,27.84,27.84,0,0,0-9.83.72,26,26,0,0,0-4.78,1.72l-.56.26-.53.28c-.36.18-.72.38-1.1.61-.76.45-1.6,1-2.51,1.58a41.72,41.72,0,0,1-6.32,3.54,19.55,19.55,0,0,1-7.54,1.67,14.64,14.64,0,0,1-1.89-.12l-.91-.14-.92-.21a11.47,11.47,0,0,1-3.1-1.36,10.78,10.78,0,0,1-2.2-1.84,8.62,8.62,0,0,1-1.33-2,4.82,4.82,0,0,1-.43-3.3A2,2,0,0,1,349.2,744a4.81,4.81,0,0,1,1.82-.05,10.81,10.81,0,0,0,2,.09,8.86,8.86,0,0,0,1-.12,5.88,5.88,0,0,0,1-.27,3.35,3.35,0,0,0,.93-.45l.18-.14.24-.16.48-.34a27,27,0,0,0,2.38-2c.92-.88,2-2,3.58-3.57.78-.75,1.66-1.58,2.72-2.45.53-.44,1.1-.88,1.72-1.31l.93-.65,1-.6a32.17,32.17,0,0,1,8.63-3.63,31.71,31.71,0,0,1,17.85.55,27.81,27.81,0,0,1,11.93,7.75,20.93,20.93,0,0,1,3.06,4.4,16.78,16.78,0,0,1,.88,2,14.5,14.5,0,0,1,.49,1.8,6.49,6.49,0,0,1,0,2.79A2.4,2.4,0,0,1,411,749.13Z"/><path d="M324.91,922.71c-32,0-51.69-21.39-55.4-25.78a10.52,10.52,0,1,1,16.07-13.58c1.66,2,16.89,19.14,41.12,18.29,22.89-.8,36.4-16.78,38.88-20a10.52,10.52,0,1,1,16.63,12.89,75.37,75.37,0,0,1-15.85,14.87,71.11,71.11,0,0,1-38.93,13.25C326.58,922.7,325.74,922.71,324.91,922.71Z"/><path d="M316.19,758.85a3,3,0,0,1-1.75.57,6.13,6.13,0,0,1-1.11-.07c-.38-.05-.8-.14-1.25-.23-1.74-.44-3.88-1.2-6.32-2a42,42,0,0,0-35.4,2.14c-2.33,1.09-4.36,2.11-6,2.75-.44.14-.84.28-1.21.38a6.65,6.65,0,0,1-1.09.2,3,3,0,0,1-1.81-.35,2.54,2.54,0,0,1-1.08-1.47,4.89,4.89,0,0,1-.21-1.17,5.82,5.82,0,0,1,.05-1.43,13.27,13.27,0,0,1,.32-1.68,15.77,15.77,0,0,1,.66-1.88,16.51,16.51,0,0,1,1-2,19.2,19.2,0,0,1,1.36-2.16,25.73,25.73,0,0,1,1.74-2.2,29.23,29.23,0,0,1,2.14-2.19,32,32,0,0,1,2.55-2.09c.46-.34.92-.68,1.41-1l1.52-.93a33.82,33.82,0,0,1,7-3.09,33.65,33.65,0,0,1,16.47-1,34.1,34.1,0,0,1,7.29,2.22l1.62.75c.52.27,1,.55,1.52.83a32.29,32.29,0,0,1,2.78,1.76c.85.65,1.66,1.26,2.39,1.92a24.83,24.83,0,0,1,2,2,20,20,0,0,1,1.61,2,16.1,16.1,0,0,1,1.23,1.91,18.24,18.24,0,0,1,.88,1.78,16.07,16.07,0,0,1,.53,1.63,6.26,6.26,0,0,1,.21,1.42,4.9,4.9,0,0,1-.07,1.18A2.49,2.49,0,0,1,316.19,758.85Z"/></svg>