<svg id="Layer_1" data-name="Layer 1" xmlns="http://www.w3.org/2000/svg" viewBox="0 0 1400 1100"><rect width="1400" height="1100" fill="#fffbdd"/><path d="M939.59,540.92c-.49,0-1,0-1.49.06a19.29,19.29,0,0,0-2.4.36,27.73,27.73,0,0,0-2.54-14.4,17.63,17.63,0,0,0,6.34-13.54c0-.44,0-.88-.06-1.32A18.52,18.52,0,0,0,951,493a17.25,17.25,0,0,0-1.91-6,23.9,23.9,0,0,0,2.6-2.23,20.34,20.34,0,0,0,6-18.72c-1.93-8.82-10.29-15.22-19.88-15.22a70.32,70.32,0,0,0,4.86-5.87,45.06,45.06,0,0,0,3.36-5.29,12.34,12.34,0,0,0,.95-10.08,14.93,14.93,0,0,0-13.64-9.71,12.75,12.75,0,0,0-1.38.07c.29-.5.55-1,.79-1.4,1.69-3,3.16-5.63,4.24-7.71a21.48,21.48,0,0,0,2.85-8,12.58,12.58,0,0,0-.51-5.1c-1.64-5.22-9.65-15.3-21-16a21.33,21.33,0,0,0-2.72-12.68c-1.93-3.21-6.6-8.65-16.39-9.12q-.54,0-1.08,0c-7.3,0-14.44,3.72-19.57,10.22a33.3,33.3,0,0,0-4,6.58,32.59,32.59,0,0,0-7.7-.9A41.5,41.5,0,0,0,847.59,381a12.55,12.55,0,0,0-.8-1.37c1-1.17,2-2.38,2.94-3.63,11-14.91,6.72-26.53,3.17-32.13-.19-.3-.39-.58-.59-.85-5.11-6.72-15.09-11.6-23.74-11.6A19.07,19.07,0,0,0,814,337.6c-.12.15-.25.29-.37.45-5.88,7.33-10.52,16.63-13.89,27.74A20.78,20.78,0,0,0,789,363.1a29.86,29.86,0,0,0-6.83.75,30,30,0,0,0-10.51-3.06c-.53,0-1.08-.06-1.61-.06-7.76,0-14.79,4.13-20.45,11.72a18.84,18.84,0,0,0-17.55-11,19.74,19.74,0,0,0-17.85,10.65,25.23,25.23,0,0,0-6.1-.71,35.17,35.17,0,0,0-6.71.68c-2.22-4.94-7.57-9.34-17.18-9.34-.65,0-1.28,0-1.9.05,6.66-16.45.26-26.26-4.26-30.71l-.83-.74c-4.62-3.78-11.54-6-18.5-6-7.42,0-13.63,2.62-17.59,7.29-4.79-3.05-10.55-3.61-14.06-3.61-10.65,0-19,4.37-22.28,11.7l-.06.13c-4.16,9.5-6.45,20.58-6.87,33.1a17.13,17.13,0,0,0-4.8-.68,28.77,28.77,0,0,0-13.69,4.28,36.1,36.1,0,0,0-4.38-.28,26.41,26.41,0,0,0-6.57.79,21.85,21.85,0,0,0-5.07,2c0-.34,0-.68,0-1a33.1,33.1,0,0,0-12.6-25.35,37.91,37.91,0,0,0-24.11-8.15A46.26,46.26,0,0,0,501.55,353a40.31,40.31,0,0,0-17.25,25.76,38.92,38.92,0,0,0,20.37,43.32,27.66,27.66,0,0,0-6.11,14.25,29.19,29.19,0,0,0-.18,4.79c-.32-.19-.64-.36-1-.53a17.65,17.65,0,0,0-7.93-1.91,16.38,16.38,0,0,0-12,5.17c-1.89-1.65-7.14-6.1-14.52-6.8a17.93,17.93,0,0,0-1.8-.09c-9.06,0-16.95,6.08-18.79,14.45A19.22,19.22,0,0,0,448,469.09a24.9,24.9,0,0,0,3.5,2.85,16,16,0,0,0-1.63,5.39,17.67,17.67,0,0,0,11.45,18.38,22.53,22.53,0,0,0,8.33,1.47c.35,0,.69,0,1,0a16.12,16.12,0,0,0,8.65,11.63,20.61,20.61,0,1,0,23.2,34.07,46.27,46.27,0,0,0,2.89,4.08c5.84,7.35,13.63,11.84,21.49,15.31a29.68,29.68,0,0,0-8.52,18.44c-1.4,15.4,10.29,35.78,29.3,40.4a45.8,45.8,0,0,0,10.73,1.25c15.68,0,31.11-7.52,40-19.32a33.31,33.31,0,0,0,13.54,15.4,38.09,38.09,0,0,0,19.91,5.35,51.15,51.15,0,0,0,7.26-.54c12.27-1.76,23.37-6.6,32.29-10.48,1.75-.76,3.49-1.54,5.21-2.31a93.3,93.3,0,0,0,18.86,10.19,196.73,196.73,0,0,0,70.85,13.23c2.37,0,4.77-.05,7.13-.13a83.46,83.46,0,0,0,26.54-5c5.81-2.16,14.23-6,20.25-14.35a34.46,34.46,0,0,0,2.1-37.85,32.83,32.83,0,0,0,4.2-1.37,28.51,28.51,0,0,0,21.35,9.14c.86,0,1.74,0,2.61-.11a34.06,34.06,0,0,0,5-.78,45,45,0,0,0,6.83,10.69,41.45,41.45,0,0,0,31.44,14.62,38.07,38.07,0,0,0,16.14-3.53c13.25-6.16,17.18-16.28,18.13-23.68.09-.7.15-1.41.18-2.1.39,0,.79-.09,1.17-.15,3.88-.7,7.6-1.74,10.91-2.67.83-.23,1.85-.51,3-.91a22.42,22.42,0,0,0,7.36-4.16,17.19,17.19,0,0,0-11-30.65ZM514.17,481.13a43.27,43.27,0,0,0-11.74,12.12,15.74,15.74,0,0,0-1-4.51,42.7,42.7,0,0,0,7.9-15.82,33.26,33.26,0,0,0,.93-6.68,29,29,0,0,0,10.47,6,35,35,0,0,0,9,1.56A53.36,53.36,0,0,0,514.17,481.13Zm32,30.57a12.94,12.94,0,0,1,5-2.07A18.08,18.08,0,0,1,546.14,511.7Zm17.74,76.63c-.22,2.6-2.56,5.14-4.74,5.14a3.34,3.34,0,0,1-.62-.06,4.66,4.66,0,0,1-3.5-4c0-1,1.87-4.06,4.45-5.44l1.89-1,.95-.49c.27-.15.53-.3.8-.47A13.76,13.76,0,0,1,563.88,588.33ZM591,506.81a12,12,0,0,0-1.58.23c0-.23,0-.45-.08-.67a32.16,32.16,0,0,0-.68-3.52c1.1.17,2.2.31,3.28.44C591.56,504.53,591.25,505.72,591,506.81Zm3.52-56a52.6,52.6,0,0,0-12.28,16.07h0a16.85,16.85,0,0,0-15.3,9.86,49,49,0,0,0-21.92-5l-1.05,0a39.59,39.59,0,0,0,19.27-14.28c.16-.22.3-.46.46-.68a22.43,22.43,0,0,0,6.81,1.08c6.8,0,13-3.13,18-8.79a20.74,20.74,0,0,0,6.07.9c.33,0,.67,0,1,0Zm53.25,135a30.89,30.89,0,0,1-4.7-.35c-3.94-.57-6.9-2.15-8.6-8a30.78,30.78,0,0,1-.61-3c-.13-.79-.26-1.57-.41-2.35a12.09,12.09,0,0,0-3.25-6.21,16.14,16.14,0,0,0,5.57-3.58,103.26,103.26,0,0,0,13.78,23.46C648.94,585.79,648.35,585.81,647.76,585.81Zm63.15,8.71c1-.43,2-.85,2.93-1.26a25.32,25.32,0,0,0,.22,2.6C713,595.43,712,595,710.91,594.52ZM687.51,571l-3.68,1.73a70.64,70.64,0,0,1-4.58-6.74q-1.28-2.21-2.4-4.54c.72.06,1.43.11,2.16.11a26.44,26.44,0,0,0,18.76-8,37,37,0,0,0,5.06-6.52,27.24,27.24,0,0,0,20.29,9.26,26.71,26.71,0,0,0,4-.31A246.7,246.7,0,0,0,687.51,571Zm54.5-18.4q-4.69.87-9.45,2a30.09,30.09,0,0,0,6.58-3.42,38.7,38.7,0,0,0,4.61-3.7c.17.41.36.83.55,1.23a27.79,27.79,0,0,0,1.75,3.18C744.72,552.15,743.38,552.38,742,552.63ZM842.1,454.52a29.73,29.73,0,0,0-3.53-1,39.6,39.6,0,0,0-8.56-.95c-8.88,0-17.67,3.08-26.14,9.14-.52.37-1,.77-1.55,1.16a26,26,0,0,0-3.43-7.93A26.65,26.65,0,0,0,776.35,443a28.6,28.6,0,0,0-3.05.16,12.18,12.18,0,0,0-10.09,7.58q-2.75,6.84-5.23,13.62A31.11,31.11,0,0,0,737.65,452a21.72,21.72,0,0,0-15.77,3.19,26.74,26.74,0,0,0-10.28,12,32,32,0,0,0-2.58,15,32.18,32.18,0,0,0-25.19-16.58c-.92-.09-1.86-.13-2.78-.13a29.67,29.67,0,0,0-22.56,10.11,26,26,0,0,0-1.83,2.38,19.6,19.6,0,0,0-9.63-2.59c-.31,0-.63,0-.95,0-9.3.43-16.63,4.66-20.83,11.79a21.32,21.32,0,0,0-2.85-1.36c0-.54,0-1.09-.1-1.64a16.63,16.63,0,0,0-1.64-5.39,25.74,25.74,0,0,0,3.5-2.86,19.19,19.19,0,0,0,5.6-17.7c-1.82-8.37-9.72-14.45-18.78-14.45-.27,0-.54,0-.81,0a32.33,32.33,0,0,0,3.63-3.73l.5-.63a25.06,25.06,0,0,0,14.07,4.21,21.63,21.63,0,0,0,14.43-5.15,19.73,19.73,0,0,0,2.27-2.42,24.14,24.14,0,0,0,13.81,4.22,22.46,22.46,0,0,0,13.46-4.25l.22.23a20,20,0,0,0,14.22,6.17,20.77,20.77,0,0,0,14-5.75,19.94,19.94,0,0,0,13.66,5.53c10.19,0,18.64-7.72,24.69-18.39a21.12,21.12,0,0,0,7.29,10.61,22.09,22.09,0,0,0,19.75,3.64,25.26,25.26,0,0,0,6.09-2.7,21.41,21.41,0,0,0,6.39,3.05,22.55,22.55,0,0,0,6.15.86h0a25,25,0,0,0,13.59-4.17,25.81,25.81,0,0,0,19.93,9.95,19.92,19.92,0,0,0,8.24-1.7,16.34,16.34,0,0,0,2-1.05A26.13,26.13,0,0,0,842.64,453,15.75,15.75,0,0,0,842.1,454.52ZM900.85,493a13.49,13.49,0,0,0,2,9.46,11.66,11.66,0,0,0,.42,1.39,14,14,0,0,0,2,3.55c-.09.26-.18.52-.26.78a43.72,43.72,0,0,0-5-.3,42.83,42.83,0,0,0-13.6,2.22c.82-1,1.86-2,3-3.21.33-.32.65-.65,1-1l.85-.77c.78-.71,1.78-1.62,2.58-2.38.51-.48,1-.9,1.27-1.22a12.37,12.37,0,0,0,3.05-13.42,27.14,27.14,0,0,0-6-9.32,24.19,24.19,0,0,0-10.58-6.34A41.33,41.33,0,0,0,875,453a25.66,25.66,0,0,0-4.58-5.36A84.34,84.34,0,0,0,882.13,439c-.68,5.26-.33,10.12,1.5,14.35a12.74,12.74,0,0,0,.8,1.56c5.07,8.27,12.82,12.82,21.82,12.82a28.88,28.88,0,0,0,5.78-.62A59.26,59.26,0,0,0,900.85,493Z" fill="#2b2d7e"/><path d="M456.53,460.4a19.84,19.84,0,0,0,4.74,3.17l.52.28a93.35,93.35,0,0,1,19,13.77,1.1,1.1,0,0,0,.74.29,1.21,1.21,0,0,0,.52-.13,1.1,1.1,0,0,0,.56-1.14,40.42,40.42,0,0,0-13-23.51c-1.77-1.55-4.5-3.65-7.77-4-3-.29-6.78,1.47-7.51,4.82A7.07,7.07,0,0,0,456.53,460.4Zm8.53-6a.72.72,0,0,1,1,0l.29.29a.72.72,0,1,1-1,1l-.29-.29A.73.73,0,0,1,465.06,454.38ZM460,453.06a2.8,2.8,0,0,1,2.81-.08.73.73,0,0,1-.7,1.27,1.37,1.37,0,0,0-1.33,0,.7.7,0,0,1-.39.11.75.75,0,0,1-.62-.33A.74.74,0,0,1,460,453.06Zm25.17,16.42c.19.77.39,1.55.59,2.33,1,3.74,2,7.61,2,11.34a1.07,1.07,0,0,0,.69,1,1.12,1.12,0,0,0,.4.07,1.07,1.07,0,0,0,.81-.36c4.08-4.53,6.73-9.19,7.87-13.87,1.39-5.69.43-11.6-2.57-15.79a8.49,8.49,0,0,0-3-2.77,4.88,4.88,0,0,0-4.47-.1,5.94,5.94,0,0,0-2.61,3.45C483.1,459.59,484,464.91,485.15,469.48Zm8.85-9.56a.72.72,0,0,1,.93.45l.11.34a.71.71,0,0,1-.45.92.62.62,0,0,1-.23,0,.72.72,0,0,1-.69-.49l-.12-.34A.72.72,0,0,1,494,459.92Zm-3-5.32a.72.72,0,0,1,1,0,8.09,8.09,0,0,1,1.63,2.66.73.73,0,0,1-.44.93.7.7,0,0,1-.25,0,.73.73,0,0,1-.68-.48,6.53,6.53,0,0,0-1.33-2.18A.72.72,0,0,1,491,454.6Zm-29.09,24.2c-.3,2.54,1.68,4.71,3.79,5.54a10.49,10.49,0,0,0,3.88.63c.79,0,1.57-.05,2.31-.1,3.3-.22,6.69-.44,10-1a1.12,1.12,0,0,0,.85-.7,1.11,1.11,0,0,0-.19-1.08,23.37,23.37,0,0,0-11.05-7.25,10,10,0,0,0-5.51-.36A5.34,5.34,0,0,0,461.93,478.8Zm9.62-.12a.73.73,0,0,1,1-.37l.37.16a.74.74,0,0,1,.37,1,.72.72,0,0,1-.67.44.66.66,0,0,1-.27-.06l-.39-.17A.73.73,0,0,1,471.55,478.68Zm-4.46-1.46a4.79,4.79,0,0,1,2.6.09.73.73,0,0,1,.47.92.74.74,0,0,1-.7.5l-.22,0a3.21,3.21,0,0,0-1.79-.06.73.73,0,0,1-.36-1.42Z" fill="#61f7da"/><path d="M854.41,462.2a14,14,0,0,0,2.67,3.1l.3.29a66.92,66.92,0,0,1,10.47,13.13.83.83,0,0,0,.46.35,1,1,0,0,0,.38,0,.8.8,0,0,0,.61-.68,29,29,0,0,0-4.51-18.73,10.39,10.39,0,0,0-4.61-4.22c-2-.78-5-.28-6.11,1.89A5.07,5.07,0,0,0,854.41,462.2Zm7-2.53a.52.52,0,0,1,.71.2l.15.25a.52.52,0,0,1-.2.71.45.45,0,0,1-.39.05.51.51,0,0,1-.32-.24l-.14-.26A.51.51,0,0,1,861.45,459.67Zm-3.26-1.88a2,2,0,0,1,2,.48.52.52,0,1,1-.73.75,1,1,0,0,0-.92-.23.48.48,0,0,1-.29,0,.52.52,0,0,1-.37-.35A.54.54,0,0,1,858.19,457.79Z" fill="#61f7da"/><path d="M617.84,460.84c-.74-3.35-4.48-5.11-7.52-4.82-3.27.31-6,2.41-7.76,4a40.31,40.31,0,0,0-13,23.51,1.07,1.07,0,0,0,.56,1.13,1.06,1.06,0,0,0,.52.13,1.12,1.12,0,0,0,.74-.29,93.68,93.68,0,0,1,19-13.77l.52-.27a19.45,19.45,0,0,0,4.74-3.17A7.09,7.09,0,0,0,617.84,460.84ZM607,462.25l-.29.29a.7.7,0,0,1-.51.22.74.74,0,0,1-.52-1.25l.29-.29a.73.73,0,0,1,1,0A.71.71,0,0,1,607,462.25Zm5.31-1.34a.72.72,0,0,1-.61.34.77.77,0,0,1-.39-.11,1.34,1.34,0,0,0-1.33,0,.73.73,0,0,1-.7-1.28,2.82,2.82,0,0,1,2.81.09A.72.72,0,0,1,612.35,460.91Zm-6.26,20.44a10,10,0,0,0-5.51.36A23.35,23.35,0,0,0,589.53,489a1.09,1.09,0,0,0,.66,1.78c3.32.55,6.71.77,10,1,.74,0,1.52.1,2.32.1a10.7,10.7,0,0,0,3.88-.63c2.11-.83,4.09-3,3.78-5.55A5.34,5.34,0,0,0,606.09,481.35Zm-5.9,5.13-.39.18a.69.69,0,0,1-.28,0,.72.72,0,0,1-.29-1.39l.37-.16a.72.72,0,1,1,.59,1.32Zm5.35-1.53a.72.72,0,0,1-.88.53,3.44,3.44,0,0,0-1.8.06.54.54,0,0,1-.22,0,.73.73,0,0,1-.22-1.42,4.75,4.75,0,0,1,2.59-.09A.72.72,0,0,1,605.54,485Z" fill="#61f7da"/><path d="M939.09,553.15a10,10,0,0,0-5.07,2.17,23.34,23.34,0,0,0-8,10.51,1.09,1.09,0,0,0,1.21,1.46c3.31-.6,6.59-1.51,9.76-2.4.72-.2,1.47-.41,2.22-.68a10.51,10.51,0,0,0,3.45-1.88c1.72-1.49,2.86-4.19,1.73-6.49A5.33,5.33,0,0,0,939.09,553.15Zm-3.85,6.8-.31.3a.84.84,0,0,1-.24.14.74.74,0,0,1-.78-.19.72.72,0,0,1,0-1l.3-.28a.73.73,0,1,1,1,1.05Zm4.54-3.22a.74.74,0,0,1-.66.79,3.37,3.37,0,0,0-1.67.65.56.56,0,0,1-.2.11.74.74,0,0,1-.82-.24.73.73,0,0,1,.14-1,4.74,4.74,0,0,1,2.41-.95A.74.74,0,0,1,939.78,556.73Z" fill="#61f7da"/><path d="M945.71,468.68c-.85-3.89-5.18-5.92-8.71-5.59-3.79.36-7,2.79-9,4.58a46.85,46.85,0,0,0-15.1,27.25,1.29,1.29,0,0,0,.65,1.32,1.3,1.3,0,0,0,.6.15,1.23,1.23,0,0,0,.86-.34,108.33,108.33,0,0,1,22-15.95l.61-.33a22.37,22.37,0,0,0,5.48-3.67A8.19,8.19,0,0,0,945.71,468.68Zm-12.51,1.64-.34.33a.81.81,0,0,1-.59.25.86.86,0,0,1-.6-.25.84.84,0,0,1,0-1.19l.34-.34a.84.84,0,0,1,1.19,0A.85.85,0,0,1,933.2,470.32Zm6.15-1.56a.84.84,0,0,1-1.16.26,1.57,1.57,0,0,0-1.54,0,.84.84,0,0,1-1.14-.34.83.83,0,0,1,.33-1.14,3.23,3.23,0,0,1,3.25.1A.83.83,0,0,1,939.35,468.76Zm-5.22,20.77a11.6,11.6,0,0,0-6.39.41,27.13,27.13,0,0,0-12.8,8.4,1.26,1.26,0,0,0-.22,1.26,1.29,1.29,0,0,0,1,.81c3.85.62,7.78.88,11.59,1.14.86.05,1.77.11,2.69.11a12.12,12.12,0,0,0,4.49-.73c2.45-1,4.75-3.47,4.39-6.42A6.18,6.18,0,0,0,934.13,489.53Zm-6.84,6-.45.2a.77.77,0,0,1-.32.07.86.86,0,0,1-.78-.51.85.85,0,0,1,.43-1.11l.43-.19a.84.84,0,1,1,.69,1.54Zm6.2-1.78a.84.84,0,0,1-1,.62,3.77,3.77,0,0,0-2.08.07.78.78,0,0,1-.26,0,.85.85,0,0,1-.26-1.65,5.6,5.6,0,0,1,3-.1A.84.84,0,0,1,933.49,493.7Z" fill="#61f7da"/><circle cx="490.79" cy="525.88" r="8.41" fill="#61f7da"/><circle cx="921.83" cy="513.4" r="5.45" fill="#61f7da"/><circle cx="486.43" cy="494.43" r="3.84" fill="#61f7da"/><circle cx="582.21" cy="483.69" r="4.62" fill="#61f7da"/><path d="M774.52,583.5a11.86,11.86,0,0,0-5.84-3.29,16.77,16.77,0,0,0-2.47-.43,6.71,6.71,0,0,1,3.88,3.14,13.62,13.62,0,0,1,1.66,4.58,24.16,24.16,0,0,1,.41,6.23,19.59,19.59,0,0,1-1.26,6.15,8.57,8.57,0,0,1-2.52,3.64,6.09,6.09,0,0,1-2.1,1.12,14,14,0,0,0,5.4-1.56,10.91,10.91,0,0,0,5-5.36,13.08,13.08,0,0,0,1-4.36,14.76,14.76,0,0,0-.52-5.27A11.13,11.13,0,0,0,774.52,583.5Z" fill="#ebf5ee"/><path d="M758.45,601.5a13.76,13.76,0,0,1-1.65-4.63,25.47,25.47,0,0,1-.43-4.84,22,22,0,0,1,.93-6.46,10.16,10.16,0,0,1,2.06-3.87,6.14,6.14,0,0,1,2.92-1.91l-.52.06a13.74,13.74,0,0,0-4.88,1.5,10.83,10.83,0,0,0-4.71,4.78,13,13,0,0,0-1.32,5,14,14,0,0,0,.57,5.29,11,11,0,0,0,6.81,7.3,15.16,15.16,0,0,0,4.13,1A6.66,6.66,0,0,1,758.45,601.5Z" fill="#ebf5ee"/><path d="M741.78,586a4.27,4.27,0,0,0-1.15,4.66,4.19,4.19,0,0,0,3.89,2.7h.05a4.4,4.4,0,0,0,1.89-.39h0l0,0,.06,0,0,0c1.43-.74,2.16-2.15,2.17-4.19a8,8,0,0,0-.81-3.48h0l-.24-.45a9.22,9.22,0,0,0-3.76-3.66,10.75,10.75,0,0,0-1.29-.6,5.41,5.41,0,0,1,.68.6,2.5,2.5,0,0,1,.24,3.27,4.93,4.93,0,0,1-.75.79c-.18.15-.37.29-.55.42A5.93,5.93,0,0,0,741.78,586Z" fill="#ebf5ee"/><path d="M736,580a12.45,12.45,0,0,0-9.42,8.6,13.27,13.27,0,0,0,.08,7.74,11.72,11.72,0,0,0,4.63,6.46,10.59,10.59,0,0,0,4.89,1.78c.45,0,.9.07,1.35.07a15.15,15.15,0,0,0,2.29-.19,11,11,0,0,0,4.1-1.48,10.61,10.61,0,0,0,3.67-3.77,8.93,8.93,0,0,1-1.72.87,11.58,11.58,0,0,1-8.19.14,9.84,9.84,0,0,1-5.4-4.36,10.59,10.59,0,0,1-1.41-4.65,13.32,13.32,0,0,1,.7-5.62,8.71,8.71,0,0,1,7.39-5.85h-.32A14.3,14.3,0,0,0,736,580Z" fill="#ebf5ee"/><circle cx="782.26" cy="602.11" r="2.56" fill="#ebf5ee"/><path d="M757,507.87a1.25,1.25,0,0,0-.51-.17c-.43-.09-5.94-.9-6-.8-.4,1.46-.77,2.79-1.12,4.13a74.31,74.31,0,0,1-8.71,21,30.3,30.3,0,0,1-8.45,9.09c-6.92,4.75-15,3.81-20.59-2.51-5.19-5.91-6.81-13-6.64-20.67,0-.61.08-1.22.13-1.83s.09-1,.16-1.82l-4.6,1.57c-.62,2.8-1.07,5.72-1.93,8.51-2.21,7.13-4.28,15.13-9.72,20.68s-14.73,6-19.79-.46A32.16,32.16,0,0,1,662.34,526a39.72,39.72,0,0,1,1-10.08c.82-3.68,2.81-6.1,4.75-9.26a21.17,21.17,0,0,1-4-9.3c-1.91-12.95,8.45-20.51,18.61-19.58a19.93,19.93,0,0,1,14.48,8.51c4,5.78,3.87,12.51,4.36,19.25.12,1.6,0,3.22,0,5.19l4.5-.89c1.68-5.28,3.42-10.6,9.4-12.29,4.42-1.24,8.55.17,12.48,2.35-1.16-.64-3.3,6.08-3.52,6.73-.6,1.74-1.16,3.51-1.66,5.28a34.2,34.2,0,0,0-.84,13.44c.41,3.16,1.5,7.47,5.1,8.34,3.14.76,5.17-1.23,6.92-3.47,3.69-4.73,5.63-10.31,7.38-15.94.86-2.81,1.44-5.7,2.23-8.89-1.23-.5-2.31-1-3.41-1.39-6.91-2.69-12.86-6.6-16.3-13.44-3-6-3.78-12.18-1-18.53a14.76,14.76,0,0,1,5.69-6.59,9.47,9.47,0,0,1,7-1.42c7.83,1.39,13,5.88,15.53,13.38,2,6,1.88,12.21,1.26,18.42-.16,1.71-.37,3.41-.6,5.47,0,.22,6.91,1.42,6.89,1.47a423.9,423.9,0,0,1,15.94-47.44c12.06-1.23,19.82,9.81,14.86,20.93-3.64,8.17-7.44,16.26-11.15,24.39-.41.91-.73,1.86-1.32,3.4,4.35,0,8.71.09,13.06-.16,1.12-2.8,2.14-5.55,3.31-8.24,4.07-9.33,9.23-17.93,17.69-24,7.46-5.34,15.7-8.23,25-6.19,12.51,2.76,17.83,16.15,10.41,26.5-4.19,5.84-10.13,9.26-16.63,11.85-7.61,3-15.59,4.53-23.69,5.5l-2.73.36c-.29,0-1.17,3.39-1.31,3.8l-1.4,4-1.4,4c-.75,2.17-.15,2.13,1.5,1,3.89-2.78,7.75-5.59,11.65-8.34s8.76-5.15,13.52-4.31a9.63,9.63,0,0,1,7,13.12,88.72,88.72,0,0,1-6.61,11.59c-3,4.8-6.41,9.39-9.43,14.19a8.35,8.35,0,0,0-1.17,7.56c1.57,1.75,3.49,1.48,5.38.9a29.94,29.94,0,0,0,10.11-5.73c3.41-13.58,11.9-29.73,20.41-38.92,7.86.12,16.19,9.81,10,18.71-3.12,4.5-6.81,8.59-10,13a69.68,69.68,0,0,0-4.14,6.43c-1.25,2.15-2.63,4.31-2.9,6.85-.45,4.14,2.28,7,6.47,7,3.48,0,8.61-2.14,12.7-5.28a48.34,48.34,0,0,1,4.45-15.85c4.09-8.41,9.6-15.54,18.08-20,10-5.25,23-4.21,31.06,2.52s8.56,17.7.92,25.1c-5,4.87-11.22,7.18-18.07,7.91a68.18,68.18,0,0,1-18.85-.7c-.33,1.92-.71,3.67-.92,5.44a42,42,0,0,0,1.06,16.93c1,3.57,2.67,6.83,6,8.89a8.55,8.55,0,0,0,9.58-.49,13.3,13.3,0,0,0,4.85-10c.18-4.2-1.48-7.58-3.45-11.16l-.07-.13a13.56,13.56,0,0,1,12.27,1.43c3.79,2.52,6,6.1,5.4,10.86-.9,6.9-5.13,11.36-11.17,14.17-11.09,5.15-24.82,1.77-33.17-8a33.06,33.06,0,0,1-7.52-16.1c-.15-.88-.32-1.76-.54-3-.92.39-1.63.64-2.29,1a28.91,28.91,0,0,1-11.74,4c-8.56.67-15.27-3.82-17.94-12-.12-.38-.29-.74-.58-1.45-1.18.77-2.23,1.46-3.3,2.14-3.63,2.29-7.34,4.39-11.81,4.45a12,12,0,0,1-12.34-12.87,24.63,24.63,0,0,1,2.54-9.31c3.34-6.26,7.29-12.19,11-18.28.61-1,1.15-2,1.69-3.08.46-.88,1.17-1.52.27-2.29-1.09-.92-2.81.07-3.82.61a56.73,56.73,0,0,0-6.47,4c-4.25,3.1-8.41,6.34-12.54,9.48-.48,3.2-1,6.09-1.33,9s-.47,5.65-.72,8.75c-3.15.39-5.94,0-8.37-2-2.69-2.18-2-5.33-2.16-8.9L781,543.1a24.7,24.7,0,0,1-10.47,7.09c-6.45,2-12.32-.49-15.21-6.63a24.55,24.55,0,0,1-1.88-14c.94-6.73,2.32-13.4,3.5-20.09,0-.3.06-.6.08-.9S757.1,508,757,507.87Zm17.37,2.42c-2.53,6.57-5,13.32-6.2,20.45a33.84,33.84,0,0,0-.51,8.45c.4,4.31,3.08,5.55,6.47,2.91a104.34,104.34,0,0,0,9.28-8.71,4.88,4.88,0,0,0,.9-2.49c.76-4.29,1.41-8.6,2.17-12.88.44-2.47,1-4.91,1.62-7.73Zm32.77-8.41c10.82-2.44,20.53-5.73,27.62-14,2-2.38,7.9-9.62,5.57-12.86-1.79-2.49-6.32-.69-8.45.24a41.36,41.36,0,0,0-13.51,10.14A72.62,72.62,0,0,0,807.14,501.88ZM695,511c1,0-.16-12.64-.44-13.83-1.06-4.56-3.6-9.44-8.15-11.29-7.21-2.93-11.78,3.15-10.52,10C677.46,504.63,685,510.76,695,511Zm188.09,41c8.52.88,16.18.14,23.36-3.51a12.24,12.24,0,0,0,5.65-5.78c1.87-4,.53-7.26-3.71-8.15a19.74,19.74,0,0,0-7.8-.25C891.14,536.21,886.63,543.24,883.05,552Zm-199.46-12.3c5.51-1.78,11.5-14.89,10.37-22.59l-12.73-1.63c-3.94,6.94-3.74,14-1.11,21.18A4.09,4.09,0,0,0,683.59,539.67Zm60.91-41.53c0-7.92,1-16.75-4.37-23.3-1.88-2.3-4.7-3.21-7-.77-1.61,1.75-1.79,5.09-1.74,7.38a17.39,17.39,0,0,0,1.75,7.14,18.21,18.21,0,0,0,7.67,8.06C741.18,496.83,744.5,498.13,744.5,498.14Z" fill="#ebf5ee"/><path d="M607.3,520a266.31,266.31,0,0,0,1.45,48.7c-6.87,3-13.31-4-17.41-8.53A57.56,57.56,0,0,1,579.18,538c-2-6.69-.4-11.34,6-15.62A61.24,61.24,0,0,1,591.8,519l8,25.9c1.13.58.74-2.29.74-2.72-.19-10-.25-20,1.78-29.78,1.3-6.28,3.46-16.06,11.65-15.94a9.38,9.38,0,0,1,8.88,5.32c2.31,4.44,2.79,9.32,3.34,14.16.34,2.92.5,5.87,1.07,8.9.26-1.25.47-2.52.77-3.77,1.73-7.1,3.45-14.21,5.23-21.3.3-1.17.89-2.27,1.27-3.43,1.89-5.93,6.17-8.48,12.16-8.75,6.62-.31,8.49,7.06,9.11,12.29.8,6.68.43,13.42.17,20.12a93.77,93.77,0,0,0,1.29,17.93,97.36,97.36,0,0,0,11.46,34.19c3,5.16,6.88,9.78,10.39,14.63a7.79,7.79,0,0,0,1.35,1.13c4.07-1.92,8.16-3.87,12.27-5.8,16.54-7.73,33.52-14.11,51.55-17.44a120.9,120.9,0,0,1,29.14-2.2c12.54.74,23.81,5.14,33.12,13.74,9.49,8.76,10.9,21.24,3.78,31.11-3.65,5.07-8.92,7.94-14.59,10.05A72.28,72.28,0,0,1,773,621.53a183.86,183.86,0,0,1-73.17-12.3c-7.27-2.79-13.77-6.94-20-11.48-.57-.41-1.16-.78-1.92-1.28-3.77,1.7-7.55,3.43-11.35,5.09-9.42,4.1-18.88,8.11-29.15,9.58-6.7,1-13.17.41-19.15-3.18-8.46-5.08-12.23-15.14-8.93-23.6,1.89-4.82,8.13-10,12.21-10,.42,2.16.67,4.38,1.28,6.49,2.74,9.36,8.8,15.23,18.56,16.66,10.69,1.56,20.74-.87,30.67-5.68-.88-.92-1.5-1.67-2.22-2.31-15.37-13.82-24.42-31.19-28.78-51.2a134.54,134.54,0,0,1-2.37-15.59c-.25-2.61-.45-5.23-.63-7.85-.12-1.87.42-5.47-.84-6.95a28.68,28.68,0,0,0-1,3.22q-3.45,17.8-6.83,35.62c-.23,1.2-.35,2.42-.57,3.62-1,5.75-6.68,5.17-9.91,1.73-5-5.29-6.83-11.7-8.51-18.55C609.17,529.09,608.28,524.52,607.3,520Zm78.12,72.81A26.56,26.56,0,0,0,688,595c5,3.13,9.76,6.62,15,9.24,13.77,6.89,28.59,9.69,43.88,10.17,11,.34,21.94-.35,32.61-3.38,4.72-1.34,9.21-3.2,13-6.51,9.62-8.51,3.83-22.86-5.47-28.83a34.87,34.87,0,0,0-13.68-4.86c-12.23-1.93-24.36-.75-36.32,1.85C719,576.63,702.61,584.86,685.42,592.79Z" fill="#ebf5ee"/><path d="M556.61,571.72l-2.88,1.51c-5.74,3.06-11.21,10-10.9,16.78a16.83,16.83,0,0,0,13.3,15.37c10,2,19.09-6.25,19.92-16,.74-8.76-2.32-16.61-9.44-22-5.67-4.25-12.08-7-18.53-9.8-11.12-4.74-25.36-8.47-33.17-18.28a35.16,35.16,0,0,1-7.1-26.44,31.6,31.6,0,0,1,13.29-21.72c11.64-8,29.83-10.58,43.53-1.72,6.48,4.2,11.54,10.81,12.61,18.59s-2,15.95-7.22,21.68c-3.36,3.71-7.88,6.47-13,6.81a16.39,16.39,0,0,1-8.59-1.76,14.84,14.84,0,0,1-3.52-2.51,11.23,11.23,0,0,1-1.41-1.67,9.69,9.69,0,0,1-1.15-2.24c-.12-.37-.84-3.51-.37-3.57.91-.13,1.88-.25,2.85-.4,6.15-.91,11.8-3,16.49-7.23a13.59,13.59,0,0,0,4.89-9.79c.19-4.66-1.81-7.87-6.25-9.32a19.57,19.57,0,0,0-6.28-.9,25.86,25.86,0,0,0-18.58,7.93c-6,6.18-6.88,13.62-4.24,21.51a31.82,31.82,0,0,0,10.84,15.47c6.14,4.57,14.16,6.37,21.25,9,4.57,1.67,9.27,3.08,13.7,5.08,14.3,6.47,22,24.58,12.81,38.3-8,11.92-25,18.21-39,14.83-13.11-3.19-20.89-18-20-27.43.75-8.31,7.43-16.27,17.15-15.1C550.7,567.07,553.46,568.49,556.61,571.72Z" fill="#ebf5ee"/><path d="M886.73,492.49c.07.18-4.59,4.33-5,4.69a50.44,50.44,0,0,0-6.63,7.54,29.14,29.14,0,0,0-2.27,4.32c-.21.49-1.7,4.12-1.34,4.36-4.36-3-8.62-7.25-9.8-12.6-1.25-5.7,1.83-11.63,6.44-14.93a11.68,11.68,0,0,1,15.25,1.46A15,15,0,0,1,886.73,492.49Z" fill="#ebf5ee"/><path d="M530.58,430.16l-2.23,1.14c-4.43,2.32-8.81,7.87-8.84,13.44,0,6.05,3.93,11.5,9.1,12.92,7.13,1.95,14-4.3,15.23-12.21,1.06-7.1-.63-13.69-5.57-18.38-3.94-3.74-8.58-6.29-13.29-8.73-8.11-4.21-18.83-7.4-24.44-15.46a28.77,28.77,0,0,1-4.27-21.77,28.13,28.13,0,0,1,12-17.94c9.94-6.52,24.92-8.05,34.87,0a21,21,0,0,1,8,16c.07,6.41-3.08,12.9-7.54,17.31-2.88,2.85-6.54,4.88-10.45,5a11.86,11.86,0,0,1-6.46-1.76,11,11,0,0,1-2.54-2.17,8.24,8.24,0,0,1-1-1.41,7.57,7.57,0,0,1-.73-1.87c-.07-.31-.42-2.91-.05-2.95l2.24-.24a25.16,25.16,0,0,0,13.36-5.3,12.15,12.15,0,0,0,4.67-7.77c.57-3.81-.68-6.56-4-8a14.2,14.2,0,0,0-4.88-1,20.72,20.72,0,0,0-15.33,5.93c-5.25,4.95-6.36,11.09-4.79,17.63a25.13,25.13,0,0,0,7.43,12.93c4.43,3.9,10.41,5.64,15.57,8.08a109.54,109.54,0,0,1,9.91,4.86c10.19,6.11,14.19,21.45,6.69,32-6.52,9.17-18.9,13.41-28.85,10.27-9.35-2.95-14.7-15.07-13.73-22.8.86-6.8,6.26-13.29,13.49-12.05C526.42,426.15,528.41,427.41,530.58,430.16Z" fill="#ebf5ee"/><path d="M584,391.05c.06-.63.14-1.28.19-1.86.08-.86,11.62-8,13.13-.21,0,0-2.89,31.5.69,33.91,4.19,2.83,12.43-7.26,14.49-19.63-.13-.31,2.22-1.41,2.4,0,.36,2.74-5.39,33.7-19.92,34.45-4.51.23-8-3-9.87-7.46-3.52,10.44-10.15,17.43-17.95,14.8-12.15-4.09-11.74-51.12,4.3-55.26C575.25,388.82,580.45,389.77,584,391.05Zm-6.52,4.74c-2.06,1.85-3,6.81-3.58,14.85-.69,10.37-.65,18.3,2.79,23.22,2,2.22,4.27-4.94,6.18-13.21-.81-7.65-.16-16.69.6-24.39C581.91,395.1,579.23,394.24,577.51,395.79Z" fill="#ebf5ee"/><path d="M635.7,343.81c12.4,11.94-8.07,43.93-9.92,49.83-4.13,13.17,2.63,32.05,5.8,32.15,4.92.16,9.51-19,12.32-28,.24-.51,2.23-.55,2.69-.07-1.32,10.43-7.44,27.73-11.89,31.67-4.27,3.79-13.85,2.24-16.55-3.36-2.09-4.31-15.74-49.47-2.22-80.35C618.35,340.27,632.44,339.76,635.7,343.81Zm-10.18,41.9c3.82-6.42,16.41-39.4,7.19-41C626.9,347.11,625.86,366.8,625.52,385.71Z" fill="#ebf5ee"/><path d="M669.5,340.74c10.27,10.1-4.81,29-10.75,36.77,4.72-.39,9-.79,10.55-.72,2.34.11,2.71,2.52.28,3.57-.9.38-6,.94-11.79,1.49-.67,18.68,1.44,40.3,4.42,40.56,4.89.42,10.22-18.44,13.38-27.33.26-.5,2.24-.43,2.68.07-1.72,10.35-8.49,27.3-13.08,31-4.4,3.55-14.24,2.3-16.37-4.26-1.5-2.74-5.72-19.48-6.28-38.95-1.24,0-2.35,0-3.08,0-1.91,0-1.65-2.77-.51-3.43l3.53-.39c0-12.7,1.72-26.25,7.23-37.58C652.92,335.61,664.77,336.87,669.5,340.74ZM658.17,372.8c6-5.59,18.46-27.9,8.31-31.29C660.59,343.56,659.29,353.93,658.17,372.8Z" fill="#ebf5ee"/><path d="M739.14,380.75c0,6.32-2.36,13-2.83,14.51,4.31,3.87,12.36.26,17.72-1.47.45-.32,1.56.54.44,1.58-5,3.11-15,5.77-18.86,3.29-5.23,23.63-21.85,44.23-31.48,21.53a54.26,54.26,0,0,1-2.26-11.5c-3.26,15.3-12.49,27-20.74,18.9-7.11-7-4.58-49.75-4.58-49.75.73-3.46,13.12-4.24,13.87-.35,0,0-4.08,25.4.83,39.93,3.18,9.43,8.15-12.48,10.28-27.49,0-1.62,0-3.33-.06-5.17,1.88-1.16,12-2.58,12.81,1.64,1.9,10.07-1.24,14.35,2.62,32,3.15,14.36,14.67-15.68,15.37-22-5-4.59-10.75-10.56-7.26-18.57C727.61,371.79,739.14,371.82,739.14,380.75Zm-10.52.52c-.92,6.6,1.64,9.19,4.46,12.23.38-2.61,2.68-8.95,2.51-13.3C735.41,375.58,729.4,375.63,728.62,381.27Z" fill="#ebf5ee"/><path d="M782.42,378.28c.21-.58.43-1.18.62-1.72.28-.8,13-3.86,12.63,4.09,0,0-10.22,29.27-7.32,32.8,3.41,4.16,13.62-2.9,18.51-14.11-.06-.35,2.46-.63,2.3.79-.29,2.75-13.19,30.58-27.2,26.57-4.41-1.26-6.93-5.5-7.69-10.4-5.82,8.89-13.68,13.51-20.62,8.35-10.66-7.92.77-52.95,17.08-51.68C774.54,373.26,779.3,375.88,782.42,378.28Zm-7.35,2.42c-2.39,1.09-4.51,5.56-6.91,13.1-3.1,9.74-4.91,17.36-2.79,23.21,1.44,2.81,5.25-3.34,9-10.66,1-7.62,3.76-16.08,6.3-23.24C779.44,381.48,777.07,379.78,775.07,380.7Z" fill="#ebf5ee"/><path d="M842.59,350.37c8,12.66-10.41,26.87-17.74,32.81,4.67.92,9,1.72,10.43,2.2,2.27.75,2.14,3.2-.45,3.54-.94.13-6-.72-11.77-1.79-4.35,18-6.64,39.58-3.71,40.67,4.65,1.72,13.6-15.12,18.44-22.9.35-.42,2.27.2,2.6.8-3.73,9.6-13.69,24.22-18.87,26.55-5,2.23-14.33-1.68-15.11-8.64-.92-3.07-1.72-20.51,1.58-39.61-1.21-.31-2.27-.67-3-.87-1.85-.54-1.06-3.16.18-3.48l3.5.59c2.49-12.36,6.86-25.06,14.47-34.56C827.44,340.82,838.74,345.32,842.59,350.37Zm-17.38,28.06c6.94-3.78,23.51-22,14.28-28.14C833.35,350.67,830,360.4,825.21,378.43Z" fill="#ebf5ee"/><path d="M900.68,397.72c5.48-.42,10.3-1.45,12.72-2.75,7.64-4.11,14.73,6.33,14.23,6.68.52,2.15-24.62,40.56-19.49,45.17,6.61,6,17.67-8.39,24.6-14.48.82-.89,3,1.08,2.61,1.35-5.59,10.92-29.28,33.11-40.51,14.8-5.14-12,14.68-44.26,16.33-48.82-7.56,1.2-8.53,2-12.54,1.8-11,17.06-51.53,64.12-63.93,25.79-4.48-24.45,21.9-44.27,38.94-38,12.36,4.58.82,25.17-23.35,30.66-1,4.44-1.68,12.72,4.24,13.79,12.88-1.66,30.65-21.19,40-32.74-19.36-1.44-9.62-29.45,4-28.78C910.4,372.81,906.13,386.2,900.68,397.72Zm-48.67,17c9.33-2.39,28.74-17.52,19.23-20C863.89,397.22,855.87,405.57,852,414.71Zm37.6-20.83c.25,3.07,3.4,3.36,6.31,4.05,2.47-5.21,5-11.39,5.12-16.73C901.2,375.05,889.13,388.07,889.61,393.88Z" fill="#ebf5ee"/><path d="M143,151.42H110.18a.61.61,0,0,1-.53-.31L99.46,133.46l-1.12-1.94-3.6-6.23-2.66-4.6a43.07,43.07,0,0,0,3.48-17,43.51,43.51,0,0,0-5.28-20.8c-.2-.35-.39-.69-.6-1l-.19-.33A43.51,43.51,0,0,0,75.62,67.18a43,43,0,0,0-18.23-6.55L54.7,56h34a.69.69,0,0,1,.61.35l54.3,94.06A.7.7,0,0,1,143,151.42Z" fill="#2b2d7e"/><path d="M93.07,128.28l-1.89,3.29-2.48,4.3-8.83,15.28a.61.61,0,0,1-.53.31H51.26v0h.91A47.45,47.45,0,0,0,83.1,140a45.16,45.16,0,0,0,4.34-4.19A46.68,46.68,0,0,0,93.07,128.28Z" fill="#2b2d7e"/><path d="M97.1,87.49c-.19-.54-.39-1.06-.6-1.58A47.69,47.69,0,0,0,87.87,72l-.79-.86a47.77,47.77,0,0,0-31.83-15L54.7,56H50.62a.61.61,0,0,0-.62.61V150.8a.62.62,0,0,0,.62.62h1.55A47.45,47.45,0,0,0,83.1,140a45.16,45.16,0,0,0,4.34-4.19,46.68,46.68,0,0,0,5.63-7.54l1-1.67c.24-.44.46-.88.69-1.32a45,45,0,0,0,2.34-5.42,47.22,47.22,0,0,0,2.83-16.19A47.72,47.72,0,0,0,97.1,87.49Zm-3,27.23a42,42,0,0,1-2,6A43.5,43.5,0,0,1,54.36,147V60.37c1,.05,2,.13,3,.26a43,43,0,0,1,18.23,6.55,43.92,43.92,0,0,1,9.18,7.89c.26.3.52.59.76.89a43.54,43.54,0,0,1,3.93,5.55c.27.45.53.91.79,1.37a43.55,43.55,0,0,1,3.85,9.73c.24.92.46,1.85.64,2.8a43.58,43.58,0,0,1,.79,8.27,43,43,0,0,1-.81,8.31C94.58,112.91,94.37,113.82,94.13,114.72Z" fill="#2b2d7e"/><path d="M124,50v.75h-1.76V56h-.79V50.75h-1.75V50Zm6.42,0v6h-.78V51.3l-2,3.25h-.1l-2-3.24V56h-.79V50h.9l1.9,3.16L129.57,50Z" fill="#2b2d7e"/><path d="M287.06,1041.76a6,6,0,0,0-4.56-2h-5.2v13.49h5.2a6,6,0,0,0,4.56-2,7.26,7.26,0,0,0,0-9.57Zm-.93,8.67a4.66,4.66,0,0,1-3.63,1.59h-3.85v-10.94h3.85a4.65,4.65,0,0,1,3.63,1.58,6.06,6.06,0,0,1,0,7.77Z" fill="#2b2d7e"/><path d="M311.12,1047.72a4,4,0,0,0,2.91-3.87,4.06,4.06,0,0,0-4-4h-5.39v13.49h1.35v-5.4h3.79l3.14,5.4h1.54Zm-5.18-1.1v-5.54h4a2.55,2.55,0,0,1,1.91.81,2.81,2.81,0,0,1,0,3.91,2.53,2.53,0,0,1-1.91.82Z" fill="#2b2d7e"/><path d="M335.45,1039.8h-1.38l-5.19,13.49h1.43l1.24-3.31H338l1.26,3.31h1.42Zm-3.41,8.9,2.71-7.21,2.72,7.21Z" fill="#2b2d7e"/><path d="M370.51,1039.8l-3.32,11.67-3.51-11.67H362.1l-3.51,11.66-3.33-11.66h-1.42l3.86,13.49h1.66l3.53-11.71,3.52,11.71H368l3.84-13.49Z" fill="#2b2d7e"/><path d="M414,1039.8l-4,6.61-4-6.61h-1.53l4.86,7.92v5.57h1.35v-5.53l4.87-8Z" fill="#2b2d7e"/><path d="M440.78,1041.6a7.06,7.06,0,1,0,2,5A6.74,6.74,0,0,0,440.78,1041.6Zm-.95,9a5.71,5.71,0,0,1-8,0,5.79,5.79,0,0,1,0-8,5.71,5.71,0,0,1,8,0,5.76,5.76,0,0,1,0,8Z" fill="#2b2d7e"/><path d="M467,1039.8v8.9a3.43,3.43,0,0,1-1,2.56,4.33,4.33,0,0,1-5.39,0,3.42,3.42,0,0,1-1-2.56v-8.9h-1.35v8.9a4.54,4.54,0,0,0,1.39,3.5,5.61,5.61,0,0,0,7.23,0,4.54,4.54,0,0,0,1.4-3.5v-8.9Z" fill="#2b2d7e"/><path d="M491.27,1047.72a3.94,3.94,0,0,0,2.09-1.43,3.88,3.88,0,0,0,.82-2.44,4,4,0,0,0-4-4h-5.39v13.49h1.34v-5.4h3.79l3.15,5.4h1.54Zm-5.18-1.1v-5.54h4.05a2.55,2.55,0,0,1,1.9.81,2.79,2.79,0,0,1,0,3.91,2.52,2.52,0,0,1-1.9.82Z" fill="#2b2d7e"/><path d="M528.27,1039.8v13.49h1.35V1039.8Z" fill="#2b2d7e"/><path d="M556.8,1039.8l-4.51,7.55-4.51-7.55h-1.65v13.49h1.34v-11.44l4.72,7.9h.2l4.71-7.9v11.44h1.35V1039.8Z" fill="#2b2d7e"/><path d="M580,1039.8h-1.39l-5.17,13.49h1.42l1.25-3.31h6.4l1.24,3.31h1.43Zm-3.41,8.9,2.72-7.21,2.72,7.21Z" fill="#2b2d7e"/><path d="M605.87,1046.87v1.28h5.36a4.3,4.3,0,0,1-1.57,2.91,5.43,5.43,0,0,1-3.63,1.14,5.66,5.66,0,1,1,2.75-10.59,4.9,4.9,0,0,1,1.89,2l1.19-.69a6.45,6.45,0,0,0-2.4-2.41,7,7,0,1,0-3.43,13,6.6,6.6,0,0,0,4.79-1.72,5.65,5.65,0,0,0,1.79-4.23v-.7Z" fill="#2b2d7e"/><path d="M628.3,1039.8v13.49h1.35V1039.8Z" fill="#2b2d7e"/><path d="M654.82,1039.8v11l-7.49-11h-1.18v13.49h1.36v-11l7.5,11h1.16V1039.8Z" fill="#2b2d7e"/><path d="M677.76,1039.8h-1.38l-5.19,13.49h1.43l1.25-3.31h6.4l1.25,3.31h1.42Zm-3.41,8.9,2.72-7.21,2.71,7.21Z" fill="#2b2d7e"/><path d="M695.28,1039.8v1.28h4.14v12.21h1.35v-12.21h4.14v-1.28Z" fill="#2b2d7e"/><path d="M720,1039.8v13.49h1.35V1039.8Z" fill="#2b2d7e"/><path d="M749,1041.6a7.06,7.06,0,1,0,2,5A6.72,6.72,0,0,0,749,1041.6Zm-.94,9a5.71,5.71,0,0,1-8,0,5.79,5.79,0,0,1,0-8,5.71,5.71,0,0,1,8,0,5.79,5.79,0,0,1,0,8Z" fill="#2b2d7e"/><path d="M775.43,1039.8v11l-7.49-11h-1.17v13.49h1.34v-11l7.52,11h1.15V1039.8Z" fill="#2b2d7e"/><path d="M810.49,1039.8v1.28h4.14v12.21H816v-12.21h4.14v-1.28Z" fill="#2b2d7e"/><path d="M845.64,1041.6a7.05,7.05,0,0,0-9.9,0,7,7,0,0,0,5,11.92,7,7,0,0,0,4.94-11.92Zm-.94,9a5.71,5.71,0,0,1-8,0,5.79,5.79,0,0,1,0-8,5.71,5.71,0,0,1,8,0,5.79,5.79,0,0,1,0,8Z" fill="#2b2d7e"/><path d="M880.6,1039.8v1.28h4.14v12.21h1.35v-12.21h4.14v-1.28Z" fill="#2b2d7e"/><path d="M914,1039.8v5.92h-7.31v-5.92h-1.35v13.49h1.35V1047H914v6.3h1.35V1039.8Z" fill="#2b2d7e"/><path d="M933.23,1052v-4.9h6v-1.27h-6v-4.77h6.45v-1.28h-7.8v13.49h7.89V1052Z" fill="#2b2d7e"/><path d="M980.4,1047.72a4,4,0,0,0,2.09-1.43,3.94,3.94,0,0,0,.81-2.44,4,4,0,0,0-4-4h-5.4v13.49h1.35v-5.4H979l3.15,5.4h1.54Zm-5.19-1.1v-5.54h4a2.55,2.55,0,0,1,1.9.81,2.81,2.81,0,0,1,0,3.91,2.52,2.52,0,0,1-1.9.82Z" fill="#2b2d7e"/><path d="M1000.47,1052v-4.9h6v-1.27h-6v-4.77h6.45v-1.28h-7.8v13.49H1007V1052Z" fill="#2b2d7e"/><path d="M1028.23,1039.8h-1.39l-5.18,13.49h1.43l1.25-3.31h6.39l1.26,3.31h1.42Zm-3.42,8.9,2.73-7.21,2.72,7.21Z" fill="#2b2d7e"/><path d="M1049.78,1052V1039.8h-1.35v13.49h7.51V1052Z" fill="#2b2d7e"/><path d="M1071.07,1039.8v13.49h1.35V1039.8Z" fill="#2b2d7e"/><path d="M1087.53,1039.8v1.28h4.14v12.21H1093v-12.21h4.14v-1.28Z" fill="#2b2d7e"/><path d="M1121.18,1039.8l-4,6.61-4-6.61h-1.52l4.85,7.92v5.57h1.35v-5.53l4.87-8Z" fill="#2b2d7e"/><path d="M91,556.76c12.42,11.23,36.64,30.64,54.6,24.55,13.3-4.51,17.76-21,18.3-35,1.06-27.3-2-70.62-30.14-84.79-12-6-26.78-4.63-38.38,1.55-15.27,8.14-27.06,24.4-28.31,41.31C65.57,525.11,76,543.17,91,556.76Z" fill="#61f7da"/><path d="M506.9,779.76c20-6.66,18.1-41.18,18.1-43.55,0-17.09-13.85-23.06-30.94-23.06-11.87,0-22.18,2.88-27.37,10.37-3,4.31-3.28,8.77-3.58,12.69-1.19,15.44,7.61,26.95,8.59,28.19C478.48,773,493.29,784.29,506.9,779.76Z" fill="#61f7da"/><path d="M1098.51,552.33c9.24,2.82,19.1,2.65,28.77,2.46,7.87-.16,16.42-.55,22.48-5.59,13.39-11.13,6.93-30.14-2.33-41.67-12.33-15.36-32.4-18.39-50-10.31-7,3.2-13.24,8.16-17.17,14.73s-5.31,14.81-2.84,22.06C1080.56,543.16,1089.26,549.52,1098.51,552.33Z" fill="#61f7da"/><path d="M1400,736.06V1100H0V773.42a55.37,55.37,0,0,1,33.27,10.93c17.77,13.36,28,34.14,39.09,53.42,18.16,31.59,42.14,62.53,76.4,74.93s80-1.74,90.5-36.61c8-26.31-5.81-54.54-24-75.11s-41.14-36.88-57.4-59S133.2,688.24,148,665.07c10.83-17,31.87-25.38,52-25.79,42.57-.85,83.13,33.05,89.83,75.1,6.59,41.31-16.14,83.4-8.36,124.51C291,889.29,353,922,400,901.37c22.16-9.72,39.19-28.31,60.18-40.34s51-15.61,66.86,2.64c7.17,8.23,10,19.26,14.4,29.23,15.33,34.55,51.06,56.59,87.91,65s75.23,5.32,112.89,2.15c29-2.43,59-5.2,84.08-19.84s43.65-44.82,35.35-72.66c-4.44-14.88-15.85-27.47-17.55-42.91-2-18.36,12.71-36.93,31-39.16s37.08,12.28,39.52,30.59c2.57,19.29-10.73,37.86-9.08,57.26s18.51,34.87,37.15,40.38,38.67,2.89,57.67-1.23c28.8-6.27,57.56-16.28,80.17-35.19s38.22-48,35.07-77.32c-4.79-44.62-50.31-84.63-34.84-126.76,11.34-30.88,55.11-41.42,82.64-23.43s37,56.44,27,87.78c-5.78,18.13-16.93,34.06-24.06,51.71s-9.66,39.12,1.24,54.71c19.49,27.86,65.18,16.27,88.54-8.44s36.35-58.62,62.91-79.84C1342,737.48,1371.05,732.13,1400,736.06Z" fill="#61f7da"/><path d="M287.06,1019.07a5.91,5.91,0,0,0-4.56-2h-5.2v13.48h5.2a5.94,5.94,0,0,0,4.56-1.95,7.26,7.26,0,0,0,0-9.57Zm-.93,8.67a4.68,4.68,0,0,1-3.63,1.58h-3.85v-10.94h3.85a4.68,4.68,0,0,1,3.63,1.58,6.07,6.07,0,0,1,0,7.78Z" fill="#2b2d7e"/><path d="M311.12,1025a4,4,0,0,0,2.09-1.44,4,4,0,0,0-.37-5.3,3.87,3.87,0,0,0-2.86-1.18h-5.39v13.48h1.35v-5.39h3.79l3.14,5.39h1.54Zm-5.18-1.11v-5.54h4a2.55,2.55,0,0,1,1.91.81,2.69,2.69,0,0,1,.79,2,2.72,2.72,0,0,1-.79,2,2.52,2.52,0,0,1-1.91.81Z" fill="#2b2d7e"/><path d="M335.45,1017.11h-1.38l-5.19,13.48h1.43l1.24-3.31H338l1.26,3.31h1.42ZM332,1026l2.71-7.21,2.72,7.21Z" fill="#2b2d7e"/><path d="M370.51,1017.11l-3.32,11.67-3.51-11.67H362.1l-3.51,11.65-3.33-11.65h-1.42l3.86,13.48h1.66l3.53-11.7,3.52,11.7H368l3.84-13.48Z" fill="#2b2d7e"/><path d="M414,1017.11l-4,6.61-4-6.61h-1.53l4.86,7.92v5.56h1.35v-5.52l4.87-8Z" fill="#2b2d7e"/><path d="M440.78,1018.91a7.05,7.05,0,1,0,2,4.94A6.7,6.7,0,0,0,440.78,1018.91Zm-.95,9a5.71,5.71,0,0,1-8,0,5.79,5.79,0,0,1,0-8,5.69,5.69,0,0,1,8,0,5.76,5.76,0,0,1,0,8Z" fill="#2b2d7e"/><path d="M467,1017.11v8.9a3.43,3.43,0,0,1-1,2.56,4.33,4.33,0,0,1-5.39,0,3.42,3.42,0,0,1-1-2.56v-8.9h-1.35v8.9a4.56,4.56,0,0,0,1.39,3.5,5.64,5.64,0,0,0,7.23,0,4.57,4.57,0,0,0,1.4-3.5v-8.9Z" fill="#2b2d7e"/><path d="M491.27,1025a4,4,0,0,0,2.09-1.44,3.86,3.86,0,0,0,.82-2.44,4,4,0,0,0-1.18-2.86,3.9,3.9,0,0,0-2.86-1.18h-5.39v13.48h1.34v-5.39h3.79l3.15,5.39h1.54Zm-5.18-1.11v-5.54h4.05a2.55,2.55,0,0,1,1.9.81,2.69,2.69,0,0,1,.8,2,2.73,2.73,0,0,1-.8,2,2.51,2.51,0,0,1-1.9.81Z" fill="#2b2d7e"/><path d="M528.27,1017.11v13.48h1.35v-13.48Z" fill="#2b2d7e"/><path d="M556.8,1017.11l-4.51,7.55-4.51-7.55h-1.65v13.48h1.34v-11.44l4.72,7.9h.2l4.71-7.9v11.44h1.35v-13.48Z" fill="#2b2d7e"/><path d="M580,1017.11h-1.39l-5.17,13.48h1.42l1.25-3.31h6.4l1.24,3.31h1.43Zm-3.41,8.9,2.72-7.21,2.72,7.21Z" fill="#2b2d7e"/><path d="M605.87,1024.18v1.27h5.36a4.3,4.3,0,0,1-1.57,2.92,5.76,5.76,0,1,1-.88-9.45,4.9,4.9,0,0,1,1.89,2l1.19-.7a6.45,6.45,0,0,0-2.4-2.41,7,7,0,1,0-3.43,13,6.6,6.6,0,0,0,4.79-1.72,5.62,5.62,0,0,0,1.79-4.23v-.69Z" fill="#2b2d7e"/><path d="M628.3,1017.11v13.48h1.35v-13.48Z" fill="#2b2d7e"/><path d="M654.82,1017.11v10.95l-7.49-10.95h-1.18v13.48h1.36v-11l7.5,11h1.16v-13.48Z" fill="#2b2d7e"/><path d="M677.76,1017.11h-1.38l-5.19,13.48h1.43l1.25-3.31h6.4l1.25,3.31h1.42Zm-3.41,8.9,2.72-7.21,2.71,7.21Z" fill="#2b2d7e"/><path d="M695.28,1017.11v1.27h4.14v12.21h1.35v-12.21h4.14v-1.27Z" fill="#2b2d7e"/><path d="M720,1017.11v13.48h1.35v-13.48Z" fill="#2b2d7e"/><path d="M749,1018.91a7.05,7.05,0,1,0,2,4.94A6.68,6.68,0,0,0,749,1018.91Zm-.94,9a5.71,5.71,0,0,1-8,0,5.79,5.79,0,0,1,0-8,5.69,5.69,0,0,1,8,0,5.79,5.79,0,0,1,0,8Z" fill="#2b2d7e"/><path d="M775.43,1017.11v10.95l-7.49-10.95h-1.17v13.48h1.34v-11l7.52,11h1.15v-13.48Z" fill="#2b2d7e"/><path d="M810.49,1017.11v1.27h4.14v12.21H816v-12.21h4.14v-1.27Z" fill="#2b2d7e"/><path d="M845.64,1018.91a7.05,7.05,0,0,0-9.9,0,7,7,0,0,0,5,11.91,6.93,6.93,0,0,0,7-7A6.75,6.75,0,0,0,845.64,1018.91Zm-.94,9a5.71,5.71,0,0,1-8,0,5.79,5.79,0,0,1,0-8,5.69,5.69,0,0,1,8,0,5.79,5.79,0,0,1,0,8Z" fill="#2b2d7e"/><path d="M880.6,1017.11v1.27h4.14v12.21h1.35v-12.21h4.14v-1.27Z" fill="#2b2d7e"/><path d="M914,1017.11V1023h-7.31v-5.91h-1.35v13.48h1.35v-6.29H914v6.29h1.35v-13.48Z" fill="#2b2d7e"/><path d="M933.23,1029.32v-4.89h6v-1.28h-6v-4.77h6.45v-1.27h-7.8v13.48h7.89v-1.27Z" fill="#2b2d7e"/><path d="M980.4,1025a4.05,4.05,0,0,0,2.09-1.44,4,4,0,0,0-3.23-6.48h-5.4v13.48h1.35v-5.39H979l3.15,5.39h1.54Zm-5.19-1.11v-5.54h4a2.55,2.55,0,0,1,1.9.81,2.69,2.69,0,0,1,.79,2,2.72,2.72,0,0,1-.79,2,2.51,2.51,0,0,1-1.9.81Z" fill="#2b2d7e"/><path d="M1000.47,1029.32v-4.89h6v-1.28h-6v-4.77h6.45v-1.27h-7.8v13.48H1007v-1.27Z" fill="#2b2d7e"/><path d="M1028.23,1017.11h-1.39l-5.18,13.48h1.43l1.25-3.31h6.39l1.26,3.31h1.42Zm-3.42,8.9,2.73-7.21,2.72,7.21Z" fill="#2b2d7e"/><path d="M1049.78,1029.32v-12.21h-1.35v13.48h7.51v-1.27Z" fill="#2b2d7e"/><path d="M1071.07,1017.11v13.48h1.35v-13.48Z" fill="#2b2d7e"/><path d="M1087.53,1017.11v1.27h4.14v12.21H1093v-12.21h4.14v-1.27Z" fill="#2b2d7e"/><path d="M1121.18,1017.11l-4,6.61-4-6.61h-1.52l4.85,7.92v5.56h1.35v-5.52l4.87-8Z" fill="#2b2d7e"/><path d="M1400,0V99.33c-31.92,35-73.27,61.72-119.58,70.32-54.28,10.07-115-8-148.55-51.88-15.91-20.8-25.6-46.53-45-64.08-28.78-26-72.15-27.86-110.27-20.74s-75,21.73-113.71,23.73C811.52,59.33,760.2,37.08,724.86,0Z" fill="#61f7da"/><path d="M216.76,43.12c-21.62-5.58-42.2-15.5-64.37-18.08s-47.76,4.53-58,24.38C85,67.71,91.62,90,100.21,108.65s19.35,37.78,17.85,58.28c-1.8,24.49-23.64,45.9-48.16,47.19S21.4,196.43,17,172.26c-3.36-18.61,3.68-38.47-2.4-56.38-5.83-17.17-22.25-28.32-32-43.62C-38.19,39.46-23.57-5.83,3.42-33.82c35.47-36.79,88.3-52.73,139.4-53.8S244.26-76.46,293.91-64.31L345-51.8c11.56,2.82,39.15,4.36,47.53,12.74C408.67-22.93,372.14,4,359.39,13.45,319,43.4,265.78,55.38,216.76,43.12Z" fill="none"/></svg>