<svg id="Layer_1" data-name="Layer 1" xmlns="http://www.w3.org/2000/svg" viewBox="0 0 633.15 647.84"><path d="M991.3,719.66c-6.55-10.87-11.79-23.38-12.36-37.31-.7-41.12,37.66-49.66,28.77-99.27-3.46-21.9-13-42.18-21.44-63C958.5,555.93,903.35,567,855.85,556.55v0c-60.27,13.9-123,17.58-184.39,9.3-38.55-4.65-81.48-16.11-107.22-45.39a175.49,175.49,0,0,1-7.79,17.6c-9.62,19.79-19.82,40.12-12.06,61.75,3.36,10.22,9.11,20.36,13.6,31.85a85.81,85.81,0,0,1,5.82,37.17c-1,25.55-15.9,47.56-32.93,65-14.85,16-31.5,32.93-33.93,54.81-2.82,17.7,14.84,40.71,33.41,31.38,8.57-4.65,13.95-14.05,16.44-23.73,2.11-7.76,4-16,6.49-24,0,0,0,0,0-.06.94-3.19,2-6.38,3.21-9.49a131.39,131.39,0,0,1,8.52-18.38c.89-1.62,1.84-3.19,2.81-4.76q2.4-3.93,5.11-7.7a131.9,131.9,0,0,1,25-26.58,157.28,157.28,0,0,0-19.25,28.85c-.63,1.19-1.22,2.4-1.82,3.62,22.63,30.88,64,54.42,116.26,65.73,91.92,19.84,195.36-1.28,269.47-53.89,0,0,0-.08-.06-.11l.73-.37c.95-.68,1.89-1.36,2.84-2.06a131,131,0,0,0-15.06-27.55,90.9,90.9,0,0,1,21.2,23c.35.48.65,1,.94,1.45A95.57,95.57,0,0,1,979,754.43c1.22,2.49,2.3,5,3.27,7.62,0,0,0,0,0,.06a102.88,102.88,0,0,1,5.41,19.9c1.94,11.24,1.73,23.14,6,33.14,5.9,14.68,23.06,13.63,33.18,3.82,11.11-10.82,9.54-27.58,4-41.67C1022.14,755.86,1003.6,740.16,991.3,719.66Z" transform="translate(-483.43 -276.08)" fill="#ffb53e"/><path d="M534.08,801.58c.25,0,.41,1.17-.34,3a11.83,11.83,0,0,1-5.91,5.86,13.79,13.79,0,0,1-5.78,1.4,14.76,14.76,0,0,1-6.73-1.52,19.8,19.8,0,0,1-9.86-11.57,28.29,28.29,0,0,1-.48-14.85,34.43,34.43,0,0,1,4.43-11.06,19.71,19.71,0,0,1,5.53-5.86c1.6-1,2.65-1.3,2.8-1.06.38.56-3,2.88-5.61,8.45a38.79,38.79,0,0,0-3.16,10.3,26.66,26.66,0,0,0,.68,12.68,16.68,16.68,0,0,0,7.51,9.35,11.5,11.5,0,0,0,9.48.86,12.25,12.25,0,0,0,5.62-3.85C533.31,802.43,533.75,801.5,534.08,801.58Z" transform="translate(-483.43 -276.08)" fill="#ffd8a4"/><path d="M1005,814.5c.06-.66,3.6-.25,7.55-3.28a15.93,15.93,0,0,0,5-6.84,31.52,31.52,0,0,0,2-10.67,41.91,41.91,0,0,0-4.48-19.5c-2.36-4.69-4.51-7.31-4-7.78s3.41,1.5,6.71,6.19a36.24,36.24,0,0,1,6.21,21.21,30.67,30.67,0,0,1-2.68,12.19,17.28,17.28,0,0,1-7,7.81,12.14,12.14,0,0,1-6.84,1.64C1005.78,815.28,1005,814.77,1005,814.5Z" transform="translate(-483.43 -276.08)" fill="#ffd8a4"/><path d="M843,781.71c.17.52-7,3.44-19,6.74A231.49,231.49,0,0,1,776,796.2a205.25,205.25,0,0,1-26.9-.53c-4.12-.47-8-.84-11.66-1.52s-7-1.27-10-2c-12.19-2.92-19.25-6.17-19.08-6.64.23-.68,7.59,1.5,19.69,3.58,3,.51,6.35,1,9.94,1.43s7.42.74,11.46,1.09a252.14,252.14,0,0,0,26.36.17,320.14,320.14,0,0,0,47.58-6.38C835.39,782.92,842.84,781.07,843,781.71Z" transform="translate(-483.43 -276.08)" fill="#ffd8a4"/><path d="M680.52,671.56c.05,1.21-10.09,2.63-22.65,3.17l-3,.11-1.46,0c-.63,0-.32,0-.43,0a23.76,23.76,0,0,0-1.42,2c-.68,1-1.36,1.82-2,2.63a35.72,35.72,0,0,1-3.84,4c-2.35,2-4,2.87-4.36,2.51s.66-1.9,2.35-4.32c.83-1.22,1.84-2.66,2.9-4.32.51-.84,1.06-1.72,1.63-2.65l.82-1.44c.16-.26.23-.44.58-1a4,4,0,0,1,1.28-1.19,5.19,5.19,0,0,1,2.34-.56l1.46-.09,3-.15C670.24,669.79,680.46,670.34,680.52,671.56Z" transform="translate(-483.43 -276.08)" fill="#ffd8a4"/><path d="M603.38,748c-.35.48-2.6-.44-5.81-2.6a55.76,55.76,0,0,1-5.36-4.14c-1-.84-2-1.74-3-2.71l-1.49-1.51-1.19-1.28-.73-.78-.37-.4a1.4,1.4,0,0,1-.16-.2l.13-.24c1.69-3,2.1-3.69,2.92-5s1.54-2.27,2.31-3.3a48.69,48.69,0,0,1,4.46-5.15c2.76-2.73,4.84-4,5.27-3.6s-.81,2.46-2.85,5.58c-1,1.57-2.21,3.42-3.53,5.48l-2,3.27c-.62,1-1.62,2.83-1.32,2.3h0l.25.27c.46.51.93,1,1.38,1.49l2.65,2.79,4.57,4.7C602.18,745.73,603.75,747.52,603.38,748Z" transform="translate(-483.43 -276.08)" fill="#ffd8a4"/><path d="M930,755.64c-.41-1.19,9.22-5.46,20.44-11.77l1.89-1.07a0,0,0,0,0,0,0,30.45,30.45,0,0,0-.83-3.89,33.39,33.39,0,0,0-2.67-6.51c-1.95-3.57-3.69-5.6-3.25-6.09s2.93.82,5.84,4.35a26.15,26.15,0,0,1,5.22,11.71,4,4,0,0,1-1.77,4c-.6.41-.85.52-1.23.75l-1.07.61C941,754.25,930.39,756.77,930,755.64Z" transform="translate(-483.43 -276.08)" fill="#ffd8a4"/><path d="M855.67,707.17" transform="translate(-483.43 -276.08)" fill="#ffd8a4"/><path d="M843.09,764.35c-.19-.53,3.51-2.54,10-4.35,1.63-.45,3.44-.87,5.4-1.25.19,0,.62-.1.61-.11l.11,0c.06,0,.13,0,.09-.14l0-.1a1.41,1.41,0,0,1,0-.31c0-.53,0-1.07,0-1.62,0-4.39,0-9.21,0-14.27,0-20.23.37-36.66,1.6-36.71s2.86,16.38,2.81,36.72c0,5.08-.12,9.92-.31,14.32-.06,1.5-.11,3-.17,4.39l0,.72c0,.11,0,.27,0,.33l-.37,0-1.42.16-2.24.24c-1.91.21-3.68.44-5.3.68C847.31,764,843.3,765,843.09,764.35Z" transform="translate(-483.43 -276.08)" fill="#ffd8a4"/><path d="M744,683.74c.6-.08,1.41,1.69,2.22,4.61.41,1.47.82,3.22,1.21,5.18.18,1,.36,2,.56,3.07.09.57.18,1.15.28,1.74.15,1.1.31,2.22.47,3.36l.11.84c.09.2-.13.15-.26.18l-.42,0-1.68.16c-1,.1-2.46.22-2.78.22-1.1.06-2.17.08-3.19.07a45.18,45.18,0,0,1-5.4-.38c-3.06-.44-4.89-1.14-4.85-1.74s1.92-1,4.88-1.38l5.19-.56,3-.32c.77-.07.43-.06.51-.07h0c-.06-.53-.12-1-.18-1.54-.11-1.08-.21-2.12-.31-3.12-.17-2-.26-3.78-.27-5.3C743.15,685.75,743.43,683.83,744,683.74Z" transform="translate(-483.43 -276.08)" fill="#ffd8a4"/><path d="M679,763.22c.18,1.2-10.82,3.65-24.55,5.48a9.12,9.12,0,0,1-2.11.11,3.53,3.53,0,0,1-2.1-1,4.06,4.06,0,0,1-1-2.13l-.23-1.51c-.23-1.66-.39-3.27-.49-4.8a55.65,55.65,0,0,1,.07-8.15c.41-4.62,1.3-7.38,1.88-7.32s.85,2.88,1.24,7.32c.2,2.22.46,4.85.86,7.75.2,1.45.43,3,.71,4.52l.1.59.06.3s0,0,0,0h0l.44-.06C667.62,762.5,678.85,762,679,763.22Z" transform="translate(-483.43 -276.08)" fill="#ffd8a4"/><path d="M791.53,760.71c.09,1.22-11,2.91-24.87,3.79a9,9,0,0,1-2.11,0,3.41,3.41,0,0,1-2-1.17,3.92,3.92,0,0,1-.85-2.19l-.13-1.53c-.12-1.67-.17-3.28-.16-4.82a55.18,55.18,0,0,1,.63-8.12c.72-4.59,1.8-7.28,2.38-7.18s.64,2.93.73,7.39c0,2.23.13,4.87.33,7.79.1,1.46.22,3,.39,4.56l.07.6,0,.3s0,0,0,0h0l.44,0C780.2,759.22,791.44,759.5,791.53,760.71Z" transform="translate(-483.43 -276.08)" fill="#ffd8a4"/><path d="M925.33,617.81c-1.24-.07-1.45-14.5-2.08-32.23-.08-2.21-.16-4.38-.23-6.47l0-.78c0-.1,0,0,0-.07s0-.06,0-.06a.09.09,0,0,0-.06,0l-1.43-.18-10.13-1.16c-5.78-.65-9.39-1.15-9.39-1.77s3.63-1.21,9.53-1.35c3-.07,6.47,0,10.36.23l1.5.11,2.92.26.74.08.05.74.09,1.5.15,2.27c.13,2.11.24,4.3.32,6.54C928.29,603.38,926.52,617.88,925.33,617.81Z" transform="translate(-483.43 -276.08)" fill="#ffd8a4"/><path d="M874.2,586.84c.3.12.33.72.52,1.66s.6,2.26,1,4.21a37.69,37.69,0,0,1,.77,6.81c0,1.29,0,2.65-.1,4.06-.09,1.08-.26,2.64-.44,3.94l-3.9.2c-11.59.5-21-.08-21-1.3s9.24-2.61,20.62-3.1h.31s0,0,0,0,0,.12,0-.14c.15-1.29.26-2.54.34-3.74.15-2.39.18-4.56.19-6.4a16.29,16.29,0,0,1,.36-4.67C873.37,587.2,873.94,586.73,874.2,586.84Z" transform="translate(-483.43 -276.08)" fill="#ffd8a4"/><path d="M987.47,618.51c-.6-.18,0-3.7,1.12-9.22s2.73-13.11,2.21-21.32-3.92-15-6.58-19.93-4.45-8-3.93-8.38,3.07,2.07,6.56,6.7a48.3,48.3,0,0,1,5.24,8.85,36.45,36.45,0,0,1,3.11,12.46c.56,9.17-1.76,17.05-3.6,22.45S988,618.68,987.47,618.51Z" transform="translate(-483.43 -276.08)" fill="#ffd8a4"/><path d="M562.22,600.39c-.5.29-2.66-2-5.23-6.45a37.66,37.66,0,0,1-3.55-8.4,29.1,29.1,0,0,1-.9-11.41,29.6,29.6,0,0,1,9.34-18.1c4-3.52,7.23-4.36,7.46-3.89s-2.21,2.37-5.21,6.06a32.89,32.89,0,0,0-7.21,16.48c-.91,7,1.19,13.39,2.89,17.93S562.77,600.07,562.22,600.39Z" transform="translate(-483.43 -276.08)" fill="#ffd8a4"/><path d="M658.48,587.5c-.66.09-1.3-1.93-3.43-4.2a27.25,27.25,0,0,0-10.37-6.55c-9.25-3.61-17.7-1.94-18-3.15-.16-.55,1.79-1.79,5.41-2.44a27,27,0,0,1,14.14,1.47c5.28,2,9.48,5.46,11.34,8.86S659,587.5,658.48,587.5Z" transform="translate(-483.43 -276.08)" fill="#ffd8a4"/><path d="M673.69,627.66c-1.18-.34,2.69-17.56,8.63-38.47l2.16-7.46c.87-2.92,1.72-5.75,2.52-8.44l4.2.14,2.52.13,4.68.27c3,.19,5.55.39,7.7.61,4.29.43,6.8.91,6.79,1.37s-2.53.84-6.84,1.11c-2.15.14-4.75.25-7.71.33l-4.69.09-2.52,0h-1l-.09,0a1.67,1.67,0,0,1,0,.19c-.16.57-.31,1.15-.46,1.73q-.48,1.75-1,3.57c-.67,2.42-1.37,4.92-2.08,7.48C680.62,611.31,674.86,628,673.69,627.66Z" transform="translate(-483.43 -276.08)" fill="#ffd8a4"/><path d="M729,662.44c0,.63-2.28,1.11-5.85,1.81-1.79.35-3.9.76-6.22,1.28l-3.62.87-.95.25a9.57,9.57,0,0,1-1.83.37,6.18,6.18,0,0,1-1.75.06,2.64,2.64,0,0,1-1.25-1,3.73,3.73,0,0,1-.52-1.82l-.2-1.69c-.06-.68-.13-1.36-.2-2-.11-1.33-.22-2.6-.32-3.82-.17-2.45-.27-4.65-.29-6.51,0-3.72.25-6.06.86-6.13s1.41,2.14,2.24,5.77c.42,1.81.83,4,1.23,6.39.18,1.21.37,2.48.57,3.8l.27,2c.06.48.06.37.06.37h0s-.09,0,.09,0l1-.22c1.34-.28,2.65-.5,3.9-.66a44.16,44.16,0,0,1,6.66-.39C726.67,661.23,729,661.85,729,662.44Z" transform="translate(-483.43 -276.08)" fill="#ffd8a4"/><path d="M750.08,634.2c-.54.12-2.33-4.35-3.63-12a64.2,64.2,0,0,1-.75-13.76,49.23,49.23,0,0,1,3.86-16.65,37.52,37.52,0,0,1,10.22-13.92,31.38,31.38,0,0,1,12.61-6.35,23.82,23.82,0,0,1,9.45-.38c2.19.41,3.3,1,3.24,1.27-.1.73-4.9-.26-11.83,2.11a31.8,31.8,0,0,0-10.81,6.43,36.68,36.68,0,0,0-8.83,12.61c-4.47,10.26-4.46,20.84-4.06,28.3S750.72,634.06,750.08,634.2Z" transform="translate(-483.43 -276.08)" fill="#ffd8a4"/><path d="M628.82,663.23c.2.5-3.91,2.79-11.33,4.08a51,51,0,0,1-6.12.64c-1.11.06-2.25.06-3.44,0l-1.93-.08a3.88,3.88,0,0,1-2.89-1.39,3.76,3.76,0,0,1-.66-1.53,9.65,9.65,0,0,1-.1-1.52c0-.61,0-1.24,0-1.87,0-1.26,0-2.55,0-3.87,0-2.62,0-5.34,0-8.12.08-22.27,1.14-40.32,2.36-40.32s2.13,18.07,2,40.33c0,2.79,0,5.51-.08,8.13,0,2.12-.08,4.17-.13,6.12a.2.2,0,0,0,.12.1l1.54.15c1.1.08,2.17.15,3.21.17,2.08.06,4,0,5.79-.08C624.24,663.78,628.62,662.58,628.82,663.23Z" transform="translate(-483.43 -276.08)" fill="#ffd8a4"/><path d="M841.84,664c0,.61-4.08,1.22-10.71,1.72l-5.42.35-1.51.07a4.61,4.61,0,0,1-2.67-.43,3,3,0,0,1-1.47-2.22A12.79,12.79,0,0,1,820,662l0-.81c-.19-4.39-.33-9.21-.41-14.27-.34-20.24.38-36.66,1.6-36.68s2.47,16.37,2.81,36.61c.08,5.06.1,9.88.06,14.27V662c0,.17,0,.09,0,.15a.15.15,0,0,0,0,.17.54.54,0,0,0,.19.07l1.47,0,5.42.19C837.72,662.9,841.83,663.39,841.84,664Z" transform="translate(-483.43 -276.08)" fill="#ffd8a4"/><path d="M923.21,664.22c.11,1.22-14.58,3.47-32.8,5-.26,0-1.06.11-1.54.1a3.52,3.52,0,0,1-1.5-.35,3.42,3.42,0,0,1-1.79-2.36,6.15,6.15,0,0,1-.11-1.61l.06-1c0-.54.07-1.08.1-1.61.12-2.13.23-4.19.34-6.15.16-3.92.3-7.46.43-10.44.23-6,.45-9.68,1.07-9.73s1.47,3.62,2,9.64c.29,3,.49,6.61.52,10.61,0,2,0,4.1-.08,6.28,0,.54,0,1.09-.07,1.64v.63h0l.17,0C908.25,663.3,923.11,663,923.21,664.22Z" transform="translate(-483.43 -276.08)" fill="#ffd8a4"/><path d="M775.78,663.56c.31-.56,2.12,0,4.9.27a21.48,21.48,0,0,0,19.08-7c1.92-2,3-3.61,3.56-3.38s.53,2.27-1,5.18a18.37,18.37,0,0,1-22.39,8.26C776.85,665.64,775.48,664,775.78,663.56Z" transform="translate(-483.43 -276.08)" fill="#ffd8a4"/><path d="M732.47,762c0,.63-4.53.89-11.73,1.26-3.6.19-7.88.42-12.62.76l-7.43.6-3.43.31-2,.17c-.24.09-.21-.09-.18-.26l0-.48.08-1q.21-2.86.44-5.8c1.48-21.84-.49-39.63.79-39.81,1.12-.24,5.12,17.68,3.61,40.09L699.9,760l0,.28v.09h0l.48,0c2.62-.17,5.15-.29,7.57-.35,4.83-.12,9.18,0,12.82.18C728,760.58,732.5,761.43,732.47,762Z" transform="translate(-483.43 -276.08)" fill="#ffd8a4"/><path d="M807.27,731.25c0,.61-3.17,1.12-8.53,1.44-1,0-2.31.12-3.11-.72a2.66,2.66,0,0,1-.71-1.54,17.05,17.05,0,0,1,0-1.86c0-1.54,0-3.17,0-4.89,0-3.44.15-7.23.33-11.19.7-15.87,2.26-28.69,3.48-28.63s1.63,13,.92,28.82c-.17,4-.4,7.75-.67,11.18-.14,1.71-.28,3.34-.42,4.87a1.24,1.24,0,0,1-.07.37.34.34,0,0,0,0,.26c.1.15.22.15.5.22C804,730,807.25,730.64,807.27,731.25Z" transform="translate(-483.43 -276.08)" fill="#ffd8a4"/><path d="M1005.17,711.39C993,691,991.11,672.7,1004.84,653c6.46-10.16,14.25-21.46,17.22-33.68,10.14-37-9.54-75.49-23.41-107.39-1-2.46-2-4.92-3-7.41,15.19-34.9.84-76.7-24.63-103.11-62.21-62.46-157.92-86.47-243.76-73.08-59,9.95-127.25,35.82-164.32,85-16.49,21.76-25.6,48.93-16.57,75.78a88.69,88.69,0,0,0,8.13,17.95,102.38,102.38,0,0,1-3.29,9.71c-8.71,21.87-23.55,43.09-23.09,68.16.13,18.54,11.16,36,17.3,51.63a72,72,0,0,1,5,31.42c-1.43,36.8-33,56.21-52.64,84.16-15.44,21.31-22,51.8-1,72.54,21.25,20.14,44.5,10.38,56.83-9.54.6,3,1.3,5.94,2.14,8.86,24.11,84,130.5,99.93,207.61,99.93a589.15,589.15,0,0,0,80.83-5.57c78.9-11.6,124.29-41.77,138.81-92.3.1-.35.21-.73.29-1.08a30.22,30.22,0,0,0,12.44,12.22c13.49,7.11,30.42,2.43,41.12-7.44,16.22-14.49,16.12-39.5,8.46-58.15C1036.66,748.92,1017.12,731.32,1005.17,711.39ZM560.83,452.57c16.6-54.72,82.76-86.35,134.1-100.65,74.19-21,157.1-12.33,223.51,27.55,26.41,15.3,52.66,37.61,63.66,66.35a78.61,78.61,0,0,1,3.06,9.7,77.08,77.08,0,0,1,2.32,16.57,60.61,60.61,0,0,1,0,6.74v.05a58,58,0,0,1-7.27,25.23c-10.54,19.11-31.17,32.22-53.29,38.14-46.71,12.9-94-.62-136.77-22.09,10.08,11.79,23.58,21.12,38.9,27.77-3.89.68-7.81,1.3-11.7,1.89-47.59,6.82-96.14,7.65-143.75.81-23.28-3.4-46.91-8-67.81-18.57-14.22-6.89-27.39-18-36.09-31.42-6.38-9.78-10.38-20.81-10.71-32.38A53.59,53.59,0,0,1,560.83,452.57ZM970,822.32c-12.9,44.88-54.69,71.91-127.8,82.65C753.44,918,595.9,914.86,568.75,820.26a100.29,100.29,0,0,1,4-66.13c25.46,29.42,66.8,51.64,117.63,62.62a354.13,354.13,0,0,0,74.81,7.92c72.86,0,145.29-21.87,203-62.29A99.25,99.25,0,0,1,970,822.32Zm56.86-3.35c-10.12,9.81-27.28,10.86-33.18-3.82-4.24-10-4-21.9-6-33.14a102.88,102.88,0,0,0-5.41-19.9s0,0,0-.06c-1-2.59-2-5.13-3.27-7.62A95.57,95.57,0,0,0,973.26,744c-.29-.48-.59-1-.94-1.45a90.9,90.9,0,0,0-21.2-23,131,131,0,0,1,15.06,27.55c-.95.7-1.89,1.38-2.84,2.06l-.73.37s0,.09.06.11c-74.11,52.61-177.55,73.73-269.47,53.89-52.29-11.31-93.63-34.85-116.26-65.73.6-1.22,1.19-2.43,1.82-3.62A157.28,157.28,0,0,1,598,705.36a131.9,131.9,0,0,0-25,26.58q-2.72,3.76-5.11,7.7c-1,1.57-1.92,3.14-2.81,4.76a131.39,131.39,0,0,0-8.52,18.38c-1.19,3.11-2.27,6.3-3.21,9.49,0,0,0,0,0,.06-2.46,8-4.38,16.25-6.49,24-2.49,9.68-7.87,19.08-16.44,23.73-18.57,9.33-36.23-13.68-33.41-31.38,2.43-21.88,19.08-38.8,33.93-54.81,17-17.46,31.92-39.47,32.93-65A85.81,85.81,0,0,0,558,631.69c-4.49-11.49-10.24-21.63-13.6-31.85-7.76-21.63,2.44-42,12.06-61.75a175.49,175.49,0,0,0,7.79-17.6c25.74,29.28,68.67,40.74,107.22,45.39,61.37,8.28,124.12,4.6,184.39-9.3v0c47.5,10.49,102.65-.62,130.42-36.44,8.46,20.79,18,41.07,21.44,63,8.89,49.61-29.47,58.15-28.77,99.27.57,13.93,5.81,26.44,12.36,37.31,12.3,20.5,30.84,36.2,39.58,57.64C1036.42,791.39,1038,808.15,1026.88,819Z" transform="translate(-483.43 -276.08)" fill="#110905"/><path d="M760,410.62c20.44-1.36,39.23-12.6,48.2-28.2a230.56,230.56,0,0,0,36.77-13c-28.63,4.24-56.8,8.19-85.54,9.71-28.77,1.75-57.18,1.08-86.14.27A222.5,222.5,0,0,0,704.36,387C716.42,402.48,738.51,412.05,760,410.62Z" transform="translate(-483.43 -276.08)" fill="#110905"/><path d="M615.05,643v-.52q0-21,1.47-58.85h18.29a14.59,14.59,0,0,1,12.17,5.7,20.92,20.92,0,0,1,4.45,13.22,18.72,18.72,0,0,1-2.72,10,11.92,11.92,0,0,1-7.84,5.53,24,24,0,0,1,7.37,2.2,8.81,8.81,0,0,1,4,4,15.07,15.07,0,0,1,1.46,4.55,47.56,47.56,0,0,1,.26,5.8,20.7,20.7,0,0,1-2.09,9.61,16.72,16.72,0,0,1-5.22,6.27,25.41,25.41,0,0,1-7.74,3.51,48.25,48.25,0,0,1-8.46,1.67q-3.87.36-8.68.36c-3,0-4.81-.33-5.43-1s-.94-2.1-.94-4.34Q615.37,648.29,615.05,643ZM629,644.74a4,4,0,0,0,1.35.1,7.62,7.62,0,0,0,5.7-2.19,9.63,9.63,0,0,0,2.66-4.45,20.27,20.27,0,0,0,.53-4.65q0-5.53-8-5.54c-.14,0-.42,0-.83.06s-.77,0-1,0Q629,632.61,629,644.74Zm.73-48c-.08-.07-.14.41-.21,1.41s-.12,2.32-.16,3.92-.05,3.21-.05,4.81q0,4.29.15,5.49c.11.8.37,1.2.79,1.2q5.85,0,5.85-11c0-2.3-.36-3.87-1.1-4.71a4.74,4.74,0,0,0-3.71-1.25l-.73.05A7.32,7.32,0,0,1,629.69,596.76Z" transform="translate(-483.43 -276.08)" fill="#110905"/><path d="M680.9,655l.21-1.67,16.09-68.25.63-1.26.1-.21a8.91,8.91,0,0,1,3.56-.83h.73c.14,0,1.91.08,5.33.26s5.4.3,6,.36,1.08.81,1.36,2l.2.63a.42.42,0,0,0,.06.21.54.54,0,0,1,0,.21l18,66.78a1.5,1.5,0,0,1-.62,1.36c-1.32,0-3.94.18-7.84.52s-6.55.53-7.94.53c-.21,0-.39-.21-.53-.63l-4.49-19.54a1.24,1.24,0,0,0-.84-.74,2.39,2.39,0,0,0-1.09,0,4.46,4.46,0,0,1-.68.16l-9.1.21-2.5,19c0,.35-.25.53-.74.53l-5.43.94h-9.09a1.86,1.86,0,0,1-1.36-.42Zm24.77-49.12-3.35,18.08c0,.35.11.52.32.52H703q6.69,0,6.69-.63v-.31l-3.66-18h-.1Z" transform="translate(-483.43 -276.08)" fill="#110905"/><path d="M767.12,651.43a8,8,0,0,1-1.46-1.42,17,17,0,0,1-1.2-1.61,18.9,18.9,0,0,1-1.1-2.1c-.41-.9-.69-1.53-.83-1.88l-.84-2.09c-.42-1-.66-1.63-.73-1.78a8.53,8.53,0,0,1-.42-1.46l-1.88-10.87V626l.1-2.82q.42-16,2.51-23.31,5.33-18.07,24.35-17.46c5.23.15,9,1.41,11.19,3.82s3.34,5.9,3.34,10.5v.74q0,2.82-.42,7.83a1.74,1.74,0,0,1-.26,1,1.46,1.46,0,0,1-.73.52c-.31.1-.61.19-.89.26a7.36,7.36,0,0,1-1.09.16c-.46,0-.79.05-1,.05a35.21,35.21,0,0,1-4.91,1h-3.66c-.42-.13-.63-.55-.63-1.25,0-.49,0-1.25.11-2.3s.1-1.81.1-2.3a12.27,12.27,0,0,0-1-4.91,3.45,3.45,0,0,0-3.39-2.3q-2,0-4.5,2.93l-.21.2a.61.61,0,0,1-.42.42Q775.6,600.74,774,607l-.21.73q-.84,2.93-.83,13.48v1.88q.21,1,.57,3.66t.63,4.23a27,27,0,0,0,1,3.92,15.46,15.46,0,0,0,1.57,3.61,7.62,7.62,0,0,0,2.41,2.3,6.48,6.48,0,0,0,3.55,1c2.44,0,3.72-2.09,3.86-6.27l.11-6.27h-2a17.28,17.28,0,0,1-2.71,0c-1.12-.07-1.89-.11-2.3-.11-.63,0-.94-.52-.94-1.57V627q0-.74.15-3.45c.11-1.81.19-3.41.27-4.81l.1-2.09.31-.52c1.4-.21,2.44-.35,3.14-.42q2.5-.21,5.85-.21c1,0,2.65,0,5,.16s4.21.12,5.54,0l.62.73c.28.14.49.73.63,1.78v1.88q.1,5.23-.21,9.67a68.54,68.54,0,0,1-1.46,9.67,31.25,31.25,0,0,1-3.14,8.72,16.11,16.11,0,0,1-5.69,5.8,14.42,14.42,0,0,1-8.73,2A23.52,23.52,0,0,1,767.12,651.43Z" transform="translate(-483.43 -276.08)" fill="#110905"/><path d="M832.86,653.93V585.47q0-1.14,6.8-1.77t13.06-.63H853q11-.63,11.18,3l.42,10.24v.74l-.21.21c-1.67.21-2.72.34-3.14.41H854.6c-.41,0-1.34,0-2.77.11s-2.42.1-3,.1a3.52,3.52,0,0,1-1.14-.1h-.84V602q0,10.66.94,10.66h2.82c.63,0,1.55,0,2.77-.16s2.07-.15,2.56-.15c1,0,1.9,0,2.56,0l1.78.1a3,3,0,0,1,1.25.32l.74.41a1.07,1.07,0,0,1,.36.74c.07.38.12.66.16.83a7.41,7.41,0,0,1,0,1.2c0,.63,0,1.12,0,1.47q0,6.59-.53,6.58,0,.94-14.94.94c.14,1.67.19,3.7.15,6.06s-.05,4.67-.05,6.9.11,3.38.32,3.45h7.1c.7,0,1.76,0,3.19-.1s2.47-.11,3.14-.11a7.72,7.72,0,0,1,2.19.37,3.44,3.44,0,0,1,1.83,1.2,14.35,14.35,0,0,1-.21,2.72l-.42,8.78c-.28.62-.49.94-.62.94l-13.28.21c-.49,0-1.88,0-4.18.05l-4.49,0Q833.38,655.5,832.86,653.93Z" transform="translate(-483.43 -276.08)" fill="#110905"/><path d="M897.66,655.29V648.4q0-4.5.06-10.77t0-7q0-5.64.47-18t.47-18.19c0-4.87,0-8.53-.1-11l.62-.63c.77.07,1.85.11,3.24.11,1,0,2.65,0,5-.11s4-.1,5-.1a12.15,12.15,0,0,1,1.31,0,.9.9,0,0,1,.58.31,1.53,1.53,0,0,1,.21.89,37.11,37.11,0,0,1-.63,7.42L912.5,621v.21a4.11,4.11,0,0,1,0,.68,5.59,5.59,0,0,0-.05.68l.1.83q0,13,.42,16.94l.21.2c.56,0,2.25-.1,5.07-.31s4.55-.31,5.17-.31c1.89,0,2.83.38,2.83,1.15l-.11,3.66v.42l-.1,1.46.1,8.25c0,.49-.35.74-1,.74a4.77,4.77,0,0,1-.94-.11l-.53-.1-6.42.1c-4,.07-6.16.14-6.43.21h-5.44a58.24,58.24,0,0,1-6.37.21Q897.77,655.92,897.66,655.29Z" transform="translate(-483.43 -276.08)" fill="#110905"/><path d="M615.26,753.72a9.3,9.3,0,0,1-.21-1.78l.11-3.87q0-23.82,2.4-56.54,0-6.48,1.2-8c.8-1,2.6-1.57,5.39-1.57a61.71,61.71,0,0,1,6.37.32q2.09,1.47,4.08,5.64l.21.42q4.38,9.51,7.52,13.48l9.1-14.73c.27-.56,1.32-2.2,3.13-4.92.14-.27.54-.48,1.2-.62a12.11,12.11,0,0,1,2.46-.21H661c.87,0,1.81,0,2.82.05s1.69,0,2,0a31.25,31.25,0,0,0,3.24.11l2.61.73.1.21a12.65,12.65,0,0,1,.27,2c.1,1.12.21,2.51.31,4.18s.19,2.93.26,3.76l-.21,8.16c0,.14.07,1.39.21,3.76s.21,3.87.21,4.49v.53l.94,7.52q-.42.63.16,9.77t1.3,18.24c.49,6.07.74,8.92.74,8.57,0,.56-.11.84-.32.84q-10.24.21-15.47.21c-.62,0-.94-.35-.94-1.05q-.51-24.87-1.35-45.36a1.26,1.26,0,0,0-.21-.83l-.42.52-6.8,13L649,724.14l-9.61-.21a1.19,1.19,0,0,1-.89-.37,1,1,0,0,0-.68-.36,1.3,1.3,0,0,1-1.05-.37,3.57,3.57,0,0,1-.57-1.41,14.78,14.78,0,0,0-.47-1.57c-.42-.83-1.2-2.28-2.35-4.33a34.94,34.94,0,0,1-2.36-4.86l-.31.1v1.57q0,41.07-2.82,41.28-4.81.42-7.63.42a22.88,22.88,0,0,1-2.35-.16q-1.51-.15-2.25-.15Z" transform="translate(-483.43 -276.08)" fill="#110905"/><path d="M708.38,753.09V684.63q0-1.15,6.8-1.78t13.06-.62h.32q11-.63,11.18,3l.42,10.24v.73l-.21.21c-1.67.21-2.72.35-3.14.42h-6.69c-.41,0-1.34,0-2.76.11s-2.43.1-3,.1a3.85,3.85,0,0,1-1.14-.1h-.84v4.18q0,10.65.94,10.65h2.82c.63,0,1.55,0,2.77-.15s2.07-.16,2.56-.16c1,0,1.9,0,2.56.06s1.26.06,1.78.1a3.06,3.06,0,0,1,1.26.31l.73.42a1.06,1.06,0,0,1,.36.73c.07.39.12.67.16.84a7.35,7.35,0,0,1,0,1.2c0,.63-.05,1.12-.05,1.46q0,6.58-.53,6.59,0,.94-14.94.94.21,2.5.15,6.06t-.05,6.9c0,2.23.11,3.38.32,3.45h7.1c.7,0,1.76,0,3.19-.11s2.47-.1,3.14-.1a7.38,7.38,0,0,1,2.19.37,3.44,3.44,0,0,1,1.83,1.2,14.17,14.17,0,0,1-.21,2.71l-.42,8.78c-.28.63-.49.94-.62.94l-13.28.21-4.18.05-4.49.06Q708.9,754.66,708.38,753.09Z" transform="translate(-483.43 -276.08)" fill="#110905"/><path d="M773.18,754.45v-6.9q0-4.49.06-10.77c0-4.17,0-6.51,0-7q0-5.64.47-18t.47-18.18c0-4.88,0-8.53-.1-11l.62-.62c.77.07,1.85.1,3.24.1,1,0,2.65,0,5-.1s4-.11,5-.11a9.44,9.44,0,0,1,1.31.06.88.88,0,0,1,.58.31,1.43,1.43,0,0,1,.21.89,37.18,37.18,0,0,1-.63,7.42L788,720.17v.21a4.19,4.19,0,0,1,0,.68,5.58,5.58,0,0,0-.05.67l.1.84q0,13,.42,16.93l.21.21c.56,0,2.25-.1,5.07-.31s4.55-.31,5.17-.31c1.89,0,2.83.38,2.83,1.14l-.11,3.66v.42l-.1,1.46.1,8.26c0,.49-.35.73-1,.73a4.71,4.71,0,0,1-.94-.1l-.53-.11-6.42.11q-6,.11-6.43.21h-5.44a58.24,58.24,0,0,1-6.37.21Q773.28,755.08,773.18,754.45Z" transform="translate(-483.43 -276.08)" fill="#110905"/><path d="M834.22,698.64a4.39,4.39,0,0,0-1.57-.11,41.37,41.37,0,0,0-7.62.63c-.49-.14-.74-.38-.74-.73L825,683a1.56,1.56,0,0,1,1.56-.84h.84l.52.11,2.3.1c1.53.14,3.21.25,5,.31s3.1.11,3.86.11c.21,0,.77,0,1.68-.16s1.42-.15,1.56-.15l2.51,0,2.62,0,5.64-.31c5.15-.07,7.73.62,7.73,2.09a25.19,25.19,0,0,1-.31,3.34,25.19,25.19,0,0,0-.31,3.24c0,.84.08,2.13.26,3.87s.26,3,.26,3.87l-.21.2h-1.25c-.77.08-1.64.13-2.62.16s-1.7,0-2.19,0a32,32,0,0,1-3.55-.26c-1.54-.17-2.62-.26-3.24-.26l-.21.52q.51,6.18.52,20.8,0,2.82.21,7.53c.14,3.13.21,5.4.21,6.79,0,.56,0,1.4-.06,2.51s0,2,0,2.51q0,2.09.26,6.32c.18,2.82.26,5,.26,6.43,0,.14,0,.49-.05,1s0,.91,0,1q-.94,1.77-12.23,1.78h-.42c-1.25,0-1.88-.14-1.88-.42Z" transform="translate(-483.43 -276.08)" fill="#110905"/><path d="M889.2,737.1q0-6.06.62-7.84a.42.42,0,0,1,.06-.21.54.54,0,0,0,0-.21,8,8,0,0,1,.42-1c.41-.07,1.56-.17,3.44-.32l2.93-.21h2.51l4,.32.42,9.19c-.14,3.7,1.19,5.58,4,5.65a5.49,5.49,0,0,0,1.62-.21,2.12,2.12,0,0,0,1.1-.78,8.7,8.7,0,0,0,.68-1.1,3.68,3.68,0,0,0,.31-1.41c0-.59.07-1.06.11-1.41a12.55,12.55,0,0,0,0-1.52c0-.66,0-1.1,0-1.31a11,11,0,0,0-1.52-5.69,15.13,15.13,0,0,0-4-4.44c-1.68-1.26-3.4-2.44-5.18-3.56a51,51,0,0,1-5.33-3.86,19.58,19.58,0,0,1-4.13-4.5q-2.08-3.55-2.09-11.08a19.73,19.73,0,0,1,2-7.21v-.1l.1-.21.21-.52a18.33,18.33,0,0,1,7.74-9A21.28,21.28,0,0,1,911,681.08q8.88.1,12.8,5.54t3.72,14.11c0,.21,0,.56-.06,1s0,.91,0,1.26v.62l-.1,1.05-.42,1a.44.44,0,0,0-.11.32,1.24,1.24,0,0,1-.63.73c-.27,0-1.18,0-2.71.11l-2.61.1h-1l-.31.1-4.91-.1-.52-.52a12.61,12.61,0,0,0-.06-2.46q-.15-1.72-.15-2.25v-.31c-.07-1.25-.16-2.23-.26-2.93a5.5,5.5,0,0,0-1.1-2.3,3.2,3.2,0,0,0-2.72-1.25,4.75,4.75,0,0,0-4.07,2,7.49,7.49,0,0,0-1.47,4.59,8.47,8.47,0,0,0,2.09,5.54q1.78,1.36,5.44,4t5.17,3.87a46.36,46.36,0,0,1,3.92,3.82,16.21,16.21,0,0,1,3.35,4.91,38.27,38.27,0,0,1,2.4,14.58,18.32,18.32,0,0,1-5,11.86,12.24,12.24,0,0,1-4,2.61,24.41,24.41,0,0,1-4.23,1.42q-1.87.4-5.54,1a11.29,11.29,0,0,1-2.72.11h-1.36l-5-1.26a3.83,3.83,0,0,1-1.78-.84,11.25,11.25,0,0,1-1.62-1.77,17.56,17.56,0,0,0-1.31-1.57A16.64,16.64,0,0,1,889.2,737.1Z" transform="translate(-483.43 -276.08)" fill="#110905"/><path d="M1094.39,320.44a22.18,22.18,0,1,1,22.18-22.18A22.21,22.21,0,0,1,1094.39,320.44Zm0-40.31a18.13,18.13,0,1,0,18.14,18.13A18.15,18.15,0,0,0,1094.39,280.13Z" transform="translate(-483.43 -276.08)" fill="#110905"/><path d="M1086.81,310.66v-24.8h3.63v24.8Zm3.39-9.43v-3.32h5.13a4.52,4.52,0,0,0,3.24-1.1,4,4,0,0,0,1.16-3.09,4.54,4.54,0,0,0-1.16-3.36,4.31,4.31,0,0,0-3.24-1.18h-5.06l-.42-3.32h5.48a8.42,8.42,0,0,1,6,2,7.2,7.2,0,0,1,2.1,5.55,7.77,7.77,0,0,1-2.1,5.8,8.2,8.2,0,0,1-6,2.06Zm9.92,9.43L1094.56,299h3.85l5.9,11.67Z" transform="translate(-483.43 -276.08)" fill="#110905"/></svg>