<svg id="Layer_1" data-name="Layer 1" xmlns="http://www.w3.org/2000/svg" viewBox="0 0 725.88 394.74"><path d="M601.84,494.45l-62.25,86L592,671.88,532.1,682.47l-39.25-55.78-2.07,58.37-53.72,2.06,4.13-197.83,60.18,3.35L496.72,551l40-61.72Z" transform="translate(-437.06 -402.63)" fill="#30d5c8"/><path d="M749.84,588.2a93.57,93.57,0,0,1-2.71,22.67,88.91,88.91,0,0,1-7.81,20.47,84.35,84.35,0,0,1-12.4,17.49,78.71,78.71,0,0,1-16.4,13.63,79.72,79.72,0,0,1-42.55,12,81.26,81.26,0,0,1-22.15-3,84.28,84.28,0,0,1-19.69-8.33,79.06,79.06,0,0,1-16.59-12.92,80.39,80.39,0,0,1-12.66-16.78,86.56,86.56,0,0,1-8.13-19.83,82.9,82.9,0,0,1-2.91-22.08,90.13,90.13,0,0,1,10.53-42.36,87.7,87.7,0,0,1,12.33-17.56,81.78,81.78,0,0,1,16.2-13.82,78.38,78.38,0,0,1,19.44-9,74.54,74.54,0,0,1,22.08-3.22,96.15,96.15,0,0,1,34.16,5.81,72.35,72.35,0,0,1,43.26,42.68A92.87,92.87,0,0,1,749.84,588.2Zm-57.33,3.36a36.24,36.24,0,0,0-1.62-10.78,29.33,29.33,0,0,0-4.71-9.3,24.31,24.31,0,0,0-7.68-6.59A21.63,21.63,0,0,0,668,562.38a25.72,25.72,0,0,0-10.84,2.19,25,25,0,0,0-8.21,6,26.26,26.26,0,0,0-5.22,8.91,31.89,31.89,0,0,0-1.81,10.78,39.08,39.08,0,0,0,1.55,10.85,32,32,0,0,0,4.65,9.81,24.45,24.45,0,0,0,7.68,7.1,20.5,20.5,0,0,0,10.65,2.72,24.4,24.4,0,0,0,10.92-2.39,24.72,24.72,0,0,0,8.2-6.46,29.77,29.77,0,0,0,5.16-9.36A33.62,33.62,0,0,0,692.51,591.56Z" transform="translate(-437.06 -402.63)" fill="#30d5c8"/><path d="M917.94,588.2a93.57,93.57,0,0,1-2.71,22.67,88.91,88.91,0,0,1-7.81,20.47A84.73,84.73,0,0,1,895,648.83a78.71,78.71,0,0,1-16.4,13.63,79.72,79.72,0,0,1-42.55,12,81.2,81.2,0,0,1-22.15-3,84.28,84.28,0,0,1-19.69-8.33,79.06,79.06,0,0,1-16.59-12.92A80,80,0,0,1,765,633.47a87,87,0,0,1-8.14-19.83,83.31,83.31,0,0,1-2.9-22.08,90.28,90.28,0,0,1,10.52-42.36,87.75,87.75,0,0,1,12.34-17.56A81.78,81.78,0,0,1,793,517.82a78.22,78.22,0,0,1,19.44-9,74.49,74.49,0,0,1,22.08-3.22,96.15,96.15,0,0,1,34.16,5.81,72.35,72.35,0,0,1,43.26,42.68A92.87,92.87,0,0,1,917.94,588.2Zm-57.33,3.36A36.24,36.24,0,0,0,859,580.78a29.75,29.75,0,0,0-4.71-9.3,24.24,24.24,0,0,0-7.69-6.59,21.56,21.56,0,0,0-10.52-2.51,25.77,25.77,0,0,0-10.85,2.19,24.85,24.85,0,0,0-8.2,6,26.45,26.45,0,0,0-5.23,8.91,31.89,31.89,0,0,0-1.8,10.78,39.44,39.44,0,0,0,1.54,10.85,32.5,32.5,0,0,0,4.65,9.81,24.6,24.6,0,0,0,7.69,7.1,20.48,20.48,0,0,0,10.65,2.72,24.13,24.13,0,0,0,19.11-8.85,29.6,29.6,0,0,0,5.17-9.36A33.89,33.89,0,0,0,860.61,591.56Z" transform="translate(-437.06 -402.63)" fill="#30d5c8"/><path d="M1092.79,494.45l-62.24,86L1083,671.88l-59.93,10.59L983.8,626.69l-2.07,58.37L928,687.12l4.13-197.83,60.18,3.35L987.67,551l40-61.72Z" transform="translate(-437.06 -402.63)" fill="#30d5c8"/><circle cx="701.94" cy="260.55" r="23.94" fill="#30d5c8"/><path d="M923.22,446.75a5.78,5.78,0,0,1-3.69.62,20.38,20.38,0,0,1-4.81-1.32c-3.59-1.34-7.91-3.45-13-5.37a68.62,68.62,0,0,0-17.14-4.33,55.68,55.68,0,0,0-19.86,1.45,53.56,53.56,0,0,0-9.66,3.47l-1.12.52-1.07.58c-.72.35-1.44.77-2.21,1.22-1.55.92-3.24,2-5.07,3.2a85.18,85.18,0,0,1-12.78,7.15,39.41,39.41,0,0,1-15.23,3.37,31.81,31.81,0,0,1-3.81-.24c-.63-.08-1.23-.18-1.84-.29s-1.26-.27-1.87-.43a22.74,22.74,0,0,1-6.26-2.74,21.54,21.54,0,0,1-4.43-3.71,16.82,16.82,0,0,1-2.68-4.06,9.61,9.61,0,0,1-.87-6.67,3.91,3.91,0,0,1,2.56-2.84,9.18,9.18,0,0,1,3.67-.1,23,23,0,0,0,4,.17,18.37,18.37,0,0,0,2.08-.23,15.07,15.07,0,0,0,2.1-.55,7.22,7.22,0,0,0,1.87-.91l.37-.29.48-.31,1-.69a56.94,56.94,0,0,0,4.78-4.07c1.87-1.77,4.13-4.15,7.25-7.2,1.57-1.52,3.36-3.2,5.49-5,1.07-.88,2.22-1.78,3.48-2.65l1.87-1.3,1.95-1.22a64.89,64.89,0,0,1,53.5-6.21,56.07,56.07,0,0,1,24.11,15.65,42.81,42.81,0,0,1,6.17,8.87,35.22,35.22,0,0,1,1.78,4.06,33.15,33.15,0,0,1,1,3.63,13.19,13.19,0,0,1,0,5.63A4.82,4.82,0,0,1,923.22,446.75Z" transform="translate(-437.06 -402.63)" fill="#30d5c8"/><path d="M749.33,797.37c-64.57,0-104.43-43.21-111.92-52.07a21.26,21.26,0,0,1,32.47-27.44c3.34,4,34.13,38.65,83,36.94,46.24-1.61,73.53-33.89,78.54-40.34a21.25,21.25,0,1,1,33.59,26,152.65,152.65,0,0,1-32,30c-23.88,16.76-50.33,25.76-78.63,26.75C752.7,797.34,751,797.37,749.33,797.37Z" transform="translate(-437.06 -402.63)" fill="#30d5c8"/><path d="M731.7,466.39a6.06,6.06,0,0,1-3.53,1.13,12.44,12.44,0,0,1-2.24-.12c-.78-.12-1.61-.29-2.52-.48-3.52-.88-7.85-2.42-12.78-4.05-9.8-3.33-22.75-6.55-36.23-5.76s-25.94,5.58-35.28,10.07c-4.69,2.22-8.8,4.26-12.19,5.55-.89.3-1.69.58-2.45.79a13.37,13.37,0,0,1-2.21.39,6.09,6.09,0,0,1-3.64-.7,5.08,5.08,0,0,1-2.18-3,10.37,10.37,0,0,1-.43-2.35,13.67,13.67,0,0,1,.09-2.9,32.53,32.53,0,0,1,.66-3.4,38.64,38.64,0,0,1,1.33-3.79,35.25,35.25,0,0,1,2-4.13,42.69,42.69,0,0,1,2.75-4.35,48.88,48.88,0,0,1,3.52-4.45c1.3-1.5,2.77-2.94,4.32-4.43a65.35,65.35,0,0,1,5.14-4.21c.93-.68,1.87-1.38,2.86-2l3.07-1.89a67.58,67.58,0,0,1,14.07-6.23,67.84,67.84,0,0,1,33.27-2,68.3,68.3,0,0,1,14.73,4.49l3.27,1.51c1.06.54,2.08,1.12,3.08,1.67,2,1.08,3.84,2.39,5.61,3.57s3.35,2.54,4.82,3.87a52.59,52.59,0,0,1,4,4,41.89,41.89,0,0,1,3.25,4,35.21,35.21,0,0,1,2.49,3.86,36.12,36.12,0,0,1,1.77,3.61,29.5,29.5,0,0,1,1.06,3.29,13.37,13.37,0,0,1,.44,2.86,10.57,10.57,0,0,1-.14,2.39A5.14,5.14,0,0,1,731.7,466.39Z" transform="translate(-437.06 -402.63)" fill="#30d5c8"/></svg>