<svg id="Layer_1" data-name="Layer 1" xmlns="http://www.w3.org/2000/svg" viewBox="0 0 968.74 579.23"><path d="M1249.7,715.17c-.93,0-1.87,0-2.81.12a37.87,37.87,0,0,0-4.5.68,51.58,51.58,0,0,0-4.77-27,33.07,33.07,0,0,0,11.9-25.41c0-.83,0-1.65-.11-2.48,14.6-6.18,23.47-20.72,21.66-35.73a32.26,32.26,0,0,0-3.58-11.31,46.12,46.12,0,0,0,4.88-4.19c9.71-9.61,13.9-22.74,11.2-35.13-3.62-16.55-19.31-28.57-37.31-28.57a126.35,126.35,0,0,0,9.11-11,85,85,0,0,0,6.33-9.92,23.24,23.24,0,0,0,1.77-18.93c-3.52-10.38-14.53-18.22-25.6-18.22a24.78,24.78,0,0,0-2.58.14c.52-.94,1-1.82,1.48-2.63,3.17-5.68,5.92-10.58,8-14.47,2.2-4.22,4.79-9.16,5.34-15a23.47,23.47,0,0,0-1-9.57c-3.07-9.81-18.1-28.71-39.45-30,.55-8.4-.77-16.54-5.12-23.8-3.61-6-12.39-16.22-30.77-17.11q-1-.06-2-.06c-13.72,0-27.11,7-36.73,19.18a62.05,62.05,0,0,0-7.59,12.36,61.46,61.46,0,0,0-14.45-1.68c-12,0-24.45,3.4-36,9.49a25.83,25.83,0,0,0-1.49-2.59c1.92-2.18,3.77-4.45,5.51-6.8,20.71-28,12.62-49.79,6-60.31-.36-.55-.72-1.08-1.11-1.59-9.59-12.62-28.32-21.78-44.55-21.78-11,0-20.7,4.15-27.34,11.66-.24.28-.48.55-.71.84-11,13.76-19.74,31.23-26.07,52.08-4.79-2.83-11.35-5.05-20.14-5.05a56,56,0,0,0-12.82,1.41,55.85,55.85,0,0,0-19.72-5.74c-1-.08-2-.12-3-.12-14.55,0-27.76,7.75-38.38,22-5.6-12.48-17.93-20.74-32.94-20.74-14.48,0-27.44,7.79-33.5,20a47.63,47.63,0,0,0-11.46-1.31,65.27,65.27,0,0,0-12.58,1.26c-4.17-9.27-14.2-17.53-32.25-17.53-1.21,0-2.4,0-3.57.1,12.51-30.87.49-49.29-8-57.64-.49-.48-1-.95-1.56-1.39-8.67-7.1-21.65-11.34-34.71-11.34-13.93,0-25.58,4.92-33,13.68-9-5.72-19.8-6.77-26.38-6.77-20,0-35.62,8.21-41.83,21.95l-.1.24c-7.81,17.84-12.11,38.65-12.89,62.13a32.81,32.81,0,0,0-9-1.27c-6,0-16.88,2.47-25.7,8a67.34,67.34,0,0,0-8.21-.52,49.85,49.85,0,0,0-12.33,1.47,41.43,41.43,0,0,0-9.52,3.83c0-.64,0-1.28,0-1.92-.2-18.29-8.82-35.63-23.64-47.57-12.43-10-28.07-15.31-45.26-15.31a86.79,86.79,0,0,0-47.15,14.06,75.74,75.74,0,0,0-32.38,48.36c-4.09,20.57.17,41.87,11.69,58.42,7.23,10.39,16.85,17.46,26.54,22.89a52,52,0,0,0-11.47,26.74,56.68,56.68,0,0,0-.33,9c-.59-.34-1.19-.68-1.8-1a33.16,33.16,0,0,0-14.88-3.59,30.8,30.8,0,0,0-22.59,9.71c-3.55-3.09-13.41-11.45-27.26-12.77-1.11-.11-2.26-.16-3.39-.16-17,0-31.81,11.41-35.25,27.13-2.57,11.74,1.36,24.16,10.53,33.22a46,46,0,0,0,6.55,5.36,30.62,30.62,0,0,0-3.06,10.12c-1.77,14.66,7.07,28.85,21.51,34.5a42.32,42.32,0,0,0,15.62,2.76c.67,0,1.31,0,1.93,0a30.22,30.22,0,0,0,16.23,21.82,38.69,38.69,0,1,0,43.55,64,86.1,86.1,0,0,0,5.41,7.66c11,13.79,25.59,22.23,40.35,28.74a55.59,55.59,0,0,0-16,34.61c-2.62,28.9,19.32,67.16,55,75.82A85.19,85.19,0,0,0,534.15,868c29.43,0,58.39-14.13,75-36.27a62.46,62.46,0,0,0,25.42,28.9,71.4,71.4,0,0,0,37.37,10,95.4,95.4,0,0,0,13.62-1c23-3.3,43.87-12.39,60.61-19.67,3.28-1.43,6.55-2.89,9.78-4.34,9.78,6.66,21.77,13.89,35.39,19.13a369.48,369.48,0,0,0,133,24.83c4.44,0,8.94-.08,13.39-.25,18.49-.65,34.79-3.68,49.81-9.29,10.89-4.05,26.69-11.26,38-26.92,15.74-21.84,16.68-48.78,4-71a61.33,61.33,0,0,0,7.89-2.58c10,10.91,24.09,17.15,40.06,17.15,1.61,0,3.28-.07,4.91-.2a62.8,62.8,0,0,0,9.46-1.47,83.74,83.74,0,0,0,12.82,20.07,77.77,77.77,0,0,0,59,27.44,71.36,71.36,0,0,0,30.3-6.64c24.87-11.56,32.24-30.54,34-44.42.17-1.33.27-2.65.33-4,.73-.07,1.48-.16,2.2-.28,7.29-1.31,14.26-3.27,20.48-5,1.55-.43,3.48-1,5.58-1.72a42.16,42.16,0,0,0,13.83-7.8c11.73-10.13,15.35-26.44,8.81-39.69C1273.85,722.19,1262.27,715.17,1249.7,715.17ZM451.21,603a81.24,81.24,0,0,0-22,22.74,29.75,29.75,0,0,0-1.88-8.46c7.34-9.51,12.32-19.47,14.82-29.69A63.44,63.44,0,0,0,443.88,575a53.86,53.86,0,0,0,19.65,11.32,64.9,64.9,0,0,0,17,2.93A100.2,100.2,0,0,0,451.21,603Zm60,57.38a24.08,24.08,0,0,1,9.37-3.88A34,34,0,0,1,511.21,660.34Zm33.3,143.83c-.41,4.87-4.81,9.65-8.89,9.65a6,6,0,0,1-1.17-.12,8.71,8.71,0,0,1-6.56-7.43c0-2,3.49-7.63,8.35-10.21l3.54-1.88,1.78-.93q.77-.4,1.5-.87A25.65,25.65,0,0,1,544.51,804.17Zm50.89-153a20,20,0,0,0-3,.42c0-.42-.08-.84-.14-1.26-.31-2.22-.75-4.43-1.28-6.61,2.06.32,4.12.59,6.16.82C596.47,646.87,595.89,649.1,595.4,651.17ZM602,546a98.71,98.71,0,0,0-23,30.16h0a31.65,31.65,0,0,0-28.74,18.5A91.84,91.84,0,0,0,509,585.22c-.66,0-1.32,0-2,0a74.21,74.21,0,0,0,36.17-26.8c.3-.41.57-.86.87-1.29a41.93,41.93,0,0,0,12.78,2c12.77,0,24.46-5.87,33.8-16.5a38.6,38.6,0,0,0,11.4,1.69c.62,0,1.25,0,1.88,0C603.17,545,602.5,545.58,602,546ZM702,799.44a60.91,60.91,0,0,1-8.83-.65c-7.38-1.08-13-4-16.14-15a55.56,55.56,0,0,1-1.14-5.69c-.24-1.48-.49-3-.77-4.42A22.87,22.87,0,0,0,669,762a29.9,29.9,0,0,0,10.44-6.71,194.05,194.05,0,0,0,25.87,44C704.16,799.4,703.05,799.44,702,799.44Zm118.53,16.35c1.84-.82,3.66-1.59,5.49-2.37a47.52,47.52,0,0,0,.43,4.88C824.39,817.5,822.42,816.67,820.48,815.79Zm-43.92-44.1c-2.3,1.08-4.61,2.15-6.91,3.24a128.36,128.36,0,0,1-8.6-12.65c-1.6-2.74-3.09-5.59-4.51-8.51,1.36.12,2.7.2,4.06.2A49.69,49.69,0,0,0,795.82,739a69.57,69.57,0,0,0,9.5-12.25C815.5,738,829,744.17,843.39,744.17a49.65,49.65,0,0,0,7.5-.58C827.56,750,803.37,759.15,776.56,771.69Zm102.3-34.53c-5.89,1.09-11.79,2.35-17.74,3.78a56.06,56.06,0,0,0,12.35-6.41,72.41,72.41,0,0,0,8.64-6.95c.33.78.68,1.56,1,2.32a51.64,51.64,0,0,0,3.3,6C883.94,736.26,881.42,736.69,878.86,737.16ZM1066.71,553a57.75,57.75,0,0,0-6.62-1.86,74.45,74.45,0,0,0-16.07-1.78c-16.66,0-33.17,5.78-49.06,17.14-1,.71-2,1.44-2.91,2.18a48.62,48.62,0,0,0-6.44-14.87c-9.11-14-24.92-22.42-42.3-22.42-1.89,0-3.82.1-5.73.29a23,23,0,0,0-19,14.23q-5.14,12.84-9.81,25.57c-8.87-12.29-22-20.34-38.16-23.23a40.71,40.71,0,0,0-29.6,6,50.13,50.13,0,0,0-19.28,22.55,60.14,60.14,0,0,0-4.86,28.15,54.07,54.07,0,0,0-3.33-5.41,60.08,60.08,0,0,0-43.94-25.72c-1.73-.16-3.48-.24-5.21-.24a55.7,55.7,0,0,0-42.35,19,53.18,53.18,0,0,0-3.45,4.47,36.74,36.74,0,0,0-18.06-4.87c-.59,0-1.18,0-1.79.05-17.45.8-31.21,8.74-39.09,22.13a39.81,39.81,0,0,0-5.35-2.55,29.48,29.48,0,0,0-.2-3.09,30.56,30.56,0,0,0-3.07-10.12,46.73,46.73,0,0,0,6.57-5.37c9.15-9.06,13.08-21.47,10.52-33.21-3.43-15.72-18.25-27.13-35.26-27.13-.5,0-1,0-1.52,0a61.45,61.45,0,0,0,6.82-7l.94-1.18a47.09,47.09,0,0,0,26.4,7.89c10.44,0,20.05-3.44,27.09-9.67a36.88,36.88,0,0,0,4.26-4.55,45.26,45.26,0,0,0,25.92,7.93,42.16,42.16,0,0,0,25.26-8c.13.15.27.28.42.43,9.72,9.57,19.88,11.59,26.7,11.59,9.48,0,18.41-3.84,26.17-10.81A37.39,37.39,0,0,0,827,529.94c19.14,0,35-14.49,46.36-34.51,2.66,8.05,7,15,13.68,19.92a41.46,41.46,0,0,0,37.07,6.82,48.27,48.27,0,0,0,11.42-5.06,40,40,0,0,0,12,5.72,42.28,42.28,0,0,0,11.55,1.62h0a47.11,47.11,0,0,0,25.51-7.83A48.42,48.42,0,0,0,1022,535.3a37.34,37.34,0,0,0,15.45-3.19,33.44,33.44,0,0,0,3.72-2c8.06,11.71,17.79,17.42,26.54,20.06C1067.34,551.11,1067,552.05,1066.71,553ZM1177,625.18a25.3,25.3,0,0,0,3.73,17.76,25.06,25.06,0,0,0,.8,2.6,25.55,25.55,0,0,0,3.7,6.67c-.17.48-.34,1-.49,1.46a81.38,81.38,0,0,0-9.4-.56,80.24,80.24,0,0,0-25.52,4.17c1.54-1.86,3.49-3.83,5.66-6l1.83-1.86,1.59-1.45c1.47-1.34,3.35-3.05,4.85-4.46,1-.91,1.79-1.71,2.38-2.3,10.32-10.45,7-21.91,5.73-25.2a51.17,51.17,0,0,0-11.24-17.48,45.37,45.37,0,0,0-19.85-11.89,77.79,77.79,0,0,0-12.3-36.53,46.86,46.86,0,0,0-8.59-10,159.33,159.33,0,0,0,22-16.24c-1.29,9.88-.62,19,2.8,26.94a23.11,23.11,0,0,0,1.52,2.92c9.52,15.52,24,24.07,40.95,24.07a53.39,53.39,0,0,0,10.84-1.18A111.37,111.37,0,0,0,1177,625.18Z" transform="translate(-315.63 -310.38)" fill="#2b2d7e"/><path d="M343,564.05a37,37,0,0,0,8.89,6l1,.52a175.42,175.42,0,0,1,35.6,25.84,2.06,2.06,0,0,0,1.39.55,2,2,0,0,0,1-.25,2,2,0,0,0,1.05-2.13,75.77,75.77,0,0,0-24.45-44.13c-3.32-2.91-8.44-6.84-14.58-7.43-5.71-.54-12.72,2.76-14.1,9C337.9,556.05,339.49,560.55,343,564.05Zm16-11.3a1.36,1.36,0,0,1,1.93,0l.55.55a1.36,1.36,0,0,1,0,1.93,1.33,1.33,0,0,1-1,.4,1.36,1.36,0,0,1-1-.4l-.55-.54A1.37,1.37,0,0,1,359,552.75Zm-9.54-2.47a5.26,5.26,0,0,1,5.27-.17,1.37,1.37,0,1,1-1.32,2.4,2.51,2.51,0,0,0-2.49.07,1.32,1.32,0,0,1-.73.22,1.37,1.37,0,0,1-1.15-.64A1.35,1.35,0,0,1,349.5,550.28Zm47.24,30.8c.36,1.46.74,2.92,1.11,4.38,1.81,7,3.68,14.28,3.67,21.29a2.06,2.06,0,0,0,1.31,1.92,2.1,2.1,0,0,0,.74.13,2,2,0,0,0,1.52-.67c7.66-8.51,12.63-17.27,14.78-26,2.61-10.69.81-21.77-4.83-29.65a16,16,0,0,0-5.63-5.19,9.12,9.12,0,0,0-8.39-.18c-2.14,1.14-3.74,3.26-4.9,6.47C392.9,562.53,394.62,572.51,396.74,581.08Zm16.62-17.94a1.35,1.35,0,0,1,1.73.85l.22.63a1.36,1.36,0,0,1-.84,1.74,1.42,1.42,0,0,1-.45.08,1.37,1.37,0,0,1-1.29-.93l-.22-.63A1.36,1.36,0,0,1,413.36,563.14Zm-5.6-10a1.37,1.37,0,0,1,1.93.08,15.12,15.12,0,0,1,3.05,5,1.36,1.36,0,0,1-.81,1.75,1.27,1.27,0,0,1-.47.09,1.37,1.37,0,0,1-1.28-.9,12.34,12.34,0,0,0-2.5-4.08A1.37,1.37,0,0,1,407.76,553.15Zm-54.59,45.43c-.58,4.78,3.13,8.85,7.1,10.4a19.66,19.66,0,0,0,7.28,1.19c1.49,0,3-.1,4.35-.19,6.18-.41,12.55-.83,18.77-1.85a2,2,0,0,0,1.24-3.34,43.85,43.85,0,0,0-20.74-13.6c-4.11-1.24-7.4-1.45-10.34-.67C356.7,591.61,353.62,594.85,353.17,598.58Zm18.05-.22a1.37,1.37,0,0,1,1.8-.7l.69.31a1.37,1.37,0,0,1-.55,2.62,1.44,1.44,0,0,1-.53-.11l-.73-.32A1.37,1.37,0,0,1,371.22,598.36Zm-8.37-2.74a9,9,0,0,1,4.87.17,1.36,1.36,0,0,1,.88,1.72,1.35,1.35,0,0,1-1.3.94,1.52,1.52,0,0,1-.42-.06,6.22,6.22,0,0,0-3.37-.12,1.35,1.35,0,0,1-1.65-1A1.38,1.38,0,0,1,362.85,595.62Z" transform="translate(-315.63 -310.38)" fill="#61f7da"/><path d="M1089.82,567.44a26.63,26.63,0,0,0,5,5.8l.58.55a125.55,125.55,0,0,1,19.65,24.65,1.45,1.45,0,0,0,.86.64,1.32,1.32,0,0,0,.71,0,1.48,1.48,0,0,0,1.14-1.27,54.33,54.33,0,0,0-8.46-35.16c-1.74-2.64-4.52-6.34-8.65-7.91-3.84-1.47-9.32-.53-11.47,3.55C1087.8,560.93,1088,564.34,1089.82,567.44Zm13.21-4.76a1,1,0,0,1,1.34.37l.27.48a1,1,0,0,1-.36,1.33,1,1,0,0,1-.75.1,1,1,0,0,1-.59-.46l-.27-.48A1,1,0,0,1,1103,562.68Zm-6.11-3.53a3.76,3.76,0,0,1,3.66.9,1,1,0,1,1-1.36,1.4,1.82,1.82,0,0,0-1.74-.42,1,1,0,0,1-.54,0,1,1,0,0,1-.68-.66A1,1,0,0,1,1096.92,559.15Z" transform="translate(-315.63 -310.38)" fill="#61f7da"/><path d="M645.78,564.87c-1.37-6.29-8.39-9.59-14.1-9-6.13.59-11.25,4.52-14.57,7.43a75.78,75.78,0,0,0-24.46,44.13,2.07,2.07,0,0,0,1.06,2.14,2,2,0,0,0,1,.24,2.06,2.06,0,0,0,1.4-.55,175.36,175.36,0,0,1,35.59-25.84l1-.52a36.59,36.59,0,0,0,8.89-6C645.07,573.4,646.66,568.9,645.78,564.87Zm-20.26,2.66-.55.54a1.32,1.32,0,0,1-1,.4,1.36,1.36,0,0,1-1-2.33l.54-.55a1.37,1.37,0,1,1,1.93,1.94Zm10-2.52a1.37,1.37,0,0,1-1.16.64,1.29,1.29,0,0,1-.72-.22,2.51,2.51,0,0,0-2.49-.07,1.37,1.37,0,1,1-1.32-2.4,5.26,5.26,0,0,1,5.27.17A1.37,1.37,0,0,1,635.49,565Zm-11.75,38.36c-2.94-.78-6.23-.57-10.35.67a43.87,43.87,0,0,0-20.73,13.6,2,2,0,0,0,1.23,3.34c6.23,1,12.6,1.44,18.78,1.85,1.39.09,2.85.19,4.34.19a19.62,19.62,0,0,0,7.28-1.19c4-1.55,7.69-5.62,7.11-10.4C631,607.7,627.87,604.46,623.74,603.37ZM612.66,613c-.6.27-.66.3-.73.32a1.37,1.37,0,0,1-1.08-2.51l.7-.31a1.37,1.37,0,0,1,1.11,2.5Zm10.05-2.88a1.38,1.38,0,0,1-1.66,1,6.13,6.13,0,0,0-3.37.11,1.53,1.53,0,0,1-.41.07,1.37,1.37,0,0,1-.42-2.67,8.83,8.83,0,0,1,4.86-.16A1.37,1.37,0,0,1,622.71,610.13Z" transform="translate(-315.63 -310.38)" fill="#61f7da"/><path d="M1248.76,738.13c-3,.25-6.06,1.54-9.53,4.07a43.86,43.86,0,0,0-15,19.73,2,2,0,0,0,2.28,2.74c6.21-1.12,12.36-2.84,18.32-4.5,1.34-.38,2.75-.77,4.16-1.27a19.84,19.84,0,0,0,6.47-3.54c3.23-2.79,5.38-7.86,3.24-12.18C1257,739.81,1253,737.78,1248.76,738.13Zm-7.23,12.77-.58.55a1.21,1.21,0,0,1-.46.27,1.36,1.36,0,0,1-1.39-2.28l.55-.52a1.37,1.37,0,0,1,1.88,2Zm8.51-6a1.36,1.36,0,0,1-1.23,1.49,6.21,6.21,0,0,0-3.14,1.22,1.36,1.36,0,0,1-1.65-2.17,8.94,8.94,0,0,1,4.54-1.77A1.36,1.36,0,0,1,1250,744.85Z" transform="translate(-315.63 -310.38)" fill="#61f7da"/><path d="M1261.18,579.58c-1.59-7.28-9.73-11.11-16.34-10.48-7.11.67-13,5.23-16.89,8.6a87.82,87.82,0,0,0-28.34,51.14,2.37,2.37,0,0,0,2.34,2.76,2.4,2.4,0,0,0,1.61-.63,203.17,203.17,0,0,1,41.25-30l1.14-.61c3.57-1.91,7.27-3.89,10.3-6.88C1260.36,589.46,1262.2,584.25,1261.18,579.58Zm-23.48,3.08-.64.63a1.58,1.58,0,0,1-2.24,0,1.58,1.58,0,0,1,0-2.23l.63-.63a1.58,1.58,0,0,1,2.24,2.24Zm11.55-2.92a1.58,1.58,0,0,1-1.34.74,1.52,1.52,0,0,1-.84-.25,2.92,2.92,0,0,0-2.89-.08,1.58,1.58,0,1,1-1.52-2.78,6.08,6.08,0,0,1,6.1.19A1.57,1.57,0,0,1,1249.25,579.74Zm-9.81,39c-3.41-.9-7.22-.65-12,.78a50.89,50.89,0,0,0-24,15.76,2.38,2.38,0,0,0,1.44,3.88c7.21,1.18,14.59,1.66,21.76,2.14,1.61.11,3.3.22,5,.22a23,23,0,0,0,8.44-1.38c4.6-1.8,8.9-6.52,8.23-12.06C1247.8,623.74,1244.23,620,1239.44,618.72Zm-12.83,11.17c-.69.32-.77.35-.85.38a1.61,1.61,0,0,1-.6.12,1.58,1.58,0,0,1-.65-3l.81-.36a1.59,1.59,0,0,1,2.09.81A1.58,1.58,0,0,1,1226.61,629.89Zm11.64-3.33a1.57,1.57,0,0,1-1.92,1.15,7.28,7.28,0,0,0-3.9.13,1.4,1.4,0,0,1-.49.08,1.58,1.58,0,0,1-.48-3.09,10.3,10.3,0,0,1,5.64-.19A1.59,1.59,0,0,1,1238.25,626.56Z" transform="translate(-315.63 -310.38)" fill="#61f7da"/><circle cx="91.69" cy="376.57" r="15.79" fill="#61f7da"/><circle cx="900.74" cy="353.15" r="10.24" fill="#61f7da"/><circle cx="83.52" cy="317.54" r="7.2" fill="#61f7da"/><circle cx="263.28" cy="297.38" r="8.66" fill="#61f7da"/><path d="M939.86,795.1a22.08,22.08,0,0,0-11-6.17,32,32,0,0,0-4.63-.82,12.52,12.52,0,0,1,7.28,5.9,25.79,25.79,0,0,1,3.12,8.6,45.47,45.47,0,0,1,.77,11.69,36.71,36.71,0,0,1-2.37,11.55,16,16,0,0,1-4.72,6.82,11.58,11.58,0,0,1-3.94,2.11,26.23,26.23,0,0,0,10.13-2.94,20.38,20.38,0,0,0,9.3-10.05,24.45,24.45,0,0,0,1.92-8.18,27.88,27.88,0,0,0-1-9.9A20.88,20.88,0,0,0,939.86,795.1Z" transform="translate(-315.63 -310.38)" fill="#ebf5ee"/><path d="M909.7,828.88a26.14,26.14,0,0,1-3.1-8.69,48.2,48.2,0,0,1-.8-9.07A41.71,41.71,0,0,1,907.55,799a19.15,19.15,0,0,1,3.86-7.27,11.69,11.69,0,0,1,5.49-3.57l-1,.11a26,26,0,0,0-9.17,2.81,20.48,20.48,0,0,0-8.83,9,24.38,24.38,0,0,0-2.48,9.34,26.72,26.72,0,0,0,1.06,9.93A20.76,20.76,0,0,0,909.29,833a28.48,28.48,0,0,0,7.76,1.81A12.51,12.51,0,0,1,909.7,828.88Z" transform="translate(-315.63 -310.38)" fill="#ebf5ee"/><path d="M878.42,799.84a8,8,0,0,0-2.15,8.75,7.79,7.79,0,0,0,7.3,5.06h.08a8.6,8.6,0,0,0,3.56-.71l0,0,.1,0,.1-.06.11-.05c2.68-1.39,4-4,4.06-7.87a14.71,14.71,0,0,0-1.52-6.53h0l-.47-.85a17.13,17.13,0,0,0-7-6.86,22.24,22.24,0,0,0-2.43-1.14,8.5,8.5,0,0,1,1.27,1.14,4.66,4.66,0,0,1,.46,6.12,8.4,8.4,0,0,1-1.41,1.49c-.34.29-.69.54-1,.78S878.72,799.57,878.42,799.84Z" transform="translate(-315.63 -310.38)" fill="#ebf5ee"/><path d="M867.5,788.59a22.62,22.62,0,0,0-10,4.69,23,23,0,0,0-7.73,11.45,24.92,24.92,0,0,0,.16,14.53,22,22,0,0,0,8.68,12.12,19.77,19.77,0,0,0,9.19,3.33,23.54,23.54,0,0,0,2.53.14,26.52,26.52,0,0,0,4.29-.36,20.48,20.48,0,0,0,7.69-2.77,19.92,19.92,0,0,0,6.9-7.08,17.43,17.43,0,0,1-3.23,1.63,22.22,22.22,0,0,1-8,1.54,22.56,22.56,0,0,1-7.35-1.27,18.44,18.44,0,0,1-10.12-8.19,19.74,19.74,0,0,1-2.65-8.73,25,25,0,0,1,1.31-10.55,16.6,16.6,0,0,1,5.47-7.64,16.41,16.41,0,0,1,8.41-3.33h-.62A25.87,25.87,0,0,0,867.5,788.59Z" transform="translate(-315.63 -310.38)" fill="#ebf5ee"/><circle cx="638.76" cy="519.64" r="4.8" fill="#ebf5ee"/><path d="M907,653.15a2.17,2.17,0,0,0-1-.32c-.8-.16-11.15-1.7-11.2-1.5-.75,2.74-1.44,5.24-2.1,7.75-3.65,13.91-8.63,27.27-16.34,39.49a56.9,56.9,0,0,1-15.86,17.06c-13,8.91-28.25,7.15-38.66-4.7-9.74-11.1-12.78-24.44-12.45-38.81,0-1.14.15-2.28.24-3.43.07-.92.16-1.84.3-3.42l-8.63,2.94c-1.17,5.27-2,10.75-3.63,16-4.15,13.39-8,28.39-18.24,38.81s-27.64,11.3-37.15-.87a60.28,60.28,0,0,1-13-35,74.76,74.76,0,0,1,1.89-18.91c1.54-6.9,5.28-11.46,8.92-17.37a39.79,39.79,0,0,1-7.48-17.46c-3.58-24.32,15.86-38.5,34.93-36.77a37.46,37.46,0,0,1,27.19,16c7.54,10.85,7.25,23.49,8.17,36.13.22,3,0,6,0,9.74l8.45-1.67c3.16-9.91,6.41-19.89,17.65-23,8.29-2.34,16,.31,23.42,4.4-2.19-1.21-6.2,11.4-6.62,12.63q-1.68,4.92-3.11,9.92a64.33,64.33,0,0,0-1.57,25.21c.78,6,2.82,14,9.56,15.66,5.9,1.43,9.72-2.31,13-6.5,6.93-8.9,10.58-19.36,13.85-29.93,1.63-5.27,2.71-10.7,4.19-16.68-2.31-1-4.34-1.82-6.39-2.62-13-5.05-24.14-12.39-30.6-25.22-5.66-11.24-7.1-22.87-2-34.78a27.6,27.6,0,0,1,10.69-12.37,17.76,17.76,0,0,1,13.13-2.67c14.7,2.62,24.4,11,29.15,25.13,3.8,11.29,3.53,22.91,2.37,34.57-.32,3.2-.71,6.39-1.14,10.25,0,.41,13,2.67,12.94,2.77a794,794,0,0,1,29.93-89c22.63-2.3,37.19,18.41,27.89,39.3-6.83,15.32-14,30.5-20.94,45.76-.78,1.71-1.36,3.51-2.47,6.39,8.17-.06,16.35.17,24.51-.29,2.11-5.27,4-10.43,6.21-15.47,7.64-17.52,17.32-33.65,33.2-45,14-10,29.47-15.46,46.87-11.63,23.49,5.17,33.47,30.31,19.54,49.73-7.86,11-19,17.39-31.22,22.26-14.29,5.69-29.26,8.49-44.45,10.31-1.5.18-3,.39-5.13.68-.55.07-2.2,6.36-2.47,7.13l-2.62,7.57-2.62,7.59c-1.42,4.08-.29,4,2.81,1.79,7.29-5.22,14.54-10.49,21.86-15.66,7.09-5,16.45-9.66,25.39-8.09,11,1.94,17.56,14.47,13.09,24.64-3.34,7.6-7.93,14.7-12.4,21.75-5.71,9-12,17.62-17.71,26.64-2.66,4.22-4.08,9-2.2,14.17,3,3.29,6.57,2.79,10.11,1.7,7.22-2.2,13.41-6.24,19-10.75,6.39-25.49,22.33-55.8,38.3-73.06,14.76.24,30.38,18.41,18.79,35.12-5.85,8.44-12.78,16.13-18.87,24.41a133.85,133.85,0,0,0-7.76,12.07c-2.36,4-4.94,8.09-5.45,12.86-.84,7.78,4.27,13.14,12.14,13.06,6.54-.06,16.16-4,23.85-9.91a90.45,90.45,0,0,1,8.35-29.75c7.67-15.78,18-29.16,33.93-37.5,18.8-9.84,43.18-7.89,58.3,4.74,15.29,12.77,16.07,33.21,1.72,47.1-9.45,9.14-21,13.49-33.92,14.85a128.12,128.12,0,0,1-35.38-1.31c-.62,3.6-1.33,6.89-1.73,10.22-1.25,10.7-1.07,21.36,2,31.78,2,6.69,5,12.81,11.22,16.67a16,16,0,0,0,18-.93c5.76-4.48,8.78-11.54,9.1-18.73.34-7.9-2.78-14.24-6.47-21l-.14-.23c7.59-2.56,15.66-2.24,23,2.67,7.11,4.74,11.28,11.46,10.13,20.38-1.68,13-9.63,21.33-21,26.6-20.8,9.67-46.58,3.33-62.25-14.94a61.9,61.9,0,0,1-14.1-30.21c-.29-1.66-.61-3.31-1-5.62-1.71.74-3.06,1.2-4.29,1.88-6.9,3.81-14.07,6.79-22,7.42-16.06,1.26-28.65-7.17-33.67-22.53-.23-.71-.55-1.39-1.08-2.71-2.22,1.43-4.2,2.74-6.2,4-6.81,4.31-13.79,8.25-22.17,8.37C1004,761,993.1,750,994.29,736.61a46.47,46.47,0,0,1,4.77-17.47c6.28-11.75,13.69-22.88,20.56-34.31,1.14-1.89,2.15-3.83,3.17-5.78.86-1.65,2.2-2.86.51-4.3-2-1.73-5.28.14-7.17,1.15a106.81,106.81,0,0,0-12.14,7.54c-8,5.82-15.79,11.91-23.54,17.79-.9,6-1.85,11.44-2.49,16.92-.61,5.28-.9,10.61-1.37,16.41-5.9.73-11.15,0-15.7-3.68-5-4.08-3.76-10-4-16.7-2.06,2.2-3.41,3.65-4.77,5.09-5.56,5.9-11.78,10.82-19.65,13.32-12.11,3.83-23.12-.93-28.55-12.45-3.94-8.39-4.77-17.37-3.52-26.32,1.75-12.63,4.34-25.15,6.56-37.72a13.28,13.28,0,0,0,.15-1.67C907.1,653.68,907.17,653.35,907,653.15Zm32.61,4.53c-4.75,12.35-9.44,25-11.65,38.4a63.6,63.6,0,0,0-.94,15.86c.75,8.08,5.78,10.41,12.13,5.46s11.78-10.73,17.42-16.36c1.06-1.06,1.41-3,1.69-4.67,1.42-8,2.64-16.13,4.07-24.18.83-4.63,1.92-9.21,3-14.51Zm61.51-15.77c20.31-4.58,38.53-10.77,51.84-26.22,3.84-4.45,14.83-18,10.44-24.13-3.35-4.67-11.86-1.29-15.85.46-9.92,4.35-18,11.16-25.35,19C1013.88,620,1007.24,630,1001.1,641.91ZM790.54,659c1.89,0-.31-23.73-.83-26-2-8.54-6.75-17.72-15.3-21.19-13.53-5.49-22.1,5.92-19.75,18.74C757.69,647.06,771.93,658.56,790.54,659Zm353,76.91c16,1.66,30.36.27,43.84-6.59A23,23,0,0,0,1198,718.49c3.5-7.45,1-13.64-7-15.31a37.14,37.14,0,0,0-14.65-.46C1158.75,706.34,1150.3,719.54,1143.58,735.91ZM769.2,712.84c10.35-3.34,21.59-28,19.46-42.41l-23.9-3.06c-7.39,13-7,26.29-2.07,39.76C763.77,710.07,765.66,712.49,769.2,712.84Zm114.32-78c0-14.88,1.81-31.44-8.2-43.73-3.53-4.32-8.82-6-13-1.45-3,3.29-3.37,9.55-3.27,13.84a32.62,32.62,0,0,0,3.28,13.4A34.49,34.49,0,0,0,870.8,628a33.87,33.87,0,0,0,5.9,4.08C877.3,632.42,883.52,634.86,883.52,634.89Z" transform="translate(-315.63 -310.38)" fill="#ebf5ee"/><path d="M626,675.87c-1.57,30.45-1.29,60.89,2.73,91.42-12.89,5.59-25-7.48-32.68-16-10.72-11.89-18.25-26.34-22.83-41.63-3.76-12.57-.73-21.3,11.34-29.32,3.73-2.48,8-4.12,12.36-6.3l14.91,48.62c2.13,1.09,1.4-4.29,1.39-5.1-.35-18.72-.47-37.47,3.35-55.89,2.44-11.79,6.5-30.15,21.87-29.93,7.61.11,13.15,3.24,16.66,10,4.34,8.33,5.24,17.48,6.28,26.58.63,5.48.94,11,2,16.71.48-2.37.88-4.75,1.45-7.09q4.84-20,9.82-40c.55-2.21,1.67-4.26,2.36-6.44,3.56-11.14,11.6-15.92,22.83-16.44,12.44-.57,15.93,13.27,17.11,23.09,1.49,12.53.8,25.18.31,37.75-.44,11.31.71,22.45,2.42,33.66C723.11,732,729.8,754,741.2,773.75c5.59,9.67,12.92,18.35,19.5,27.45a14.56,14.56,0,0,0,2.52,2.11c7.64-3.6,15.34-7.26,23-10.87,31-14.52,62.91-26.5,96.75-32.75,18.09-3.34,36.35-5.22,54.68-4.12,23.55,1.4,44.7,9.65,62.17,25.79,17.81,16.44,20.46,39.86,7.1,58.4-6.86,9.51-16.74,14.89-27.39,18.85-13.72,5.11-28.12,7.35-42.63,7.87A345.33,345.33,0,0,1,799.61,843.4c-13.65-5.25-25.86-13-37.64-21.55-1.06-.77-2.18-1.46-3.6-2.4-7.09,3.18-14.17,6.43-21.31,9.54-17.67,7.7-35.42,15.23-54.7,18-12.57,1.8-24.72.76-36-6-15.87-9.53-22.95-28.41-16.74-44.29,3.53-9,15.25-18.73,22.91-18.69.78,4,1.25,8.21,2.41,12.18,5.13,17.57,16.5,28.58,34.83,31.26,20.07,2.94,38.91-1.63,57.56-10.66-1.65-1.72-2.82-3.12-4.16-4.33-28.85-25.94-45.84-58.53-54-96.09a251.21,251.21,0,0,1-4.44-29.27c-.48-4.9-.86-9.82-1.18-14.74-.23-3.5.78-10.26-1.57-13a51.24,51.24,0,0,0-1.94,6q-6.48,33.42-12.83,66.86c-.43,2.25-.66,4.54-1.06,6.79-1.93,10.79-12.55,9.7-18.61,3.24-9.31-9.92-12.82-21.95-16-34.81C629.52,693,627.85,684.4,626,675.87ZM772.63,812.54a49.91,49.91,0,0,0,4.91,4.22c9.32,5.88,18.32,12.42,28.13,17.34C831.51,847,859.33,852.29,888,853.19c20.67.65,41.19-.66,61.22-6.34,8.86-2.51,17.28-6,24.3-12.22,18.06-16,7.2-42.91-10.27-54.11-7.85-5-16.56-7.7-25.67-9.13-23-3.61-45.72-1.41-68.18,3.47C835.63,782.2,804.9,797.66,772.63,812.54Z" transform="translate(-315.63 -310.38)" fill="#ebf5ee"/><path d="M530.88,773c-2.14,1.13-3.78,2-5.41,2.85-10.78,5.74-21.06,18.75-20.47,31.49.65,13.87,11.4,26.15,25,28.85,18.73,3.74,35.82-11.74,37.38-30.06,1.39-16.44-4.35-31.16-17.71-41.18-10.65-8-22.68-13.24-34.79-18.4-20.86-8.9-47.6-15.9-62.24-34.32a66,66,0,0,1-13.34-49.62,59.36,59.36,0,0,1,24.94-40.77c21.85-15.05,56-19.87,81.71-3.22,12.17,7.88,21.65,20.28,23.68,34.88s-3.8,29.94-13.56,40.7c-6.31,7-14.79,12.13-24.32,12.78a30.76,30.76,0,0,1-16.13-3.31,27.53,27.53,0,0,1-6.61-4.71,22,22,0,0,1-2.65-3.13,17.4,17.4,0,0,1-2.14-4.21c-.24-.7-1.59-6.58-.71-6.7,1.71-.24,3.53-.47,5.35-.74,11.55-1.72,22.16-5.66,31-13.58,5.42-4.88,8.88-10.86,9.18-18.37.35-8.74-3.41-14.78-11.73-17.49a36.49,36.49,0,0,0-11.8-1.69,48.41,48.41,0,0,0-34.86,14.89c-11.37,11.59-12.93,25.55-8,40.36,3.76,11.23,10.65,21.83,20.34,29.05,11.53,8.57,26.59,11.94,39.89,16.8,8.59,3.14,17.4,5.79,25.71,9.55,26.85,12.14,41.29,46.13,24.06,71.87-15,22.38-47,34.19-73.18,27.84-24.6-6-39.2-33.78-37.59-51.49,1.42-15.59,13.94-30.54,32.2-28.34C519.77,764.26,525,766.93,530.88,773Z" transform="translate(-315.63 -310.38)" fill="#ebf5ee"/><path d="M1150.48,624.29c.13.32-8.61,8.11-9.28,8.8-4.45,4.55-9,8.8-12.45,14.14a55.05,55.05,0,0,0-4.26,8.12c-.4.92-3.19,7.72-2.53,8.18-8.17-5.65-16.18-13.61-18.38-23.65-2.35-10.7,3.43-21.84,12.08-28a21.93,21.93,0,0,1,28.62,2.74A28.43,28.43,0,0,1,1150.48,624.29Z" transform="translate(-315.63 -310.38)" fill="#ebf5ee"/><path d="M482,507.29c-1.65.85-2.92,1.49-4.18,2.15-8.32,4.34-16.54,14.77-16.6,25.21-.07,11.36,7.37,21.59,17.08,24.25,13.39,3.66,26.36-8.06,28.59-22.91,2-13.33-1.18-25.69-10.46-34.5-7.4-7-16.09-11.8-24.93-16.38-15.24-7.9-35.35-13.89-45.88-29-7.88-11.34-10.87-26.46-8-40.87a52.71,52.71,0,0,1,22.48-33.67c18.65-12.25,46.77-15.11,65.46-.06,8.84,7.13,15,17.91,15.1,30s-5.79,24.21-14.15,32.48c-5.41,5.36-12.28,9.17-19.61,9.31a22.18,22.18,0,0,1-12.14-3.3A20.51,20.51,0,0,1,470,445.9a16.46,16.46,0,0,1-1.84-2.65,14,14,0,0,1-1.37-3.51c-.14-.58-.79-5.45-.09-5.53l4.2-.45c9.09-1.07,17.58-3.88,25.07-9.95,4.62-3.74,7.84-8.45,8.76-14.59,1.08-7.15-1.27-12.32-7.57-14.94a26.6,26.6,0,0,0-9.16-1.93c-10.74-.39-20.56,3.37-28.77,11.13-9.85,9.3-11.94,20.82-9,33.08,2.24,9.3,6.95,18.12,13.94,24.28,8.32,7.32,19.54,10.58,29.23,15.16,6.26,2.95,12.68,5.57,18.6,9.12,19.13,11.47,26.63,40.26,12.55,60.06-12.24,17.22-35.47,25.18-54.14,19.29-17.57-5.54-27.6-28.3-25.78-42.8,1.61-12.77,11.75-24.94,25.32-22.62C474.21,499.77,477.94,502.13,482,507.29Z" transform="translate(-315.63 -310.38)" fill="#ebf5ee"/><path d="M582.33,433.88c.12-1.17.26-2.39.36-3.49.15-1.61,21.81-15,24.65-.39,0,0-5.44,59.12,1.28,63.65C616.5,499,632,480,635.83,456.81c-.26-.6,4.16-2.66,4.51,0,.67,5.14-10.13,63.26-37.4,64.66-8.47.43-15-5.65-18.52-14-6.61,19.6-19,32.72-33.69,27.78-22.81-7.68-22-95.94,8.07-103.73C565.85,429.69,575.62,431.48,582.33,433.88Zm-12.24,8.9c-3.87,3.47-5.7,12.79-6.71,27.87-1.31,19.48-1.22,34.35,5.23,43.58,3.84,4.17,8-9.27,11.61-24.79-1.53-14.36-.32-31.32,1.11-45.78C578.34,441.49,573.32,439.88,570.09,442.78Z" transform="translate(-315.63 -310.38)" fill="#ebf5ee"/><path d="M679.31,345.22c23.27,22.41-15.15,82.45-18.62,93.53-7.75,24.71,4.95,60.15,10.88,60.34,9.25.3,17.86-35.61,23.14-52.6.45-1,4.19-1,5-.15-2.49,19.59-14,52.05-22.32,59.45-8,7.12-26,4.2-31.07-6.3-3.92-8.1-29.54-92.85-4.17-150.82C646.76,338.57,673.2,337.62,679.31,345.22Zm-19.1,78.63c7.16-12,30.8-73.94,13.5-76.89C662.8,351.41,660.84,388.38,660.21,423.85Z" transform="translate(-315.63 -310.38)" fill="#ebf5ee"/><path d="M742.75,339.46c19.28,19-9,54.4-20.18,69,8.87-.72,17-1.48,19.82-1.35,4.38.2,5.08,4.74.5,6.69-1.67.72-11.19,1.78-22.11,2.8-1.26,35.06,2.7,75.65,8.3,76.13,9.18.79,19.18-34.6,25.1-51.29.48-.94,4.22-.81,5,.13-3.24,19.43-16,51.25-24.55,58.18-8.27,6.66-26.74,4.32-30.73-8-2.82-5.14-10.74-36.56-11.79-73.12-2.33.06-4.4,0-5.78-.06-3.58,0-3.09-5.21-1-6.44l6.62-.73c0-23.84,3.23-49.28,13.58-70.53C711.63,329.82,733.88,332.2,742.75,339.46Zm-21.27,60.16c11.25-10.48,34.66-52.35,15.61-58.72C726,344.75,723.58,364.22,721.48,399.62Z" transform="translate(-315.63 -310.38)" fill="#ebf5ee"/><path d="M873.46,414.55c0,11.87-4.43,24.42-5.3,27.24,8.09,7.26,23.19.49,33.25-2.76.84-.6,2.92,1,.83,3-9.32,5.83-28.16,10.82-35.4,6.17-9.82,44.36-41,83-59.09,40.42A103.14,103.14,0,0,1,803.51,467c-6.13,28.72-23.44,50.72-38.93,35.46C751.24,489.3,756,409.09,756,409.09c1.36-6.5,24.63-8,26-.66,0,0-7.65,47.68,1.56,74.95,6,17.69,15.29-23.42,19.3-51.59,0-3.06,0-6.25-.11-9.71,3.51-2.18,22.55-4.85,24,3.08,3.55,18.89-2.34,26.94,4.9,60,5.92,27,27.55-29.43,28.87-41.3C851.11,435.2,840.4,424,846.94,409,851.81,397.74,873.46,397.8,873.46,414.55Zm-19.75,1c-1.73,12.39,3.09,17.24,8.39,23,.71-4.91,5-16.81,4.7-25C866.47,404.84,855.19,404.94,853.71,415.53Z" transform="translate(-315.63 -310.38)" fill="#ebf5ee"/><path d="M954.7,409.92c.39-1.09.81-2.22,1.16-3.24.52-1.5,24.4-7.24,23.7,7.69,0,0-19.18,54.94-13.74,61.57,6.4,7.8,25.57-5.46,34.75-26.49-.11-.65,4.61-1.18,4.32,1.47-.56,5.17-24.77,57.4-51.06,49.87-8.27-2.36-13-10.32-14.42-19.5C928.48,498,913.72,506.62,900.7,497c-20-14.87,1.45-99.38,32-97C939.91,400.5,948.83,405.41,954.7,409.92Zm-13.8,4.54c-4.49,2.05-8.46,10.43-13,24.58-5.81,18.28-9.22,32.6-5.23,43.58,2.7,5.26,9.85-6.28,16.92-20,1.91-14.29,7.06-30.19,11.82-43.61C949.1,415.93,944.65,412.74,940.9,414.46Z" transform="translate(-315.63 -310.38)" fill="#ebf5ee"/><path d="M1067.63,357.54c15,23.75-19.54,50.43-33.3,61.57,8.77,1.73,16.82,3.23,19.57,4.13,4.28,1.41,4,6-.83,6.65-1.77.24-11.26-1.35-22.1-3.36-8.16,33.76-12.45,74.29-7,76.32,8.73,3.23,25.54-28.37,34.61-43,.66-.77,4.27.38,4.89,1.52-7,18-25.7,45.45-35.43,49.82-9.31,4.18-26.9-3.14-28.35-16.21-1.73-5.77-3.23-38.5,3-74.34-2.27-.58-4.25-1.26-5.6-1.65-3.46-1-2-5.91.34-6.53.93.17,3.47.58,6.58,1.11,4.67-23.2,12.87-47,27.14-64.86C1039.2,339.61,1060.41,348.05,1067.63,357.54ZM1035,410.2c13-7.1,44.13-41.38,26.81-52.82C1050.29,358.09,1044.05,376.35,1035,410.2Z" transform="translate(-315.63 -310.38)" fill="#ebf5ee"/><path d="M1176.67,446.41c10.27-.8,19.32-2.73,23.87-5.17,14.34-7.71,27.65,11.88,26.71,12.53,1,4.05-46.22,76.13-36.59,84.8,12.41,11.17,33.16-15.76,46.17-27.19,1.54-1.67,5.54,2,4.9,2.53-10.48,20.51-55,62.15-76,27.78-9.65-22.44,27.55-83.08,30.64-91.62-14.17,2.25-16,3.75-23.53,3.37-20.62,32-96.71,120.35-120,48.4-8.42-45.88,41.09-83.08,73.08-71.23,23.19,8.59,1.53,47.22-43.83,57.54-1.88,8.34-3.14,23.88,8,25.89,24.18-3.12,57.53-39.78,75.08-61.46-36.34-2.71-18.07-55.27,7.53-54C1194.91,399.65,1186.9,424.78,1176.67,446.41Zm-91.35,31.89c17.5-4.5,53.93-32.9,36.09-37.47C1107.6,445.46,1092.55,461.14,1085.32,478.3Zm70.56-39.11c.47,5.76,6.39,6.32,11.84,7.61,4.65-9.79,9.35-21.39,9.61-31.4C1177.64,403.86,1155,428.28,1155.88,439.19Z" transform="translate(-315.63 -310.38)" fill="#ebf5ee"/></svg>