<svg id="Layer_1" data-name="Layer 1" xmlns="http://www.w3.org/2000/svg" viewBox="0 0 881.93 634.71"><path d="M521.65,475S481.5,402.67,470,447.67,521.65,475,521.65,475Z" transform="translate(-359.03 -282.65)" fill="#fff"/><path d="M429.92,588.32S389.76,516,378.29,561,429.92,588.32,429.92,588.32Z" transform="translate(-359.03 -282.65)" fill="#fff"/><path d="M532.32,601.14s-40.15-72.35-51.62-27.34S532.32,601.14,532.32,601.14Z" transform="translate(-359.03 -282.65)" fill="#fff"/><path d="M618.89,508.22s8.69-82.29-26.56-52S618.89,508.22,618.89,508.22Z" transform="translate(-359.03 -282.65)" fill="#fff"/><path d="M719,487.4s5.36-50.78-16.39-32.11S719,487.4,719,487.4Z" transform="translate(-359.03 -282.65)" fill="#fff"/><path d="M908,477.11s-16.47-48.34-28.37-22.25S908,477.11,908,477.11Z" transform="translate(-359.03 -282.65)" fill="#fff"/><path d="M803.51,575.3S787,527,775.14,553.05,803.51,575.3,803.51,575.3Z" transform="translate(-359.03 -282.65)" fill="#fff"/><path d="M911.5,597.69S895,549.36,883.14,575.44,911.5,597.69,911.5,597.69Z" transform="translate(-359.03 -282.65)" fill="#fff"/><path d="M1233.89,475.36s-14.87-60.26-28.24-26.85S1233.89,475.36,1233.89,475.36Z" transform="translate(-359.03 -282.65)" fill="#fff"/><path d="M473.38,482.21q-9.6.27-9.86,10.93a27,27,0,0,0,.8,6.66q5.32,19.47,26.39,38.12,2.93,2.67,9.06,7.73,19.71,16.53,26.92,27.19a57,57,0,0,1,8,17,48.83,48.83,0,0,1,2.14,13.86q0,23.73-18.93,41.32a6.9,6.9,0,0,1-1.6,1.6q-20.79,18.12-52.77,18.39a27.93,27.93,0,0,1-3.2-.27h-2.93q-38.65-2.67-68.77-31.72a135.78,135.78,0,0,1-14.39-16.26Q359,595.5,359,576.3a45.09,45.09,0,0,1,2.14-14.39Q367,544.31,381.69,539a29.89,29.89,0,0,1,10.39-1.86q15.19,0,24.79,15.46,1.86,2.92,4.8,8.53,5.59,10.39,8.8,14.39a15.42,15.42,0,0,0,12,5.33q7.2,0,9.33-5.6a12.06,12.06,0,0,0,.53-3.2q0-2.38-2.13-7.19-5.07-10.12-21.06-24-9.58-8.54-13.32-12.53Q396.61,507,396.35,479q0-28.25,20.52-46.91a59.06,59.06,0,0,1,41.05-15.73q32,0,57.57,28.79a32.1,32.1,0,0,1,2.4,2.67Q532,463.82,532,479q0,16-12.53,23.46a15,15,0,0,1-1.33.8,18.83,18.83,0,0,1-8,1.86q-9.06,0-22.12-13.32l-1.87-1.87Q478.72,482.22,473.38,482.21ZM407.54,575.5a2.42,2.42,0,0,0,2.14-2.4v-1.6q-.81-12.53-8.8-18.92c-.89-.71-1.6-1.25-2.13-1.6a10.13,10.13,0,0,0-4-.8c-3.73.36-5.6,2.22-5.6,5.6a13.49,13.49,0,0,0,1.34,3.73q4,6.93,13.06,14.39A10.86,10.86,0,0,0,407.54,575.5ZM510.16,475a2.81,2.81,0,0,0,2.4-2.4V471q-1.06-12.52-9.06-18.93a8.66,8.66,0,0,0-2.13-1.6,10.13,10.13,0,0,0-4-.8c-3.56.36-5.42,2.23-5.6,5.6A13.64,13.64,0,0,0,493.1,459q4,6.93,13.06,14.39A10.94,10.94,0,0,0,510.16,475ZM519,593.62q-.27-12-7.73-18.12a12.42,12.42,0,0,0-7.73-2.93c-3.38.36-5.16,2.13-5.33,5.33.35,1.24.8,2.58,1.33,4q4,6.39,13.33,14.12c1.77,1.25,3.1,1.87,4,1.87,1.06-.17,1.77-1,2.13-2.4Z" transform="translate(-359.03 -282.65)"/><path d="M1119.42,310.08c1.67-21.93,9.79-24,19.54-23.15s17.44,4.43,15.78,26.36c0,.53-57.23,577.55-58.94,595.69h0c-.45,4.85-2.52,8.56-4.7,8.37s-3.65-4.24-3.37-9.1h0C1088.78,890,1119.38,310.6,1119.42,310.08Z" transform="translate(-359.03 -282.65)"/><path d="M1139,286.93a31.09,31.09,0,0,1,4.45.7c-7.87.27-14.07,4.5-15.65,23.26,0,.53-35.5,579.59-36.71,597.78h0c-.24,3.51.46,6.57,1.68,8.08a2.27,2.27,0,0,1-1.64.6c-2.18-.2-3.65-4.24-3.37-9.1h0c1.06-18.21,31.66-597.65,31.7-598.17C1121.09,288.15,1129.21,286,1139,286.93Z" transform="translate(-359.03 -282.65)"/><path d="M1137.51,311.22c1-12.45,3.81-13.8,7.18-13.49s6,2.16,5,14.6c0,.3-54.79,587-55.68,597.29h0c-.24,2.75-1,4.9-1.77,4.83s-1.21-2.33-1-5.08h0C1091.93,899.05,1137.49,311.52,1137.51,311.22Z" transform="translate(-359.03 -282.65)" fill="#414042"/><path d="M1147.86,305c-1.1-.12-7.14,56.66-13.49,126.81s-10.61,127.12-9.51,127.24,7.14-56.66,13.49-126.81S1149,305.12,1147.86,305Z" transform="translate(-359.03 -282.65)" fill="#bababa"/><path d="M1150.8,755a10.18,10.18,0,0,0-.92-3.45l-164.16-4a10.31,10.31,0,0,0-1.09,3.4l-.06.59v1.65L983.83,834c0,2.64,1.87,5,4.8,6a268.17,268.17,0,0,0,32.91,9.09c8.3,9.89,24.55,16.83,43.39,17.29s35.4-5.67,44.18-15.14a267.3,267.3,0,0,0,33.32-7.46c3-.86,5-3.17,5.09-5.8l3.24-80.78,0-.6,0-1Z" transform="translate(-359.03 -282.65)"/><path d="M1150.83,756c0,.23,0,.45,0,.67s0,.4-.07.6c-2.36,14.58-39.06,25.33-83.7,24.23s-80.76-13.64-82.4-28.31c0-.2,0-.41,0-.61a4.85,4.85,0,0,1,0-.66c0-.13,0-.25,0-.38l.06-.59a10.31,10.31,0,0,1,1.09-3.4c6.67-13,41.24-22.15,82.65-21.13s75.49,11.88,81.51,25.16a10.18,10.18,0,0,1,.92,3.45l0,.6Z" transform="translate(-359.03 -282.65)"/><path d="M1139.62,755.32a8,8,0,0,1-.1,1.11c-2,12.75-33.8,22.17-72.41,21.22s-69.87-11.92-71.28-24.75a6.88,6.88,0,0,1-.05-1.11,8.09,8.09,0,0,1,.06-.85,9.17,9.17,0,0,1,.94-3c5.78-11.35,35.69-19.39,71.51-18.51s65.31,10.38,70.51,22a9,9,0,0,1,.8,3A8.1,8.1,0,0,1,1139.62,755.32Z" transform="translate(-359.03 -282.65)" fill="#fff"/><path d="M1035.84,766.46l-1.16-.34Z" transform="translate(-359.03 -282.65)" fill="#231f20"/><path d="M1110.49,803.51c-1.81,17.91-30.31,16.08-29.19-1.88C1083.11,783.72,1111.6,785.55,1110.49,803.51Z" transform="translate(-359.03 -282.65)" fill="#fff"/><path d="M1097.05,788.31c-20.19-1-22.46,26.92-2.32,28.52C1114.92,817.81,1117.19,789.91,1097.05,788.31Z" transform="translate(-359.03 -282.65)" fill="#b71d1d"/><path d="M1110.49,803.51c-1.81,17.91-30.31,16.08-29.19-1.88C1083.11,783.72,1111.6,785.55,1110.49,803.51Z" transform="translate(-359.03 -282.65)" fill="#fff"/><path d="M1110.49,803.51c-1.81,17.91-30.31,16.08-29.19-1.88C1083.11,783.72,1111.6,785.55,1110.49,803.51Z" transform="translate(-359.03 -282.65)" fill="#fff"/><path d="M1110.49,803.51c-1.91,18.25-30.92,15.82-29.15-2.34-.75,17.29,27.14,19.06,29.18,1.87Z" transform="translate(-359.03 -282.65)" fill="#bcbec0"/><path d="M1103.19,804.21c-2,5.67-12.72,4-12.18-2,.21-5.17,9.39-6.42,11.84-1.78C1099.21,800.2,1099.66,804.88,1103.19,804.21Z" transform="translate(-359.03 -282.65)"/><path d="M1094.41,820.76s5-8.54,18.24-6.06C1112.65,814.7,1101,814.31,1094.41,820.76Z" transform="translate(-359.03 -282.65)" fill="#a51414"/><path d="M1051.37,804.35c.89,18-27.63,19.14-29.22,1.18C1021.27,787.55,1049.78,786.4,1051.37,804.35Z" transform="translate(-359.03 -282.65)" fill="#fff"/><path d="M1035.78,790.66c-20.16,1.13-18.23,29.08,2,28.57C1057.9,818.1,1056,790.15,1035.78,790.66Z" transform="translate(-359.03 -282.65)" fill="#b71d1d"/><path d="M1051.37,804.35c.89,18-27.63,19.14-29.22,1.18C1021.27,787.55,1049.78,786.4,1051.37,804.35Z" transform="translate(-359.03 -282.65)" fill="#fff"/><path d="M1051.37,804.35c.84,18.33-28.28,18.94-29.24.72,1.84,17.24,29.75,16.1,29.2-1.19C1051.35,804,1051.36,804.19,1051.37,804.35Z" transform="translate(-359.03 -282.65)" fill="#bcbec0"/><path d="M1047,807.3c-1.16,5.85-12,5.34-12.36-.67-.57-5.15,8.34-7.35,11.46-3C1042.44,803.74,1043.58,808.33,1047,807.3Z" transform="translate(-359.03 -282.65)"/><path d="M1033.65,821.71s4.36-4.9,12.33-2.14C1046,819.57,1038.69,818.26,1033.65,821.71Z" transform="translate(-359.03 -282.65)" fill="#a51414"/><path d="M1044.61,838.53h0" transform="translate(-359.03 -282.65)" fill="none" stroke="#a51414" stroke-miterlimit="10" stroke-width="1.97"/><path d="M1054.2,843.21c13.89,2.41,31.35.65,39-10.45-13.57,11-35.16,7.81-49.67-.54C1042.39,837.79,1047.73,842.55,1054.2,843.21Z" transform="translate(-359.03 -282.65)" fill="#fff"/><path d="M1076.45,852c-6.64,1.41-14.22,1.93-20.48-.93-4.54-1.53-5.59-7-8.73-6-7.22,4.38,9.33,9.26,13.44,9.47,7.17.87,14.78-.43,20.66-3.94A42.24,42.24,0,0,1,1076.45,852Z" transform="translate(-359.03 -282.65)" fill="#fff"/><path d="M1062.69,852.53a42.62,42.62,0,0,0,14.38-1c2.83-1.79,1.53-5-2-5.28-3.21-.55-6,.56-9.2,2.42-2-1.42-3.69-2.54-6.07-2.82-2.64-.23-6.13.95-6.17,3.34A19,19,0,0,0,1062.69,852.53Z" transform="translate(-359.03 -282.65)" fill="#ce2d29"/><path d="M1090.91,836c-9.83,9.49-29.06,10.7-42.41,6a2.24,2.24,0,0,1-.42,2.48c2.81.18,3.22,3.07,5.17,4.33,1.39-4.86,9.28-3.8,12.63-.63,3.26-1.85,6-2.88,9.24-2.33,3.45.31,5.19,3.3,2.75,5.39,9.6-1.94,13.48-10.9,15.51-18.14A19,19,0,0,1,1090.91,836Z" transform="translate(-359.03 -282.65)" fill="#840707"/><path d="M1056.72,848.72c2.84-1.42,4.19,1.36,2.94,3.25C1057.23,851.32,1052.82,851.06,1056.72,848.72Z" transform="translate(-359.03 -282.65)" fill="#ea7171"/><path d="M1087.69,835.8a63.86,63.86,0,0,0,9.61-7s-3.32,9.89-8.42,15.35c.46-.84,5.11-8.43,4.79-12C1093.67,832.16,1090.15,835.16,1087.69,835.8Z" transform="translate(-359.03 -282.65)" fill="#a51414"/><path d="M1093.7,832c-13.83,11.67-36,8.16-50.69-.78a9.2,9.2,0,0,0,4.79,10.53,2.81,2.81,0,0,1-.31,2.88c-14.58,6,38.52,26.18,46.88-13.13l-.67.5Zm-46.25,8.87a8.58,8.58,0,0,1-3.92-8.61c14.5,8.35,36.1,11.58,49.67.54-5.47,8.06-17.08,11.53-27.79,11.39C1059.38,843.9,1052.55,843.91,1047.45,840.83Zm33,10.29c-7.68,4.17-17.86,4.75-26.4,2-3.18-1.3-8.25-2.66-8.59-6,.53-2.92,4.45-2.49,5.48,0,6.56,8.26,20.92,6.76,30.43,3.52C1081,850.78,1080.73,851,1080.42,851.12ZM1055,846.9c3.44-2.23,7.88-.7,10.83,1.75,3.23-1.86,6-3,9.2-2.42,3.55.29,4.85,3.49,2,5.28-7.62,1.71-17.08,2.34-23.46-2.34A2.84,2.84,0,0,1,1055,846.9Zm34.35-4.13c-2.45,4-6,7.59-11.5,8.54,2.44-2.09.7-5.08-2.75-5.39-3.28-.55-6,.48-9.24,2.33-3.35-3.17-11.24-4.23-12.63.63-2-1.26-2.36-4.15-5.17-4.33a2.24,2.24,0,0,0,.42-2.48c14.69,5.07,36.14,3.26,44.88-8.9A33,33,0,0,1,1089.37,842.77Z" transform="translate(-359.03 -282.65)" fill="#840707"/><path d="M1021.1,745.4,1036,762.22c-10.51-2.84-17.34-6.86-17.89-11.21a5.17,5.17,0,0,1,0-.68,4.36,4.36,0,0,1,.05-.52,5,5,0,0,1,.64-1.83A9,9,0,0,1,1021.1,745.4Z" transform="translate(-359.03 -282.65)" fill="#f15a29"/><path d="M1058.19,765.86a127.43,127.43,0,0,1-21.09-3.35l-13.82-18.57a48,48,0,0,1,13.17-4.59h0Z" transform="translate(-359.03 -282.65)" fill="#f15a29"/><path d="M1055.65,736.92l25.82,29.17c-4.47.28-9.2.37-14.08.25-1.39,0-2.76-.08-4.12-.15l-26.26-27A120.47,120.47,0,0,1,1055.65,736.92Z" transform="translate(-359.03 -282.65)" fill="#f15a29"/><path d="M1099.75,763.59a115.75,115.75,0,0,1-18,2.48h0l-21.82-29.32c2.66-.06,5.4-.07,8.18,0q5.21.13,10.1.56Z" transform="translate(-359.03 -282.65)" fill="#f15a29"/><path d="M1098,740.47l17.66,16.14c-2.25,2.35-6.47,4.41-12.11,6l-24.6-25.26A126.38,126.38,0,0,1,1098,740.47Z" transform="translate(-359.03 -282.65)" fill="#f15a29"/><path d="M1117.43,752.77a3.91,3.91,0,0,1-.06.68,5.81,5.81,0,0,1-1.37,2.72l-13-14.25c7.22,2.33,12.19,5.28,13.81,8.47a5.17,5.17,0,0,1,.56,1.86A4.47,4.47,0,0,1,1117.43,752.77Z" transform="translate(-359.03 -282.65)" fill="#f15a29"/><path d="M720.52,503c0,1.43.08,3.64.26,6.66q.27,4.8.27,7.2,0,5.86-2.13,17.86Q713.58,563.78,708,575.5q-18.13,39.45-56.77,48a72.77,72.77,0,0,1-15.2,1.6q-50.37,0-67.7-52.51a131.71,131.71,0,0,1-4.26-17.06,155.16,155.16,0,0,1-2.14-28q0-43.17,6.94-60.5,5.85-14.4,17-20.53A28.31,28.31,0,0,1,599,443q19.46,0,29.06,20a57.61,57.61,0,0,1,5.06,24q0,10.13-5.06,36.25a142.23,142.23,0,0,0-2.67,24.79q.54,32.25,20.79,44.78a21,21,0,0,0,10.66,2.93,27.39,27.39,0,0,0,15.73-5.87q20.79-17.58,20.79-64.77,0-6.93-.53-20.79-.27-14.11-.27-21.05,0-28.53,8.53-35.19a15.52,15.52,0,0,1,5.06-2.66,15.91,15.91,0,0,1,2.14-.54q12.53,0,13.86,17.86a34,34,0,0,1,.26,4,8.25,8.25,0,0,1-.26,1.87v2.13a37,37,0,0,0,.53,5.33,29.8,29.8,0,0,1,.8,5.6q0,1.33-2.4,14.66A47,47,0,0,0,720.52,503ZM595.78,460.62V463l.26,1.06,1.07,2.14,3.73,4.8,4.53,4.26,5.07,3.46,1.6,1.34.79.26h1.6a3.11,3.11,0,0,0,1.87-2.13v-.53l.27-.53v-.54l-1.6-7.19-4-6.4-5.86-4-2.4-.53-2.14-.27Q596.84,459.29,595.78,460.62Zm106.08.53q0,5.87,4.53,7.2a7.16,7.16,0,0,0,1.6.27c2.67,0,4.44-1.42,5.33-4.27a7.16,7.16,0,0,0,.27-1.6q0-4.8-4.8-6.66a7.72,7.72,0,0,0-1.87-.27A5.62,5.62,0,0,0,701.86,461.15Z" transform="translate(-359.03 -282.65)"/><path d="M861,482.21q-9.6.27-9.86,10.93a27,27,0,0,0,.8,6.66q5.32,19.47,26.38,38.12,2.94,2.67,9.07,7.73,19.71,16.53,26.92,27.19a57.25,57.25,0,0,1,8,17,48.83,48.83,0,0,1,2.14,13.86q0,23.73-18.93,41.32a6.9,6.9,0,0,1-1.6,1.6q-20.79,18.12-52.77,18.39a27.76,27.76,0,0,1-3.2-.27h-2.93q-38.65-2.67-68.77-31.72a135.78,135.78,0,0,1-14.39-16.26q-15.2-21.31-15.2-40.51a45.38,45.38,0,0,1,2.13-14.39q5.86-17.6,20.53-22.93a29.89,29.89,0,0,1,10.39-1.86q15.19,0,24.79,15.46,1.86,2.92,4.8,8.53,5.59,10.39,8.8,14.39a15.42,15.42,0,0,0,12,5.33c4.8,0,7.9-1.86,9.33-5.6A12.06,12.06,0,0,0,840,572q0-2.38-2.13-7.19-5.07-10.12-21.06-24-9.59-8.54-13.32-12.53Q784.27,507,784,479q0-28.25,20.52-46.91a59.06,59.06,0,0,1,41.05-15.73q32,0,57.57,28.79a32.1,32.1,0,0,1,2.4,2.67q14.13,16,14.13,31.18,0,16-12.53,23.46a15,15,0,0,1-1.33.8,18.83,18.83,0,0,1-8,1.86q-9.06,0-22.12-13.32l-1.87-1.87Q866.38,482.22,861,482.21ZM795.2,575.5a2.42,2.42,0,0,0,2.14-2.4v-1.6q-.81-12.53-8.8-18.92c-.89-.71-1.6-1.25-2.13-1.6a10.13,10.13,0,0,0-4-.8c-3.73.36-5.6,2.22-5.6,5.6a13.76,13.76,0,0,0,1.33,3.73q4,6.93,13.07,14.39A10.86,10.86,0,0,0,795.2,575.5ZM897.82,475a2.81,2.81,0,0,0,2.4-2.4V471q-1.07-12.52-9.06-18.93a8.66,8.66,0,0,0-2.13-1.6,10.13,10.13,0,0,0-4-.8c-3.56.36-5.42,2.23-5.6,5.6a13.64,13.64,0,0,0,1.33,3.73q4,6.93,13.06,14.39A10.94,10.94,0,0,0,897.82,475Zm8.8,118.61q-.27-12-7.73-18.12a12.42,12.42,0,0,0-7.73-2.93c-3.38.36-5.16,2.13-5.33,5.33.35,1.24.8,2.58,1.33,4q4,6.39,13.33,14.12c1.77,1.25,3.1,1.87,4,1.87,1.06-.17,1.77-1,2.13-2.4Z" transform="translate(-359.03 -282.65)"/><path d="M1231.91,559.51q-3.48,30.12-6.94,42.38-4.26,12-15.19,12.26-14.38,0-20-20-.54-2.4-1.33-5.6-2.4-11.19-7.73-33-5.34-22.12-7.73-33-6.13-29.33-6.13-46.91.26-32.79,22.66-43.72a33.94,33.94,0,0,1,14.39-3.19q15.45.25,26.38,13.05Q1241,454,1241,473.68a212.06,212.06,0,0,1-1.6,22.39Q1236.7,517.66,1231.91,559.51Zm-4-86.36v-3.47a39.7,39.7,0,0,0-6.4-21.32q-4.26-4.8-8.26-5.06-4,.26-4.27,2.39V447q.27,2.4,4.8,6.39a16.44,16.44,0,0,1,1.6,1.34q2.4,2.67,4.8,13.32c.17,1.07.35,2,.53,2.67A8.25,8.25,0,0,0,1225,475h1.34A2,2,0,0,0,1227.91,473.15Z" transform="translate(-359.03 -282.65)"/><path d="M951.1,309.34c-2.13-21.94,5.58-25.55,15.44-26.51s18.11,1.09,20.24,23c.05.53,42.83,580.32,44.28,598.53h0c.39,4.87-1,8.92-3.23,9.14s-4.36-3.49-4.92-8.34h0C1020.8,887,951.15,309.87,951.1,309.34Z" transform="translate(-359.03 -282.65)"/><path d="M966.54,282.83a31.71,31.71,0,0,1,4.54-.14c-7.78,1.75-13.22,7.09-11.55,25.89.05.52,64.81,578.23,66.74,596.4h0c.37,3.5,1.6,6.39,3.07,7.65a2.35,2.35,0,0,1-1.53.9c-2.2.21-4.36-3.49-4.92-8.34h0C1020.8,887,951.15,309.87,951.1,309.34,949,287.4,956.68,283.79,966.54,282.83Z" transform="translate(-359.03 -282.65)"/><path d="M969.29,307.06c-1.21-12.45,1.4-14.33,4.81-14.66s6.33,1,7.54,13.45c0,.3,46.9,589.18,47.79,599.5h0c.24,2.76-.17,5-.93,5.1s-1.59-2.07-1.89-4.82h0C1025.49,895.32,969.32,307.35,969.29,307.06Z" transform="translate(-359.03 -282.65)" fill="#414042"/><path d="M978.51,299c-1.12.1,2.68,57.23,8.48,127.6s11.41,127.36,12.52,127.27-2.68-57.22-8.48-127.6S979.62,298.88,978.51,299Z" transform="translate(-359.03 -282.65)" fill="#bababa"/><path d="M1169,569.27a6.54,6.54,0,0,1-1.8,3.08c-2.2,2.12-5.86,2.74-9.51,1.32-88.76-34.63-138.43-35.92-229-4.88-2.61.9-3.91,1.36-6.52,2.31-2.07.78-4.09,0-4.57-1.83a3.66,3.66,0,0,1,.48-2.75,5.12,5.12,0,0,1,2.41-2c93.18-38.14,145.72-39.85,241-6.82C1166.81,559.49,1170.14,564.81,1169,569.27Z" transform="translate(-359.03 -282.65)"/><path d="M1167.17,572.35c-2.2,2.13-5.86,2.74-9.51,1.32-88.76-34.63-138.43-35.92-229-4.88,89.66-34.69,139.82-35.85,231.17-4.22A11.3,11.3,0,0,1,1167.17,572.35Z" transform="translate(-359.03 -282.65)" fill="#231f20"/><path d="M1155.5,569c.13-.27-18.31-8.44-41.76-14.74s-42.85-8.32-42.93-8,19.16,2.79,42.56,9.06S1155.37,569.24,1155.5,569Z" transform="translate(-359.03 -282.65)" fill="#bababa"/></svg>