<svg id="Layer_1" data-name="Layer 1" xmlns="http://www.w3.org/2000/svg" viewBox="0 0 720.76 720.76"><circle cx="360.38" cy="360.38" r="360.38" fill="#0e1900"/><path d="M895.53,449.56,866,463.76h0c-1-.18-1.92-.38-2.86-.61a42.1,42.1,0,0,1-20-11.36c.4-.55.75-1.11,1.09-1.68A24.88,24.88,0,0,0,847,432.06a5.84,5.84,0,0,0-8-4.07,5.89,5.89,0,0,0-3.38,6.68,13.2,13.2,0,0,1-12.1,16,5.84,5.84,0,0,0-4.12,9.7,5.82,5.82,0,0,0,4.34,2h.29a25.75,25.75,0,0,0,2.63-.27A24.32,24.32,0,0,0,831,461a57.31,57.31,0,0,0,29.44,17.1l-19.26,9.24a59,59,0,0,1-10.81-6.49L667.69,559a133.13,133.13,0,0,1,3.76-48.32c.49-.19,1-.36,1.48-.53a36.23,36.23,0,0,1,11.32-1.8,35.47,35.47,0,0,1,16.63,4.1,23.45,23.45,0,0,0,0,13.95,5.73,5.73,0,0,0,5.45,4,5.85,5.85,0,0,0,2.75-.7l.25-.14a5.73,5.73,0,0,0,2.65-6.78,11.63,11.63,0,0,1,.54-8.33,11.45,11.45,0,0,1,6.52-6,11.68,11.68,0,0,1,6.71-.41,5.36,5.36,0,0,0,1.37.17A5.57,5.57,0,0,0,732.3,505l.2-.43a5.62,5.62,0,0,0,0-4.76,5.69,5.69,0,0,0-3.71-3,23.33,23.33,0,0,0-13.7.75,22.58,22.58,0,0,0-5.11,2.66,50.49,50.49,0,0,0-25.65-6.94,52,52,0,0,0-8.46.7,51.14,51.14,0,0,0-7,1.67c-1.33.42-2.67.9-4,1.43a143.89,143.89,0,0,1,7.92-18.1,52.37,52.37,0,0,1,12.13-.66,133.94,133.94,0,0,1,85.25-63.74c1.62,12.2-.56,25.16-6.43,38.52a29.34,29.34,0,0,0-9.4-1.53A29.67,29.67,0,0,0,741,454.66a5.83,5.83,0,0,0,2.58,11,5.94,5.94,0,0,0,2.68-.64,18.25,18.25,0,0,1,8.08-1.91,18,18,0,0,1,18,18.48,5.82,5.82,0,0,0,4.83,5.93,5.66,5.66,0,0,0,1,.09,5.82,5.82,0,0,0,5.83-5.73,29.14,29.14,0,0,0-7.46-20.46c7.87-16.9,10.73-33.6,8.49-49.66a78.46,78.46,0,0,0-2.15-10.27,139.19,139.19,0,0,1,15.24-1.18,47.54,47.54,0,0,1,2.18,10.48A133.89,133.89,0,0,1,895.53,449.56Z" transform="translate(-439.62 -239.62)" fill="#fff"/><path d="M922,486.83l-50.53,26.86L667.74,559l198.41-69.12L907,462.74A134.54,134.54,0,0,1,922,486.83Z" transform="translate(-439.62 -239.62)" fill="#ceff00"/><path d="M934.59,532.13l-62.23,22L667.85,559h-.11l.11,0,204.76-30.41L928.8,504A133.71,133.71,0,0,1,934.59,532.13Z" transform="translate(-439.62 -239.62)" fill="#ceff00"/><path d="M808.25,379.71H793.89V349.22h14.36Zm-11.48-2.88h8.61V352.09h-8.61Z" transform="translate(-439.62 -239.62)" fill="#ceff00"/><path d="M654.29,468.59l-26.4-15.24,7.18-12.44,26.41,15.24ZM631.82,452.3l21.42,12.36,4.3-7.45-21.41-12.37Z" transform="translate(-439.62 -239.62)" fill="#ceff00"/><path d="M967.07,440.91l-26.41,15.24,7.18,12.45,26.41-15.25Zm-22.47,16.3L966,444.84l4.31,7.46L948.9,464.66Z" transform="translate(-439.62 -239.62)" fill="#ceff00"/><polygon points="530.7 212.68 509.28 225.04 504.98 217.59 526.39 205.22 530.7 212.68" fill="#ceff00"/><rect x="361.45" y="110.84" width="5.26" height="28.13" fill="#ceff00"/><path d="M922.6,559v.65h-3.46v8.66h-.71v-8.66H915V559Z" transform="translate(-439.62 -239.62)" fill="#ceff00"/><path d="M934.58,559v9.31h-.72V560L930,566.75h-.85L925.23,560v8.36h-.7V559h1l4,7,4.06-7Z" transform="translate(-439.62 -239.62)" fill="#ceff00"/><path d="M577.18,621.12V627h-31v77.54h-6.43V627h-31v-5.83Z" transform="translate(-439.62 -239.62)" fill="#ceff00"/><path d="M633,671.5v33h-4.77l-1.07-7.74c-5.24,6.07-14.89,9.53-24.77,9.53-19.18,0-29.3-6.55-29.3-19.18,0-12.38,10.12-19.05,29.3-19.05,8,0,18.81,2.14,24.65,8.21v-6.07c0-15.48-6.91-21-21.8-21-16.91,0-23.94,3.69-25.72,13.57h-4.77c2-13.93,11.2-19.65,31.21-19.65C623.93,643.15,633,651,633,671.5Zm-5.72,14.89c0-8.7-8.22-12.39-23.82-12.39s-24.06,4.53-24.06,13.22c0,8.46,8.46,13,24.06,13S627.27,694.84,627.27,686.39Z" transform="translate(-439.62 -239.62)" fill="#ceff00"/><path d="M651.2,704.49V615.16h6.08v89.33Z" transform="translate(-439.62 -239.62)" fill="#ceff00"/><polygon points="285.78 464.88 277.8 464.88 252.17 432.57 251.24 431.41 256.25 427.47 257.69 429.31 285.78 464.88" fill="#ceff00"/><path d="M786,687.34c0,12.27-11.07,18.94-26.32,18.94s-26-6.67-27.39-19.65H737c1.31,8.57,11,13.45,22.87,13.45,11.07,0,19.77-4.28,19.77-12.74,0-8.93-9.77-9.29-21.08-11.31-11-2-24.18-3.1-24.18-16,0-11.19,9.89-16.91,24.3-16.91,14.89,0,23.22,6.08,24.89,19.65h-4.76c-1.67-9.52-8.46-13.57-20.85-13.57-10.6,0-17.27,3-17.27,9.76,0,9.06,12,9.06,22,11C770.73,671.5,786,672.93,786,687.34Z" transform="translate(-439.62 -239.62)" fill="#ceff00"/><path d="M867,674.72c0,20.48-11.2,31.56-32.4,31.56-13.1,0-22-3.57-26.91-11.2v39.19h-6V644.94h6v10.72c4.88-8.46,13.81-12.51,26.91-12.51C855.78,643.15,867,654.23,867,674.72Zm-6.31,0c0-16.56-9.29-25.49-27.16-25.49s-26.44,8.57-26.44,27.27c0,16.56,8.69,23.7,26.44,23.7S860.67,691.27,860.67,674.72Z" transform="translate(-439.62 -239.62)" fill="#ceff00"/><path d="M939.84,671.5v33h-4.76L934,696.75c-5.24,6.07-14.88,9.53-24.77,9.53-19.18,0-29.3-6.55-29.3-19.18,0-12.38,10.12-19.05,29.3-19.05,8,0,18.82,2.14,24.65,8.21v-6.07c0-15.48-6.9-21-21.79-21-16.92,0-23.94,3.69-25.73,13.57H881.6c2-13.93,11.19-19.65,31.2-19.65C930.79,643.15,939.84,651,939.84,671.5Zm-5.72,14.89c0-8.7-8.22-12.39-23.82-12.39s-24.06,4.53-24.06,13.22c0,8.46,8.46,13,24.06,13S934.12,694.84,934.12,686.39Z" transform="translate(-439.62 -239.62)" fill="#ceff00"/><path d="M1016.43,686.63c-1.79,16.31-18.46,19.65-30,19.65-21.09,0-31.09-11.08-31.09-31.56s11.19-31.57,32.16-31.57c16.55,0,26,6.08,27.63,19.65h-4.76c-1.67-9.52-9.53-13.57-23.71-13.57-16,0-25,8.93-25,25.37s8.46,25.48,26.32,25.48c7.15,0,21.8-1.42,23.71-13.45Z" transform="translate(-439.62 -239.62)" fill="#ceff00"/><path d="M1085.94,686.63h4.77c-1.79,16.31-18.7,19.65-30.37,19.65-21.32,0-31.57-11.08-31.57-31.56s11.2-31.57,31.68-31.57c21.21,0,30.38,11.79,30.73,33.35h-56.09c.71,15.37,9.4,23.58,26.79,23.58C1069.15,700.08,1084,698.66,1085.94,686.63Zm-50.74-15.49H1085c-.71-13.81-9.77-21.91-25.13-21.91C1045,649.23,1036.4,657,1035.2,671.14Z" transform="translate(-439.62 -239.62)" fill="#ceff00"/><polygon points="284.59 405.32 271.57 421.1 242.08 439.71 242.08 464.88 236.11 464.88 236.11 375.55 242.08 375.55 242.08 437.64 268.93 416.62 275.55 405.32 284.59 405.32" fill="#ceff00"/></svg>